<?xml version="1.0" encoding="utf-8" standalone="no"?>
<!DOCTYPE svg PUBLIC "-//W3C//DTD SVG 1.1//EN"
  "http://www.w3.org/Graphics/SVG/1.1/DTD/svg11.dtd">
<svg xmlns:xlink="http://www.w3.org/1999/xlink" width="2160pt" height="2160pt" viewBox="0 0 2160 2160" xmlns="http://www.w3.org/2000/svg" version="1.1">
 <metadata>
  <rdf:RDF xmlns:dc="http://purl.org/dc/elements/1.1/" xmlns:cc="http://creativecommons.org/ns#" xmlns:rdf="http://www.w3.org/1999/02/22-rdf-syntax-ns#">
   <cc:Work>
    <dc:type rdf:resource="http://purl.org/dc/dcmitype/StillImage"/>
    <dc:date>2026-01-15T10:57:03.491935</dc:date>
    <dc:format>image/svg+xml</dc:format>
    <dc:creator>
     <cc:Agent>
      <dc:title>Matplotlib v3.10.8, https://matplotlib.org/</dc:title>
     </cc:Agent>
    </dc:creator>
   </cc:Work>
  </rdf:RDF>
 </metadata>
 <defs>
  <style type="text/css">*{stroke-linejoin: round; stroke-linecap: butt}</style>
 </defs>
 <g id="figure_1">
  <g id="patch_1">
   <path d="M 0 2160 
L 2160 2160 
L 2160 0 
L 0 0 
z
" style="fill: #ffffff"/>
  </g>
  <g id="axes_1">
   <g id="patch_2">
    <path d="M 270 1922.4 
L 1944 1922.4 
L 1944 259.2 
L 270 259.2 
z
" style="fill: #ffffff"/>
   </g>
   <g id="VertexCollection_1">
    <path d="M 631.181437 1133.184585 
L 667.384757 1133.184585 
L 667.384757 1111.404898 
L 631.181437 1111.404898 
z
" clip-path="url(#pfd5bb22936)" style="fill: #d62728; stroke: #000000; stroke-width: 1.5"/>
    <path d="M 527.257404 1013.047559 
L 562.577131 1013.047559 
L 562.577131 991.267872 
L 527.257404 991.267872 
z
" clip-path="url(#pfd5bb22936)" style="fill: #d62728; stroke: #000000; stroke-width: 1.5"/>
    <path d="M 1109.463243 574.092242 
L 1145.325353 574.092242 
L 1145.325353 552.312555 
L 1109.463243 552.312555 
z
" clip-path="url(#pfd5bb22936)" style="fill: #d62728; stroke: #000000; stroke-width: 1.5"/>
    <path d="M 1411.643087 475.623624 
L 1447.802657 475.623624 
L 1447.802657 453.843937 
L 1411.643087 453.843937 
z
" clip-path="url(#pfd5bb22936)" style="fill: #d62728; stroke: #000000; stroke-width: 1.5"/>
    <path d="M 1709.369618 1526.343124 
L 1744.147353 1526.343124 
L 1744.147353 1504.563437 
L 1709.369618 1504.563437 
z
" clip-path="url(#pfd5bb22936)" style="fill: #d62728; stroke: #000000; stroke-width: 1.5"/>
    <path d="M 1393.572592 1673.857237 
L 1427.78392 1673.857237 
L 1427.78392 1652.07755 
L 1393.572592 1652.07755 
z
" clip-path="url(#pfd5bb22936)" style="fill: #d62728; stroke: #000000; stroke-width: 1.5"/>
    <path d="M 605.827936 1078.003157 
L 642.456647 1078.003157 
L 642.456647 1056.22347 
L 605.827936 1056.22347 
z
" clip-path="url(#pfd5bb22936)" style="fill: #d62728; stroke: #000000; stroke-width: 1.5"/>
    <path d="M 1346.953734 1428.21167 
L 1382.893578 1428.21167 
L 1382.893578 1406.431983 
L 1346.953734 1406.431983 
z
" clip-path="url(#pfd5bb22936)" style="fill: #d62728; stroke: #000000; stroke-width: 1.5"/>
    <path d="M 622.657549 514.583008 
L 658.065167 514.583008 
L 658.065167 492.803321 
L 622.657549 492.803321 
z
" clip-path="url(#pfd5bb22936)" style="fill: #d62728; stroke: #000000; stroke-width: 1.5"/>
    <path d="M 1214.541377 1644.833566 
L 1250.432588 1644.833566 
L 1250.432588 1623.053879 
L 1214.541377 1623.053879 
z
" clip-path="url(#pfd5bb22936)" style="fill: #d62728; stroke: #000000; stroke-width: 1.5"/>
    <path d="M 1226.063402 725.227605 
L 1262.266722 725.227605 
L 1262.266722 703.447918 
L 1226.063402 703.447918 
z
" clip-path="url(#pfd5bb22936)" style="fill: #d62728; stroke: #000000; stroke-width: 1.5"/>
    <path d="M 977.211047 1286.953607 
L 1016.206555 1286.953607 
L 1016.206555 1265.173919 
L 977.211047 1265.173919 
z
" clip-path="url(#pfd5bb22936)" style="fill: #d62728; stroke: #000000; stroke-width: 1.5"/>
    <path d="M 1298.932997 762.08435 
L 1334.925771 762.08435 
L 1334.925771 740.304662 
L 1298.932997 740.304662 
z
" clip-path="url(#pfd5bb22936)" style="fill: #d62728; stroke: #000000; stroke-width: 1.5"/>
    <path d="M 795.129074 846.373094 
L 831.107981 846.373094 
L 831.107981 824.593407 
L 795.129074 824.593407 
z
" clip-path="url(#pfd5bb22936)" style="fill: #d62728; stroke: #000000; stroke-width: 1.5"/>
    <path d="M 916.668365 591.625506 
L 948.076959 591.625506 
L 948.076959 569.845819 
L 916.668365 569.845819 
z
" clip-path="url(#pfd5bb22936)" style="fill: #d62728; stroke: #000000; stroke-width: 1.5"/>
    <path d="M 1354.631556 591.889906 
L 1387.538587 591.889906 
L 1387.538587 570.110219 
L 1354.631556 570.110219 
z
" clip-path="url(#pfd5bb22936)" style="fill: #d62728; stroke: #000000; stroke-width: 1.5"/>
    <path d="M 876.84466 635.461165 
L 911.334309 635.461165 
L 911.334309 613.681477 
L 876.84466 613.681477 
z
" clip-path="url(#pfd5bb22936)" style="fill: #d62728; stroke: #000000; stroke-width: 1.5"/>
    <path d="M 1176.396847 710.771772 
L 1213.147628 710.771772 
L 1213.147628 688.992085 
L 1176.396847 688.992085 
z
" clip-path="url(#pfd5bb22936)" style="fill: #d62728; stroke: #000000; stroke-width: 1.5"/>
    <path d="M 1534.995302 1584.370446 
L 1572.082607 1584.370446 
L 1572.082607 1562.590758 
L 1534.995302 1562.590758 
z
" clip-path="url(#pfd5bb22936)" style="fill: #d62728; stroke: #000000; stroke-width: 1.5"/>
    <path d="M 1296.075456 1050.989445 
L 1331.654167 1050.989445 
L 1331.654167 1029.209757 
L 1296.075456 1029.209757 
z
" clip-path="url(#pfd5bb22936)" style="fill: #d62728; stroke: #000000; stroke-width: 1.5"/>
    <path d="M 658.566652 921.397277 
L 693.583644 921.397277 
L 693.583644 899.61759 
L 658.566652 899.61759 
z
" clip-path="url(#pfd5bb22936)" style="fill: #d62728; stroke: #000000; stroke-width: 1.5"/>
    <path d="M 793.83185 1161.630988 
L 827.862514 1161.630988 
L 827.862514 1139.851301 
L 793.83185 1139.851301 
z
" clip-path="url(#pfd5bb22936)" style="fill: #d62728; stroke: #000000; stroke-width: 1.5"/>
    <path d="M 636.313639 686.074527 
L 673.06442 686.074527 
L 673.06442 664.294839 
L 636.313639 664.294839 
z
" clip-path="url(#pfd5bb22936)" style="fill: #d62728; stroke: #000000; stroke-width: 1.5"/>
    <path d="M 1144.946914 792.463288 
L 1180.07582 792.463288 
L 1180.07582 770.6836 
L 1144.946914 770.6836 
z
" clip-path="url(#pfd5bb22936)" style="fill: #d62728; stroke: #000000; stroke-width: 1.5"/>
    <path d="M 592.01968 1232.637855 
L 654.560305 1232.637855 
L 654.560305 1210.681605 
L 592.01968 1210.681605 
z
" clip-path="url(#pfd5bb22936)" style="fill: #1f77b4; stroke: #000000; stroke-width: 1.5"/>
    <path d="M 414.511405 1028.377133 
L 476.168437 1028.377133 
L 476.168437 1006.420883 
L 414.511405 1006.420883 
z
" clip-path="url(#pfd5bb22936)" style="fill: #1f77b4; stroke: #000000; stroke-width: 1.5"/>
    <path d="M 1103.094861 470.573097 
L 1165.294275 470.573097 
L 1165.294275 448.616847 
L 1103.094861 448.616847 
z
" clip-path="url(#pfd5bb22936)" style="fill: #1f77b4; stroke: #000000; stroke-width: 1.5"/>
    <path d="M 1493.990691 444.386821 
L 1556.487566 444.386821 
L 1556.487566 422.430571 
L 1493.990691 422.430571 
z
" clip-path="url(#pfd5bb22936)" style="fill: #1f77b4; stroke: #000000; stroke-width: 1.5"/>
    <path d="M 1738.10256 1465.590005 
L 1799.217599 1465.590005 
L 1799.217599 1443.633755 
L 1738.10256 1443.633755 
z
" clip-path="url(#pfd5bb22936)" style="fill: #1f77b4; stroke: #000000; stroke-width: 1.5"/>
    <path d="M 1347.507672 1759.169429 
L 1408.056305 1759.169429 
L 1408.056305 1737.213179 
L 1347.507672 1737.213179 
z
" clip-path="url(#pfd5bb22936)" style="fill: #1f77b4; stroke: #000000; stroke-width: 1.5"/>
    <path d="M 509.416362 1138.219095 
L 572.382378 1138.219095 
L 572.382378 1116.262845 
L 509.416362 1116.262845 
z
" clip-path="url(#pfd5bb22936)" style="fill: #1f77b4; stroke: #000000; stroke-width: 1.5"/>
    <path d="M 1410.318758 1448.82888 
L 1457.514852 1448.82888 
L 1457.514852 1427.180443 
L 1410.318758 1427.180443 
z
" clip-path="url(#pfd5bb22936)" style="fill: #1f77b4; stroke: #000000; stroke-width: 1.5"/>
    <path d="M 545.410034 451.164977 
L 592.073902 451.164977 
L 592.073902 429.51654 
L 545.410034 429.51654 
z
" clip-path="url(#pfd5bb22936)" style="fill: #1f77b4; stroke: #000000; stroke-width: 1.5"/>
    <path d="M 1173.8803 1730.876081 
L 1221.027761 1730.876081 
L 1221.027761 1709.227643 
L 1173.8803 1709.227643 
z
" clip-path="url(#pfd5bb22936)" style="fill: #1f77b4; stroke: #000000; stroke-width: 1.5"/>
    <path d="M 1194.649374 615.42301 
L 1242.108945 615.42301 
L 1242.108945 593.774573 
L 1194.649374 593.774573 
z
" clip-path="url(#pfd5bb22936)" style="fill: #1f77b4; stroke: #000000; stroke-width: 1.5"/>
    <path d="M 1051.572213 1308.571921 
L 1101.823971 1308.571921 
L 1101.823971 1286.923484 
L 1051.572213 1286.923484 
z
" clip-path="url(#pfd5bb22936)" style="fill: #1f77b4; stroke: #000000; stroke-width: 1.5"/>
    <path d="M 1325.043085 665.951756 
L 1372.292108 665.951756 
L 1372.292108 644.303318 
L 1325.043085 644.303318 
z
" clip-path="url(#pfd5bb22936)" style="fill: #1f77b4; stroke: #000000; stroke-width: 1.5"/>
    <path d="M 639.769162 997.841975 
L 716.723849 997.841975 
L 716.723849 976.062287 
L 639.769162 976.062287 
z
" clip-path="url(#pfd5bb22936)" style="fill: #1f77b4; stroke: #000000; stroke-width: 1.5"/>
    <path d="M 930.926299 690.827406 
L 991.362432 690.827406 
L 991.362432 669.047719 
L 930.926299 669.047719 
z
" clip-path="url(#pfd5bb22936)" style="fill: #1f77b4; stroke: #000000; stroke-width: 1.5"/>
    <path d="M 1271.388685 531.035848 
L 1332.005482 531.035848 
L 1332.005482 509.256161 
L 1271.388685 509.256161 
z
" clip-path="url(#pfd5bb22936)" style="fill: #1f77b4; stroke: #000000; stroke-width: 1.5"/>
    <path d="M 859.423756 551.224558 
L 907.029029 551.224558 
L 907.029029 529.57612 
L 859.423756 529.57612 
z
" clip-path="url(#pfd5bb22936)" style="fill: #1f77b4; stroke: #000000; stroke-width: 1.5"/>
    <path d="M 1291.21669 678.335689 
L 1340.442276 678.335689 
L 1340.442276 656.556001 
L 1291.21669 656.556001 
z
" clip-path="url(#pfd5bb22936)" style="fill: #1f77b4; stroke: #000000; stroke-width: 1.5"/>
    <path d="M 1623.512487 1569.228461 
L 1676.449402 1569.228461 
L 1676.449402 1547.580023 
L 1623.512487 1547.580023 
z
" clip-path="url(#pfd5bb22936)" style="fill: #1f77b4; stroke: #000000; stroke-width: 1.5"/>
    <path d="M 1407.590271 1559.699003 
L 1472.435584 1559.699003 
L 1472.435584 1538.050565 
L 1407.590271 1538.050565 
z
" clip-path="url(#pfd5bb22936)" style="fill: #1f77b4; stroke: #000000; stroke-width: 1.5"/>
    <path d="M 1316.64952 1239.406245 
L 1369.234481 1239.406245 
L 1369.234481 1217.757808 
L 1316.64952 1217.757808 
z
" clip-path="url(#pfd5bb22936)" style="fill: #1f77b4; stroke: #000000; stroke-width: 1.5"/>
    <path d="M 1264.006972 1540.06559 
L 1316.904433 1540.06559 
L 1316.904433 1518.417153 
L 1264.006972 1518.417153 
z
" clip-path="url(#pfd5bb22936)" style="fill: #1f77b4; stroke: #000000; stroke-width: 1.5"/>
    <path d="M 706.665324 872.138929 
L 759.919035 872.138929 
L 759.919035 850.490492 
L 706.665324 850.490492 
z
" clip-path="url(#pfd5bb22936)" style="fill: #1f77b4; stroke: #000000; stroke-width: 1.5"/>
    <path d="M 684.03596 1060.287493 
L 747.826781 1060.287493 
L 747.826781 1038.507805 
L 684.03596 1038.507805 
z
" clip-path="url(#pfd5bb22936)" style="fill: #1f77b4; stroke: #000000; stroke-width: 1.5"/>
    <path d="M 607.540099 799.062262 
L 660.374083 799.062262 
L 660.374083 777.282575 
L 607.540099 777.282575 
z
" clip-path="url(#pfd5bb22936)" style="fill: #1f77b4; stroke: #000000; stroke-width: 1.5"/>
    <path d="M 878.739437 1237.271805 
L 932.838656 1237.271805 
L 932.838656 1215.623368 
L 878.739437 1215.623368 
z
" clip-path="url(#pfd5bb22936)" style="fill: #1f77b4; stroke: #000000; stroke-width: 1.5"/>
    <path d="M 703.08881 604.165728 
L 767.618107 604.165728 
L 767.618107 582.38604 
L 703.08881 582.38604 
z
" clip-path="url(#pfd5bb22936)" style="fill: #1f77b4; stroke: #000000; stroke-width: 1.5"/>
    <path d="M 1030.179022 702.735194 
L 1093.838006 702.735194 
L 1093.838006 680.955507 
L 1030.179022 680.955507 
z
" clip-path="url(#pfd5bb22936)" style="fill: #1f77b4; stroke: #000000; stroke-width: 1.5"/>
    <path d="M 1231.025324 861.382146 
L 1305.826691 861.382146 
L 1305.826691 839.602458 
L 1231.025324 839.602458 
z
" clip-path="url(#pfd5bb22936)" style="fill: #1f77b4; stroke: #000000; stroke-width: 1.5"/>
   </g>
   <g id="text_1">
    <g clip-path="url(#pfd5bb22936)">
     <!-- A_C -->
     <g transform="translate(639.871378 1124.826773) scale(0.1 -0.1)">
      <defs>
       <path id="DejaVuSans-41" d="M 2188 4044 
L 1331 1722 
L 3047 1722 
L 2188 4044 
z
M 1831 4666 
L 2547 4666 
L 4325 0 
L 3669 0 
L 3244 1197 
L 1141 1197 
L 716 0 
L 50 0 
L 1831 4666 
z
" transform="scale(0.015625)"/>
       <path id="DejaVuSans-5f" d="M 3263 -1063 
L 3263 -1509 
L -63 -1509 
L -63 -1063 
L 3263 -1063 
z
" transform="scale(0.015625)"/>
       <path id="DejaVuSans-43" d="M 4122 4306 
L 4122 3641 
Q 3803 3938 3442 4084 
Q 3081 4231 2675 4231 
Q 1875 4231 1450 3742 
Q 1025 3253 1025 2328 
Q 1025 1406 1450 917 
Q 1875 428 2675 428 
Q 3081 428 3442 575 
Q 3803 722 4122 1019 
L 4122 359 
Q 3791 134 3420 21 
Q 3050 -91 2638 -91 
Q 1578 -91 968 557 
Q 359 1206 359 2328 
Q 359 3453 968 4101 
Q 1578 4750 2638 4750 
Q 3056 4750 3426 4639 
Q 3797 4528 4122 4306 
z
" transform="scale(0.015625)"/>
      </defs>
      <use xlink:href="#DejaVuSans-41"/>
      <use xlink:href="#DejaVuSans-5f" transform="translate(68.408203 0)"/>
      <use xlink:href="#DejaVuSans-43" transform="translate(118.408203 0)"/>
     </g>
    </g>
   </g>
   <g id="text_2">
    <g clip-path="url(#pfd5bb22936)">
     <!-- B_C -->
     <g transform="translate(535.495392 1004.689747) scale(0.1 -0.1)">
      <defs>
       <path id="DejaVuSans-42" d="M 1259 2228 
L 1259 519 
L 2272 519 
Q 2781 519 3026 730 
Q 3272 941 3272 1375 
Q 3272 1813 3026 2020 
Q 2781 2228 2272 2228 
L 1259 2228 
z
M 1259 4147 
L 1259 2741 
L 2194 2741 
Q 2656 2741 2882 2914 
Q 3109 3088 3109 3444 
Q 3109 3797 2882 3972 
Q 2656 4147 2194 4147 
L 1259 4147 
z
M 628 4666 
L 2241 4666 
Q 2963 4666 3353 4366 
Q 3744 4066 3744 3513 
Q 3744 3084 3544 2831 
Q 3344 2578 2956 2516 
Q 3422 2416 3680 2098 
Q 3938 1781 3938 1306 
Q 3938 681 3513 340 
Q 3088 0 2303 0 
L 628 0 
L 628 4666 
z
" transform="scale(0.015625)"/>
      </defs>
      <use xlink:href="#DejaVuSans-42"/>
      <use xlink:href="#DejaVuSans-5f" transform="translate(68.603516 0)"/>
      <use xlink:href="#DejaVuSans-43" transform="translate(118.603516 0)"/>
     </g>
    </g>
   </g>
   <g id="text_3">
    <g clip-path="url(#pfd5bb22936)">
     <!-- C_C -->
     <g transform="translate(1117.911486 565.73443) scale(0.1 -0.1)">
      <use xlink:href="#DejaVuSans-43"/>
      <use xlink:href="#DejaVuSans-5f" transform="translate(69.824219 0)"/>
      <use xlink:href="#DejaVuSans-43" transform="translate(119.824219 0)"/>
     </g>
    </g>
   </g>
   <g id="text_4">
    <g clip-path="url(#pfd5bb22936)">
     <!-- D_C -->
     <g transform="translate(1419.881465 467.265812) scale(0.1 -0.1)">
      <defs>
       <path id="DejaVuSans-44" d="M 1259 4147 
L 1259 519 
L 2022 519 
Q 2988 519 3436 956 
Q 3884 1394 3884 2338 
Q 3884 3275 3436 3711 
Q 2988 4147 2022 4147 
L 1259 4147 
z
M 628 4666 
L 1925 4666 
Q 3281 4666 3915 4102 
Q 4550 3538 4550 2338 
Q 4550 1131 3912 565 
Q 3275 0 1925 0 
L 628 0 
L 628 4666 
z
" transform="scale(0.015625)"/>
      </defs>
      <use xlink:href="#DejaVuSans-44"/>
      <use xlink:href="#DejaVuSans-5f" transform="translate(77.001953 0)"/>
      <use xlink:href="#DejaVuSans-43" transform="translate(127.001953 0)"/>
     </g>
    </g>
   </g>
   <g id="text_5">
    <g clip-path="url(#pfd5bb22936)">
     <!-- E_C -->
     <g transform="translate(1717.607704 1517.985312) scale(0.1 -0.1)">
      <defs>
       <path id="DejaVuSans-45" d="M 628 4666 
L 3578 4666 
L 3578 4134 
L 1259 4134 
L 1259 2753 
L 3481 2753 
L 3481 2222 
L 1259 2222 
L 1259 531 
L 3634 531 
L 3634 0 
L 628 0 
L 628 4666 
z
" transform="scale(0.015625)"/>
      </defs>
      <use xlink:href="#DejaVuSans-45"/>
      <use xlink:href="#DejaVuSans-5f" transform="translate(63.183594 0)"/>
      <use xlink:href="#DejaVuSans-43" transform="translate(113.183594 0)"/>
     </g>
    </g>
   </g>
   <g id="text_6">
    <g clip-path="url(#pfd5bb22936)">
     <!-- F_C -->
     <g transform="translate(1401.811069 1665.499425) scale(0.1 -0.1)">
      <defs>
       <path id="DejaVuSans-46" d="M 628 4666 
L 3309 4666 
L 3309 4134 
L 1259 4134 
L 1259 2759 
L 3109 2759 
L 3109 2228 
L 1259 2228 
L 1259 0 
L 628 0 
L 628 4666 
z
" transform="scale(0.015625)"/>
      </defs>
      <use xlink:href="#DejaVuSans-46"/>
      <use xlink:href="#DejaVuSans-5f" transform="translate(57.519531 0)"/>
      <use xlink:href="#DejaVuSans-43" transform="translate(107.519531 0)"/>
     </g>
    </g>
   </g>
   <g id="text_7">
    <g clip-path="url(#pfd5bb22936)">
     <!-- G_C -->
     <g transform="translate(614.276667 1069.645345) scale(0.1 -0.1)">
      <defs>
       <path id="DejaVuSans-47" d="M 3809 666 
L 3809 1919 
L 2778 1919 
L 2778 2438 
L 4434 2438 
L 4434 434 
Q 4069 175 3628 42 
Q 3188 -91 2688 -91 
Q 1594 -91 976 548 
Q 359 1188 359 2328 
Q 359 3472 976 4111 
Q 1594 4750 2688 4750 
Q 3144 4750 3555 4637 
Q 3966 4525 4313 4306 
L 4313 3634 
Q 3963 3931 3569 4081 
Q 3175 4231 2741 4231 
Q 1884 4231 1454 3753 
Q 1025 3275 1025 2328 
Q 1025 1384 1454 906 
Q 1884 428 2741 428 
Q 3075 428 3337 486 
Q 3600 544 3809 666 
z
" transform="scale(0.015625)"/>
      </defs>
      <use xlink:href="#DejaVuSans-47"/>
      <use xlink:href="#DejaVuSans-5f" transform="translate(77.490234 0)"/>
      <use xlink:href="#DejaVuSans-43" transform="translate(127.490234 0)"/>
     </g>
    </g>
   </g>
   <g id="text_8">
    <g clip-path="url(#pfd5bb22936)">
     <!-- N_C -->
     <g transform="translate(1355.191624 1419.853858) scale(0.1 -0.1)">
      <defs>
       <path id="DejaVuSans-4e" d="M 628 4666 
L 1478 4666 
L 3547 763 
L 3547 4666 
L 4159 4666 
L 4159 0 
L 3309 0 
L 1241 3903 
L 1241 0 
L 628 0 
L 628 4666 
z
" transform="scale(0.015625)"/>
      </defs>
      <use xlink:href="#DejaVuSans-4e"/>
      <use xlink:href="#DejaVuSans-5f" transform="translate(74.804688 0)"/>
      <use xlink:href="#DejaVuSans-43" transform="translate(124.804688 0)"/>
     </g>
    </g>
   </g>
   <g id="text_9">
    <g clip-path="url(#pfd5bb22936)">
     <!-- R_C -->
     <g transform="translate(630.895733 506.225196) scale(0.1 -0.1)">
      <defs>
       <path id="DejaVuSans-52" d="M 2841 2188 
Q 3044 2119 3236 1894 
Q 3428 1669 3622 1275 
L 4263 0 
L 3584 0 
L 2988 1197 
Q 2756 1666 2539 1819 
Q 2322 1972 1947 1972 
L 1259 1972 
L 1259 0 
L 628 0 
L 628 4666 
L 2053 4666 
Q 2853 4666 3247 4331 
Q 3641 3997 3641 3322 
Q 3641 2881 3436 2590 
Q 3231 2300 2841 2188 
z
M 1259 4147 
L 1259 2491 
L 2053 2491 
Q 2509 2491 2742 2702 
Q 2975 2913 2975 3322 
Q 2975 3731 2742 3939 
Q 2509 4147 2053 4147 
L 1259 4147 
z
" transform="scale(0.015625)"/>
      </defs>
      <use xlink:href="#DejaVuSans-52"/>
      <use xlink:href="#DejaVuSans-5f" transform="translate(69.482422 0)"/>
      <use xlink:href="#DejaVuSans-43" transform="translate(119.482422 0)"/>
     </g>
    </g>
   </g>
   <g id="text_10">
    <g clip-path="url(#pfd5bb22936)">
     <!-- U_C -->
     <g transform="translate(1222.836201 1636.475754) scale(0.1 -0.1)">
      <defs>
       <path id="DejaVuSans-55" d="M 556 4666 
L 1191 4666 
L 1191 1831 
Q 1191 1081 1462 751 
Q 1734 422 2344 422 
Q 2950 422 3222 751 
Q 3494 1081 3494 1831 
L 3494 4666 
L 4128 4666 
L 4128 1753 
Q 4128 841 3676 375 
Q 3225 -91 2344 -91 
Q 1459 -91 1007 375 
Q 556 841 556 1753 
L 556 4666 
z
" transform="scale(0.015625)"/>
      </defs>
      <use xlink:href="#DejaVuSans-55"/>
      <use xlink:href="#DejaVuSans-5f" transform="translate(73.193359 0)"/>
      <use xlink:href="#DejaVuSans-43" transform="translate(123.193359 0)"/>
     </g>
    </g>
   </g>
   <g id="text_11">
    <g clip-path="url(#pfd5bb22936)">
     <!-- V_C -->
     <g transform="translate(1234.753343 716.869793) scale(0.1 -0.1)">
      <defs>
       <path id="DejaVuSans-56" d="M 1831 0 
L 50 4666 
L 709 4666 
L 2188 738 
L 3669 4666 
L 4325 4666 
L 2547 0 
L 1831 0 
z
" transform="scale(0.015625)"/>
      </defs>
      <use xlink:href="#DejaVuSans-56"/>
      <use xlink:href="#DejaVuSans-5f" transform="translate(68.408203 0)"/>
      <use xlink:href="#DejaVuSans-43" transform="translate(118.408203 0)"/>
     </g>
    </g>
   </g>
   <g id="text_12">
    <g clip-path="url(#pfd5bb22936)">
     <!-- W_C -->
     <g transform="translate(985.773645 1278.595794) scale(0.1 -0.1)">
      <defs>
       <path id="DejaVuSans-57" d="M 213 4666 
L 850 4666 
L 1831 722 
L 2809 4666 
L 3519 4666 
L 4500 722 
L 5478 4666 
L 6119 4666 
L 4947 0 
L 4153 0 
L 3169 4050 
L 2175 0 
L 1381 0 
L 213 4666 
z
" transform="scale(0.015625)"/>
      </defs>
      <use xlink:href="#DejaVuSans-57"/>
      <use xlink:href="#DejaVuSans-5f" transform="translate(98.876953 0)"/>
      <use xlink:href="#DejaVuSans-43" transform="translate(148.876953 0)"/>
     </g>
    </g>
   </g>
   <g id="text_13">
    <g clip-path="url(#pfd5bb22936)">
     <!-- X_C -->
     <g transform="translate(1307.512978 753.726537) scale(0.1 -0.1)">
      <defs>
       <path id="DejaVuSans-58" d="M 403 4666 
L 1081 4666 
L 2241 2931 
L 3406 4666 
L 4084 4666 
L 2584 2425 
L 4184 0 
L 3506 0 
L 2194 1984 
L 872 0 
L 191 0 
L 1856 2491 
L 403 4666 
z
" transform="scale(0.015625)"/>
      </defs>
      <use xlink:href="#DejaVuSans-58"/>
      <use xlink:href="#DejaVuSans-5f" transform="translate(68.505859 0)"/>
      <use xlink:href="#DejaVuSans-43" transform="translate(118.505859 0)"/>
     </g>
    </g>
   </g>
   <g id="text_14">
    <g clip-path="url(#pfd5bb22936)">
     <!-- H_C -->
     <g transform="translate(803.366965 838.015282) scale(0.1 -0.1)">
      <defs>
       <path id="DejaVuSans-48" d="M 628 4666 
L 1259 4666 
L 1259 2753 
L 3553 2753 
L 3553 4666 
L 4184 4666 
L 4184 0 
L 3553 0 
L 3553 2222 
L 1259 2222 
L 1259 0 
L 628 0 
L 628 4666 
z
" transform="scale(0.015625)"/>
      </defs>
      <use xlink:href="#DejaVuSans-48"/>
      <use xlink:href="#DejaVuSans-5f" transform="translate(75.195312 0)"/>
      <use xlink:href="#DejaVuSans-43" transform="translate(125.195312 0)"/>
     </g>
    </g>
   </g>
   <g id="text_15">
    <g clip-path="url(#pfd5bb22936)">
     <!-- I_C -->
     <g transform="translate(924.906256 583.267694) scale(0.1 -0.1)">
      <defs>
       <path id="DejaVuSans-49" d="M 628 4666 
L 1259 4666 
L 1259 0 
L 628 0 
L 628 4666 
z
" transform="scale(0.015625)"/>
      </defs>
      <use xlink:href="#DejaVuSans-49"/>
      <use xlink:href="#DejaVuSans-5f" transform="translate(29.492188 0)"/>
      <use xlink:href="#DejaVuSans-43" transform="translate(79.492188 0)"/>
     </g>
    </g>
   </g>
   <g id="text_16">
    <g clip-path="url(#pfd5bb22936)">
     <!-- J_C -->
     <g transform="translate(1363.618666 583.532094) scale(0.1 -0.1)">
      <defs>
       <path id="DejaVuSans-4a" d="M 628 4666 
L 1259 4666 
L 1259 325 
Q 1259 -519 939 -900 
Q 619 -1281 -91 -1281 
L -331 -1281 
L -331 -750 
L -134 -750 
Q 284 -750 456 -515 
Q 628 -281 628 325 
L 628 4666 
z
" transform="scale(0.015625)"/>
      </defs>
      <use xlink:href="#DejaVuSans-4a"/>
      <use xlink:href="#DejaVuSans-5f" transform="translate(29.492188 0)"/>
      <use xlink:href="#DejaVuSans-43" transform="translate(79.492188 0)"/>
     </g>
    </g>
   </g>
   <g id="text_17">
    <g clip-path="url(#pfd5bb22936)">
     <!-- P_C -->
     <g transform="translate(885.083234 627.103352) scale(0.1 -0.1)">
      <defs>
       <path id="DejaVuSans-50" d="M 1259 4147 
L 1259 2394 
L 2053 2394 
Q 2494 2394 2734 2622 
Q 2975 2850 2975 3272 
Q 2975 3691 2734 3919 
Q 2494 4147 2053 4147 
L 1259 4147 
z
M 628 4666 
L 2053 4666 
Q 2838 4666 3239 4311 
Q 3641 3956 3641 3272 
Q 3641 2581 3239 2228 
Q 2838 1875 2053 1875 
L 1259 1875 
L 1259 0 
L 628 0 
L 628 4666 
z
" transform="scale(0.015625)"/>
      </defs>
      <use xlink:href="#DejaVuSans-50"/>
      <use xlink:href="#DejaVuSans-5f" transform="translate(60.302734 0)"/>
      <use xlink:href="#DejaVuSans-43" transform="translate(110.302734 0)"/>
     </g>
    </g>
   </g>
   <g id="text_18">
    <g clip-path="url(#pfd5bb22936)">
     <!-- Q_C -->
     <g transform="translate(1184.844894 702.41396) scale(0.1 -0.1)">
      <defs>
       <path id="DejaVuSans-51" d="M 2522 4238 
Q 1834 4238 1429 3725 
Q 1025 3213 1025 2328 
Q 1025 1447 1429 934 
Q 1834 422 2522 422 
Q 3209 422 3611 934 
Q 4013 1447 4013 2328 
Q 4013 3213 3611 3725 
Q 3209 4238 2522 4238 
z
M 3406 84 
L 4238 -825 
L 3475 -825 
L 2784 -78 
Q 2681 -84 2626 -87 
Q 2572 -91 2522 -91 
Q 1538 -91 948 567 
Q 359 1225 359 2328 
Q 359 3434 948 4092 
Q 1538 4750 2522 4750 
Q 3503 4750 4090 4092 
Q 4678 3434 4678 2328 
Q 4678 1516 4351 937 
Q 4025 359 3406 84 
z
" transform="scale(0.015625)"/>
      </defs>
      <use xlink:href="#DejaVuSans-51"/>
      <use xlink:href="#DejaVuSans-5f" transform="translate(78.710938 0)"/>
      <use xlink:href="#DejaVuSans-43" transform="translate(128.710938 0)"/>
     </g>
    </g>
   </g>
   <g id="text_19">
    <g clip-path="url(#pfd5bb22936)">
     <!-- M_C -->
     <g transform="translate(1543.233486 1576.012633) scale(0.1 -0.1)">
      <defs>
       <path id="DejaVuSans-4d" d="M 628 4666 
L 1569 4666 
L 2759 1491 
L 3956 4666 
L 4897 4666 
L 4897 0 
L 4281 0 
L 4281 4097 
L 3078 897 
L 2444 897 
L 1241 4097 
L 1241 0 
L 628 0 
L 628 4666 
z
" transform="scale(0.015625)"/>
      </defs>
      <use xlink:href="#DejaVuSans-4d"/>
      <use xlink:href="#DejaVuSans-5f" transform="translate(86.279297 0)"/>
      <use xlink:href="#DejaVuSans-43" transform="translate(136.279297 0)"/>
     </g>
    </g>
   </g>
   <g id="text_20">
    <g clip-path="url(#pfd5bb22936)">
     <!-- T_C -->
     <g transform="translate(1304.819499 1042.631632) scale(0.1 -0.1)">
      <defs>
       <path id="DejaVuSans-54" d="M -19 4666 
L 3928 4666 
L 3928 4134 
L 2272 4134 
L 2272 0 
L 1638 0 
L 1638 4134 
L -19 4134 
L -19 4666 
z
" transform="scale(0.015625)"/>
      </defs>
      <use xlink:href="#DejaVuSans-54"/>
      <use xlink:href="#DejaVuSans-5f" transform="translate(61.083984 0)"/>
      <use xlink:href="#DejaVuSans-43" transform="translate(111.083984 0)"/>
     </g>
    </g>
   </g>
   <g id="text_21">
    <g clip-path="url(#pfd5bb22936)">
     <!-- K_C -->
     <g transform="translate(666.804835 913.039465) scale(0.1 -0.1)">
      <defs>
       <path id="DejaVuSans-4b" d="M 628 4666 
L 1259 4666 
L 1259 2694 
L 3353 4666 
L 4166 4666 
L 1850 2491 
L 4331 0 
L 3500 0 
L 1259 2247 
L 1259 0 
L 628 0 
L 628 4666 
z
" transform="scale(0.015625)"/>
      </defs>
      <use xlink:href="#DejaVuSans-4b"/>
      <use xlink:href="#DejaVuSans-5f" transform="translate(65.576172 0)"/>
      <use xlink:href="#DejaVuSans-43" transform="translate(115.576172 0)"/>
     </g>
    </g>
   </g>
   <g id="text_22">
    <g clip-path="url(#pfd5bb22936)">
     <!-- L_C -->
     <g transform="translate(802.069838 1153.273176) scale(0.1 -0.1)">
      <defs>
       <path id="DejaVuSans-4c" d="M 628 4666 
L 1259 4666 
L 1259 531 
L 3531 531 
L 3531 0 
L 628 0 
L 628 4666 
z
" transform="scale(0.015625)"/>
      </defs>
      <use xlink:href="#DejaVuSans-4c"/>
      <use xlink:href="#DejaVuSans-5f" transform="translate(55.712891 0)"/>
      <use xlink:href="#DejaVuSans-43" transform="translate(105.712891 0)"/>
     </g>
    </g>
   </g>
   <g id="text_23">
    <g clip-path="url(#pfd5bb22936)">
     <!-- O_C -->
     <g transform="translate(644.761685 677.716714) scale(0.1 -0.1)">
      <defs>
       <path id="DejaVuSans-4f" d="M 2522 4238 
Q 1834 4238 1429 3725 
Q 1025 3213 1025 2328 
Q 1025 1447 1429 934 
Q 1834 422 2522 422 
Q 3209 422 3611 934 
Q 4013 1447 4013 2328 
Q 4013 3213 3611 3725 
Q 3209 4238 2522 4238 
z
M 2522 4750 
Q 3503 4750 4090 4092 
Q 4678 3434 4678 2328 
Q 4678 1225 4090 567 
Q 3503 -91 2522 -91 
Q 1538 -91 948 565 
Q 359 1222 359 2328 
Q 359 3434 948 4092 
Q 1538 4750 2522 4750 
z
" transform="scale(0.015625)"/>
      </defs>
      <use xlink:href="#DejaVuSans-4f"/>
      <use xlink:href="#DejaVuSans-5f" transform="translate(78.710938 0)"/>
      <use xlink:href="#DejaVuSans-43" transform="translate(128.710938 0)"/>
     </g>
    </g>
   </g>
   <g id="text_24">
    <g clip-path="url(#pfd5bb22936)">
     <!-- S_C -->
     <g transform="translate(1153.345742 784.105475) scale(0.1 -0.1)">
      <defs>
       <path id="DejaVuSans-53" d="M 3425 4513 
L 3425 3897 
Q 3066 4069 2747 4153 
Q 2428 4238 2131 4238 
Q 1616 4238 1336 4038 
Q 1056 3838 1056 3469 
Q 1056 3159 1242 3001 
Q 1428 2844 1947 2747 
L 2328 2669 
Q 3034 2534 3370 2195 
Q 3706 1856 3706 1288 
Q 3706 609 3251 259 
Q 2797 -91 1919 -91 
Q 1588 -91 1214 -16 
Q 841 59 441 206 
L 441 856 
Q 825 641 1194 531 
Q 1563 422 1919 422 
Q 2459 422 2753 634 
Q 3047 847 3047 1241 
Q 3047 1584 2836 1778 
Q 2625 1972 2144 2069 
L 1759 2144 
Q 1053 2284 737 2584 
Q 422 2884 422 3419 
Q 422 4038 858 4394 
Q 1294 4750 2059 4750 
Q 2388 4750 2728 4690 
Q 3069 4631 3425 4513 
z
" transform="scale(0.015625)"/>
      </defs>
      <use xlink:href="#DejaVuSans-53"/>
      <use xlink:href="#DejaVuSans-5f" transform="translate(63.476562 0)"/>
      <use xlink:href="#DejaVuSans-43" transform="translate(113.476562 0)"/>
     </g>
    </g>
   </g>
   <g id="text_25">
    <g clip-path="url(#pfd5bb22936)">
     <!-- A_import -->
     <g transform="translate(600.861086 1224.280043) scale(0.1 -0.1)">
      <defs>
       <path id="DejaVuSans-69" d="M 603 3500 
L 1178 3500 
L 1178 0 
L 603 0 
L 603 3500 
z
M 603 4863 
L 1178 4863 
L 1178 4134 
L 603 4134 
L 603 4863 
z
" transform="scale(0.015625)"/>
       <path id="DejaVuSans-6d" d="M 3328 2828 
Q 3544 3216 3844 3400 
Q 4144 3584 4550 3584 
Q 5097 3584 5394 3201 
Q 5691 2819 5691 2113 
L 5691 0 
L 5113 0 
L 5113 2094 
Q 5113 2597 4934 2840 
Q 4756 3084 4391 3084 
Q 3944 3084 3684 2787 
Q 3425 2491 3425 1978 
L 3425 0 
L 2847 0 
L 2847 2094 
Q 2847 2600 2669 2842 
Q 2491 3084 2119 3084 
Q 1678 3084 1418 2786 
Q 1159 2488 1159 1978 
L 1159 0 
L 581 0 
L 581 3500 
L 1159 3500 
L 1159 2956 
Q 1356 3278 1631 3431 
Q 1906 3584 2284 3584 
Q 2666 3584 2933 3390 
Q 3200 3197 3328 2828 
z
" transform="scale(0.015625)"/>
       <path id="DejaVuSans-70" d="M 1159 525 
L 1159 -1331 
L 581 -1331 
L 581 3500 
L 1159 3500 
L 1159 2969 
Q 1341 3281 1617 3432 
Q 1894 3584 2278 3584 
Q 2916 3584 3314 3078 
Q 3713 2572 3713 1747 
Q 3713 922 3314 415 
Q 2916 -91 2278 -91 
Q 1894 -91 1617 61 
Q 1341 213 1159 525 
z
M 3116 1747 
Q 3116 2381 2855 2742 
Q 2594 3103 2138 3103 
Q 1681 3103 1420 2742 
Q 1159 2381 1159 1747 
Q 1159 1113 1420 752 
Q 1681 391 2138 391 
Q 2594 391 2855 752 
Q 3116 1113 3116 1747 
z
" transform="scale(0.015625)"/>
       <path id="DejaVuSans-6f" d="M 1959 3097 
Q 1497 3097 1228 2736 
Q 959 2375 959 1747 
Q 959 1119 1226 758 
Q 1494 397 1959 397 
Q 2419 397 2687 759 
Q 2956 1122 2956 1747 
Q 2956 2369 2687 2733 
Q 2419 3097 1959 3097 
z
M 1959 3584 
Q 2709 3584 3137 3096 
Q 3566 2609 3566 1747 
Q 3566 888 3137 398 
Q 2709 -91 1959 -91 
Q 1206 -91 779 398 
Q 353 888 353 1747 
Q 353 2609 779 3096 
Q 1206 3584 1959 3584 
z
" transform="scale(0.015625)"/>
       <path id="DejaVuSans-72" d="M 2631 2963 
Q 2534 3019 2420 3045 
Q 2306 3072 2169 3072 
Q 1681 3072 1420 2755 
Q 1159 2438 1159 1844 
L 1159 0 
L 581 0 
L 581 3500 
L 1159 3500 
L 1159 2956 
Q 1341 3275 1631 3429 
Q 1922 3584 2338 3584 
Q 2397 3584 2469 3576 
Q 2541 3569 2628 3553 
L 2631 2963 
z
" transform="scale(0.015625)"/>
       <path id="DejaVuSans-74" d="M 1172 4494 
L 1172 3500 
L 2356 3500 
L 2356 3053 
L 1172 3053 
L 1172 1153 
Q 1172 725 1289 603 
Q 1406 481 1766 481 
L 2356 481 
L 2356 0 
L 1766 0 
Q 1100 0 847 248 
Q 594 497 594 1153 
L 594 3053 
L 172 3053 
L 172 3500 
L 594 3500 
L 594 4494 
L 1172 4494 
z
" transform="scale(0.015625)"/>
      </defs>
      <use xlink:href="#DejaVuSans-41"/>
      <use xlink:href="#DejaVuSans-5f" transform="translate(68.408203 0)"/>
      <use xlink:href="#DejaVuSans-69" transform="translate(118.408203 0)"/>
      <use xlink:href="#DejaVuSans-6d" transform="translate(146.191406 0)"/>
      <use xlink:href="#DejaVuSans-70" transform="translate(243.603516 0)"/>
      <use xlink:href="#DejaVuSans-6f" transform="translate(307.080078 0)"/>
      <use xlink:href="#DejaVuSans-72" transform="translate(368.261719 0)"/>
      <use xlink:href="#DejaVuSans-74" transform="translate(409.375 0)"/>
     </g>
    </g>
   </g>
   <g id="text_26">
    <g clip-path="url(#pfd5bb22936)">
     <!-- B_import -->
     <g transform="translate(422.900858 1020.01932) scale(0.1 -0.1)">
      <use xlink:href="#DejaVuSans-42"/>
      <use xlink:href="#DejaVuSans-5f" transform="translate(68.603516 0)"/>
      <use xlink:href="#DejaVuSans-69" transform="translate(118.603516 0)"/>
      <use xlink:href="#DejaVuSans-6d" transform="translate(146.386719 0)"/>
      <use xlink:href="#DejaVuSans-70" transform="translate(243.798828 0)"/>
      <use xlink:href="#DejaVuSans-6f" transform="translate(307.275391 0)"/>
      <use xlink:href="#DejaVuSans-72" transform="translate(368.457031 0)"/>
      <use xlink:href="#DejaVuSans-74" transform="translate(409.570312 0)"/>
     </g>
    </g>
   </g>
   <g id="text_27">
    <g clip-path="url(#pfd5bb22936)">
     <!-- C_import -->
     <g transform="translate(1111.694568 462.215285) scale(0.1 -0.1)">
      <use xlink:href="#DejaVuSans-43"/>
      <use xlink:href="#DejaVuSans-5f" transform="translate(69.824219 0)"/>
      <use xlink:href="#DejaVuSans-69" transform="translate(119.824219 0)"/>
      <use xlink:href="#DejaVuSans-6d" transform="translate(147.607422 0)"/>
      <use xlink:href="#DejaVuSans-70" transform="translate(245.019531 0)"/>
      <use xlink:href="#DejaVuSans-6f" transform="translate(308.496094 0)"/>
      <use xlink:href="#DejaVuSans-72" transform="translate(369.677734 0)"/>
      <use xlink:href="#DejaVuSans-74" transform="translate(410.791016 0)"/>
     </g>
    </g>
   </g>
   <g id="text_28">
    <g clip-path="url(#pfd5bb22936)">
     <!-- D_import -->
     <g transform="translate(1502.380535 436.029008) scale(0.1 -0.1)">
      <use xlink:href="#DejaVuSans-44"/>
      <use xlink:href="#DejaVuSans-5f" transform="translate(77.001953 0)"/>
      <use xlink:href="#DejaVuSans-69" transform="translate(127.001953 0)"/>
      <use xlink:href="#DejaVuSans-6d" transform="translate(154.785156 0)"/>
      <use xlink:href="#DejaVuSans-70" transform="translate(252.197266 0)"/>
      <use xlink:href="#DejaVuSans-6f" transform="translate(315.673828 0)"/>
      <use xlink:href="#DejaVuSans-72" transform="translate(376.855469 0)"/>
      <use xlink:href="#DejaVuSans-74" transform="translate(417.96875 0)"/>
     </g>
    </g>
   </g>
   <g id="text_29">
    <g clip-path="url(#pfd5bb22936)">
     <!-- E_import -->
     <g transform="translate(1746.49211 1457.232192) scale(0.1 -0.1)">
      <use xlink:href="#DejaVuSans-45"/>
      <use xlink:href="#DejaVuSans-5f" transform="translate(63.183594 0)"/>
      <use xlink:href="#DejaVuSans-69" transform="translate(113.183594 0)"/>
      <use xlink:href="#DejaVuSans-6d" transform="translate(140.966797 0)"/>
      <use xlink:href="#DejaVuSans-70" transform="translate(238.378906 0)"/>
      <use xlink:href="#DejaVuSans-6f" transform="translate(301.855469 0)"/>
      <use xlink:href="#DejaVuSans-72" transform="translate(363.037109 0)"/>
      <use xlink:href="#DejaVuSans-74" transform="translate(404.150391 0)"/>
     </g>
    </g>
   </g>
   <g id="text_30">
    <g clip-path="url(#pfd5bb22936)">
     <!-- F_import -->
     <g transform="translate(1355.897613 1750.811617) scale(0.1 -0.1)">
      <use xlink:href="#DejaVuSans-46"/>
      <use xlink:href="#DejaVuSans-5f" transform="translate(57.519531 0)"/>
      <use xlink:href="#DejaVuSans-69" transform="translate(107.519531 0)"/>
      <use xlink:href="#DejaVuSans-6d" transform="translate(135.302734 0)"/>
      <use xlink:href="#DejaVuSans-70" transform="translate(232.714844 0)"/>
      <use xlink:href="#DejaVuSans-6f" transform="translate(296.191406 0)"/>
      <use xlink:href="#DejaVuSans-72" transform="translate(357.373047 0)"/>
      <use xlink:href="#DejaVuSans-74" transform="translate(398.486328 0)"/>
     </g>
    </g>
   </g>
   <g id="text_31">
    <g clip-path="url(#pfd5bb22936)">
     <!-- G_import -->
     <g transform="translate(518.016558 1129.861282) scale(0.1 -0.1)">
      <use xlink:href="#DejaVuSans-47"/>
      <use xlink:href="#DejaVuSans-5f" transform="translate(77.490234 0)"/>
      <use xlink:href="#DejaVuSans-69" transform="translate(127.490234 0)"/>
      <use xlink:href="#DejaVuSans-6d" transform="translate(155.273438 0)"/>
      <use xlink:href="#DejaVuSans-70" transform="translate(252.685547 0)"/>
      <use xlink:href="#DejaVuSans-6f" transform="translate(316.162109 0)"/>
      <use xlink:href="#DejaVuSans-72" transform="translate(377.34375 0)"/>
      <use xlink:href="#DejaVuSans-74" transform="translate(418.457031 0)"/>
     </g>
    </g>
   </g>
   <g id="text_32">
    <g clip-path="url(#pfd5bb22936)">
     <!-- N_exp -->
     <g transform="translate(1418.553524 1440.485912) scale(0.1 -0.1)">
      <defs>
       <path id="DejaVuSans-65" d="M 3597 1894 
L 3597 1613 
L 953 1613 
Q 991 1019 1311 708 
Q 1631 397 2203 397 
Q 2534 397 2845 478 
Q 3156 559 3463 722 
L 3463 178 
Q 3153 47 2828 -22 
Q 2503 -91 2169 -91 
Q 1331 -91 842 396 
Q 353 884 353 1716 
Q 353 2575 817 3079 
Q 1281 3584 2069 3584 
Q 2775 3584 3186 3129 
Q 3597 2675 3597 1894 
z
M 3022 2063 
Q 3016 2534 2758 2815 
Q 2500 3097 2075 3097 
Q 1594 3097 1305 2825 
Q 1016 2553 972 2059 
L 3022 2063 
z
" transform="scale(0.015625)"/>
       <path id="DejaVuSans-78" d="M 3513 3500 
L 2247 1797 
L 3578 0 
L 2900 0 
L 1881 1375 
L 863 0 
L 184 0 
L 1544 1831 
L 300 3500 
L 978 3500 
L 1906 2253 
L 2834 3500 
L 3513 3500 
z
" transform="scale(0.015625)"/>
      </defs>
      <use xlink:href="#DejaVuSans-4e"/>
      <use xlink:href="#DejaVuSans-5f" transform="translate(74.804688 0)"/>
      <use xlink:href="#DejaVuSans-65" transform="translate(124.804688 0)"/>
      <use xlink:href="#DejaVuSans-78" transform="translate(184.578125 0)"/>
      <use xlink:href="#DejaVuSans-70" transform="translate(243.757812 0)"/>
     </g>
    </g>
   </g>
   <g id="text_33">
    <g clip-path="url(#pfd5bb22936)">
     <!-- R_exp -->
     <g transform="translate(553.645093 442.822009) scale(0.1 -0.1)">
      <use xlink:href="#DejaVuSans-52"/>
      <use xlink:href="#DejaVuSans-5f" transform="translate(69.482422 0)"/>
      <use xlink:href="#DejaVuSans-65" transform="translate(119.482422 0)"/>
      <use xlink:href="#DejaVuSans-78" transform="translate(179.255859 0)"/>
      <use xlink:href="#DejaVuSans-70" transform="translate(238.435547 0)"/>
     </g>
    </g>
   </g>
   <g id="text_34">
    <g clip-path="url(#pfd5bb22936)">
     <!-- U_exp -->
     <g transform="translate(1182.171999 1722.533112) scale(0.1 -0.1)">
      <use xlink:href="#DejaVuSans-55"/>
      <use xlink:href="#DejaVuSans-5f" transform="translate(73.193359 0)"/>
      <use xlink:href="#DejaVuSans-65" transform="translate(123.193359 0)"/>
      <use xlink:href="#DejaVuSans-78" transform="translate(182.966797 0)"/>
      <use xlink:href="#DejaVuSans-70" transform="translate(242.146484 0)"/>
     </g>
    </g>
   </g>
   <g id="text_35">
    <g clip-path="url(#pfd5bb22936)">
     <!-- V_exp -->
     <g transform="translate(1203.336191 607.080041) scale(0.1 -0.1)">
      <use xlink:href="#DejaVuSans-56"/>
      <use xlink:href="#DejaVuSans-5f" transform="translate(68.408203 0)"/>
      <use xlink:href="#DejaVuSans-65" transform="translate(118.408203 0)"/>
      <use xlink:href="#DejaVuSans-78" transform="translate(178.181641 0)"/>
      <use xlink:href="#DejaVuSans-70" transform="translate(237.361328 0)"/>
     </g>
    </g>
   </g>
   <g id="text_36">
    <g clip-path="url(#pfd5bb22936)">
     <!-- W_exp -->
     <g transform="translate(1060.131686 1300.228952) scale(0.1 -0.1)">
      <use xlink:href="#DejaVuSans-57"/>
      <use xlink:href="#DejaVuSans-5f" transform="translate(98.876953 0)"/>
      <use xlink:href="#DejaVuSans-65" transform="translate(148.876953 0)"/>
      <use xlink:href="#DejaVuSans-78" transform="translate(208.650391 0)"/>
      <use xlink:href="#DejaVuSans-70" transform="translate(267.830078 0)"/>
     </g>
    </g>
   </g>
   <g id="text_37">
    <g clip-path="url(#pfd5bb22936)">
     <!-- X_exp -->
     <g transform="translate(1333.61994 657.608787) scale(0.1 -0.1)">
      <use xlink:href="#DejaVuSans-58"/>
      <use xlink:href="#DejaVuSans-5f" transform="translate(68.505859 0)"/>
      <use xlink:href="#DejaVuSans-65" transform="translate(118.505859 0)"/>
      <use xlink:href="#DejaVuSans-78" transform="translate(178.279297 0)"/>
      <use xlink:href="#DejaVuSans-70" transform="translate(237.458984 0)"/>
     </g>
    </g>
   </g>
   <g id="text_38">
    <g clip-path="url(#pfd5bb22936)">
     <!-- R_A_B__G_H -->
     <g transform="translate(647.787131 989.484162) scale(0.1 -0.1)">
      <use xlink:href="#DejaVuSans-52"/>
      <use xlink:href="#DejaVuSans-5f" transform="translate(69.482422 0)"/>
      <use xlink:href="#DejaVuSans-41" transform="translate(119.482422 0)"/>
      <use xlink:href="#DejaVuSans-5f" transform="translate(187.890625 0)"/>
      <use xlink:href="#DejaVuSans-42" transform="translate(237.890625 0)"/>
      <use xlink:href="#DejaVuSans-5f" transform="translate(306.494141 0)"/>
      <use xlink:href="#DejaVuSans-5f" transform="translate(356.494141 0)"/>
      <use xlink:href="#DejaVuSans-47" transform="translate(406.494141 0)"/>
      <use xlink:href="#DejaVuSans-5f" transform="translate(483.984375 0)"/>
      <use xlink:href="#DejaVuSans-48" transform="translate(533.984375 0)"/>
     </g>
    </g>
   </g>
   <g id="text_39">
    <g clip-path="url(#pfd5bb22936)">
     <!-- R_C_H__I -->
     <g transform="translate(938.943584 682.469594) scale(0.1 -0.1)">
      <use xlink:href="#DejaVuSans-52"/>
      <use xlink:href="#DejaVuSans-5f" transform="translate(69.482422 0)"/>
      <use xlink:href="#DejaVuSans-43" transform="translate(119.482422 0)"/>
      <use xlink:href="#DejaVuSans-5f" transform="translate(189.306641 0)"/>
      <use xlink:href="#DejaVuSans-48" transform="translate(239.306641 0)"/>
      <use xlink:href="#DejaVuSans-5f" transform="translate(314.501953 0)"/>
      <use xlink:href="#DejaVuSans-5f" transform="translate(364.501953 0)"/>
      <use xlink:href="#DejaVuSans-49" transform="translate(414.501953 0)"/>
     </g>
    </g>
   </g>
   <g id="text_40">
    <g clip-path="url(#pfd5bb22936)">
     <!-- R_C_D__J -->
     <g transform="translate(1279.406459 522.678036) scale(0.1 -0.1)">
      <use xlink:href="#DejaVuSans-52"/>
      <use xlink:href="#DejaVuSans-5f" transform="translate(69.482422 0)"/>
      <use xlink:href="#DejaVuSans-43" transform="translate(119.482422 0)"/>
      <use xlink:href="#DejaVuSans-5f" transform="translate(189.306641 0)"/>
      <use xlink:href="#DejaVuSans-44" transform="translate(239.306641 0)"/>
      <use xlink:href="#DejaVuSans-5f" transform="translate(316.308594 0)"/>
      <use xlink:href="#DejaVuSans-5f" transform="translate(366.308594 0)"/>
      <use xlink:href="#DejaVuSans-4a" transform="translate(416.308594 0)"/>
     </g>
    </g>
   </g>
   <g id="text_41">
    <g clip-path="url(#pfd5bb22936)">
     <!-- R_I__P -->
     <g transform="translate(867.76233 542.881589) scale(0.1 -0.1)">
      <use xlink:href="#DejaVuSans-52"/>
      <use xlink:href="#DejaVuSans-5f" transform="translate(69.482422 0)"/>
      <use xlink:href="#DejaVuSans-49" transform="translate(119.482422 0)"/>
      <use xlink:href="#DejaVuSans-5f" transform="translate(148.974609 0)"/>
      <use xlink:href="#DejaVuSans-5f" transform="translate(198.974609 0)"/>
      <use xlink:href="#DejaVuSans-50" transform="translate(248.974609 0)"/>
     </g>
    </g>
   </g>
   <g id="text_42">
    <g clip-path="url(#pfd5bb22936)">
     <!-- R_J__Q -->
     <g transform="translate(1299.444326 669.977876) scale(0.1 -0.1)">
      <use xlink:href="#DejaVuSans-52"/>
      <use xlink:href="#DejaVuSans-5f" transform="translate(69.482422 0)"/>
      <use xlink:href="#DejaVuSans-4a" transform="translate(119.482422 0)"/>
      <use xlink:href="#DejaVuSans-5f" transform="translate(148.974609 0)"/>
      <use xlink:href="#DejaVuSans-5f" transform="translate(198.974609 0)"/>
      <use xlink:href="#DejaVuSans-51" transform="translate(248.974609 0)"/>
     </g>
    </g>
   </g>
   <g id="text_43">
    <g clip-path="url(#pfd5bb22936)">
     <!-- R_E__M -->
     <g transform="translate(1631.533288 1560.885492) scale(0.1 -0.1)">
      <use xlink:href="#DejaVuSans-52"/>
      <use xlink:href="#DejaVuSans-5f" transform="translate(69.482422 0)"/>
      <use xlink:href="#DejaVuSans-45" transform="translate(119.482422 0)"/>
      <use xlink:href="#DejaVuSans-5f" transform="translate(182.666016 0)"/>
      <use xlink:href="#DejaVuSans-5f" transform="translate(232.666016 0)"/>
      <use xlink:href="#DejaVuSans-4d" transform="translate(282.666016 0)"/>
     </g>
    </g>
   </g>
   <g id="text_44">
    <g clip-path="url(#pfd5bb22936)">
     <!-- R_F_M__N -->
     <g transform="translate(1415.60824 1551.356034) scale(0.1 -0.1)">
      <use xlink:href="#DejaVuSans-52"/>
      <use xlink:href="#DejaVuSans-5f" transform="translate(69.482422 0)"/>
      <use xlink:href="#DejaVuSans-46" transform="translate(119.482422 0)"/>
      <use xlink:href="#DejaVuSans-5f" transform="translate(177.001953 0)"/>
      <use xlink:href="#DejaVuSans-4d" transform="translate(227.001953 0)"/>
      <use xlink:href="#DejaVuSans-5f" transform="translate(313.28125 0)"/>
      <use xlink:href="#DejaVuSans-5f" transform="translate(363.28125 0)"/>
      <use xlink:href="#DejaVuSans-4e" transform="translate(413.28125 0)"/>
     </g>
    </g>
   </g>
   <g id="text_45">
    <g clip-path="url(#pfd5bb22936)">
     <!-- R_N__T -->
     <g transform="translate(1325.17325 1231.063276) scale(0.1 -0.1)">
      <use xlink:href="#DejaVuSans-52"/>
      <use xlink:href="#DejaVuSans-5f" transform="translate(69.482422 0)"/>
      <use xlink:href="#DejaVuSans-4e" transform="translate(119.482422 0)"/>
      <use xlink:href="#DejaVuSans-5f" transform="translate(194.287109 0)"/>
      <use xlink:href="#DejaVuSans-5f" transform="translate(244.287109 0)"/>
      <use xlink:href="#DejaVuSans-54" transform="translate(294.287109 0)"/>
     </g>
    </g>
   </g>
   <g id="text_46">
    <g clip-path="url(#pfd5bb22936)">
     <!-- R_N__U -->
     <g transform="translate(1272.081483 1531.722621) scale(0.1 -0.1)">
      <use xlink:href="#DejaVuSans-52"/>
      <use xlink:href="#DejaVuSans-5f" transform="translate(69.482422 0)"/>
      <use xlink:href="#DejaVuSans-4e" transform="translate(119.482422 0)"/>
      <use xlink:href="#DejaVuSans-5f" transform="translate(194.287109 0)"/>
      <use xlink:href="#DejaVuSans-5f" transform="translate(244.287109 0)"/>
      <use xlink:href="#DejaVuSans-55" transform="translate(294.287109 0)"/>
     </g>
    </g>
   </g>
   <g id="text_47">
    <g clip-path="url(#pfd5bb22936)">
     <!-- R_H__K -->
     <g transform="translate(715.278898 863.79596) scale(0.1 -0.1)">
      <use xlink:href="#DejaVuSans-52"/>
      <use xlink:href="#DejaVuSans-5f" transform="translate(69.482422 0)"/>
      <use xlink:href="#DejaVuSans-48" transform="translate(119.482422 0)"/>
      <use xlink:href="#DejaVuSans-5f" transform="translate(194.677734 0)"/>
      <use xlink:href="#DejaVuSans-5f" transform="translate(244.677734 0)"/>
      <use xlink:href="#DejaVuSans-4b" transform="translate(294.677734 0)"/>
     </g>
    </g>
   </g>
   <g id="text_48">
    <g clip-path="url(#pfd5bb22936)">
     <!-- R_G_K__L -->
     <g transform="translate(692.518089 1051.92968) scale(0.1 -0.1)">
      <use xlink:href="#DejaVuSans-52"/>
      <use xlink:href="#DejaVuSans-5f" transform="translate(69.482422 0)"/>
      <use xlink:href="#DejaVuSans-47" transform="translate(119.482422 0)"/>
      <use xlink:href="#DejaVuSans-5f" transform="translate(196.972656 0)"/>
      <use xlink:href="#DejaVuSans-4b" transform="translate(246.972656 0)"/>
      <use xlink:href="#DejaVuSans-5f" transform="translate(312.548828 0)"/>
      <use xlink:href="#DejaVuSans-5f" transform="translate(362.548828 0)"/>
      <use xlink:href="#DejaVuSans-4c" transform="translate(412.548828 0)"/>
     </g>
    </g>
   </g>
   <g id="text_49">
    <g clip-path="url(#pfd5bb22936)">
     <!-- R_K__O -->
     <g transform="translate(615.768029 790.70445) scale(0.1 -0.1)">
      <use xlink:href="#DejaVuSans-52"/>
      <use xlink:href="#DejaVuSans-5f" transform="translate(69.482422 0)"/>
      <use xlink:href="#DejaVuSans-4b" transform="translate(119.482422 0)"/>
      <use xlink:href="#DejaVuSans-5f" transform="translate(185.058594 0)"/>
      <use xlink:href="#DejaVuSans-5f" transform="translate(235.058594 0)"/>
      <use xlink:href="#DejaVuSans-4f" transform="translate(285.058594 0)"/>
     </g>
    </g>
   </g>
   <g id="text_50">
    <g clip-path="url(#pfd5bb22936)">
     <!-- R_L__W -->
     <g transform="translate(887.085141 1228.928837) scale(0.1 -0.1)">
      <use xlink:href="#DejaVuSans-52"/>
      <use xlink:href="#DejaVuSans-5f" transform="translate(69.482422 0)"/>
      <use xlink:href="#DejaVuSans-4c" transform="translate(119.482422 0)"/>
      <use xlink:href="#DejaVuSans-5f" transform="translate(175.195312 0)"/>
      <use xlink:href="#DejaVuSans-5f" transform="translate(225.195312 0)"/>
      <use xlink:href="#DejaVuSans-57" transform="translate(275.195312 0)"/>
     </g>
    </g>
   </g>
   <g id="text_51">
    <g clip-path="url(#pfd5bb22936)">
     <!-- R_O_P__R -->
     <g transform="translate(711.45424 595.807915) scale(0.1 -0.1)">
      <use xlink:href="#DejaVuSans-52"/>
      <use xlink:href="#DejaVuSans-5f" transform="translate(69.482422 0)"/>
      <use xlink:href="#DejaVuSans-4f" transform="translate(119.482422 0)"/>
      <use xlink:href="#DejaVuSans-5f" transform="translate(198.193359 0)"/>
      <use xlink:href="#DejaVuSans-50" transform="translate(248.193359 0)"/>
      <use xlink:href="#DejaVuSans-5f" transform="translate(308.496094 0)"/>
      <use xlink:href="#DejaVuSans-5f" transform="translate(358.496094 0)"/>
      <use xlink:href="#DejaVuSans-52" transform="translate(408.496094 0)"/>
     </g>
    </g>
   </g>
   <g id="text_52">
    <g clip-path="url(#pfd5bb22936)">
     <!-- R_P_Q__S -->
     <g transform="translate(1038.409295 694.377382) scale(0.1 -0.1)">
      <use xlink:href="#DejaVuSans-52"/>
      <use xlink:href="#DejaVuSans-5f" transform="translate(69.482422 0)"/>
      <use xlink:href="#DejaVuSans-50" transform="translate(119.482422 0)"/>
      <use xlink:href="#DejaVuSans-5f" transform="translate(179.785156 0)"/>
      <use xlink:href="#DejaVuSans-51" transform="translate(229.785156 0)"/>
      <use xlink:href="#DejaVuSans-5f" transform="translate(308.496094 0)"/>
      <use xlink:href="#DejaVuSans-5f" transform="translate(358.496094 0)"/>
      <use xlink:href="#DejaVuSans-53" transform="translate(408.496094 0)"/>
     </g>
    </g>
   </g>
   <g id="text_53">
    <g clip-path="url(#pfd5bb22936)">
     <!-- R_S_T__V_X -->
     <g transform="translate(1239.378351 853.024333) scale(0.1 -0.1)">
      <use xlink:href="#DejaVuSans-52"/>
      <use xlink:href="#DejaVuSans-5f" transform="translate(69.482422 0)"/>
      <use xlink:href="#DejaVuSans-53" transform="translate(119.482422 0)"/>
      <use xlink:href="#DejaVuSans-5f" transform="translate(182.958984 0)"/>
      <use xlink:href="#DejaVuSans-54" transform="translate(232.958984 0)"/>
      <use xlink:href="#DejaVuSans-5f" transform="translate(294.042969 0)"/>
      <use xlink:href="#DejaVuSans-5f" transform="translate(344.042969 0)"/>
      <use xlink:href="#DejaVuSans-56" transform="translate(394.042969 0)"/>
      <use xlink:href="#DejaVuSans-5f" transform="translate(462.451172 0)"/>
      <use xlink:href="#DejaVuSans-58" transform="translate(512.451172 0)"/>
     </g>
    </g>
   </g>
   <g id="EdgeCollection_1">
    <path d="M 646.434399 1133.184585 
L 626.161784 1210.681605 
" clip-path="url(#pfd5bb22936)" style="fill: none; stroke: #000000; stroke-width: 1.5"/>
    <path d="M 651.613531 1111.404898 
L 675.916072 997.841975 
" clip-path="url(#pfd5bb22936)" style="fill: none; stroke: #000000; stroke-width: 1.5"/>
    <path d="M 527.257404 1004.860731 
L 476.168437 1012.6804 
" clip-path="url(#pfd5bb22936)" style="fill: none; stroke: #000000; stroke-width: 1.5"/>
    <path d="M 562.577131 1000.14369 
L 639.769162 991.340295 
" clip-path="url(#pfd5bb22936)" style="fill: none; stroke: #000000; stroke-width: 1.5"/>
    <path d="M 1128.109053 552.312555 
L 1133.474019 470.573097 
" clip-path="url(#pfd5bb22936)" style="fill: none; stroke: #000000; stroke-width: 1.5"/>
    <path d="M 1111.885383 574.092242 
L 976.653281 669.047719 
" clip-path="url(#pfd5bb22936)" style="fill: none; stroke: #000000; stroke-width: 1.5"/>
    <path d="M 1145.325353 558.773057 
L 1271.388685 527.632806 
" clip-path="url(#pfd5bb22936)" style="fill: none; stroke: #000000; stroke-width: 1.5"/>
    <path d="M 1447.802657 458.804415 
L 1493.990691 443.656794 
" clip-path="url(#pfd5bb22936)" style="fill: none; stroke: #000000; stroke-width: 1.5"/>
    <path d="M 1411.643087 472.559088 
L 1326.857251 509.256161 
" clip-path="url(#pfd5bb22936)" style="fill: none; stroke: #000000; stroke-width: 1.5"/>
    <path d="M 1734.258342 1504.563437 
L 1761.099423 1465.590005 
" clip-path="url(#pfd5bb22936)" style="fill: none; stroke: #000000; stroke-width: 1.5"/>
    <path d="M 1709.369618 1525.180976 
L 1669.329915 1547.580023 
" clip-path="url(#pfd5bb22936)" style="fill: none; stroke: #000000; stroke-width: 1.5"/>
    <path d="M 1406.474797 1673.857237 
L 1382.019524 1737.213179 
" clip-path="url(#pfd5bb22936)" style="fill: none; stroke: #000000; stroke-width: 1.5"/>
    <path d="M 1413.478175 1652.07755 
L 1437.229882 1559.699003 
" clip-path="url(#pfd5bb22936)" style="fill: none; stroke: #000000; stroke-width: 1.5"/>
    <path d="M 609.065994 1078.003157 
L 556.097887 1116.262845 
" clip-path="url(#pfd5bb22936)" style="fill: none; stroke: #000000; stroke-width: 1.5"/>
    <path d="M 631.492313 1056.22347 
L 670.896484 997.841975 
" clip-path="url(#pfd5bb22936)" style="fill: none; stroke: #000000; stroke-width: 1.5"/>
    <path d="M 642.456647 1063.578569 
L 684.03596 1055.553593 
" clip-path="url(#pfd5bb22936)" style="fill: none; stroke: #000000; stroke-width: 1.5"/>
    <path d="M 1382.893578 1422.708868 
L 1410.318758 1430.930416 
" clip-path="url(#pfd5bb22936)" style="fill: none; stroke: #000000; stroke-width: 1.5"/>
    <path d="M 1371.139483 1428.21167 
L 1433.834559 1538.050565 
" clip-path="url(#pfd5bb22936)" style="fill: none; stroke: #000000; stroke-width: 1.5"/>
    <path d="M 1363.655366 1406.431983 
L 1344.202647 1239.406245 
" clip-path="url(#pfd5bb22936)" style="fill: none; stroke: #000000; stroke-width: 1.5"/>
    <path d="M 1357.677876 1428.21167 
L 1297.657817 1518.417153 
" clip-path="url(#pfd5bb22936)" style="fill: none; stroke: #000000; stroke-width: 1.5"/>
    <path d="M 628.050476 492.803321 
L 580.978661 451.164977 
" clip-path="url(#pfd5bb22936)" style="fill: none; stroke: #000000; stroke-width: 1.5"/>
    <path d="M 651.908776 514.583008 
L 723.80604 582.38604 
" clip-path="url(#pfd5bb22936)" style="fill: none; stroke: #000000; stroke-width: 1.5"/>
    <path d="M 1228.056468 1644.833566 
L 1201.857846 1709.227643 
" clip-path="url(#pfd5bb22936)" style="fill: none; stroke: #000000; stroke-width: 1.5"/>
    <path d="M 1238.516172 1623.053879 
L 1284.462846 1540.06559 
" clip-path="url(#pfd5bb22936)" style="fill: none; stroke: #000000; stroke-width: 1.5"/>
    <path d="M 1241.606222 703.447918 
L 1220.922579 615.42301 
" clip-path="url(#pfd5bb22936)" style="fill: none; stroke: #000000; stroke-width: 1.5"/>
    <path d="M 1246.105489 725.227605 
L 1266.485581 839.602458 
" clip-path="url(#pfd5bb22936)" style="fill: none; stroke: #000000; stroke-width: 1.5"/>
    <path d="M 1016.206555 1281.349322 
L 1051.572213 1290.93644 
" clip-path="url(#pfd5bb22936)" style="fill: none; stroke: #000000; stroke-width: 1.5"/>
    <path d="M 977.211047 1265.423567 
L 925.624015 1237.271805 
" clip-path="url(#pfd5bb22936)" style="fill: none; stroke: #000000; stroke-width: 1.5"/>
    <path d="M 1320.527126 740.304662 
L 1345.091535 665.951756 
" clip-path="url(#pfd5bb22936)" style="fill: none; stroke: #000000; stroke-width: 1.5"/>
    <path d="M 1311.61009 762.08435 
L 1273.745301 839.602458 
" clip-path="url(#pfd5bb22936)" style="fill: none; stroke: #000000; stroke-width: 1.5"/>
    <path d="M 803.421914 846.373094 
L 687.943119 976.062287 
" clip-path="url(#pfd5bb22936)" style="fill: none; stroke: #000000; stroke-width: 1.5"/>
    <path d="M 823.481902 824.593407 
L 950.780991 690.827406 
" clip-path="url(#pfd5bb22936)" style="fill: none; stroke: #000000; stroke-width: 1.5"/>
    <path d="M 795.129074 841.304559 
L 759.919035 852.698376 
" clip-path="url(#pfd5bb22936)" style="fill: none; stroke: #000000; stroke-width: 1.5"/>
    <path d="M 935.531063 591.625506 
L 957.985964 669.047719 
" clip-path="url(#pfd5bb22936)" style="fill: none; stroke: #000000; stroke-width: 1.5"/>
    <path d="M 919.104014 569.845819 
L 896.41508 551.224558 
" clip-path="url(#pfd5bb22936)" style="fill: none; stroke: #000000; stroke-width: 1.5"/>
    <path d="M 1358.66808 570.110219 
L 1314.114076 531.035848 
" clip-path="url(#pfd5bb22936)" style="fill: none; stroke: #000000; stroke-width: 1.5"/>
    <path d="M 1364.124354 591.889906 
L 1322.790201 656.556001 
" clip-path="url(#pfd5bb22936)" style="fill: none; stroke: #000000; stroke-width: 1.5"/>
    <path d="M 892.684043 613.681477 
L 884.623364 551.224558 
" clip-path="url(#pfd5bb22936)" style="fill: none; stroke: #000000; stroke-width: 1.5"/>
    <path d="M 876.84466 621.171436 
L 767.618107 599.636988 
" clip-path="url(#pfd5bb22936)" style="fill: none; stroke: #000000; stroke-width: 1.5"/>
    <path d="M 911.334309 631.48018 
L 1034.82697 680.955507 
" clip-path="url(#pfd5bb22936)" style="fill: none; stroke: #000000; stroke-width: 1.5"/>
    <path d="M 1213.147628 694.958426 
L 1291.21669 674.040598 
" clip-path="url(#pfd5bb22936)" style="fill: none; stroke: #000000; stroke-width: 1.5"/>
    <path d="M 1176.396847 698.769612 
L 1093.838006 693.772083 
" clip-path="url(#pfd5bb22936)" style="fill: none; stroke: #000000; stroke-width: 1.5"/>
    <path d="M 1572.082607 1570.581753 
L 1623.512487 1562.541942 
" clip-path="url(#pfd5bb22936)" style="fill: none; stroke: #000000; stroke-width: 1.5"/>
    <path d="M 1534.995302 1569.46142 
L 1472.435584 1555.902124 
" clip-path="url(#pfd5bb22936)" style="fill: none; stroke: #000000; stroke-width: 1.5"/>
    <path d="M 1315.544788 1050.989445 
L 1341.272148 1217.757808 
" clip-path="url(#pfd5bb22936)" style="fill: none; stroke: #000000; stroke-width: 1.5"/>
    <path d="M 1311.255094 1029.209757 
L 1271.035725 861.382146 
" clip-path="url(#pfd5bb22936)" style="fill: none; stroke: #000000; stroke-width: 1.5"/>
    <path d="M 688.741341 899.61759 
L 720.702316 872.138929 
" clip-path="url(#pfd5bb22936)" style="fill: none; stroke: #000000; stroke-width: 1.5"/>
    <path d="M 679.20012 921.397277 
L 712.806399 1038.507805 
" clip-path="url(#pfd5bb22936)" style="fill: none; stroke: #000000; stroke-width: 1.5"/>
    <path d="M 672.325943 899.61759 
L 637.706296 799.062262 
" clip-path="url(#pfd5bb22936)" style="fill: none; stroke: #000000; stroke-width: 1.5"/>
    <path d="M 800.648024 1139.851301 
L 726.130529 1060.287493 
" clip-path="url(#pfd5bb22936)" style="fill: none; stroke: #000000; stroke-width: 1.5"/>
    <path d="M 824.503907 1161.630988 
L 892.214621 1215.623368 
" clip-path="url(#pfd5bb22936)" style="fill: none; stroke: #000000; stroke-width: 1.5"/>
    <path d="M 652.690869 686.074527 
L 635.955251 777.282575 
" clip-path="url(#pfd5bb22936)" style="fill: none; stroke: #000000; stroke-width: 1.5"/>
    <path d="M 665.413433 664.294839 
L 724.629055 604.165728 
" clip-path="url(#pfd5bb22936)" style="fill: none; stroke: #000000; stroke-width: 1.5"/>
    <path d="M 1150.313846 770.6836 
L 1074.206036 702.735194 
" clip-path="url(#pfd5bb22936)" style="fill: none; stroke: #000000; stroke-width: 1.5"/>
    <path d="M 1179.246901 792.463288 
L 1251.690473 839.602458 
" clip-path="url(#pfd5bb22936)" style="fill: none; stroke: #000000; stroke-width: 1.5"/>
   </g>
   <g id="matplotlib.axis_1"/>
   <g id="matplotlib.axis_2"/>
  </g>
 </g>
 <defs>
  <clipPath id="pfd5bb22936">
   <rect x="270" y="259.2" width="1674" height="1663.2"/>
  </clipPath>
 </defs>
</svg>
