<?xml version="1.0" encoding="utf-8" standalone="no"?>
<!DOCTYPE svg PUBLIC "-//W3C//DTD SVG 1.1//EN"
  "http://www.w3.org/Graphics/SVG/1.1/DTD/svg11.dtd">
<svg xmlns:xlink="http://www.w3.org/1999/xlink" width="1440pt" height="1440pt" viewBox="0 0 1440 1440" xmlns="http://www.w3.org/2000/svg" version="1.1">
 <metadata>
  <rdf:RDF xmlns:dc="http://purl.org/dc/elements/1.1/" xmlns:cc="http://creativecommons.org/ns#" xmlns:rdf="http://www.w3.org/1999/02/22-rdf-syntax-ns#">
   <cc:Work>
    <dc:type rdf:resource="http://purl.org/dc/dcmitype/StillImage"/>
    <dc:date>2026-01-15T10:57:04.002517</dc:date>
    <dc:format>image/svg+xml</dc:format>
    <dc:creator>
     <cc:Agent>
      <dc:title>Matplotlib v3.10.8, https://matplotlib.org/</dc:title>
     </cc:Agent>
    </dc:creator>
   </cc:Work>
  </rdf:RDF>
 </metadata>
 <defs>
  <style type="text/css">*{stroke-linejoin: round; stroke-linecap: butt}</style>
 </defs>
 <g id="figure_1">
  <g id="patch_1">
   <path d="M 0 1440 
L 1440 1440 
L 1440 0 
L 0 0 
z
" style="fill: #ffffff"/>
  </g>
  <g id="axes_1">
   <g id="patch_2">
    <path d="M 180 1281.6 
L 1296 1281.6 
L 1296 172.8 
L 180 172.8 
z
" style="fill: #ffffff"/>
   </g>
   <g id="VertexCollection_1">
    <path d="M 692.672849 875.989354 
L 742.924607 875.989354 
L 742.924607 854.340916 
L 692.672849 854.340916 
z
" clip-path="url(#pb28b42baea)" style="fill: #1f77b4; stroke: #000000; stroke-width: 1.5"/>
    <path d="M 576.809755 828.455943 
L 630.908974 828.455943 
L 630.908974 806.807506 
L 576.809755 806.807506 
z
" clip-path="url(#pb28b42baea)" style="fill: #1f77b4; stroke: #000000; stroke-width: 1.5"/>
    <path d="M 869.002186 829.878903 
L 921.587147 829.878903 
L 921.587147 808.230465 
L 869.002186 808.230465 
z
" clip-path="url(#pb28b42baea)" style="fill: #1f77b4; stroke: #000000; stroke-width: 1.5"/>
    <path d="M 932.34649 969.493993 
L 979.542583 969.493993 
L 979.542583 947.845556 
L 932.34649 947.845556 
z
" clip-path="url(#pb28b42baea)" style="fill: #1f77b4; stroke: #000000; stroke-width: 1.5"/>
    <path d="M 384.256349 825.417945 
L 446.796974 825.417945 
L 446.796974 803.461695 
L 384.256349 803.461695 
z
" clip-path="url(#pb28b42baea)" style="fill: #1f77b4; stroke: #000000; stroke-width: 1.5"/>
    <path d="M 355.829378 304.384724 
L 402.493246 304.384724 
L 402.493246 282.736287 
L 355.829378 282.736287 
z
" clip-path="url(#pb28b42baea)" style="fill: #1f77b4; stroke: #000000; stroke-width: 1.5"/>
    <path d="M 788.522988 413.89008 
L 835.982558 413.89008 
L 835.982558 392.241642 
L 788.522988 392.241642 
z
" clip-path="url(#pb28b42baea)" style="fill: #1f77b4; stroke: #000000; stroke-width: 1.5"/>
    <path d="M 413.686993 668.857931 
L 490.641681 668.857931 
L 490.641681 647.078244 
L 413.686993 647.078244 
z
" clip-path="url(#pb28b42baea)" style="fill: #1f77b4; stroke: #000000; stroke-width: 1.5"/>
    <path d="M 833.855071 1030.318466 
L 886.752532 1030.318466 
L 886.752532 1008.670029 
L 833.855071 1008.670029 
z
" clip-path="url(#pb28b42baea)" style="fill: #1f77b4; stroke: #000000; stroke-width: 1.5"/>
    <path d="M 774.728957 1157.52546 
L 821.876418 1157.52546 
L 821.876418 1135.877023 
L 774.728957 1135.877023 
z
" clip-path="url(#pb28b42baea)" style="fill: #1f77b4; stroke: #000000; stroke-width: 1.5"/>
    <path d="M 329.116572 762.472105 
L 392.082588 762.472105 
L 392.082588 740.515855 
L 329.116572 740.515855 
z
" clip-path="url(#pb28b42baea)" style="fill: #1f77b4; stroke: #000000; stroke-width: 1.5"/>
    <path d="M 396.221068 536.338123 
L 449.055053 536.338123 
L 449.055053 514.558435 
L 396.221068 514.558435 
z
" clip-path="url(#pb28b42baea)" style="fill: #1f77b4; stroke: #000000; stroke-width: 1.5"/>
    <path d="M 266.064765 689.24413 
L 327.721796 689.24413 
L 327.721796 667.28788 
L 266.064765 667.28788 
z
" clip-path="url(#pb28b42baea)" style="fill: #1f77b4; stroke: #000000; stroke-width: 1.5"/>
    <path d="M 457.970991 406.4071 
L 522.500288 406.4071 
L 522.500288 384.627412 
L 457.970991 384.627412 
z
" clip-path="url(#pb28b42baea)" style="fill: #1f77b4; stroke: #000000; stroke-width: 1.5"/>
    <path d="M 852.606862 455.85374 
L 901.832448 455.85374 
L 901.832448 434.074053 
L 852.606862 434.074053 
z
" clip-path="url(#pb28b42baea)" style="fill: #1f77b4; stroke: #000000; stroke-width: 1.5"/>
    <path d="M 927.585962 1043.407408 
L 992.431275 1043.407408 
L 992.431275 1021.758971 
L 927.585962 1021.758971 
z
" clip-path="url(#pb28b42baea)" style="fill: #1f77b4; stroke: #000000; stroke-width: 1.5"/>
    <path d="M 1148.5492 980.719378 
L 1209.664239 980.719378 
L 1209.664239 958.763128 
L 1148.5492 958.763128 
z
" clip-path="url(#pb28b42baea)" style="fill: #1f77b4; stroke: #000000; stroke-width: 1.5"/>
    <path d="M 445.39217 710.488276 
L 509.182991 710.488276 
L 509.182991 688.708589 
L 445.39217 688.708589 
z
" clip-path="url(#pb28b42baea)" style="fill: #1f77b4; stroke: #000000; stroke-width: 1.5"/>
    <path d="M 837.489657 357.653847 
L 898.106454 357.653847 
L 898.106454 335.874159 
L 837.489657 335.874159 
z
" clip-path="url(#pb28b42baea)" style="fill: #1f77b4; stroke: #000000; stroke-width: 1.5"/>
    <path d="M 1073.518839 1049.76038 
L 1126.455753 1049.76038 
L 1126.455753 1028.111943 
L 1073.518839 1028.111943 
z
" clip-path="url(#pb28b42baea)" style="fill: #1f77b4; stroke: #000000; stroke-width: 1.5"/>
    <path d="M 462.234598 585.034026 
L 515.488308 585.034026 
L 515.488308 563.385588 
L 462.234598 563.385588 
z
" clip-path="url(#pb28b42baea)" style="fill: #1f77b4; stroke: #000000; stroke-width: 1.5"/>
    <path d="M 808.216655 577.884712 
L 883.018022 577.884712 
L 883.018022 556.105024 
L 808.216655 556.105024 
z
" clip-path="url(#pb28b42baea)" style="fill: #1f77b4; stroke: #000000; stroke-width: 1.5"/>
    <path d="M 725.030005 317.374773 
L 787.229419 317.374773 
L 787.229419 295.418523 
L 725.030005 295.418523 
z
" clip-path="url(#pb28b42baea)" style="fill: #1f77b4; stroke: #000000; stroke-width: 1.5"/>
    <path d="M 888.247009 1176.438995 
L 948.795642 1176.438995 
L 948.795642 1154.482745 
L 888.247009 1154.482745 
z
" clip-path="url(#pb28b42baea)" style="fill: #1f77b4; stroke: #000000; stroke-width: 1.5"/>
    <path d="M 875.487219 447.57591 
L 922.736243 447.57591 
L 922.736243 425.927473 
L 875.487219 425.927473 
z
" clip-path="url(#pb28b42baea)" style="fill: #1f77b4; stroke: #000000; stroke-width: 1.5"/>
    <path d="M 985.577648 299.917255 
L 1048.074523 299.917255 
L 1048.074523 277.961005 
L 985.577648 277.961005 
z
" clip-path="url(#pb28b42baea)" style="fill: #1f77b4; stroke: #000000; stroke-width: 1.5"/>
    <path d="M 676.176184 472.120077 
L 739.835168 472.120077 
L 739.835168 450.34039 
L 676.176184 450.34039 
z
" clip-path="url(#pb28b42baea)" style="fill: #1f77b4; stroke: #000000; stroke-width: 1.5"/>
    <path d="M 610.544844 464.181552 
L 670.980977 464.181552 
L 670.980977 442.401865 
L 610.544844 442.401865 
z
" clip-path="url(#pb28b42baea)" style="fill: #1f77b4; stroke: #000000; stroke-width: 1.5"/>
    <path d="M 565.014958 371.091111 
L 612.620232 371.091111 
L 612.620232 349.442674 
L 565.014958 349.442674 
z
" clip-path="url(#pb28b42baea)" style="fill: #1f77b4; stroke: #000000; stroke-width: 1.5"/>
   </g>
   <g id="text_1">
    <g clip-path="url(#pb28b42baea)">
     <!-- W_exp -->
     <g transform="translate(701.232322 867.646385) scale(0.1 -0.1)">
      <defs>
       <path id="DejaVuSans-57" d="M 213 4666 
L 850 4666 
L 1831 722 
L 2809 4666 
L 3519 4666 
L 4500 722 
L 5478 4666 
L 6119 4666 
L 4947 0 
L 4153 0 
L 3169 4050 
L 2175 0 
L 1381 0 
L 213 4666 
z
" transform="scale(0.015625)"/>
       <path id="DejaVuSans-5f" d="M 3263 -1063 
L 3263 -1509 
L -63 -1509 
L -63 -1063 
L 3263 -1063 
z
" transform="scale(0.015625)"/>
       <path id="DejaVuSans-65" d="M 3597 1894 
L 3597 1613 
L 953 1613 
Q 991 1019 1311 708 
Q 1631 397 2203 397 
Q 2534 397 2845 478 
Q 3156 559 3463 722 
L 3463 178 
Q 3153 47 2828 -22 
Q 2503 -91 2169 -91 
Q 1331 -91 842 396 
Q 353 884 353 1716 
Q 353 2575 817 3079 
Q 1281 3584 2069 3584 
Q 2775 3584 3186 3129 
Q 3597 2675 3597 1894 
z
M 3022 2063 
Q 3016 2534 2758 2815 
Q 2500 3097 2075 3097 
Q 1594 3097 1305 2825 
Q 1016 2553 972 2059 
L 3022 2063 
z
" transform="scale(0.015625)"/>
       <path id="DejaVuSans-78" d="M 3513 3500 
L 2247 1797 
L 3578 0 
L 2900 0 
L 1881 1375 
L 863 0 
L 184 0 
L 1544 1831 
L 300 3500 
L 978 3500 
L 1906 2253 
L 2834 3500 
L 3513 3500 
z
" transform="scale(0.015625)"/>
       <path id="DejaVuSans-70" d="M 1159 525 
L 1159 -1331 
L 581 -1331 
L 581 3500 
L 1159 3500 
L 1159 2969 
Q 1341 3281 1617 3432 
Q 1894 3584 2278 3584 
Q 2916 3584 3314 3078 
Q 3713 2572 3713 1747 
Q 3713 922 3314 415 
Q 2916 -91 2278 -91 
Q 1894 -91 1617 61 
Q 1341 213 1159 525 
z
M 3116 1747 
Q 3116 2381 2855 2742 
Q 2594 3103 2138 3103 
Q 1681 3103 1420 2742 
Q 1159 2381 1159 1747 
Q 1159 1113 1420 752 
Q 1681 391 2138 391 
Q 2594 391 2855 752 
Q 3116 1113 3116 1747 
z
" transform="scale(0.015625)"/>
      </defs>
      <use xlink:href="#DejaVuSans-57"/>
      <use xlink:href="#DejaVuSans-5f" transform="translate(98.876953 0)"/>
      <use xlink:href="#DejaVuSans-65" transform="translate(148.876953 0)"/>
      <use xlink:href="#DejaVuSans-78" transform="translate(208.650391 0)"/>
      <use xlink:href="#DejaVuSans-70" transform="translate(267.830078 0)"/>
     </g>
    </g>
   </g>
   <g id="text_2">
    <g clip-path="url(#pb28b42baea)">
     <!-- R_L__W -->
     <g transform="translate(585.155458 820.112974) scale(0.1 -0.1)">
      <defs>
       <path id="DejaVuSans-52" d="M 2841 2188 
Q 3044 2119 3236 1894 
Q 3428 1669 3622 1275 
L 4263 0 
L 3584 0 
L 2988 1197 
Q 2756 1666 2539 1819 
Q 2322 1972 1947 1972 
L 1259 1972 
L 1259 0 
L 628 0 
L 628 4666 
L 2053 4666 
Q 2853 4666 3247 4331 
Q 3641 3997 3641 3322 
Q 3641 2881 3436 2590 
Q 3231 2300 2841 2188 
z
M 1259 4147 
L 1259 2491 
L 2053 2491 
Q 2509 2491 2742 2702 
Q 2975 2913 2975 3322 
Q 2975 3731 2742 3939 
Q 2509 4147 2053 4147 
L 1259 4147 
z
" transform="scale(0.015625)"/>
       <path id="DejaVuSans-4c" d="M 628 4666 
L 1259 4666 
L 1259 531 
L 3531 531 
L 3531 0 
L 628 0 
L 628 4666 
z
" transform="scale(0.015625)"/>
      </defs>
      <use xlink:href="#DejaVuSans-52"/>
      <use xlink:href="#DejaVuSans-5f" transform="translate(69.482422 0)"/>
      <use xlink:href="#DejaVuSans-4c" transform="translate(119.482422 0)"/>
      <use xlink:href="#DejaVuSans-5f" transform="translate(175.195312 0)"/>
      <use xlink:href="#DejaVuSans-5f" transform="translate(225.195312 0)"/>
      <use xlink:href="#DejaVuSans-57" transform="translate(275.195312 0)"/>
     </g>
    </g>
   </g>
   <g id="text_3">
    <g clip-path="url(#pb28b42baea)">
     <!-- R_N__T -->
     <g transform="translate(877.525917 821.535934) scale(0.1 -0.1)">
      <defs>
       <path id="DejaVuSans-4e" d="M 628 4666 
L 1478 4666 
L 3547 763 
L 3547 4666 
L 4159 4666 
L 4159 0 
L 3309 0 
L 1241 3903 
L 1241 0 
L 628 0 
L 628 4666 
z
" transform="scale(0.015625)"/>
       <path id="DejaVuSans-54" d="M -19 4666 
L 3928 4666 
L 3928 4134 
L 2272 4134 
L 2272 0 
L 1638 0 
L 1638 4134 
L -19 4134 
L -19 4666 
z
" transform="scale(0.015625)"/>
      </defs>
      <use xlink:href="#DejaVuSans-52"/>
      <use xlink:href="#DejaVuSans-5f" transform="translate(69.482422 0)"/>
      <use xlink:href="#DejaVuSans-4e" transform="translate(119.482422 0)"/>
      <use xlink:href="#DejaVuSans-5f" transform="translate(194.287109 0)"/>
      <use xlink:href="#DejaVuSans-5f" transform="translate(244.287109 0)"/>
      <use xlink:href="#DejaVuSans-54" transform="translate(294.287109 0)"/>
     </g>
    </g>
   </g>
   <g id="text_4">
    <g clip-path="url(#pb28b42baea)">
     <!-- N_exp -->
     <g transform="translate(940.581255 961.151024) scale(0.1 -0.1)">
      <use xlink:href="#DejaVuSans-4e"/>
      <use xlink:href="#DejaVuSans-5f" transform="translate(74.804688 0)"/>
      <use xlink:href="#DejaVuSans-65" transform="translate(124.804688 0)"/>
      <use xlink:href="#DejaVuSans-78" transform="translate(184.578125 0)"/>
      <use xlink:href="#DejaVuSans-70" transform="translate(243.757812 0)"/>
     </g>
    </g>
   </g>
   <g id="text_5">
    <g clip-path="url(#pb28b42baea)">
     <!-- A_import -->
     <g transform="translate(393.097755 817.060133) scale(0.1 -0.1)">
      <defs>
       <path id="DejaVuSans-41" d="M 2188 4044 
L 1331 1722 
L 3047 1722 
L 2188 4044 
z
M 1831 4666 
L 2547 4666 
L 4325 0 
L 3669 0 
L 3244 1197 
L 1141 1197 
L 716 0 
L 50 0 
L 1831 4666 
z
" transform="scale(0.015625)"/>
       <path id="DejaVuSans-69" d="M 603 3500 
L 1178 3500 
L 1178 0 
L 603 0 
L 603 3500 
z
M 603 4863 
L 1178 4863 
L 1178 4134 
L 603 4134 
L 603 4863 
z
" transform="scale(0.015625)"/>
       <path id="DejaVuSans-6d" d="M 3328 2828 
Q 3544 3216 3844 3400 
Q 4144 3584 4550 3584 
Q 5097 3584 5394 3201 
Q 5691 2819 5691 2113 
L 5691 0 
L 5113 0 
L 5113 2094 
Q 5113 2597 4934 2840 
Q 4756 3084 4391 3084 
Q 3944 3084 3684 2787 
Q 3425 2491 3425 1978 
L 3425 0 
L 2847 0 
L 2847 2094 
Q 2847 2600 2669 2842 
Q 2491 3084 2119 3084 
Q 1678 3084 1418 2786 
Q 1159 2488 1159 1978 
L 1159 0 
L 581 0 
L 581 3500 
L 1159 3500 
L 1159 2956 
Q 1356 3278 1631 3431 
Q 1906 3584 2284 3584 
Q 2666 3584 2933 3390 
Q 3200 3197 3328 2828 
z
" transform="scale(0.015625)"/>
       <path id="DejaVuSans-6f" d="M 1959 3097 
Q 1497 3097 1228 2736 
Q 959 2375 959 1747 
Q 959 1119 1226 758 
Q 1494 397 1959 397 
Q 2419 397 2687 759 
Q 2956 1122 2956 1747 
Q 2956 2369 2687 2733 
Q 2419 3097 1959 3097 
z
M 1959 3584 
Q 2709 3584 3137 3096 
Q 3566 2609 3566 1747 
Q 3566 888 3137 398 
Q 2709 -91 1959 -91 
Q 1206 -91 779 398 
Q 353 888 353 1747 
Q 353 2609 779 3096 
Q 1206 3584 1959 3584 
z
" transform="scale(0.015625)"/>
       <path id="DejaVuSans-72" d="M 2631 2963 
Q 2534 3019 2420 3045 
Q 2306 3072 2169 3072 
Q 1681 3072 1420 2755 
Q 1159 2438 1159 1844 
L 1159 0 
L 581 0 
L 581 3500 
L 1159 3500 
L 1159 2956 
Q 1341 3275 1631 3429 
Q 1922 3584 2338 3584 
Q 2397 3584 2469 3576 
Q 2541 3569 2628 3553 
L 2631 2963 
z
" transform="scale(0.015625)"/>
       <path id="DejaVuSans-74" d="M 1172 4494 
L 1172 3500 
L 2356 3500 
L 2356 3053 
L 1172 3053 
L 1172 1153 
Q 1172 725 1289 603 
Q 1406 481 1766 481 
L 2356 481 
L 2356 0 
L 1766 0 
Q 1100 0 847 248 
Q 594 497 594 1153 
L 594 3053 
L 172 3053 
L 172 3500 
L 594 3500 
L 594 4494 
L 1172 4494 
z
" transform="scale(0.015625)"/>
      </defs>
      <use xlink:href="#DejaVuSans-41"/>
      <use xlink:href="#DejaVuSans-5f" transform="translate(68.408203 0)"/>
      <use xlink:href="#DejaVuSans-69" transform="translate(118.408203 0)"/>
      <use xlink:href="#DejaVuSans-6d" transform="translate(146.191406 0)"/>
      <use xlink:href="#DejaVuSans-70" transform="translate(243.603516 0)"/>
      <use xlink:href="#DejaVuSans-6f" transform="translate(307.080078 0)"/>
      <use xlink:href="#DejaVuSans-72" transform="translate(368.261719 0)"/>
      <use xlink:href="#DejaVuSans-74" transform="translate(409.375 0)"/>
     </g>
    </g>
   </g>
   <g id="text_6">
    <g clip-path="url(#pb28b42baea)">
     <!-- R_exp -->
     <g transform="translate(364.064437 296.041756) scale(0.1 -0.1)">
      <use xlink:href="#DejaVuSans-52"/>
      <use xlink:href="#DejaVuSans-5f" transform="translate(69.482422 0)"/>
      <use xlink:href="#DejaVuSans-65" transform="translate(119.482422 0)"/>
      <use xlink:href="#DejaVuSans-78" transform="translate(179.255859 0)"/>
      <use xlink:href="#DejaVuSans-70" transform="translate(238.435547 0)"/>
     </g>
    </g>
   </g>
   <g id="text_7">
    <g clip-path="url(#pb28b42baea)">
     <!-- V_exp -->
     <g transform="translate(797.209804 405.547111) scale(0.1 -0.1)">
      <defs>
       <path id="DejaVuSans-56" d="M 1831 0 
L 50 4666 
L 709 4666 
L 2188 738 
L 3669 4666 
L 4325 4666 
L 2547 0 
L 1831 0 
z
" transform="scale(0.015625)"/>
      </defs>
      <use xlink:href="#DejaVuSans-56"/>
      <use xlink:href="#DejaVuSans-5f" transform="translate(68.408203 0)"/>
      <use xlink:href="#DejaVuSans-65" transform="translate(118.408203 0)"/>
      <use xlink:href="#DejaVuSans-78" transform="translate(178.181641 0)"/>
      <use xlink:href="#DejaVuSans-70" transform="translate(237.361328 0)"/>
     </g>
    </g>
   </g>
   <g id="text_8">
    <g clip-path="url(#pb28b42baea)">
     <!-- R_A_B__G_H -->
     <g transform="translate(421.704962 660.500119) scale(0.1 -0.1)">
      <defs>
       <path id="DejaVuSans-42" d="M 1259 2228 
L 1259 519 
L 2272 519 
Q 2781 519 3026 730 
Q 3272 941 3272 1375 
Q 3272 1813 3026 2020 
Q 2781 2228 2272 2228 
L 1259 2228 
z
M 1259 4147 
L 1259 2741 
L 2194 2741 
Q 2656 2741 2882 2914 
Q 3109 3088 3109 3444 
Q 3109 3797 2882 3972 
Q 2656 4147 2194 4147 
L 1259 4147 
z
M 628 4666 
L 2241 4666 
Q 2963 4666 3353 4366 
Q 3744 4066 3744 3513 
Q 3744 3084 3544 2831 
Q 3344 2578 2956 2516 
Q 3422 2416 3680 2098 
Q 3938 1781 3938 1306 
Q 3938 681 3513 340 
Q 3088 0 2303 0 
L 628 0 
L 628 4666 
z
" transform="scale(0.015625)"/>
       <path id="DejaVuSans-47" d="M 3809 666 
L 3809 1919 
L 2778 1919 
L 2778 2438 
L 4434 2438 
L 4434 434 
Q 4069 175 3628 42 
Q 3188 -91 2688 -91 
Q 1594 -91 976 548 
Q 359 1188 359 2328 
Q 359 3472 976 4111 
Q 1594 4750 2688 4750 
Q 3144 4750 3555 4637 
Q 3966 4525 4313 4306 
L 4313 3634 
Q 3963 3931 3569 4081 
Q 3175 4231 2741 4231 
Q 1884 4231 1454 3753 
Q 1025 3275 1025 2328 
Q 1025 1384 1454 906 
Q 1884 428 2741 428 
Q 3075 428 3337 486 
Q 3600 544 3809 666 
z
" transform="scale(0.015625)"/>
       <path id="DejaVuSans-48" d="M 628 4666 
L 1259 4666 
L 1259 2753 
L 3553 2753 
L 3553 4666 
L 4184 4666 
L 4184 0 
L 3553 0 
L 3553 2222 
L 1259 2222 
L 1259 0 
L 628 0 
L 628 4666 
z
" transform="scale(0.015625)"/>
      </defs>
      <use xlink:href="#DejaVuSans-52"/>
      <use xlink:href="#DejaVuSans-5f" transform="translate(69.482422 0)"/>
      <use xlink:href="#DejaVuSans-41" transform="translate(119.482422 0)"/>
      <use xlink:href="#DejaVuSans-5f" transform="translate(187.890625 0)"/>
      <use xlink:href="#DejaVuSans-42" transform="translate(237.890625 0)"/>
      <use xlink:href="#DejaVuSans-5f" transform="translate(306.494141 0)"/>
      <use xlink:href="#DejaVuSans-5f" transform="translate(356.494141 0)"/>
      <use xlink:href="#DejaVuSans-47" transform="translate(406.494141 0)"/>
      <use xlink:href="#DejaVuSans-5f" transform="translate(483.984375 0)"/>
      <use xlink:href="#DejaVuSans-48" transform="translate(533.984375 0)"/>
     </g>
    </g>
   </g>
   <g id="text_9">
    <g clip-path="url(#pb28b42baea)">
     <!-- R_N__U -->
     <g transform="translate(841.929583 1021.975498) scale(0.1 -0.1)">
      <defs>
       <path id="DejaVuSans-55" d="M 556 4666 
L 1191 4666 
L 1191 1831 
Q 1191 1081 1462 751 
Q 1734 422 2344 422 
Q 2950 422 3222 751 
Q 3494 1081 3494 1831 
L 3494 4666 
L 4128 4666 
L 4128 1753 
Q 4128 841 3676 375 
Q 3225 -91 2344 -91 
Q 1459 -91 1007 375 
Q 556 841 556 1753 
L 556 4666 
z
" transform="scale(0.015625)"/>
      </defs>
      <use xlink:href="#DejaVuSans-52"/>
      <use xlink:href="#DejaVuSans-5f" transform="translate(69.482422 0)"/>
      <use xlink:href="#DejaVuSans-4e" transform="translate(119.482422 0)"/>
      <use xlink:href="#DejaVuSans-5f" transform="translate(194.287109 0)"/>
      <use xlink:href="#DejaVuSans-5f" transform="translate(244.287109 0)"/>
      <use xlink:href="#DejaVuSans-55" transform="translate(294.287109 0)"/>
     </g>
    </g>
   </g>
   <g id="text_10">
    <g clip-path="url(#pb28b42baea)">
     <!-- U_exp -->
     <g transform="translate(783.020656 1149.182491) scale(0.1 -0.1)">
      <use xlink:href="#DejaVuSans-55"/>
      <use xlink:href="#DejaVuSans-5f" transform="translate(73.193359 0)"/>
      <use xlink:href="#DejaVuSans-65" transform="translate(123.193359 0)"/>
      <use xlink:href="#DejaVuSans-78" transform="translate(182.966797 0)"/>
      <use xlink:href="#DejaVuSans-70" transform="translate(242.146484 0)"/>
     </g>
    </g>
   </g>
   <g id="text_11">
    <g clip-path="url(#pb28b42baea)">
     <!-- G_import -->
     <g transform="translate(337.716768 754.114292) scale(0.1 -0.1)">
      <use xlink:href="#DejaVuSans-47"/>
      <use xlink:href="#DejaVuSans-5f" transform="translate(77.490234 0)"/>
      <use xlink:href="#DejaVuSans-69" transform="translate(127.490234 0)"/>
      <use xlink:href="#DejaVuSans-6d" transform="translate(155.273438 0)"/>
      <use xlink:href="#DejaVuSans-70" transform="translate(252.685547 0)"/>
      <use xlink:href="#DejaVuSans-6f" transform="translate(316.162109 0)"/>
      <use xlink:href="#DejaVuSans-72" transform="translate(377.34375 0)"/>
      <use xlink:href="#DejaVuSans-74" transform="translate(418.457031 0)"/>
     </g>
    </g>
   </g>
   <g id="text_12">
    <g clip-path="url(#pb28b42baea)">
     <!-- R_K__O -->
     <g transform="translate(404.448998 527.98031) scale(0.1 -0.1)">
      <defs>
       <path id="DejaVuSans-4b" d="M 628 4666 
L 1259 4666 
L 1259 2694 
L 3353 4666 
L 4166 4666 
L 1850 2491 
L 4331 0 
L 3500 0 
L 1259 2247 
L 1259 0 
L 628 0 
L 628 4666 
z
" transform="scale(0.015625)"/>
       <path id="DejaVuSans-4f" d="M 2522 4238 
Q 1834 4238 1429 3725 
Q 1025 3213 1025 2328 
Q 1025 1447 1429 934 
Q 1834 422 2522 422 
Q 3209 422 3611 934 
Q 4013 1447 4013 2328 
Q 4013 3213 3611 3725 
Q 3209 4238 2522 4238 
z
M 2522 4750 
Q 3503 4750 4090 4092 
Q 4678 3434 4678 2328 
Q 4678 1225 4090 567 
Q 3503 -91 2522 -91 
Q 1538 -91 948 565 
Q 359 1222 359 2328 
Q 359 3434 948 4092 
Q 1538 4750 2522 4750 
z
" transform="scale(0.015625)"/>
      </defs>
      <use xlink:href="#DejaVuSans-52"/>
      <use xlink:href="#DejaVuSans-5f" transform="translate(69.482422 0)"/>
      <use xlink:href="#DejaVuSans-4b" transform="translate(119.482422 0)"/>
      <use xlink:href="#DejaVuSans-5f" transform="translate(185.058594 0)"/>
      <use xlink:href="#DejaVuSans-5f" transform="translate(235.058594 0)"/>
      <use xlink:href="#DejaVuSans-4f" transform="translate(285.058594 0)"/>
     </g>
    </g>
   </g>
   <g id="text_13">
    <g clip-path="url(#pb28b42baea)">
     <!-- B_import -->
     <g transform="translate(274.454218 680.886318) scale(0.1 -0.1)">
      <use xlink:href="#DejaVuSans-42"/>
      <use xlink:href="#DejaVuSans-5f" transform="translate(68.603516 0)"/>
      <use xlink:href="#DejaVuSans-69" transform="translate(118.603516 0)"/>
      <use xlink:href="#DejaVuSans-6d" transform="translate(146.386719 0)"/>
      <use xlink:href="#DejaVuSans-70" transform="translate(243.798828 0)"/>
      <use xlink:href="#DejaVuSans-6f" transform="translate(307.275391 0)"/>
      <use xlink:href="#DejaVuSans-72" transform="translate(368.457031 0)"/>
      <use xlink:href="#DejaVuSans-74" transform="translate(409.570312 0)"/>
     </g>
    </g>
   </g>
   <g id="text_14">
    <g clip-path="url(#pb28b42baea)">
     <!-- R_O_P__R -->
     <g transform="translate(466.33642 398.049287) scale(0.1 -0.1)">
      <defs>
       <path id="DejaVuSans-50" d="M 1259 4147 
L 1259 2394 
L 2053 2394 
Q 2494 2394 2734 2622 
Q 2975 2850 2975 3272 
Q 2975 3691 2734 3919 
Q 2494 4147 2053 4147 
L 1259 4147 
z
M 628 4666 
L 2053 4666 
Q 2838 4666 3239 4311 
Q 3641 3956 3641 3272 
Q 3641 2581 3239 2228 
Q 2838 1875 2053 1875 
L 1259 1875 
L 1259 0 
L 628 0 
L 628 4666 
z
" transform="scale(0.015625)"/>
      </defs>
      <use xlink:href="#DejaVuSans-52"/>
      <use xlink:href="#DejaVuSans-5f" transform="translate(69.482422 0)"/>
      <use xlink:href="#DejaVuSans-4f" transform="translate(119.482422 0)"/>
      <use xlink:href="#DejaVuSans-5f" transform="translate(198.193359 0)"/>
      <use xlink:href="#DejaVuSans-50" transform="translate(248.193359 0)"/>
      <use xlink:href="#DejaVuSans-5f" transform="translate(308.496094 0)"/>
      <use xlink:href="#DejaVuSans-5f" transform="translate(358.496094 0)"/>
      <use xlink:href="#DejaVuSans-52" transform="translate(408.496094 0)"/>
     </g>
    </g>
   </g>
   <g id="text_15">
    <g clip-path="url(#pb28b42baea)">
     <!-- R_J__Q -->
     <g transform="translate(860.834499 447.495928) scale(0.1 -0.1)">
      <defs>
       <path id="DejaVuSans-4a" d="M 628 4666 
L 1259 4666 
L 1259 325 
Q 1259 -519 939 -900 
Q 619 -1281 -91 -1281 
L -331 -1281 
L -331 -750 
L -134 -750 
Q 284 -750 456 -515 
Q 628 -281 628 325 
L 628 4666 
z
" transform="scale(0.015625)"/>
       <path id="DejaVuSans-51" d="M 2522 4238 
Q 1834 4238 1429 3725 
Q 1025 3213 1025 2328 
Q 1025 1447 1429 934 
Q 1834 422 2522 422 
Q 3209 422 3611 934 
Q 4013 1447 4013 2328 
Q 4013 3213 3611 3725 
Q 3209 4238 2522 4238 
z
M 3406 84 
L 4238 -825 
L 3475 -825 
L 2784 -78 
Q 2681 -84 2626 -87 
Q 2572 -91 2522 -91 
Q 1538 -91 948 567 
Q 359 1225 359 2328 
Q 359 3434 948 4092 
Q 1538 4750 2522 4750 
Q 3503 4750 4090 4092 
Q 4678 3434 4678 2328 
Q 4678 1516 4351 937 
Q 4025 359 3406 84 
z
" transform="scale(0.015625)"/>
      </defs>
      <use xlink:href="#DejaVuSans-52"/>
      <use xlink:href="#DejaVuSans-5f" transform="translate(69.482422 0)"/>
      <use xlink:href="#DejaVuSans-4a" transform="translate(119.482422 0)"/>
      <use xlink:href="#DejaVuSans-5f" transform="translate(148.974609 0)"/>
      <use xlink:href="#DejaVuSans-5f" transform="translate(198.974609 0)"/>
      <use xlink:href="#DejaVuSans-51" transform="translate(248.974609 0)"/>
     </g>
    </g>
   </g>
   <g id="text_16">
    <g clip-path="url(#pb28b42baea)">
     <!-- R_F_M__N -->
     <g transform="translate(935.603931 1035.064439) scale(0.1 -0.1)">
      <defs>
       <path id="DejaVuSans-46" d="M 628 4666 
L 3309 4666 
L 3309 4134 
L 1259 4134 
L 1259 2759 
L 3109 2759 
L 3109 2228 
L 1259 2228 
L 1259 0 
L 628 0 
L 628 4666 
z
" transform="scale(0.015625)"/>
       <path id="DejaVuSans-4d" d="M 628 4666 
L 1569 4666 
L 2759 1491 
L 3956 4666 
L 4897 4666 
L 4897 0 
L 4281 0 
L 4281 4097 
L 3078 897 
L 2444 897 
L 1241 4097 
L 1241 0 
L 628 0 
L 628 4666 
z
" transform="scale(0.015625)"/>
      </defs>
      <use xlink:href="#DejaVuSans-52"/>
      <use xlink:href="#DejaVuSans-5f" transform="translate(69.482422 0)"/>
      <use xlink:href="#DejaVuSans-46" transform="translate(119.482422 0)"/>
      <use xlink:href="#DejaVuSans-5f" transform="translate(177.001953 0)"/>
      <use xlink:href="#DejaVuSans-4d" transform="translate(227.001953 0)"/>
      <use xlink:href="#DejaVuSans-5f" transform="translate(313.28125 0)"/>
      <use xlink:href="#DejaVuSans-5f" transform="translate(363.28125 0)"/>
      <use xlink:href="#DejaVuSans-4e" transform="translate(413.28125 0)"/>
     </g>
    </g>
   </g>
   <g id="text_17">
    <g clip-path="url(#pb28b42baea)">
     <!-- E_import -->
     <g transform="translate(1156.938751 972.361566) scale(0.1 -0.1)">
      <defs>
       <path id="DejaVuSans-45" d="M 628 4666 
L 3578 4666 
L 3578 4134 
L 1259 4134 
L 1259 2753 
L 3481 2753 
L 3481 2222 
L 1259 2222 
L 1259 531 
L 3634 531 
L 3634 0 
L 628 0 
L 628 4666 
z
" transform="scale(0.015625)"/>
      </defs>
      <use xlink:href="#DejaVuSans-45"/>
      <use xlink:href="#DejaVuSans-5f" transform="translate(63.183594 0)"/>
      <use xlink:href="#DejaVuSans-69" transform="translate(113.183594 0)"/>
      <use xlink:href="#DejaVuSans-6d" transform="translate(140.966797 0)"/>
      <use xlink:href="#DejaVuSans-70" transform="translate(238.378906 0)"/>
      <use xlink:href="#DejaVuSans-6f" transform="translate(301.855469 0)"/>
      <use xlink:href="#DejaVuSans-72" transform="translate(363.037109 0)"/>
      <use xlink:href="#DejaVuSans-74" transform="translate(404.150391 0)"/>
     </g>
    </g>
   </g>
   <g id="text_18">
    <g clip-path="url(#pb28b42baea)">
     <!-- R_G_K__L -->
     <g transform="translate(453.874299 702.130464) scale(0.1 -0.1)">
      <use xlink:href="#DejaVuSans-52"/>
      <use xlink:href="#DejaVuSans-5f" transform="translate(69.482422 0)"/>
      <use xlink:href="#DejaVuSans-47" transform="translate(119.482422 0)"/>
      <use xlink:href="#DejaVuSans-5f" transform="translate(196.972656 0)"/>
      <use xlink:href="#DejaVuSans-4b" transform="translate(246.972656 0)"/>
      <use xlink:href="#DejaVuSans-5f" transform="translate(312.548828 0)"/>
      <use xlink:href="#DejaVuSans-5f" transform="translate(362.548828 0)"/>
      <use xlink:href="#DejaVuSans-4c" transform="translate(412.548828 0)"/>
     </g>
    </g>
   </g>
   <g id="text_19">
    <g clip-path="url(#pb28b42baea)">
     <!-- R_C_D__J -->
     <g transform="translate(845.507431 349.296034) scale(0.1 -0.1)">
      <defs>
       <path id="DejaVuSans-43" d="M 4122 4306 
L 4122 3641 
Q 3803 3938 3442 4084 
Q 3081 4231 2675 4231 
Q 1875 4231 1450 3742 
Q 1025 3253 1025 2328 
Q 1025 1406 1450 917 
Q 1875 428 2675 428 
Q 3081 428 3442 575 
Q 3803 722 4122 1019 
L 4122 359 
Q 3791 134 3420 21 
Q 3050 -91 2638 -91 
Q 1578 -91 968 557 
Q 359 1206 359 2328 
Q 359 3453 968 4101 
Q 1578 4750 2638 4750 
Q 3056 4750 3426 4639 
Q 3797 4528 4122 4306 
z
" transform="scale(0.015625)"/>
       <path id="DejaVuSans-44" d="M 1259 4147 
L 1259 519 
L 2022 519 
Q 2988 519 3436 956 
Q 3884 1394 3884 2338 
Q 3884 3275 3436 3711 
Q 2988 4147 2022 4147 
L 1259 4147 
z
M 628 4666 
L 1925 4666 
Q 3281 4666 3915 4102 
Q 4550 3538 4550 2338 
Q 4550 1131 3912 565 
Q 3275 0 1925 0 
L 628 0 
L 628 4666 
z
" transform="scale(0.015625)"/>
      </defs>
      <use xlink:href="#DejaVuSans-52"/>
      <use xlink:href="#DejaVuSans-5f" transform="translate(69.482422 0)"/>
      <use xlink:href="#DejaVuSans-43" transform="translate(119.482422 0)"/>
      <use xlink:href="#DejaVuSans-5f" transform="translate(189.306641 0)"/>
      <use xlink:href="#DejaVuSans-44" transform="translate(239.306641 0)"/>
      <use xlink:href="#DejaVuSans-5f" transform="translate(316.308594 0)"/>
      <use xlink:href="#DejaVuSans-5f" transform="translate(366.308594 0)"/>
      <use xlink:href="#DejaVuSans-4a" transform="translate(416.308594 0)"/>
     </g>
    </g>
   </g>
   <g id="text_20">
    <g clip-path="url(#pb28b42baea)">
     <!-- R_E__M -->
     <g transform="translate(1081.53964 1041.417411) scale(0.1 -0.1)">
      <use xlink:href="#DejaVuSans-52"/>
      <use xlink:href="#DejaVuSans-5f" transform="translate(69.482422 0)"/>
      <use xlink:href="#DejaVuSans-45" transform="translate(119.482422 0)"/>
      <use xlink:href="#DejaVuSans-5f" transform="translate(182.666016 0)"/>
      <use xlink:href="#DejaVuSans-5f" transform="translate(232.666016 0)"/>
      <use xlink:href="#DejaVuSans-4d" transform="translate(282.666016 0)"/>
     </g>
    </g>
   </g>
   <g id="text_21">
    <g clip-path="url(#pb28b42baea)">
     <!-- R_H__K -->
     <g transform="translate(470.848172 576.691057) scale(0.1 -0.1)">
      <use xlink:href="#DejaVuSans-52"/>
      <use xlink:href="#DejaVuSans-5f" transform="translate(69.482422 0)"/>
      <use xlink:href="#DejaVuSans-48" transform="translate(119.482422 0)"/>
      <use xlink:href="#DejaVuSans-5f" transform="translate(194.677734 0)"/>
      <use xlink:href="#DejaVuSans-5f" transform="translate(244.677734 0)"/>
      <use xlink:href="#DejaVuSans-4b" transform="translate(294.677734 0)"/>
     </g>
    </g>
   </g>
   <g id="text_22">
    <g clip-path="url(#pb28b42baea)">
     <!-- R_S_T__V_X -->
     <g transform="translate(816.569682 569.526899) scale(0.1 -0.1)">
      <defs>
       <path id="DejaVuSans-53" d="M 3425 4513 
L 3425 3897 
Q 3066 4069 2747 4153 
Q 2428 4238 2131 4238 
Q 1616 4238 1336 4038 
Q 1056 3838 1056 3469 
Q 1056 3159 1242 3001 
Q 1428 2844 1947 2747 
L 2328 2669 
Q 3034 2534 3370 2195 
Q 3706 1856 3706 1288 
Q 3706 609 3251 259 
Q 2797 -91 1919 -91 
Q 1588 -91 1214 -16 
Q 841 59 441 206 
L 441 856 
Q 825 641 1194 531 
Q 1563 422 1919 422 
Q 2459 422 2753 634 
Q 3047 847 3047 1241 
Q 3047 1584 2836 1778 
Q 2625 1972 2144 2069 
L 1759 2144 
Q 1053 2284 737 2584 
Q 422 2884 422 3419 
Q 422 4038 858 4394 
Q 1294 4750 2059 4750 
Q 2388 4750 2728 4690 
Q 3069 4631 3425 4513 
z
" transform="scale(0.015625)"/>
       <path id="DejaVuSans-58" d="M 403 4666 
L 1081 4666 
L 2241 2931 
L 3406 4666 
L 4084 4666 
L 2584 2425 
L 4184 0 
L 3506 0 
L 2194 1984 
L 872 0 
L 191 0 
L 1856 2491 
L 403 4666 
z
" transform="scale(0.015625)"/>
      </defs>
      <use xlink:href="#DejaVuSans-52"/>
      <use xlink:href="#DejaVuSans-5f" transform="translate(69.482422 0)"/>
      <use xlink:href="#DejaVuSans-53" transform="translate(119.482422 0)"/>
      <use xlink:href="#DejaVuSans-5f" transform="translate(182.958984 0)"/>
      <use xlink:href="#DejaVuSans-54" transform="translate(232.958984 0)"/>
      <use xlink:href="#DejaVuSans-5f" transform="translate(294.042969 0)"/>
      <use xlink:href="#DejaVuSans-5f" transform="translate(344.042969 0)"/>
      <use xlink:href="#DejaVuSans-56" transform="translate(394.042969 0)"/>
      <use xlink:href="#DejaVuSans-5f" transform="translate(462.451172 0)"/>
      <use xlink:href="#DejaVuSans-58" transform="translate(512.451172 0)"/>
     </g>
    </g>
   </g>
   <g id="text_23">
    <g clip-path="url(#pb28b42baea)">
     <!-- C_import -->
     <g transform="translate(733.629712 309.016961) scale(0.1 -0.1)">
      <use xlink:href="#DejaVuSans-43"/>
      <use xlink:href="#DejaVuSans-5f" transform="translate(69.824219 0)"/>
      <use xlink:href="#DejaVuSans-69" transform="translate(119.824219 0)"/>
      <use xlink:href="#DejaVuSans-6d" transform="translate(147.607422 0)"/>
      <use xlink:href="#DejaVuSans-70" transform="translate(245.019531 0)"/>
      <use xlink:href="#DejaVuSans-6f" transform="translate(308.496094 0)"/>
      <use xlink:href="#DejaVuSans-72" transform="translate(369.677734 0)"/>
      <use xlink:href="#DejaVuSans-74" transform="translate(410.791016 0)"/>
     </g>
    </g>
   </g>
   <g id="text_24">
    <g clip-path="url(#pb28b42baea)">
     <!-- F_import -->
     <g transform="translate(896.63695 1168.081182) scale(0.1 -0.1)">
      <use xlink:href="#DejaVuSans-46"/>
      <use xlink:href="#DejaVuSans-5f" transform="translate(57.519531 0)"/>
      <use xlink:href="#DejaVuSans-69" transform="translate(107.519531 0)"/>
      <use xlink:href="#DejaVuSans-6d" transform="translate(135.302734 0)"/>
      <use xlink:href="#DejaVuSans-70" transform="translate(232.714844 0)"/>
      <use xlink:href="#DejaVuSans-6f" transform="translate(296.191406 0)"/>
      <use xlink:href="#DejaVuSans-72" transform="translate(357.373047 0)"/>
      <use xlink:href="#DejaVuSans-74" transform="translate(398.486328 0)"/>
     </g>
    </g>
   </g>
   <g id="text_25">
    <g clip-path="url(#pb28b42baea)">
     <!-- X_exp -->
     <g transform="translate(884.064075 439.232941) scale(0.1 -0.1)">
      <use xlink:href="#DejaVuSans-58"/>
      <use xlink:href="#DejaVuSans-5f" transform="translate(68.505859 0)"/>
      <use xlink:href="#DejaVuSans-65" transform="translate(118.505859 0)"/>
      <use xlink:href="#DejaVuSans-78" transform="translate(178.279297 0)"/>
      <use xlink:href="#DejaVuSans-70" transform="translate(237.458984 0)"/>
     </g>
    </g>
   </g>
   <g id="text_26">
    <g clip-path="url(#pb28b42baea)">
     <!-- D_import -->
     <g transform="translate(993.967492 291.559443) scale(0.1 -0.1)">
      <use xlink:href="#DejaVuSans-44"/>
      <use xlink:href="#DejaVuSans-5f" transform="translate(77.001953 0)"/>
      <use xlink:href="#DejaVuSans-69" transform="translate(127.001953 0)"/>
      <use xlink:href="#DejaVuSans-6d" transform="translate(154.785156 0)"/>
      <use xlink:href="#DejaVuSans-70" transform="translate(252.197266 0)"/>
      <use xlink:href="#DejaVuSans-6f" transform="translate(315.673828 0)"/>
      <use xlink:href="#DejaVuSans-72" transform="translate(376.855469 0)"/>
      <use xlink:href="#DejaVuSans-74" transform="translate(417.96875 0)"/>
     </g>
    </g>
   </g>
   <g id="text_27">
    <g clip-path="url(#pb28b42baea)">
     <!-- R_P_Q__S -->
     <g transform="translate(684.406457 463.762265) scale(0.1 -0.1)">
      <use xlink:href="#DejaVuSans-52"/>
      <use xlink:href="#DejaVuSans-5f" transform="translate(69.482422 0)"/>
      <use xlink:href="#DejaVuSans-50" transform="translate(119.482422 0)"/>
      <use xlink:href="#DejaVuSans-5f" transform="translate(179.785156 0)"/>
      <use xlink:href="#DejaVuSans-51" transform="translate(229.785156 0)"/>
      <use xlink:href="#DejaVuSans-5f" transform="translate(308.496094 0)"/>
      <use xlink:href="#DejaVuSans-5f" transform="translate(358.496094 0)"/>
      <use xlink:href="#DejaVuSans-53" transform="translate(408.496094 0)"/>
     </g>
    </g>
   </g>
   <g id="text_28">
    <g clip-path="url(#pb28b42baea)">
     <!-- R_C_H__I -->
     <g transform="translate(618.562129 455.82374) scale(0.1 -0.1)">
      <defs>
       <path id="DejaVuSans-49" d="M 628 4666 
L 1259 4666 
L 1259 0 
L 628 0 
L 628 4666 
z
" transform="scale(0.015625)"/>
      </defs>
      <use xlink:href="#DejaVuSans-52"/>
      <use xlink:href="#DejaVuSans-5f" transform="translate(69.482422 0)"/>
      <use xlink:href="#DejaVuSans-43" transform="translate(119.482422 0)"/>
      <use xlink:href="#DejaVuSans-5f" transform="translate(189.306641 0)"/>
      <use xlink:href="#DejaVuSans-48" transform="translate(239.306641 0)"/>
      <use xlink:href="#DejaVuSans-5f" transform="translate(314.501953 0)"/>
      <use xlink:href="#DejaVuSans-5f" transform="translate(364.501953 0)"/>
      <use xlink:href="#DejaVuSans-49" transform="translate(414.501953 0)"/>
     </g>
    </g>
   </g>
   <g id="text_29">
    <g clip-path="url(#pb28b42baea)">
     <!-- R_I__P -->
     <g transform="translate(573.353532 362.748143) scale(0.1 -0.1)">
      <use xlink:href="#DejaVuSans-52"/>
      <use xlink:href="#DejaVuSans-5f" transform="translate(69.482422 0)"/>
      <use xlink:href="#DejaVuSans-49" transform="translate(119.482422 0)"/>
      <use xlink:href="#DejaVuSans-5f" transform="translate(148.974609 0)"/>
      <use xlink:href="#DejaVuSans-5f" transform="translate(198.974609 0)"/>
      <use xlink:href="#DejaVuSans-50" transform="translate(248.974609 0)"/>
     </g>
    </g>
   </g>
   <g id="EdgeCollection_1">
    <path d="M 692.672849 854.68308 
L 629.805422 828.455943 
" clip-path="url(#pb28b42baea)" style="fill: none; stroke: #000000; stroke-width: 1.5"/>
    <path d="M 592.252125 806.807506 
L 488.965192 710.488276 
" clip-path="url(#pb28b42baea)" style="fill: none; stroke: #000000; stroke-width: 1.5"/>
    <path d="M 893.161371 808.230465 
L 847.763568 577.884712 
" clip-path="url(#pb28b42baea)" style="fill: none; stroke: #000000; stroke-width: 1.5"/>
    <path d="M 899.996791 829.878903 
L 951.242413 947.845556 
" clip-path="url(#pb28b42baea)" style="fill: none; stroke: #000000; stroke-width: 1.5"/>
    <path d="M 893.405076 829.878903 
L 862.193392 1008.670029 
" clip-path="url(#pb28b42baea)" style="fill: none; stroke: #000000; stroke-width: 1.5"/>
    <path d="M 898.575156 829.878903 
L 956.728129 1021.758971 
" clip-path="url(#pb28b42baea)" style="fill: none; stroke: #000000; stroke-width: 1.5"/>
    <path d="M 938.924476 969.493993 
L 877.323862 1008.670029 
" clip-path="url(#pb28b42baea)" style="fill: none; stroke: #000000; stroke-width: 1.5"/>
    <path d="M 956.539699 969.493993 
L 959.413456 1021.758971 
" clip-path="url(#pb28b42baea)" style="fill: none; stroke: #000000; stroke-width: 1.5"/>
    <path d="M 418.097177 803.461695 
L 449.614493 668.857931 
" clip-path="url(#pb28b42baea)" style="fill: none; stroke: #000000; stroke-width: 1.5"/>
    <path d="M 390.953497 304.384724 
L 478.371961 384.627412 
" clip-path="url(#pb28b42baea)" style="fill: none; stroke: #000000; stroke-width: 1.5"/>
    <path d="M 814.455833 413.89008 
L 843.400922 556.105024 
" clip-path="url(#pb28b42baea)" style="fill: none; stroke: #000000; stroke-width: 1.5"/>
    <path d="M 413.686993 662.998065 
L 327.721796 674.235926 
" clip-path="url(#pb28b42baea)" style="fill: none; stroke: #000000; stroke-width: 1.5"/>
    <path d="M 458.736182 668.857931 
L 470.715735 688.708589 
" clip-path="url(#pb28b42baea)" style="fill: none; stroke: #000000; stroke-width: 1.5"/>
    <path d="M 462.198758 647.078244 
L 630.728489 464.181552 
" clip-path="url(#pb28b42baea)" style="fill: none; stroke: #000000; stroke-width: 1.5"/>
    <path d="M 456.935517 647.078244 
L 484.119025 585.034026 
" clip-path="url(#pb28b42baea)" style="fill: none; stroke: #000000; stroke-width: 1.5"/>
    <path d="M 441.502841 668.857931 
L 371.347506 740.515855 
" clip-path="url(#pb28b42baea)" style="fill: none; stroke: #000000; stroke-width: 1.5"/>
    <path d="M 855.028041 1030.318466 
L 803.578448 1135.877023 
" clip-path="url(#pb28b42baea)" style="fill: none; stroke: #000000; stroke-width: 1.5"/>
    <path d="M 886.752532 1022.966356 
L 927.585962 1028.326843 
" clip-path="url(#pb28b42baea)" style="fill: none; stroke: #000000; stroke-width: 1.5"/>
    <path d="M 385.284077 740.515855 
L 452.801586 710.488276 
" clip-path="url(#pb28b42baea)" style="fill: none; stroke: #000000; stroke-width: 1.5"/>
    <path d="M 426.055369 536.338123 
L 473.870272 688.708589 
" clip-path="url(#pb28b42baea)" style="fill: none; stroke: #000000; stroke-width: 1.5"/>
    <path d="M 437.427638 536.338123 
L 474.161001 563.385588 
" clip-path="url(#pb28b42baea)" style="fill: none; stroke: #000000; stroke-width: 1.5"/>
    <path d="M 428.303583 514.558435 
L 484.570117 406.4071 
" clip-path="url(#pb28b42baea)" style="fill: none; stroke: #000000; stroke-width: 1.5"/>
    <path d="M 522.500288 405.253242 
L 676.176184 451.625557 
" clip-path="url(#pb28b42baea)" style="fill: none; stroke: #000000; stroke-width: 1.5"/>
    <path d="M 520.69042 384.627412 
L 565.014958 368.778101 
" clip-path="url(#pb28b42baea)" style="fill: none; stroke: #000000; stroke-width: 1.5"/>
    <path d="M 876.17485 434.074053 
L 868.842861 357.653847 
" clip-path="url(#pb28b42baea)" style="fill: none; stroke: #000000; stroke-width: 1.5"/>
    <path d="M 852.606862 447.329895 
L 739.835168 458.170503 
" clip-path="url(#pb28b42baea)" style="fill: none; stroke: #000000; stroke-width: 1.5"/>
    <path d="M 956.629063 1043.407408 
L 921.948934 1154.482745 
" clip-path="url(#pb28b42baea)" style="fill: none; stroke: #000000; stroke-width: 1.5"/>
    <path d="M 992.431275 1034.054701 
L 1073.518839 1037.734883 
" clip-path="url(#pb28b42baea)" style="fill: none; stroke: #000000; stroke-width: 1.5"/>
    <path d="M 1166.55402 980.719378 
L 1112.364015 1028.111943 
" clip-path="url(#pb28b42baea)" style="fill: none; stroke: #000000; stroke-width: 1.5"/>
    <path d="M 478.292757 688.708589 
L 487.862334 585.034026 
" clip-path="url(#pb28b42baea)" style="fill: none; stroke: #000000; stroke-width: 1.5"/>
    <path d="M 844.589283 357.653847 
L 663.971683 442.401865 
" clip-path="url(#pb28b42baea)" style="fill: none; stroke: #000000; stroke-width: 1.5"/>
    <path d="M 837.673446 335.874159 
L 786.498535 317.374773 
" clip-path="url(#pb28b42baea)" style="fill: none; stroke: #000000; stroke-width: 1.5"/>
    <path d="M 895.863694 335.874159 
L 988.532926 299.917255 
" clip-path="url(#pb28b42baea)" style="fill: none; stroke: #000000; stroke-width: 1.5"/>
    <path d="M 502.459207 563.385588 
L 627.082715 464.181552 
" clip-path="url(#pb28b42baea)" style="fill: none; stroke: #000000; stroke-width: 1.5"/>
    <path d="M 850.090091 556.105024 
L 894.665932 447.57591 
" clip-path="url(#pb28b42baea)" style="fill: none; stroke: #000000; stroke-width: 1.5"/>
    <path d="M 831.448429 556.105024 
L 722.174585 472.120077 
" clip-path="url(#pb28b42baea)" style="fill: none; stroke: #000000; stroke-width: 1.5"/>
    <path d="M 747.507835 317.374773 
L 649.315454 442.401865 
" clip-path="url(#pb28b42baea)" style="fill: none; stroke: #000000; stroke-width: 1.5"/>
    <path d="M 695.150123 450.34039 
L 601.595677 371.091111 
" clip-path="url(#pb28b42baea)" style="fill: none; stroke: #000000; stroke-width: 1.5"/>
    <path d="M 634.681991 442.401865 
L 594.861869 371.091111 
" clip-path="url(#pb28b42baea)" style="fill: none; stroke: #000000; stroke-width: 1.5"/>
   </g>
   <g id="matplotlib.axis_1"/>
   <g id="matplotlib.axis_2"/>
  </g>
 </g>
 <defs>
  <clipPath id="pb28b42baea">
   <rect x="180" y="172.8" width="1116" height="1108.8"/>
  </clipPath>
 </defs>
</svg>
