<?xml version="1.0" encoding="utf-8" standalone="no"?>
<!DOCTYPE svg PUBLIC "-//W3C//DTD SVG 1.1//EN"
  "http://www.w3.org/Graphics/SVG/1.1/DTD/svg11.dtd">
<svg xmlns:xlink="http://www.w3.org/1999/xlink" width="1080pt" height="1080pt" viewBox="0 0 1080 1080" xmlns="http://www.w3.org/2000/svg" version="1.1">
 <metadata>
  <rdf:RDF xmlns:dc="http://purl.org/dc/elements/1.1/" xmlns:cc="http://creativecommons.org/ns#" xmlns:rdf="http://www.w3.org/1999/02/22-rdf-syntax-ns#">
   <cc:Work>
    <dc:type rdf:resource="http://purl.org/dc/dcmitype/StillImage"/>
    <dc:date>2026-01-15T10:57:04.280391</dc:date>
    <dc:format>image/svg+xml</dc:format>
    <dc:creator>
     <cc:Agent>
      <dc:title>Matplotlib v3.10.8, https://matplotlib.org/</dc:title>
     </cc:Agent>
    </dc:creator>
   </cc:Work>
  </rdf:RDF>
 </metadata>
 <defs>
  <style type="text/css">*{stroke-linejoin: round; stroke-linecap: butt}</style>
 </defs>
 <g id="figure_1">
  <g id="patch_1">
   <path d="M 0 1080 
L 1080 1080 
L 1080 0 
L 0 0 
z
" style="fill: #ffffff"/>
  </g>
  <g id="axes_1">
   <g id="patch_2">
    <path d="M 135 961.2 
L 972 961.2 
L 972 129.6 
L 135 129.6 
z
" style="fill: #ffffff"/>
   </g>
   <g id="VertexCollection_1">
    <path d="M 258.401033 248.968621 
L 293.80865 248.968621 
L 293.80865 227.188934 
L 258.401033 227.188934 
z
" clip-path="url(#pb8a99503c1)" style="fill: #d62728; stroke: #000000; stroke-width: 1.5"/>
    <path d="M 423.884623 291.23673 
L 455.293217 291.23673 
L 455.293217 269.457042 
L 423.884623 269.457042 
z
" clip-path="url(#pb8a99503c1)" style="fill: #d62728; stroke: #000000; stroke-width: 1.5"/>
    <path d="M 699.953289 227.594192 
L 736.11286 227.594192 
L 736.11286 205.814504 
L 699.953289 205.814504 
z
" clip-path="url(#pb8a99503c1)" style="fill: #d62728; stroke: #000000; stroke-width: 1.5"/>
    <path d="M 400.911055 315.286448 
L 435.400704 315.286448 
L 435.400704 293.506761 
L 400.911055 293.506761 
z
" clip-path="url(#pb8a99503c1)" style="fill: #d62728; stroke: #000000; stroke-width: 1.5"/>
    <path d="M 768.808513 835.890029 
L 805.895818 835.890029 
L 805.895818 814.110342 
L 768.808513 814.110342 
z
" clip-path="url(#pb8a99503c1)" style="fill: #d62728; stroke: #000000; stroke-width: 1.5"/>
    <path d="M 262.998064 588.354275 
L 299.201384 588.354275 
L 299.201384 566.574587 
L 262.998064 566.574587 
z
" clip-path="url(#pb8a99503c1)" style="fill: #d62728; stroke: #000000; stroke-width: 1.5"/>
    <path d="M 596.04589 364.53534 
L 632.24921 364.53534 
L 632.24921 342.755652 
L 596.04589 342.755652 
z
" clip-path="url(#pb8a99503c1)" style="fill: #d62728; stroke: #000000; stroke-width: 1.5"/>
    <path d="M 354.834406 430.999834 
L 390.813313 430.999834 
L 390.813313 409.220146 
L 354.834406 409.220146 
z
" clip-path="url(#pb8a99503c1)" style="fill: #d62728; stroke: #000000; stroke-width: 1.5"/>
    <path d="M 354.536903 603.960929 
L 388.567567 603.960929 
L 388.567567 582.181242 
L 354.536903 582.181242 
z
" clip-path="url(#pb8a99503c1)" style="fill: #d62728; stroke: #000000; stroke-width: 1.5"/>
    <path d="M 550.868842 401.423099 
L 585.997749 401.423099 
L 585.997749 379.643412 
L 550.868842 379.643412 
z
" clip-path="url(#pb8a99503c1)" style="fill: #d62728; stroke: #000000; stroke-width: 1.5"/>
    <path d="M 636.888655 384.756191 
L 672.881428 384.756191 
L 672.881428 362.976503 
L 636.888655 362.976503 
z
" clip-path="url(#pb8a99503c1)" style="fill: #d62728; stroke: #000000; stroke-width: 1.5"/>
    <path d="M 265.750873 343.054643 
L 302.501655 343.054643 
L 302.501655 321.274955 
L 265.750873 321.274955 
z
" clip-path="url(#pb8a99503c1)" style="fill: #d62728; stroke: #000000; stroke-width: 1.5"/>
    <path d="M 635.379969 543.259253 
L 670.95868 543.259253 
L 670.95868 521.479566 
L 635.379969 521.479566 
z
" clip-path="url(#pb8a99503c1)" style="fill: #d62728; stroke: #000000; stroke-width: 1.5"/>
    <path d="M 248.710155 558.079885 
L 285.338866 558.079885 
L 285.338866 536.300198 
L 248.710155 536.300198 
z
" clip-path="url(#pb8a99503c1)" style="fill: #d62728; stroke: #000000; stroke-width: 1.5"/>
    <path d="M 530.841763 281.617391 
L 566.703873 281.617391 
L 566.703873 259.837703 
L 530.841763 259.837703 
z
" clip-path="url(#pb8a99503c1)" style="fill: #d62728; stroke: #000000; stroke-width: 1.5"/>
    <path d="M 663.784968 750.216067 
L 699.724811 750.216067 
L 699.724811 728.43638 
L 663.784968 728.43638 
z
" clip-path="url(#pb8a99503c1)" style="fill: #d62728; stroke: #000000; stroke-width: 1.5"/>
    <path d="M 589.66391 869.062133 
L 625.55512 869.062133 
L 625.55512 847.282445 
L 589.66391 847.282445 
z
" clip-path="url(#pb8a99503c1)" style="fill: #d62728; stroke: #000000; stroke-width: 1.5"/>
    <path d="M 568.119324 356.604383 
L 604.870106 356.604383 
L 604.870106 334.824696 
L 568.119324 334.824696 
z
" clip-path="url(#pb8a99503c1)" style="fill: #d62728; stroke: #000000; stroke-width: 1.5"/>
    <path d="M 456.110095 672.717137 
L 495.105603 672.717137 
L 495.105603 650.93745 
L 456.110095 650.93745 
z
" clip-path="url(#pb8a99503c1)" style="fill: #d62728; stroke: #000000; stroke-width: 1.5"/>
    <path d="M 668.750875 291.381789 
L 701.657907 291.381789 
L 701.657907 269.602101 
L 668.750875 269.602101 
z
" clip-path="url(#pb8a99503c1)" style="fill: #d62728; stroke: #000000; stroke-width: 1.5"/>
    <path d="M 205.010097 522.443057 
L 240.329824 522.443057 
L 240.329824 500.66337 
L 205.010097 500.66337 
z
" clip-path="url(#pb8a99503c1)" style="fill: #d62728; stroke: #000000; stroke-width: 1.5"/>
    <path d="M 690.265181 884.985496 
L 724.47651 884.985496 
L 724.47651 863.205808 
L 690.265181 863.205808 
z
" clip-path="url(#pb8a99503c1)" style="fill: #d62728; stroke: #000000; stroke-width: 1.5"/>
    <path d="M 278.5909 472.160627 
L 313.607892 472.160627 
L 313.607892 450.380939 
L 278.5909 450.380939 
z
" clip-path="url(#pb8a99503c1)" style="fill: #d62728; stroke: #000000; stroke-width: 1.5"/>
    <path d="M 866.941172 804.054287 
L 901.718907 804.054287 
L 901.718907 782.274599 
L 866.941172 782.274599 
z
" clip-path="url(#pb8a99503c1)" style="fill: #d62728; stroke: #000000; stroke-width: 1.5"/>
   </g>
   <g id="text_1">
    <g clip-path="url(#pb8a99503c1)">
     <!-- R_C -->
     <g transform="translate(266.639216 240.610809) scale(0.1 -0.1)">
      <defs>
       <path id="DejaVuSans-52" d="M 2841 2188 
Q 3044 2119 3236 1894 
Q 3428 1669 3622 1275 
L 4263 0 
L 3584 0 
L 2988 1197 
Q 2756 1666 2539 1819 
Q 2322 1972 1947 1972 
L 1259 1972 
L 1259 0 
L 628 0 
L 628 4666 
L 2053 4666 
Q 2853 4666 3247 4331 
Q 3641 3997 3641 3322 
Q 3641 2881 3436 2590 
Q 3231 2300 2841 2188 
z
M 1259 4147 
L 1259 2491 
L 2053 2491 
Q 2509 2491 2742 2702 
Q 2975 2913 2975 3322 
Q 2975 3731 2742 3939 
Q 2509 4147 2053 4147 
L 1259 4147 
z
" transform="scale(0.015625)"/>
       <path id="DejaVuSans-5f" d="M 3263 -1063 
L 3263 -1509 
L -63 -1509 
L -63 -1063 
L 3263 -1063 
z
" transform="scale(0.015625)"/>
       <path id="DejaVuSans-43" d="M 4122 4306 
L 4122 3641 
Q 3803 3938 3442 4084 
Q 3081 4231 2675 4231 
Q 1875 4231 1450 3742 
Q 1025 3253 1025 2328 
Q 1025 1406 1450 917 
Q 1875 428 2675 428 
Q 3081 428 3442 575 
Q 3803 722 4122 1019 
L 4122 359 
Q 3791 134 3420 21 
Q 3050 -91 2638 -91 
Q 1578 -91 968 557 
Q 359 1206 359 2328 
Q 359 3453 968 4101 
Q 1578 4750 2638 4750 
Q 3056 4750 3426 4639 
Q 3797 4528 4122 4306 
z
" transform="scale(0.015625)"/>
      </defs>
      <use xlink:href="#DejaVuSans-52"/>
      <use xlink:href="#DejaVuSans-5f" transform="translate(69.482422 0)"/>
      <use xlink:href="#DejaVuSans-43" transform="translate(119.482422 0)"/>
     </g>
    </g>
   </g>
   <g id="text_2">
    <g clip-path="url(#pb8a99503c1)">
     <!-- I_C -->
     <g transform="translate(432.122514 282.878917) scale(0.1 -0.1)">
      <defs>
       <path id="DejaVuSans-49" d="M 628 4666 
L 1259 4666 
L 1259 0 
L 628 0 
L 628 4666 
z
" transform="scale(0.015625)"/>
      </defs>
      <use xlink:href="#DejaVuSans-49"/>
      <use xlink:href="#DejaVuSans-5f" transform="translate(29.492188 0)"/>
      <use xlink:href="#DejaVuSans-43" transform="translate(79.492188 0)"/>
     </g>
    </g>
   </g>
   <g id="text_3">
    <g clip-path="url(#pb8a99503c1)">
     <!-- D_C -->
     <g transform="translate(708.191668 219.236379) scale(0.1 -0.1)">
      <defs>
       <path id="DejaVuSans-44" d="M 1259 4147 
L 1259 519 
L 2022 519 
Q 2988 519 3436 956 
Q 3884 1394 3884 2338 
Q 3884 3275 3436 3711 
Q 2988 4147 2022 4147 
L 1259 4147 
z
M 628 4666 
L 1925 4666 
Q 3281 4666 3915 4102 
Q 4550 3538 4550 2338 
Q 4550 1131 3912 565 
Q 3275 0 1925 0 
L 628 0 
L 628 4666 
z
" transform="scale(0.015625)"/>
      </defs>
      <use xlink:href="#DejaVuSans-44"/>
      <use xlink:href="#DejaVuSans-5f" transform="translate(77.001953 0)"/>
      <use xlink:href="#DejaVuSans-43" transform="translate(127.001953 0)"/>
     </g>
    </g>
   </g>
   <g id="text_4">
    <g clip-path="url(#pb8a99503c1)">
     <!-- P_C -->
     <g transform="translate(409.14963 306.928636) scale(0.1 -0.1)">
      <defs>
       <path id="DejaVuSans-50" d="M 1259 4147 
L 1259 2394 
L 2053 2394 
Q 2494 2394 2734 2622 
Q 2975 2850 2975 3272 
Q 2975 3691 2734 3919 
Q 2494 4147 2053 4147 
L 1259 4147 
z
M 628 4666 
L 2053 4666 
Q 2838 4666 3239 4311 
Q 3641 3956 3641 3272 
Q 3641 2581 3239 2228 
Q 2838 1875 2053 1875 
L 1259 1875 
L 1259 0 
L 628 0 
L 628 4666 
z
" transform="scale(0.015625)"/>
      </defs>
      <use xlink:href="#DejaVuSans-50"/>
      <use xlink:href="#DejaVuSans-5f" transform="translate(60.302734 0)"/>
      <use xlink:href="#DejaVuSans-43" transform="translate(110.302734 0)"/>
     </g>
    </g>
   </g>
   <g id="text_5">
    <g clip-path="url(#pb8a99503c1)">
     <!-- M_C -->
     <g transform="translate(777.046697 827.532217) scale(0.1 -0.1)">
      <defs>
       <path id="DejaVuSans-4d" d="M 628 4666 
L 1569 4666 
L 2759 1491 
L 3956 4666 
L 4897 4666 
L 4897 0 
L 4281 0 
L 4281 4097 
L 3078 897 
L 2444 897 
L 1241 4097 
L 1241 0 
L 628 0 
L 628 4666 
z
" transform="scale(0.015625)"/>
      </defs>
      <use xlink:href="#DejaVuSans-4d"/>
      <use xlink:href="#DejaVuSans-5f" transform="translate(86.279297 0)"/>
      <use xlink:href="#DejaVuSans-43" transform="translate(136.279297 0)"/>
     </g>
    </g>
   </g>
   <g id="text_6">
    <g clip-path="url(#pb8a99503c1)">
     <!-- A_C -->
     <g transform="translate(271.688005 579.996462) scale(0.1 -0.1)">
      <defs>
       <path id="DejaVuSans-41" d="M 2188 4044 
L 1331 1722 
L 3047 1722 
L 2188 4044 
z
M 1831 4666 
L 2547 4666 
L 4325 0 
L 3669 0 
L 3244 1197 
L 1141 1197 
L 716 0 
L 50 0 
L 1831 4666 
z
" transform="scale(0.015625)"/>
      </defs>
      <use xlink:href="#DejaVuSans-41"/>
      <use xlink:href="#DejaVuSans-5f" transform="translate(68.408203 0)"/>
      <use xlink:href="#DejaVuSans-43" transform="translate(118.408203 0)"/>
     </g>
    </g>
   </g>
   <g id="text_7">
    <g clip-path="url(#pb8a99503c1)">
     <!-- V_C -->
     <g transform="translate(604.735831 356.177527) scale(0.1 -0.1)">
      <defs>
       <path id="DejaVuSans-56" d="M 1831 0 
L 50 4666 
L 709 4666 
L 2188 738 
L 3669 4666 
L 4325 4666 
L 2547 0 
L 1831 0 
z
" transform="scale(0.015625)"/>
      </defs>
      <use xlink:href="#DejaVuSans-56"/>
      <use xlink:href="#DejaVuSans-5f" transform="translate(68.408203 0)"/>
      <use xlink:href="#DejaVuSans-43" transform="translate(118.408203 0)"/>
     </g>
    </g>
   </g>
   <g id="text_8">
    <g clip-path="url(#pb8a99503c1)">
     <!-- H_C -->
     <g transform="translate(363.072297 422.642021) scale(0.1 -0.1)">
      <defs>
       <path id="DejaVuSans-48" d="M 628 4666 
L 1259 4666 
L 1259 2753 
L 3553 2753 
L 3553 4666 
L 4184 4666 
L 4184 0 
L 3553 0 
L 3553 2222 
L 1259 2222 
L 1259 0 
L 628 0 
L 628 4666 
z
" transform="scale(0.015625)"/>
      </defs>
      <use xlink:href="#DejaVuSans-48"/>
      <use xlink:href="#DejaVuSans-5f" transform="translate(75.195312 0)"/>
      <use xlink:href="#DejaVuSans-43" transform="translate(125.195312 0)"/>
     </g>
    </g>
   </g>
   <g id="text_9">
    <g clip-path="url(#pb8a99503c1)">
     <!-- L_C -->
     <g transform="translate(362.774891 595.603117) scale(0.1 -0.1)">
      <defs>
       <path id="DejaVuSans-4c" d="M 628 4666 
L 1259 4666 
L 1259 531 
L 3531 531 
L 3531 0 
L 628 0 
L 628 4666 
z
" transform="scale(0.015625)"/>
      </defs>
      <use xlink:href="#DejaVuSans-4c"/>
      <use xlink:href="#DejaVuSans-5f" transform="translate(55.712891 0)"/>
      <use xlink:href="#DejaVuSans-43" transform="translate(105.712891 0)"/>
     </g>
    </g>
   </g>
   <g id="text_10">
    <g clip-path="url(#pb8a99503c1)">
     <!-- S_C -->
     <g transform="translate(559.26767 393.065287) scale(0.1 -0.1)">
      <defs>
       <path id="DejaVuSans-53" d="M 3425 4513 
L 3425 3897 
Q 3066 4069 2747 4153 
Q 2428 4238 2131 4238 
Q 1616 4238 1336 4038 
Q 1056 3838 1056 3469 
Q 1056 3159 1242 3001 
Q 1428 2844 1947 2747 
L 2328 2669 
Q 3034 2534 3370 2195 
Q 3706 1856 3706 1288 
Q 3706 609 3251 259 
Q 2797 -91 1919 -91 
Q 1588 -91 1214 -16 
Q 841 59 441 206 
L 441 856 
Q 825 641 1194 531 
Q 1563 422 1919 422 
Q 2459 422 2753 634 
Q 3047 847 3047 1241 
Q 3047 1584 2836 1778 
Q 2625 1972 2144 2069 
L 1759 2144 
Q 1053 2284 737 2584 
Q 422 2884 422 3419 
Q 422 4038 858 4394 
Q 1294 4750 2059 4750 
Q 2388 4750 2728 4690 
Q 3069 4631 3425 4513 
z
" transform="scale(0.015625)"/>
      </defs>
      <use xlink:href="#DejaVuSans-53"/>
      <use xlink:href="#DejaVuSans-5f" transform="translate(63.476562 0)"/>
      <use xlink:href="#DejaVuSans-43" transform="translate(113.476562 0)"/>
     </g>
    </g>
   </g>
   <g id="text_11">
    <g clip-path="url(#pb8a99503c1)">
     <!-- X_C -->
     <g transform="translate(645.468636 376.398378) scale(0.1 -0.1)">
      <defs>
       <path id="DejaVuSans-58" d="M 403 4666 
L 1081 4666 
L 2241 2931 
L 3406 4666 
L 4084 4666 
L 2584 2425 
L 4184 0 
L 3506 0 
L 2194 1984 
L 872 0 
L 191 0 
L 1856 2491 
L 403 4666 
z
" transform="scale(0.015625)"/>
      </defs>
      <use xlink:href="#DejaVuSans-58"/>
      <use xlink:href="#DejaVuSans-5f" transform="translate(68.505859 0)"/>
      <use xlink:href="#DejaVuSans-43" transform="translate(118.505859 0)"/>
     </g>
    </g>
   </g>
   <g id="text_12">
    <g clip-path="url(#pb8a99503c1)">
     <!-- O_C -->
     <g transform="translate(274.19892 334.69683) scale(0.1 -0.1)">
      <defs>
       <path id="DejaVuSans-4f" d="M 2522 4238 
Q 1834 4238 1429 3725 
Q 1025 3213 1025 2328 
Q 1025 1447 1429 934 
Q 1834 422 2522 422 
Q 3209 422 3611 934 
Q 4013 1447 4013 2328 
Q 4013 3213 3611 3725 
Q 3209 4238 2522 4238 
z
M 2522 4750 
Q 3503 4750 4090 4092 
Q 4678 3434 4678 2328 
Q 4678 1225 4090 567 
Q 3503 -91 2522 -91 
Q 1538 -91 948 565 
Q 359 1222 359 2328 
Q 359 3434 948 4092 
Q 1538 4750 2522 4750 
z
" transform="scale(0.015625)"/>
      </defs>
      <use xlink:href="#DejaVuSans-4f"/>
      <use xlink:href="#DejaVuSans-5f" transform="translate(78.710938 0)"/>
      <use xlink:href="#DejaVuSans-43" transform="translate(128.710938 0)"/>
     </g>
    </g>
   </g>
   <g id="text_13">
    <g clip-path="url(#pb8a99503c1)">
     <!-- T_C -->
     <g transform="translate(644.124012 534.901441) scale(0.1 -0.1)">
      <defs>
       <path id="DejaVuSans-54" d="M -19 4666 
L 3928 4666 
L 3928 4134 
L 2272 4134 
L 2272 0 
L 1638 0 
L 1638 4134 
L -19 4134 
L -19 4666 
z
" transform="scale(0.015625)"/>
      </defs>
      <use xlink:href="#DejaVuSans-54"/>
      <use xlink:href="#DejaVuSans-5f" transform="translate(61.083984 0)"/>
      <use xlink:href="#DejaVuSans-43" transform="translate(111.083984 0)"/>
     </g>
    </g>
   </g>
   <g id="text_14">
    <g clip-path="url(#pb8a99503c1)">
     <!-- G_C -->
     <g transform="translate(257.158886 549.722073) scale(0.1 -0.1)">
      <defs>
       <path id="DejaVuSans-47" d="M 3809 666 
L 3809 1919 
L 2778 1919 
L 2778 2438 
L 4434 2438 
L 4434 434 
Q 4069 175 3628 42 
Q 3188 -91 2688 -91 
Q 1594 -91 976 548 
Q 359 1188 359 2328 
Q 359 3472 976 4111 
Q 1594 4750 2688 4750 
Q 3144 4750 3555 4637 
Q 3966 4525 4313 4306 
L 4313 3634 
Q 3963 3931 3569 4081 
Q 3175 4231 2741 4231 
Q 1884 4231 1454 3753 
Q 1025 3275 1025 2328 
Q 1025 1384 1454 906 
Q 1884 428 2741 428 
Q 3075 428 3337 486 
Q 3600 544 3809 666 
z
" transform="scale(0.015625)"/>
      </defs>
      <use xlink:href="#DejaVuSans-47"/>
      <use xlink:href="#DejaVuSans-5f" transform="translate(77.490234 0)"/>
      <use xlink:href="#DejaVuSans-43" transform="translate(127.490234 0)"/>
     </g>
    </g>
   </g>
   <g id="text_15">
    <g clip-path="url(#pb8a99503c1)">
     <!-- C_C -->
     <g transform="translate(539.290005 273.259578) scale(0.1 -0.1)">
      <use xlink:href="#DejaVuSans-43"/>
      <use xlink:href="#DejaVuSans-5f" transform="translate(69.824219 0)"/>
      <use xlink:href="#DejaVuSans-43" transform="translate(119.824219 0)"/>
     </g>
    </g>
   </g>
   <g id="text_16">
    <g clip-path="url(#pb8a99503c1)">
     <!-- N_C -->
     <g transform="translate(672.022858 741.858255) scale(0.1 -0.1)">
      <defs>
       <path id="DejaVuSans-4e" d="M 628 4666 
L 1478 4666 
L 3547 763 
L 3547 4666 
L 4159 4666 
L 4159 0 
L 3309 0 
L 1241 3903 
L 1241 0 
L 628 0 
L 628 4666 
z
" transform="scale(0.015625)"/>
      </defs>
      <use xlink:href="#DejaVuSans-4e"/>
      <use xlink:href="#DejaVuSans-5f" transform="translate(74.804688 0)"/>
      <use xlink:href="#DejaVuSans-43" transform="translate(124.804688 0)"/>
     </g>
    </g>
   </g>
   <g id="text_17">
    <g clip-path="url(#pb8a99503c1)">
     <!-- U_C -->
     <g transform="translate(597.958734 860.70432) scale(0.1 -0.1)">
      <defs>
       <path id="DejaVuSans-55" d="M 556 4666 
L 1191 4666 
L 1191 1831 
Q 1191 1081 1462 751 
Q 1734 422 2344 422 
Q 2950 422 3222 751 
Q 3494 1081 3494 1831 
L 3494 4666 
L 4128 4666 
L 4128 1753 
Q 4128 841 3676 375 
Q 3225 -91 2344 -91 
Q 1459 -91 1007 375 
Q 556 841 556 1753 
L 556 4666 
z
" transform="scale(0.015625)"/>
      </defs>
      <use xlink:href="#DejaVuSans-55"/>
      <use xlink:href="#DejaVuSans-5f" transform="translate(73.193359 0)"/>
      <use xlink:href="#DejaVuSans-43" transform="translate(123.193359 0)"/>
     </g>
    </g>
   </g>
   <g id="text_18">
    <g clip-path="url(#pb8a99503c1)">
     <!-- Q_C -->
     <g transform="translate(576.567371 348.246571) scale(0.1 -0.1)">
      <defs>
       <path id="DejaVuSans-51" d="M 2522 4238 
Q 1834 4238 1429 3725 
Q 1025 3213 1025 2328 
Q 1025 1447 1429 934 
Q 1834 422 2522 422 
Q 3209 422 3611 934 
Q 4013 1447 4013 2328 
Q 4013 3213 3611 3725 
Q 3209 4238 2522 4238 
z
M 3406 84 
L 4238 -825 
L 3475 -825 
L 2784 -78 
Q 2681 -84 2626 -87 
Q 2572 -91 2522 -91 
Q 1538 -91 948 567 
Q 359 1225 359 2328 
Q 359 3434 948 4092 
Q 1538 4750 2522 4750 
Q 3503 4750 4090 4092 
Q 4678 3434 4678 2328 
Q 4678 1516 4351 937 
Q 4025 359 3406 84 
z
" transform="scale(0.015625)"/>
      </defs>
      <use xlink:href="#DejaVuSans-51"/>
      <use xlink:href="#DejaVuSans-5f" transform="translate(78.710938 0)"/>
      <use xlink:href="#DejaVuSans-43" transform="translate(128.710938 0)"/>
     </g>
    </g>
   </g>
   <g id="text_19">
    <g clip-path="url(#pb8a99503c1)">
     <!-- W_C -->
     <g transform="translate(464.672692 664.359325) scale(0.1 -0.1)">
      <defs>
       <path id="DejaVuSans-57" d="M 213 4666 
L 850 4666 
L 1831 722 
L 2809 4666 
L 3519 4666 
L 4500 722 
L 5478 4666 
L 6119 4666 
L 4947 0 
L 4153 0 
L 3169 4050 
L 2175 0 
L 1381 0 
L 213 4666 
z
" transform="scale(0.015625)"/>
      </defs>
      <use xlink:href="#DejaVuSans-57"/>
      <use xlink:href="#DejaVuSans-5f" transform="translate(98.876953 0)"/>
      <use xlink:href="#DejaVuSans-43" transform="translate(148.876953 0)"/>
     </g>
    </g>
   </g>
   <g id="text_20">
    <g clip-path="url(#pb8a99503c1)">
     <!-- J_C -->
     <g transform="translate(677.737985 283.023976) scale(0.1 -0.1)">
      <defs>
       <path id="DejaVuSans-4a" d="M 628 4666 
L 1259 4666 
L 1259 325 
Q 1259 -519 939 -900 
Q 619 -1281 -91 -1281 
L -331 -1281 
L -331 -750 
L -134 -750 
Q 284 -750 456 -515 
Q 628 -281 628 325 
L 628 4666 
z
" transform="scale(0.015625)"/>
      </defs>
      <use xlink:href="#DejaVuSans-4a"/>
      <use xlink:href="#DejaVuSans-5f" transform="translate(29.492188 0)"/>
      <use xlink:href="#DejaVuSans-43" transform="translate(79.492188 0)"/>
     </g>
    </g>
   </g>
   <g id="text_21">
    <g clip-path="url(#pb8a99503c1)">
     <!-- B_C -->
     <g transform="translate(213.248085 514.085245) scale(0.1 -0.1)">
      <defs>
       <path id="DejaVuSans-42" d="M 1259 2228 
L 1259 519 
L 2272 519 
Q 2781 519 3026 730 
Q 3272 941 3272 1375 
Q 3272 1813 3026 2020 
Q 2781 2228 2272 2228 
L 1259 2228 
z
M 1259 4147 
L 1259 2741 
L 2194 2741 
Q 2656 2741 2882 2914 
Q 3109 3088 3109 3444 
Q 3109 3797 2882 3972 
Q 2656 4147 2194 4147 
L 1259 4147 
z
M 628 4666 
L 2241 4666 
Q 2963 4666 3353 4366 
Q 3744 4066 3744 3513 
Q 3744 3084 3544 2831 
Q 3344 2578 2956 2516 
Q 3422 2416 3680 2098 
Q 3938 1781 3938 1306 
Q 3938 681 3513 340 
Q 3088 0 2303 0 
L 628 0 
L 628 4666 
z
" transform="scale(0.015625)"/>
      </defs>
      <use xlink:href="#DejaVuSans-42"/>
      <use xlink:href="#DejaVuSans-5f" transform="translate(68.603516 0)"/>
      <use xlink:href="#DejaVuSans-43" transform="translate(118.603516 0)"/>
     </g>
    </g>
   </g>
   <g id="text_22">
    <g clip-path="url(#pb8a99503c1)">
     <!-- F_C -->
     <g transform="translate(698.503658 876.627683) scale(0.1 -0.1)">
      <defs>
       <path id="DejaVuSans-46" d="M 628 4666 
L 3309 4666 
L 3309 4134 
L 1259 4134 
L 1259 2759 
L 3109 2759 
L 3109 2228 
L 1259 2228 
L 1259 0 
L 628 0 
L 628 4666 
z
" transform="scale(0.015625)"/>
      </defs>
      <use xlink:href="#DejaVuSans-46"/>
      <use xlink:href="#DejaVuSans-5f" transform="translate(57.519531 0)"/>
      <use xlink:href="#DejaVuSans-43" transform="translate(107.519531 0)"/>
     </g>
    </g>
   </g>
   <g id="text_23">
    <g clip-path="url(#pb8a99503c1)">
     <!-- K_C -->
     <g transform="translate(286.829084 463.802814) scale(0.1 -0.1)">
      <defs>
       <path id="DejaVuSans-4b" d="M 628 4666 
L 1259 4666 
L 1259 2694 
L 3353 4666 
L 4166 4666 
L 1850 2491 
L 4331 0 
L 3500 0 
L 1259 2247 
L 1259 0 
L 628 0 
L 628 4666 
z
" transform="scale(0.015625)"/>
      </defs>
      <use xlink:href="#DejaVuSans-4b"/>
      <use xlink:href="#DejaVuSans-5f" transform="translate(65.576172 0)"/>
      <use xlink:href="#DejaVuSans-43" transform="translate(115.576172 0)"/>
     </g>
    </g>
   </g>
   <g id="text_24">
    <g clip-path="url(#pb8a99503c1)">
     <!-- E_C -->
     <g transform="translate(875.179258 795.696474) scale(0.1 -0.1)">
      <defs>
       <path id="DejaVuSans-45" d="M 628 4666 
L 3578 4666 
L 3578 4134 
L 1259 4134 
L 1259 2753 
L 3481 2753 
L 3481 2222 
L 1259 2222 
L 1259 531 
L 3634 531 
L 3634 0 
L 628 0 
L 628 4666 
z
" transform="scale(0.015625)"/>
      </defs>
      <use xlink:href="#DejaVuSans-45"/>
      <use xlink:href="#DejaVuSans-5f" transform="translate(63.183594 0)"/>
      <use xlink:href="#DejaVuSans-43" transform="translate(113.183594 0)"/>
     </g>
    </g>
   </g>
   <g id="EdgeCollection_1">
    <path d="M 277.033269 248.968621 
L 283.197837 321.274955 
" clip-path="url(#pb8a99503c1)" style="fill: none; stroke: #000000; stroke-width: 1.5"/>
    <path d="M 293.80865 246.343963 
L 400.911055 296.3457 
" clip-path="url(#pb8a99503c1)" style="fill: none; stroke: #000000; stroke-width: 1.5"/>
    <path d="M 434.386824 291.23673 
L 378.025956 409.220146 
" clip-path="url(#pb8a99503c1)" style="fill: none; stroke: #000000; stroke-width: 1.5"/>
    <path d="M 429.883922 291.23673 
L 427.860877 293.506761 
" clip-path="url(#pb8a99503c1)" style="fill: none; stroke: #000000; stroke-width: 1.5"/>
    <path d="M 455.293217 278.963303 
L 530.841763 272.307312 
" clip-path="url(#pb8a99503c1)" style="fill: none; stroke: #000000; stroke-width: 1.5"/>
    <path d="M 712.428549 227.594192 
L 690.808917 269.602101 
" clip-path="url(#pb8a99503c1)" style="fill: none; stroke: #000000; stroke-width: 1.5"/>
    <path d="M 699.953289 222.474916 
L 566.703873 265.00445 
" clip-path="url(#pb8a99503c1)" style="fill: none; stroke: #000000; stroke-width: 1.5"/>
    <path d="M 435.400704 314.281066 
L 550.868842 380.465587 
" clip-path="url(#pb8a99503c1)" style="fill: none; stroke: #000000; stroke-width: 1.5"/>
    <path d="M 400.911055 307.969379 
L 302.501655 328.357794 
" clip-path="url(#pb8a99503c1)" style="fill: none; stroke: #000000; stroke-width: 1.5"/>
    <path d="M 435.400704 308.629261 
L 568.119324 341.20439 
" clip-path="url(#pb8a99503c1)" style="fill: none; stroke: #000000; stroke-width: 1.5"/>
    <path d="M 773.92991 814.110342 
L 695.177145 750.216067 
" clip-path="url(#pb8a99503c1)" style="fill: none; stroke: #000000; stroke-width: 1.5"/>
    <path d="M 805.895818 818.912705 
L 866.941172 798.872833 
" clip-path="url(#pb8a99503c1)" style="fill: none; stroke: #000000; stroke-width: 1.5"/>
    <path d="M 769.611545 835.890029 
L 724.47651 863.595568 
" clip-path="url(#pb8a99503c1)" style="fill: none; stroke: #000000; stroke-width: 1.5"/>
    <path d="M 287.447569 566.574587 
L 366.476015 430.999834 
" clip-path="url(#pb8a99503c1)" style="fill: none; stroke: #000000; stroke-width: 1.5"/>
    <path d="M 271.445965 566.574587 
L 232.323719 522.443057 
" clip-path="url(#pb8a99503c1)" style="fill: none; stroke: #000000; stroke-width: 1.5"/>
    <path d="M 276.036802 566.574587 
L 272.087433 558.079885 
" clip-path="url(#pb8a99503c1)" style="fill: none; stroke: #000000; stroke-width: 1.5"/>
    <path d="M 600.651987 364.53534 
L 581.928859 379.643412 
" clip-path="url(#pb8a99503c1)" style="fill: none; stroke: #000000; stroke-width: 1.5"/>
    <path d="M 616.525189 364.53534 
L 650.791685 521.479566 
" clip-path="url(#pb8a99503c1)" style="fill: none; stroke: #000000; stroke-width: 1.5"/>
    <path d="M 632.24921 362.630609 
L 636.888655 364.933488 
" clip-path="url(#pb8a99503c1)" style="fill: none; stroke: #000000; stroke-width: 1.5"/>
    <path d="M 385.650378 409.220146 
L 535.946299 281.617391 
" clip-path="url(#pb8a99503c1)" style="fill: none; stroke: #000000; stroke-width: 1.5"/>
    <path d="M 354.942245 430.999834 
L 240.329824 500.798416 
" clip-path="url(#pb8a99503c1)" style="fill: none; stroke: #000000; stroke-width: 1.5"/>
    <path d="M 354.834406 429.760891 
L 313.607892 451.877904 
" clip-path="url(#pb8a99503c1)" style="fill: none; stroke: #000000; stroke-width: 1.5"/>
    <path d="M 363.757619 430.999834 
L 276.090752 536.300198 
" clip-path="url(#pb8a99503c1)" style="fill: none; stroke: #000000; stroke-width: 1.5"/>
    <path d="M 365.318034 582.181242 
L 302.333598 472.160627 
" clip-path="url(#pb8a99503c1)" style="fill: none; stroke: #000000; stroke-width: 1.5"/>
    <path d="M 388.032919 603.960929 
L 459.127164 650.93745 
" clip-path="url(#pb8a99503c1)" style="fill: none; stroke: #000000; stroke-width: 1.5"/>
    <path d="M 354.536903 585.602434 
L 285.338866 555.228883 
" clip-path="url(#pb8a99503c1)" style="fill: none; stroke: #000000; stroke-width: 1.5"/>
    <path d="M 585.997749 387.14703 
L 636.888655 377.335845 
" clip-path="url(#pb8a99503c1)" style="fill: none; stroke: #000000; stroke-width: 1.5"/>
    <path d="M 574.939127 401.423099 
L 646.663493 521.479566 
" clip-path="url(#pb8a99503c1)" style="fill: none; stroke: #000000; stroke-width: 1.5"/>
    <path d="M 572.821775 379.643412 
L 582.106235 356.604383 
" clip-path="url(#pb8a99503c1)" style="fill: none; stroke: #000000; stroke-width: 1.5"/>
    <path d="M 654.767165 384.756191 
L 653.287202 521.479566 
" clip-path="url(#pb8a99503c1)" style="fill: none; stroke: #000000; stroke-width: 1.5"/>
    <path d="M 285.136175 343.054643 
L 295.089485 450.380939 
" clip-path="url(#pb8a99503c1)" style="fill: none; stroke: #000000; stroke-width: 1.5"/>
    <path d="M 654.673466 543.259253 
L 680.250748 728.43638 
" clip-path="url(#pb8a99503c1)" style="fill: none; stroke: #000000; stroke-width: 1.5"/>
    <path d="M 253.47072 536.300198 
L 236.223752 522.443057 
" clip-path="url(#pb8a99503c1)" style="fill: none; stroke: #000000; stroke-width: 1.5"/>
    <path d="M 270.70961 536.300198 
L 292.414297 472.160627 
" clip-path="url(#pb8a99503c1)" style="fill: none; stroke: #000000; stroke-width: 1.5"/>
    <path d="M 566.703873 272.010871 
L 668.750875 279.314368 
" clip-path="url(#pb8a99503c1)" style="fill: none; stroke: #000000; stroke-width: 1.5"/>
    <path d="M 674.960962 750.216067 
L 614.403442 847.282445 
" clip-path="url(#pb8a99503c1)" style="fill: none; stroke: #000000; stroke-width: 1.5"/>
    <path d="M 683.824749 750.216067 
L 705.300986 863.205808 
" clip-path="url(#pb8a99503c1)" style="fill: none; stroke: #000000; stroke-width: 1.5"/>
    <path d="M 602.975705 334.824696 
L 668.750875 291.363635 
" clip-path="url(#pb8a99503c1)" style="fill: none; stroke: #000000; stroke-width: 1.5"/>
   </g>
   <g id="matplotlib.axis_1"/>
   <g id="matplotlib.axis_2"/>
  </g>
 </g>
 <defs>
  <clipPath id="pb8a99503c1">
   <rect x="135" y="129.6" width="837" height="831.6"/>
  </clipPath>
 </defs>
</svg>
