<?xml version="1.0" encoding="utf-8" standalone="no"?>
<!DOCTYPE svg PUBLIC "-//W3C//DTD SVG 1.1//EN"
  "http://www.w3.org/Graphics/SVG/1.1/DTD/svg11.dtd">
<svg xmlns:xlink="http://www.w3.org/1999/xlink" width="2160pt" height="2160pt" viewBox="0 0 2160 2160" xmlns="http://www.w3.org/2000/svg" version="1.1">
 <metadata>
  <rdf:RDF xmlns:dc="http://purl.org/dc/elements/1.1/" xmlns:cc="http://creativecommons.org/ns#" xmlns:rdf="http://www.w3.org/1999/02/22-rdf-syntax-ns#">
   <cc:Work>
    <dc:type rdf:resource="http://purl.org/dc/dcmitype/StillImage"/>
    <dc:date>2026-01-05T15:23:27.890983</dc:date>
    <dc:format>image/svg+xml</dc:format>
    <dc:creator>
     <cc:Agent>
      <dc:title>Matplotlib v3.10.8, https://matplotlib.org/</dc:title>
     </cc:Agent>
    </dc:creator>
   </cc:Work>
  </rdf:RDF>
 </metadata>
 <defs>
  <style type="text/css">*{stroke-linejoin: round; stroke-linecap: butt}</style>
 </defs>
 <g id="figure_1">
  <g id="patch_1">
   <path d="M 0 2160 
L 2160 2160 
L 2160 0 
L 0 0 
z
" style="fill: #ffffff"/>
  </g>
  <g id="axes_1">
   <g id="patch_2">
    <path d="M 270 1922.4 
L 1944 1922.4 
L 1944 259.2 
L 270 259.2 
z
" style="fill: #ffffff"/>
   </g>
   <g id="VertexCollection_1">
    <path d="M 1155.251625 857.959646 
L 1191.454945 857.959646 
L 1191.454945 836.179958 
L 1155.251625 836.179958 
z
" clip-path="url(#p69f099f7af)" style="fill: #d62728; stroke: #000000; stroke-width: 1.5"/>
    <path d="M 1206.19376 832.894234 
L 1241.513486 832.894234 
L 1241.513486 811.114546 
L 1206.19376 811.114546 
z
" clip-path="url(#p69f099f7af)" style="fill: #d62728; stroke: #000000; stroke-width: 1.5"/>
    <path d="M 1487.877127 975.697008 
L 1523.739236 975.697008 
L 1523.739236 953.917321 
L 1487.877127 953.917321 
z
" clip-path="url(#p69f099f7af)" style="fill: #d62728; stroke: #000000; stroke-width: 1.5"/>
    <path d="M 1593.613754 1035.18025 
L 1629.773325 1035.18025 
L 1629.773325 1013.400563 
L 1593.613754 1013.400563 
z
" clip-path="url(#p69f099f7af)" style="fill: #d62728; stroke: #000000; stroke-width: 1.5"/>
    <path d="M 678.02501 1330.639235 
L 712.802745 1330.639235 
L 712.802745 1308.859547 
L 678.02501 1308.859547 
z
" clip-path="url(#p69f099f7af)" style="fill: #d62728; stroke: #000000; stroke-width: 1.5"/>
    <path d="M 735.933555 1554.320981 
L 770.144883 1554.320981 
L 770.144883 1532.541294 
L 735.933555 1532.541294 
z
" clip-path="url(#p69f099f7af)" style="fill: #d62728; stroke: #000000; stroke-width: 1.5"/>
    <path d="M 1296.894313 1027.814661 
L 1333.523023 1027.814661 
L 1333.523023 1006.034973 
L 1296.894313 1006.034973 
z
" clip-path="url(#p69f099f7af)" style="fill: #d62728; stroke: #000000; stroke-width: 1.5"/>
    <path d="M 767.148902 1503.135802 
L 803.088745 1503.135802 
L 803.088745 1481.356114 
L 767.148902 1481.356114 
z
" clip-path="url(#p69f099f7af)" style="fill: #d62728; stroke: #000000; stroke-width: 1.5"/>
    <path d="M 1494.217769 1537.473772 
L 1529.625386 1537.473772 
L 1529.625386 1515.694084 
L 1494.217769 1515.694084 
z
" clip-path="url(#p69f099f7af)" style="fill: #d62728; stroke: #000000; stroke-width: 1.5"/>
    <path d="M 574.463268 1385.198437 
L 610.354479 1385.198437 
L 610.354479 1363.41875 
L 574.463268 1363.41875 
z
" clip-path="url(#p69f099f7af)" style="fill: #d62728; stroke: #000000; stroke-width: 1.5"/>
    <path d="M 877.866449 529.940091 
L 914.069769 529.940091 
L 914.069769 508.160403 
L 877.866449 508.160403 
z
" clip-path="url(#p69f099f7af)" style="fill: #d62728; stroke: #000000; stroke-width: 1.5"/>
    <path d="M 1693.210833 1486.948692 
L 1732.206341 1486.948692 
L 1732.206341 1465.169004 
L 1693.210833 1465.169004 
z
" clip-path="url(#p69f099f7af)" style="fill: #d62728; stroke: #000000; stroke-width: 1.5"/>
    <path d="M 1185.417873 1672.232494 
L 1221.410647 1672.232494 
L 1221.410647 1650.452806 
L 1185.417873 1650.452806 
z
" clip-path="url(#p69f099f7af)" style="fill: #d62728; stroke: #000000; stroke-width: 1.5"/>
    <path d="M 1311.368927 1013.787105 
L 1347.347833 1013.787105 
L 1347.347833 992.007418 
L 1311.368927 992.007418 
z
" clip-path="url(#p69f099f7af)" style="fill: #d62728; stroke: #000000; stroke-width: 1.5"/>
    <path d="M 1357.208501 1115.714003 
L 1388.617095 1115.714003 
L 1388.617095 1093.934316 
L 1357.208501 1093.934316 
z
" clip-path="url(#p69f099f7af)" style="fill: #d62728; stroke: #000000; stroke-width: 1.5"/>
    <path d="M 1341.000213 1011.018879 
L 1373.907245 1011.018879 
L 1373.907245 989.239192 
L 1341.000213 989.239192 
z
" clip-path="url(#p69f099f7af)" style="fill: #d62728; stroke: #000000; stroke-width: 1.5"/>
    <path d="M 1227.503974 1291.680205 
L 1261.993622 1291.680205 
L 1261.993622 1269.900518 
L 1227.503974 1269.900518 
z
" clip-path="url(#p69f099f7af)" style="fill: #d62728; stroke: #000000; stroke-width: 1.5"/>
    <path d="M 1033.129032 1034.531243 
L 1069.879813 1034.531243 
L 1069.879813 1012.751555 
L 1033.129032 1012.751555 
z
" clip-path="url(#p69f099f7af)" style="fill: #d62728; stroke: #000000; stroke-width: 1.5"/>
    <path d="M 771.563247 1465.387772 
L 808.650552 1465.387772 
L 808.650552 1443.608084 
L 771.563247 1443.608084 
z
" clip-path="url(#p69f099f7af)" style="fill: #d62728; stroke: #000000; stroke-width: 1.5"/>
    <path d="M 939.18356 1234.031964 
L 974.762271 1234.031964 
L 974.762271 1212.252277 
L 939.18356 1212.252277 
z
" clip-path="url(#p69f099f7af)" style="fill: #d62728; stroke: #000000; stroke-width: 1.5"/>
    <path d="M 1368.767569 1230.335156 
L 1403.784561 1230.335156 
L 1403.784561 1208.555468 
L 1368.767569 1208.555468 
z
" clip-path="url(#p69f099f7af)" style="fill: #d62728; stroke: #000000; stroke-width: 1.5"/>
    <path d="M 1498.712951 1273.048843 
L 1532.743615 1273.048843 
L 1532.743615 1251.269155 
L 1498.712951 1251.269155 
z
" clip-path="url(#p69f099f7af)" style="fill: #d62728; stroke: #000000; stroke-width: 1.5"/>
    <path d="M 1486.473954 1462.192001 
L 1523.224735 1462.192001 
L 1523.224735 1440.412313 
L 1486.473954 1440.412313 
z
" clip-path="url(#p69f099f7af)" style="fill: #d62728; stroke: #000000; stroke-width: 1.5"/>
    <path d="M 967.529273 1092.111083 
L 1002.658179 1092.111083 
L 1002.658179 1070.331395 
L 967.529273 1070.331395 
z
" clip-path="url(#p69f099f7af)" style="fill: #d62728; stroke: #000000; stroke-width: 1.5"/>
    <path d="M 1073.165494 806.93031 
L 1135.706119 806.93031 
L 1135.706119 784.97406 
L 1073.165494 784.97406 
z
" clip-path="url(#p69f099f7af)" style="fill: #1f77b4; stroke: #000000; stroke-width: 1.5"/>
    <path d="M 1168.612218 766.646915 
L 1230.269249 766.646915 
L 1230.269249 744.690665 
L 1168.612218 744.690665 
z
" clip-path="url(#p69f099f7af)" style="fill: #1f77b4; stroke: #000000; stroke-width: 1.5"/>
    <path d="M 1536.734917 930.448768 
L 1598.934331 930.448768 
L 1598.934331 908.492518 
L 1536.734917 908.492518 
z
" clip-path="url(#p69f099f7af)" style="fill: #1f77b4; stroke: #000000; stroke-width: 1.5"/>
    <path d="M 1659.009469 1070.355412 
L 1721.506344 1070.355412 
L 1721.506344 1048.399162 
L 1659.009469 1048.399162 
z
" clip-path="url(#p69f099f7af)" style="fill: #1f77b4; stroke: #000000; stroke-width: 1.5"/>
    <path d="M 600.137946 1301.295302 
L 661.252985 1301.295302 
L 661.252985 1279.339052 
L 600.137946 1279.339052 
z
" clip-path="url(#p69f099f7af)" style="fill: #1f77b4; stroke: #000000; stroke-width: 1.5"/>
    <path d="M 693.188917 1520.560313 
L 753.73755 1520.560313 
L 753.73755 1498.604063 
L 693.188917 1498.604063 
z
" clip-path="url(#p69f099f7af)" style="fill: #1f77b4; stroke: #000000; stroke-width: 1.5"/>
    <path d="M 1276.347931 964.75232 
L 1339.313947 964.75232 
L 1339.313947 942.79607 
L 1276.347931 942.79607 
z
" clip-path="url(#p69f099f7af)" style="fill: #1f77b4; stroke: #000000; stroke-width: 1.5"/>
    <path d="M 701.846025 1725.356093 
L 749.042119 1725.356093 
L 749.042119 1703.707655 
L 701.846025 1703.707655 
z
" clip-path="url(#p69f099f7af)" style="fill: #1f77b4; stroke: #000000; stroke-width: 1.5"/>
    <path d="M 1624.613489 1716.113019 
L 1671.277357 1716.113019 
L 1671.277357 1694.464582 
L 1624.613489 1694.464582 
z
" clip-path="url(#p69f099f7af)" style="fill: #1f77b4; stroke: #000000; stroke-width: 1.5"/>
    <path d="M 421.76619 1424.408008 
L 468.913651 1424.408008 
L 468.913651 1402.75957 
L 421.76619 1402.75957 
z
" clip-path="url(#p69f099f7af)" style="fill: #1f77b4; stroke: #000000; stroke-width: 1.5"/>
    <path d="M 815.297825 444.232914 
L 862.757395 444.232914 
L 862.757395 422.584477 
L 815.297825 422.584477 
z
" clip-path="url(#p69f099f7af)" style="fill: #1f77b4; stroke: #000000; stroke-width: 1.5"/>
    <path d="M 1743.5342 1535.404902 
L 1793.785958 1535.404902 
L 1793.785958 1513.756464 
L 1743.5342 1513.756464 
z
" clip-path="url(#p69f099f7af)" style="fill: #1f77b4; stroke: #000000; stroke-width: 1.5"/>
    <path d="M 1189.796687 1759.015523 
L 1237.04571 1759.015523 
L 1237.04571 1737.367086 
L 1189.796687 1737.367086 
z
" clip-path="url(#p69f099f7af)" style="fill: #1f77b4; stroke: #000000; stroke-width: 1.5"/>
    <path d="M 1220.3058 927.135186 
L 1297.260487 927.135186 
L 1297.260487 905.355499 
L 1220.3058 905.355499 
z
" clip-path="url(#p69f099f7af)" style="fill: #1f77b4; stroke: #000000; stroke-width: 1.5"/>
    <path d="M 1387.800782 1029.811112 
L 1448.236915 1029.811112 
L 1448.236915 1008.031425 
L 1387.800782 1008.031425 
z
" clip-path="url(#p69f099f7af)" style="fill: #1f77b4; stroke: #000000; stroke-width: 1.5"/>
    <path d="M 1466.788156 1012.732044 
L 1527.404952 1012.732044 
L 1527.404952 990.952356 
L 1466.788156 990.952356 
z
" clip-path="url(#p69f099f7af)" style="fill: #1f77b4; stroke: #000000; stroke-width: 1.5"/>
    <path d="M 1281.171948 1204.359522 
L 1328.777221 1204.359522 
L 1328.777221 1182.711084 
L 1281.171948 1182.711084 
z
" clip-path="url(#p69f099f7af)" style="fill: #1f77b4; stroke: #000000; stroke-width: 1.5"/>
    <path d="M 1174.282805 1018.645404 
L 1223.50839 1018.645404 
L 1223.50839 996.865717 
L 1174.282805 996.865717 
z
" clip-path="url(#p69f099f7af)" style="fill: #1f77b4; stroke: #000000; stroke-width: 1.5"/>
    <path d="M 738.673827 1381.325442 
L 791.610741 1381.325442 
L 791.610741 1359.677005 
L 738.673827 1359.677005 
z
" clip-path="url(#p69f099f7af)" style="fill: #1f77b4; stroke: #000000; stroke-width: 1.5"/>
    <path d="M 767.937796 1556.620006 
L 832.783108 1556.620006 
L 832.783108 1534.971569 
L 767.937796 1534.971569 
z
" clip-path="url(#p69f099f7af)" style="fill: #1f77b4; stroke: #000000; stroke-width: 1.5"/>
    <path d="M 847.286799 1369.211051 
L 899.87176 1369.211051 
L 899.87176 1347.562614 
L 847.286799 1347.562614 
z
" clip-path="url(#p69f099f7af)" style="fill: #1f77b4; stroke: #000000; stroke-width: 1.5"/>
    <path d="M 756.273008 1326.74507 
L 809.170469 1326.74507 
L 809.170469 1305.096632 
L 756.273008 1305.096632 
z
" clip-path="url(#p69f099f7af)" style="fill: #1f77b4; stroke: #000000; stroke-width: 1.5"/>
    <path d="M 1320.01344 1120.646698 
L 1373.267151 1120.646698 
L 1373.267151 1098.99826 
L 1320.01344 1098.99826 
z
" clip-path="url(#p69f099f7af)" style="fill: #1f77b4; stroke: #000000; stroke-width: 1.5"/>
    <path d="M 1374.000219 1158.022354 
L 1437.791039 1158.022354 
L 1437.791039 1136.242666 
L 1374.000219 1136.242666 
z
" clip-path="url(#p69f099f7af)" style="fill: #1f77b4; stroke: #000000; stroke-width: 1.5"/>
    <path d="M 1396.8219 1372.714041 
L 1449.655885 1372.714041 
L 1449.655885 1350.934354 
L 1396.8219 1350.934354 
z
" clip-path="url(#p69f099f7af)" style="fill: #1f77b4; stroke: #000000; stroke-width: 1.5"/>
    <path d="M 1602.16228 1401.175032 
L 1656.261499 1401.175032 
L 1656.261499 1379.526595 
L 1602.16228 1379.526595 
z
" clip-path="url(#p69f099f7af)" style="fill: #1f77b4; stroke: #000000; stroke-width: 1.5"/>
    <path d="M 1522.447731 1536.117992 
L 1586.977027 1536.117992 
L 1586.977027 1514.338304 
L 1522.447731 1514.338304 
z
" clip-path="url(#p69f099f7af)" style="fill: #1f77b4; stroke: #000000; stroke-width: 1.5"/>
    <path d="M 882.925954 1067.928396 
L 946.584939 1067.928396 
L 946.584939 1046.148708 
L 882.925954 1046.148708 
z
" clip-path="url(#p69f099f7af)" style="fill: #1f77b4; stroke: #000000; stroke-width: 1.5"/>
    <path d="M 1011.025032 1100.675862 
L 1085.826399 1100.675862 
L 1085.826399 1078.896175 
L 1011.025032 1078.896175 
z
" clip-path="url(#p69f099f7af)" style="fill: #1f77b4; stroke: #000000; stroke-width: 1.5"/>
   </g>
   <g id="text_1">
    <g clip-path="url(#p69f099f7af)">
     <!-- A_C -->
     <g transform="translate(1163.941566 849.601833) scale(0.1 -0.1)">
      <defs>
       <path id="DejaVuSans-41" d="M 2188 4044 
L 1331 1722 
L 3047 1722 
L 2188 4044 
z
M 1831 4666 
L 2547 4666 
L 4325 0 
L 3669 0 
L 3244 1197 
L 1141 1197 
L 716 0 
L 50 0 
L 1831 4666 
z
" transform="scale(0.015625)"/>
       <path id="DejaVuSans-5f" d="M 3263 -1063 
L 3263 -1509 
L -63 -1509 
L -63 -1063 
L 3263 -1063 
z
" transform="scale(0.015625)"/>
       <path id="DejaVuSans-43" d="M 4122 4306 
L 4122 3641 
Q 3803 3938 3442 4084 
Q 3081 4231 2675 4231 
Q 1875 4231 1450 3742 
Q 1025 3253 1025 2328 
Q 1025 1406 1450 917 
Q 1875 428 2675 428 
Q 3081 428 3442 575 
Q 3803 722 4122 1019 
L 4122 359 
Q 3791 134 3420 21 
Q 3050 -91 2638 -91 
Q 1578 -91 968 557 
Q 359 1206 359 2328 
Q 359 3453 968 4101 
Q 1578 4750 2638 4750 
Q 3056 4750 3426 4639 
Q 3797 4528 4122 4306 
z
" transform="scale(0.015625)"/>
      </defs>
      <use xlink:href="#DejaVuSans-41"/>
      <use xlink:href="#DejaVuSans-5f" transform="translate(68.408203 0)"/>
      <use xlink:href="#DejaVuSans-43" transform="translate(118.408203 0)"/>
     </g>
    </g>
   </g>
   <g id="text_2">
    <g clip-path="url(#p69f099f7af)">
     <!-- B_C -->
     <g transform="translate(1214.431748 824.536421) scale(0.1 -0.1)">
      <defs>
       <path id="DejaVuSans-42" d="M 1259 2228 
L 1259 519 
L 2272 519 
Q 2781 519 3026 730 
Q 3272 941 3272 1375 
Q 3272 1813 3026 2020 
Q 2781 2228 2272 2228 
L 1259 2228 
z
M 1259 4147 
L 1259 2741 
L 2194 2741 
Q 2656 2741 2882 2914 
Q 3109 3088 3109 3444 
Q 3109 3797 2882 3972 
Q 2656 4147 2194 4147 
L 1259 4147 
z
M 628 4666 
L 2241 4666 
Q 2963 4666 3353 4366 
Q 3744 4066 3744 3513 
Q 3744 3084 3544 2831 
Q 3344 2578 2956 2516 
Q 3422 2416 3680 2098 
Q 3938 1781 3938 1306 
Q 3938 681 3513 340 
Q 3088 0 2303 0 
L 628 0 
L 628 4666 
z
" transform="scale(0.015625)"/>
      </defs>
      <use xlink:href="#DejaVuSans-42"/>
      <use xlink:href="#DejaVuSans-5f" transform="translate(68.603516 0)"/>
      <use xlink:href="#DejaVuSans-43" transform="translate(118.603516 0)"/>
     </g>
    </g>
   </g>
   <g id="text_3">
    <g clip-path="url(#p69f099f7af)">
     <!-- C_C -->
     <g transform="translate(1496.325369 967.339196) scale(0.1 -0.1)">
      <use xlink:href="#DejaVuSans-43"/>
      <use xlink:href="#DejaVuSans-5f" transform="translate(69.824219 0)"/>
      <use xlink:href="#DejaVuSans-43" transform="translate(119.824219 0)"/>
     </g>
    </g>
   </g>
   <g id="text_4">
    <g clip-path="url(#p69f099f7af)">
     <!-- D_C -->
     <g transform="translate(1601.852133 1026.822438) scale(0.1 -0.1)">
      <defs>
       <path id="DejaVuSans-44" d="M 1259 4147 
L 1259 519 
L 2022 519 
Q 2988 519 3436 956 
Q 3884 1394 3884 2338 
Q 3884 3275 3436 3711 
Q 2988 4147 2022 4147 
L 1259 4147 
z
M 628 4666 
L 1925 4666 
Q 3281 4666 3915 4102 
Q 4550 3538 4550 2338 
Q 4550 1131 3912 565 
Q 3275 0 1925 0 
L 628 0 
L 628 4666 
z
" transform="scale(0.015625)"/>
      </defs>
      <use xlink:href="#DejaVuSans-44"/>
      <use xlink:href="#DejaVuSans-5f" transform="translate(77.001953 0)"/>
      <use xlink:href="#DejaVuSans-43" transform="translate(127.001953 0)"/>
     </g>
    </g>
   </g>
   <g id="text_5">
    <g clip-path="url(#p69f099f7af)">
     <!-- E_C -->
     <g transform="translate(686.263096 1322.281422) scale(0.1 -0.1)">
      <defs>
       <path id="DejaVuSans-45" d="M 628 4666 
L 3578 4666 
L 3578 4134 
L 1259 4134 
L 1259 2753 
L 3481 2753 
L 3481 2222 
L 1259 2222 
L 1259 531 
L 3634 531 
L 3634 0 
L 628 0 
L 628 4666 
z
" transform="scale(0.015625)"/>
      </defs>
      <use xlink:href="#DejaVuSans-45"/>
      <use xlink:href="#DejaVuSans-5f" transform="translate(63.183594 0)"/>
      <use xlink:href="#DejaVuSans-43" transform="translate(113.183594 0)"/>
     </g>
    </g>
   </g>
   <g id="text_6">
    <g clip-path="url(#p69f099f7af)">
     <!-- F_C -->
     <g transform="translate(744.172031 1545.963169) scale(0.1 -0.1)">
      <defs>
       <path id="DejaVuSans-46" d="M 628 4666 
L 3309 4666 
L 3309 4134 
L 1259 4134 
L 1259 2759 
L 3109 2759 
L 3109 2228 
L 1259 2228 
L 1259 0 
L 628 0 
L 628 4666 
z
" transform="scale(0.015625)"/>
      </defs>
      <use xlink:href="#DejaVuSans-46"/>
      <use xlink:href="#DejaVuSans-5f" transform="translate(57.519531 0)"/>
      <use xlink:href="#DejaVuSans-43" transform="translate(107.519531 0)"/>
     </g>
    </g>
   </g>
   <g id="text_7">
    <g clip-path="url(#p69f099f7af)">
     <!-- G_C -->
     <g transform="translate(1305.343043 1019.456848) scale(0.1 -0.1)">
      <defs>
       <path id="DejaVuSans-47" d="M 3809 666 
L 3809 1919 
L 2778 1919 
L 2778 2438 
L 4434 2438 
L 4434 434 
Q 4069 175 3628 42 
Q 3188 -91 2688 -91 
Q 1594 -91 976 548 
Q 359 1188 359 2328 
Q 359 3472 976 4111 
Q 1594 4750 2688 4750 
Q 3144 4750 3555 4637 
Q 3966 4525 4313 4306 
L 4313 3634 
Q 3963 3931 3569 4081 
Q 3175 4231 2741 4231 
Q 1884 4231 1454 3753 
Q 1025 3275 1025 2328 
Q 1025 1384 1454 906 
Q 1884 428 2741 428 
Q 3075 428 3337 486 
Q 3600 544 3809 666 
z
" transform="scale(0.015625)"/>
      </defs>
      <use xlink:href="#DejaVuSans-47"/>
      <use xlink:href="#DejaVuSans-5f" transform="translate(77.490234 0)"/>
      <use xlink:href="#DejaVuSans-43" transform="translate(127.490234 0)"/>
     </g>
    </g>
   </g>
   <g id="text_8">
    <g clip-path="url(#p69f099f7af)">
     <!-- N_C -->
     <g transform="translate(775.386792 1494.777989) scale(0.1 -0.1)">
      <defs>
       <path id="DejaVuSans-4e" d="M 628 4666 
L 1478 4666 
L 3547 763 
L 3547 4666 
L 4159 4666 
L 4159 0 
L 3309 0 
L 1241 3903 
L 1241 0 
L 628 0 
L 628 4666 
z
" transform="scale(0.015625)"/>
      </defs>
      <use xlink:href="#DejaVuSans-4e"/>
      <use xlink:href="#DejaVuSans-5f" transform="translate(74.804688 0)"/>
      <use xlink:href="#DejaVuSans-43" transform="translate(124.804688 0)"/>
     </g>
    </g>
   </g>
   <g id="text_9">
    <g clip-path="url(#p69f099f7af)">
     <!-- R_C -->
     <g transform="translate(1502.455952 1529.115959) scale(0.1 -0.1)">
      <defs>
       <path id="DejaVuSans-52" d="M 2841 2188 
Q 3044 2119 3236 1894 
Q 3428 1669 3622 1275 
L 4263 0 
L 3584 0 
L 2988 1197 
Q 2756 1666 2539 1819 
Q 2322 1972 1947 1972 
L 1259 1972 
L 1259 0 
L 628 0 
L 628 4666 
L 2053 4666 
Q 2853 4666 3247 4331 
Q 3641 3997 3641 3322 
Q 3641 2881 3436 2590 
Q 3231 2300 2841 2188 
z
M 1259 4147 
L 1259 2491 
L 2053 2491 
Q 2509 2491 2742 2702 
Q 2975 2913 2975 3322 
Q 2975 3731 2742 3939 
Q 2509 4147 2053 4147 
L 1259 4147 
z
" transform="scale(0.015625)"/>
      </defs>
      <use xlink:href="#DejaVuSans-52"/>
      <use xlink:href="#DejaVuSans-5f" transform="translate(69.482422 0)"/>
      <use xlink:href="#DejaVuSans-43" transform="translate(119.482422 0)"/>
     </g>
    </g>
   </g>
   <g id="text_10">
    <g clip-path="url(#p69f099f7af)">
     <!-- U_C -->
     <g transform="translate(582.758092 1376.840625) scale(0.1 -0.1)">
      <defs>
       <path id="DejaVuSans-55" d="M 556 4666 
L 1191 4666 
L 1191 1831 
Q 1191 1081 1462 751 
Q 1734 422 2344 422 
Q 2950 422 3222 751 
Q 3494 1081 3494 1831 
L 3494 4666 
L 4128 4666 
L 4128 1753 
Q 4128 841 3676 375 
Q 3225 -91 2344 -91 
Q 1459 -91 1007 375 
Q 556 841 556 1753 
L 556 4666 
z
" transform="scale(0.015625)"/>
      </defs>
      <use xlink:href="#DejaVuSans-55"/>
      <use xlink:href="#DejaVuSans-5f" transform="translate(73.193359 0)"/>
      <use xlink:href="#DejaVuSans-43" transform="translate(123.193359 0)"/>
     </g>
    </g>
   </g>
   <g id="text_11">
    <g clip-path="url(#p69f099f7af)">
     <!-- V_C -->
     <g transform="translate(886.55639 521.582278) scale(0.1 -0.1)">
      <defs>
       <path id="DejaVuSans-56" d="M 1831 0 
L 50 4666 
L 709 4666 
L 2188 738 
L 3669 4666 
L 4325 4666 
L 2547 0 
L 1831 0 
z
" transform="scale(0.015625)"/>
      </defs>
      <use xlink:href="#DejaVuSans-56"/>
      <use xlink:href="#DejaVuSans-5f" transform="translate(68.408203 0)"/>
      <use xlink:href="#DejaVuSans-43" transform="translate(118.408203 0)"/>
     </g>
    </g>
   </g>
   <g id="text_12">
    <g clip-path="url(#p69f099f7af)">
     <!-- W_C -->
     <g transform="translate(1701.773431 1478.590879) scale(0.1 -0.1)">
      <defs>
       <path id="DejaVuSans-57" d="M 213 4666 
L 850 4666 
L 1831 722 
L 2809 4666 
L 3519 4666 
L 4500 722 
L 5478 4666 
L 6119 4666 
L 4947 0 
L 4153 0 
L 3169 4050 
L 2175 0 
L 1381 0 
L 213 4666 
z
" transform="scale(0.015625)"/>
      </defs>
      <use xlink:href="#DejaVuSans-57"/>
      <use xlink:href="#DejaVuSans-5f" transform="translate(98.876953 0)"/>
      <use xlink:href="#DejaVuSans-43" transform="translate(148.876953 0)"/>
     </g>
    </g>
   </g>
   <g id="text_13">
    <g clip-path="url(#p69f099f7af)">
     <!-- X_C -->
     <g transform="translate(1193.997854 1663.874681) scale(0.1 -0.1)">
      <defs>
       <path id="DejaVuSans-58" d="M 403 4666 
L 1081 4666 
L 2241 2931 
L 3406 4666 
L 4084 4666 
L 2584 2425 
L 4184 0 
L 3506 0 
L 2194 1984 
L 872 0 
L 191 0 
L 1856 2491 
L 403 4666 
z
" transform="scale(0.015625)"/>
      </defs>
      <use xlink:href="#DejaVuSans-58"/>
      <use xlink:href="#DejaVuSans-5f" transform="translate(68.505859 0)"/>
      <use xlink:href="#DejaVuSans-43" transform="translate(118.505859 0)"/>
     </g>
    </g>
   </g>
   <g id="text_14">
    <g clip-path="url(#p69f099f7af)">
     <!-- H_C -->
     <g transform="translate(1319.606817 1005.429293) scale(0.1 -0.1)">
      <defs>
       <path id="DejaVuSans-48" d="M 628 4666 
L 1259 4666 
L 1259 2753 
L 3553 2753 
L 3553 4666 
L 4184 4666 
L 4184 0 
L 3553 0 
L 3553 2222 
L 1259 2222 
L 1259 0 
L 628 0 
L 628 4666 
z
" transform="scale(0.015625)"/>
      </defs>
      <use xlink:href="#DejaVuSans-48"/>
      <use xlink:href="#DejaVuSans-5f" transform="translate(75.195312 0)"/>
      <use xlink:href="#DejaVuSans-43" transform="translate(125.195312 0)"/>
     </g>
    </g>
   </g>
   <g id="text_15">
    <g clip-path="url(#p69f099f7af)">
     <!-- I_C -->
     <g transform="translate(1365.446392 1107.356191) scale(0.1 -0.1)">
      <defs>
       <path id="DejaVuSans-49" d="M 628 4666 
L 1259 4666 
L 1259 0 
L 628 0 
L 628 4666 
z
" transform="scale(0.015625)"/>
      </defs>
      <use xlink:href="#DejaVuSans-49"/>
      <use xlink:href="#DejaVuSans-5f" transform="translate(29.492188 0)"/>
      <use xlink:href="#DejaVuSans-43" transform="translate(79.492188 0)"/>
     </g>
    </g>
   </g>
   <g id="text_16">
    <g clip-path="url(#p69f099f7af)">
     <!-- J_C -->
     <g transform="translate(1349.987323 1002.661067) scale(0.1 -0.1)">
      <defs>
       <path id="DejaVuSans-4a" d="M 628 4666 
L 1259 4666 
L 1259 325 
Q 1259 -519 939 -900 
Q 619 -1281 -91 -1281 
L -331 -1281 
L -331 -750 
L -134 -750 
Q 284 -750 456 -515 
Q 628 -281 628 325 
L 628 4666 
z
" transform="scale(0.015625)"/>
      </defs>
      <use xlink:href="#DejaVuSans-4a"/>
      <use xlink:href="#DejaVuSans-5f" transform="translate(29.492188 0)"/>
      <use xlink:href="#DejaVuSans-43" transform="translate(79.492188 0)"/>
     </g>
    </g>
   </g>
   <g id="text_17">
    <g clip-path="url(#p69f099f7af)">
     <!-- P_C -->
     <g transform="translate(1235.742548 1283.322393) scale(0.1 -0.1)">
      <defs>
       <path id="DejaVuSans-50" d="M 1259 4147 
L 1259 2394 
L 2053 2394 
Q 2494 2394 2734 2622 
Q 2975 2850 2975 3272 
Q 2975 3691 2734 3919 
Q 2494 4147 2053 4147 
L 1259 4147 
z
M 628 4666 
L 2053 4666 
Q 2838 4666 3239 4311 
Q 3641 3956 3641 3272 
Q 3641 2581 3239 2228 
Q 2838 1875 2053 1875 
L 1259 1875 
L 1259 0 
L 628 0 
L 628 4666 
z
" transform="scale(0.015625)"/>
      </defs>
      <use xlink:href="#DejaVuSans-50"/>
      <use xlink:href="#DejaVuSans-5f" transform="translate(60.302734 0)"/>
      <use xlink:href="#DejaVuSans-43" transform="translate(110.302734 0)"/>
     </g>
    </g>
   </g>
   <g id="text_18">
    <g clip-path="url(#p69f099f7af)">
     <!-- Q_C -->
     <g transform="translate(1041.577078 1026.17343) scale(0.1 -0.1)">
      <defs>
       <path id="DejaVuSans-51" d="M 2522 4238 
Q 1834 4238 1429 3725 
Q 1025 3213 1025 2328 
Q 1025 1447 1429 934 
Q 1834 422 2522 422 
Q 3209 422 3611 934 
Q 4013 1447 4013 2328 
Q 4013 3213 3611 3725 
Q 3209 4238 2522 4238 
z
M 3406 84 
L 4238 -825 
L 3475 -825 
L 2784 -78 
Q 2681 -84 2626 -87 
Q 2572 -91 2522 -91 
Q 1538 -91 948 567 
Q 359 1225 359 2328 
Q 359 3434 948 4092 
Q 1538 4750 2522 4750 
Q 3503 4750 4090 4092 
Q 4678 3434 4678 2328 
Q 4678 1516 4351 937 
Q 4025 359 3406 84 
z
" transform="scale(0.015625)"/>
      </defs>
      <use xlink:href="#DejaVuSans-51"/>
      <use xlink:href="#DejaVuSans-5f" transform="translate(78.710938 0)"/>
      <use xlink:href="#DejaVuSans-43" transform="translate(128.710938 0)"/>
     </g>
    </g>
   </g>
   <g id="text_19">
    <g clip-path="url(#p69f099f7af)">
     <!-- M_C -->
     <g transform="translate(779.80143 1457.029959) scale(0.1 -0.1)">
      <defs>
       <path id="DejaVuSans-4d" d="M 628 4666 
L 1569 4666 
L 2759 1491 
L 3956 4666 
L 4897 4666 
L 4897 0 
L 4281 0 
L 4281 4097 
L 3078 897 
L 2444 897 
L 1241 4097 
L 1241 0 
L 628 0 
L 628 4666 
z
" transform="scale(0.015625)"/>
      </defs>
      <use xlink:href="#DejaVuSans-4d"/>
      <use xlink:href="#DejaVuSans-5f" transform="translate(86.279297 0)"/>
      <use xlink:href="#DejaVuSans-43" transform="translate(136.279297 0)"/>
     </g>
    </g>
   </g>
   <g id="text_20">
    <g clip-path="url(#p69f099f7af)">
     <!-- T_C -->
     <g transform="translate(947.927603 1225.674152) scale(0.1 -0.1)">
      <defs>
       <path id="DejaVuSans-54" d="M -19 4666 
L 3928 4666 
L 3928 4134 
L 2272 4134 
L 2272 0 
L 1638 0 
L 1638 4134 
L -19 4134 
L -19 4666 
z
" transform="scale(0.015625)"/>
      </defs>
      <use xlink:href="#DejaVuSans-54"/>
      <use xlink:href="#DejaVuSans-5f" transform="translate(61.083984 0)"/>
      <use xlink:href="#DejaVuSans-43" transform="translate(111.083984 0)"/>
     </g>
    </g>
   </g>
   <g id="text_21">
    <g clip-path="url(#p69f099f7af)">
     <!-- K_C -->
     <g transform="translate(1377.005753 1221.977343) scale(0.1 -0.1)">
      <defs>
       <path id="DejaVuSans-4b" d="M 628 4666 
L 1259 4666 
L 1259 2694 
L 3353 4666 
L 4166 4666 
L 1850 2491 
L 4331 0 
L 3500 0 
L 1259 2247 
L 1259 0 
L 628 0 
L 628 4666 
z
" transform="scale(0.015625)"/>
      </defs>
      <use xlink:href="#DejaVuSans-4b"/>
      <use xlink:href="#DejaVuSans-5f" transform="translate(65.576172 0)"/>
      <use xlink:href="#DejaVuSans-43" transform="translate(115.576172 0)"/>
     </g>
    </g>
   </g>
   <g id="text_22">
    <g clip-path="url(#p69f099f7af)">
     <!-- L_C -->
     <g transform="translate(1506.950939 1264.69103) scale(0.1 -0.1)">
      <defs>
       <path id="DejaVuSans-4c" d="M 628 4666 
L 1259 4666 
L 1259 531 
L 3531 531 
L 3531 0 
L 628 0 
L 628 4666 
z
" transform="scale(0.015625)"/>
      </defs>
      <use xlink:href="#DejaVuSans-4c"/>
      <use xlink:href="#DejaVuSans-5f" transform="translate(55.712891 0)"/>
      <use xlink:href="#DejaVuSans-43" transform="translate(105.712891 0)"/>
     </g>
    </g>
   </g>
   <g id="text_23">
    <g clip-path="url(#p69f099f7af)">
     <!-- O_C -->
     <g transform="translate(1494.922001 1453.834188) scale(0.1 -0.1)">
      <defs>
       <path id="DejaVuSans-4f" d="M 2522 4238 
Q 1834 4238 1429 3725 
Q 1025 3213 1025 2328 
Q 1025 1447 1429 934 
Q 1834 422 2522 422 
Q 3209 422 3611 934 
Q 4013 1447 4013 2328 
Q 4013 3213 3611 3725 
Q 3209 4238 2522 4238 
z
M 2522 4750 
Q 3503 4750 4090 4092 
Q 4678 3434 4678 2328 
Q 4678 1225 4090 567 
Q 3503 -91 2522 -91 
Q 1538 -91 948 565 
Q 359 1222 359 2328 
Q 359 3434 948 4092 
Q 1538 4750 2522 4750 
z
" transform="scale(0.015625)"/>
      </defs>
      <use xlink:href="#DejaVuSans-4f"/>
      <use xlink:href="#DejaVuSans-5f" transform="translate(78.710938 0)"/>
      <use xlink:href="#DejaVuSans-43" transform="translate(128.710938 0)"/>
     </g>
    </g>
   </g>
   <g id="text_24">
    <g clip-path="url(#p69f099f7af)">
     <!-- S_C -->
     <g transform="translate(975.928101 1083.75327) scale(0.1 -0.1)">
      <defs>
       <path id="DejaVuSans-53" d="M 3425 4513 
L 3425 3897 
Q 3066 4069 2747 4153 
Q 2428 4238 2131 4238 
Q 1616 4238 1336 4038 
Q 1056 3838 1056 3469 
Q 1056 3159 1242 3001 
Q 1428 2844 1947 2747 
L 2328 2669 
Q 3034 2534 3370 2195 
Q 3706 1856 3706 1288 
Q 3706 609 3251 259 
Q 2797 -91 1919 -91 
Q 1588 -91 1214 -16 
Q 841 59 441 206 
L 441 856 
Q 825 641 1194 531 
Q 1563 422 1919 422 
Q 2459 422 2753 634 
Q 3047 847 3047 1241 
Q 3047 1584 2836 1778 
Q 2625 1972 2144 2069 
L 1759 2144 
Q 1053 2284 737 2584 
Q 422 2884 422 3419 
Q 422 4038 858 4394 
Q 1294 4750 2059 4750 
Q 2388 4750 2728 4690 
Q 3069 4631 3425 4513 
z
" transform="scale(0.015625)"/>
      </defs>
      <use xlink:href="#DejaVuSans-53"/>
      <use xlink:href="#DejaVuSans-5f" transform="translate(63.476562 0)"/>
      <use xlink:href="#DejaVuSans-43" transform="translate(113.476562 0)"/>
     </g>
    </g>
   </g>
   <g id="text_25">
    <g clip-path="url(#p69f099f7af)">
     <!-- A_import -->
     <g transform="translate(1082.006901 798.572498) scale(0.1 -0.1)">
      <defs>
       <path id="DejaVuSans-69" d="M 603 3500 
L 1178 3500 
L 1178 0 
L 603 0 
L 603 3500 
z
M 603 4863 
L 1178 4863 
L 1178 4134 
L 603 4134 
L 603 4863 
z
" transform="scale(0.015625)"/>
       <path id="DejaVuSans-6d" d="M 3328 2828 
Q 3544 3216 3844 3400 
Q 4144 3584 4550 3584 
Q 5097 3584 5394 3201 
Q 5691 2819 5691 2113 
L 5691 0 
L 5113 0 
L 5113 2094 
Q 5113 2597 4934 2840 
Q 4756 3084 4391 3084 
Q 3944 3084 3684 2787 
Q 3425 2491 3425 1978 
L 3425 0 
L 2847 0 
L 2847 2094 
Q 2847 2600 2669 2842 
Q 2491 3084 2119 3084 
Q 1678 3084 1418 2786 
Q 1159 2488 1159 1978 
L 1159 0 
L 581 0 
L 581 3500 
L 1159 3500 
L 1159 2956 
Q 1356 3278 1631 3431 
Q 1906 3584 2284 3584 
Q 2666 3584 2933 3390 
Q 3200 3197 3328 2828 
z
" transform="scale(0.015625)"/>
       <path id="DejaVuSans-70" d="M 1159 525 
L 1159 -1331 
L 581 -1331 
L 581 3500 
L 1159 3500 
L 1159 2969 
Q 1341 3281 1617 3432 
Q 1894 3584 2278 3584 
Q 2916 3584 3314 3078 
Q 3713 2572 3713 1747 
Q 3713 922 3314 415 
Q 2916 -91 2278 -91 
Q 1894 -91 1617 61 
Q 1341 213 1159 525 
z
M 3116 1747 
Q 3116 2381 2855 2742 
Q 2594 3103 2138 3103 
Q 1681 3103 1420 2742 
Q 1159 2381 1159 1747 
Q 1159 1113 1420 752 
Q 1681 391 2138 391 
Q 2594 391 2855 752 
Q 3116 1113 3116 1747 
z
" transform="scale(0.015625)"/>
       <path id="DejaVuSans-6f" d="M 1959 3097 
Q 1497 3097 1228 2736 
Q 959 2375 959 1747 
Q 959 1119 1226 758 
Q 1494 397 1959 397 
Q 2419 397 2687 759 
Q 2956 1122 2956 1747 
Q 2956 2369 2687 2733 
Q 2419 3097 1959 3097 
z
M 1959 3584 
Q 2709 3584 3137 3096 
Q 3566 2609 3566 1747 
Q 3566 888 3137 398 
Q 2709 -91 1959 -91 
Q 1206 -91 779 398 
Q 353 888 353 1747 
Q 353 2609 779 3096 
Q 1206 3584 1959 3584 
z
" transform="scale(0.015625)"/>
       <path id="DejaVuSans-72" d="M 2631 2963 
Q 2534 3019 2420 3045 
Q 2306 3072 2169 3072 
Q 1681 3072 1420 2755 
Q 1159 2438 1159 1844 
L 1159 0 
L 581 0 
L 581 3500 
L 1159 3500 
L 1159 2956 
Q 1341 3275 1631 3429 
Q 1922 3584 2338 3584 
Q 2397 3584 2469 3576 
Q 2541 3569 2628 3553 
L 2631 2963 
z
" transform="scale(0.015625)"/>
       <path id="DejaVuSans-74" d="M 1172 4494 
L 1172 3500 
L 2356 3500 
L 2356 3053 
L 1172 3053 
L 1172 1153 
Q 1172 725 1289 603 
Q 1406 481 1766 481 
L 2356 481 
L 2356 0 
L 1766 0 
Q 1100 0 847 248 
Q 594 497 594 1153 
L 594 3053 
L 172 3053 
L 172 3500 
L 594 3500 
L 594 4494 
L 1172 4494 
z
" transform="scale(0.015625)"/>
      </defs>
      <use xlink:href="#DejaVuSans-41"/>
      <use xlink:href="#DejaVuSans-5f" transform="translate(68.408203 0)"/>
      <use xlink:href="#DejaVuSans-69" transform="translate(118.408203 0)"/>
      <use xlink:href="#DejaVuSans-6d" transform="translate(146.191406 0)"/>
      <use xlink:href="#DejaVuSans-70" transform="translate(243.603516 0)"/>
      <use xlink:href="#DejaVuSans-6f" transform="translate(307.080078 0)"/>
      <use xlink:href="#DejaVuSans-72" transform="translate(368.261719 0)"/>
      <use xlink:href="#DejaVuSans-74" transform="translate(409.375 0)"/>
     </g>
    </g>
   </g>
   <g id="text_26">
    <g clip-path="url(#p69f099f7af)">
     <!-- B_import -->
     <g transform="translate(1177.001671 758.289103) scale(0.1 -0.1)">
      <use xlink:href="#DejaVuSans-42"/>
      <use xlink:href="#DejaVuSans-5f" transform="translate(68.603516 0)"/>
      <use xlink:href="#DejaVuSans-69" transform="translate(118.603516 0)"/>
      <use xlink:href="#DejaVuSans-6d" transform="translate(146.386719 0)"/>
      <use xlink:href="#DejaVuSans-70" transform="translate(243.798828 0)"/>
      <use xlink:href="#DejaVuSans-6f" transform="translate(307.275391 0)"/>
      <use xlink:href="#DejaVuSans-72" transform="translate(368.457031 0)"/>
      <use xlink:href="#DejaVuSans-74" transform="translate(409.570312 0)"/>
     </g>
    </g>
   </g>
   <g id="text_27">
    <g clip-path="url(#p69f099f7af)">
     <!-- C_import -->
     <g transform="translate(1545.334624 922.090956) scale(0.1 -0.1)">
      <use xlink:href="#DejaVuSans-43"/>
      <use xlink:href="#DejaVuSans-5f" transform="translate(69.824219 0)"/>
      <use xlink:href="#DejaVuSans-69" transform="translate(119.824219 0)"/>
      <use xlink:href="#DejaVuSans-6d" transform="translate(147.607422 0)"/>
      <use xlink:href="#DejaVuSans-70" transform="translate(245.019531 0)"/>
      <use xlink:href="#DejaVuSans-6f" transform="translate(308.496094 0)"/>
      <use xlink:href="#DejaVuSans-72" transform="translate(369.677734 0)"/>
      <use xlink:href="#DejaVuSans-74" transform="translate(410.791016 0)"/>
     </g>
    </g>
   </g>
   <g id="text_28">
    <g clip-path="url(#p69f099f7af)">
     <!-- D_import -->
     <g transform="translate(1667.399312 1061.9976) scale(0.1 -0.1)">
      <use xlink:href="#DejaVuSans-44"/>
      <use xlink:href="#DejaVuSans-5f" transform="translate(77.001953 0)"/>
      <use xlink:href="#DejaVuSans-69" transform="translate(127.001953 0)"/>
      <use xlink:href="#DejaVuSans-6d" transform="translate(154.785156 0)"/>
      <use xlink:href="#DejaVuSans-70" transform="translate(252.197266 0)"/>
      <use xlink:href="#DejaVuSans-6f" transform="translate(315.673828 0)"/>
      <use xlink:href="#DejaVuSans-72" transform="translate(376.855469 0)"/>
      <use xlink:href="#DejaVuSans-74" transform="translate(417.96875 0)"/>
     </g>
    </g>
   </g>
   <g id="text_29">
    <g clip-path="url(#p69f099f7af)">
     <!-- E_import -->
     <g transform="translate(608.527497 1292.93749) scale(0.1 -0.1)">
      <use xlink:href="#DejaVuSans-45"/>
      <use xlink:href="#DejaVuSans-5f" transform="translate(63.183594 0)"/>
      <use xlink:href="#DejaVuSans-69" transform="translate(113.183594 0)"/>
      <use xlink:href="#DejaVuSans-6d" transform="translate(140.966797 0)"/>
      <use xlink:href="#DejaVuSans-70" transform="translate(238.378906 0)"/>
      <use xlink:href="#DejaVuSans-6f" transform="translate(301.855469 0)"/>
      <use xlink:href="#DejaVuSans-72" transform="translate(363.037109 0)"/>
      <use xlink:href="#DejaVuSans-74" transform="translate(404.150391 0)"/>
     </g>
    </g>
   </g>
   <g id="text_30">
    <g clip-path="url(#p69f099f7af)">
     <!-- F_import -->
     <g transform="translate(701.578859 1512.202501) scale(0.1 -0.1)">
      <use xlink:href="#DejaVuSans-46"/>
      <use xlink:href="#DejaVuSans-5f" transform="translate(57.519531 0)"/>
      <use xlink:href="#DejaVuSans-69" transform="translate(107.519531 0)"/>
      <use xlink:href="#DejaVuSans-6d" transform="translate(135.302734 0)"/>
      <use xlink:href="#DejaVuSans-70" transform="translate(232.714844 0)"/>
      <use xlink:href="#DejaVuSans-6f" transform="translate(296.191406 0)"/>
      <use xlink:href="#DejaVuSans-72" transform="translate(357.373047 0)"/>
      <use xlink:href="#DejaVuSans-74" transform="translate(398.486328 0)"/>
     </g>
    </g>
   </g>
   <g id="text_31">
    <g clip-path="url(#p69f099f7af)">
     <!-- G_import -->
     <g transform="translate(1284.948126 956.394508) scale(0.1 -0.1)">
      <use xlink:href="#DejaVuSans-47"/>
      <use xlink:href="#DejaVuSans-5f" transform="translate(77.490234 0)"/>
      <use xlink:href="#DejaVuSans-69" transform="translate(127.490234 0)"/>
      <use xlink:href="#DejaVuSans-6d" transform="translate(155.273438 0)"/>
      <use xlink:href="#DejaVuSans-70" transform="translate(252.685547 0)"/>
      <use xlink:href="#DejaVuSans-6f" transform="translate(316.162109 0)"/>
      <use xlink:href="#DejaVuSans-72" transform="translate(377.34375 0)"/>
      <use xlink:href="#DejaVuSans-74" transform="translate(418.457031 0)"/>
     </g>
    </g>
   </g>
   <g id="text_32">
    <g clip-path="url(#p69f099f7af)">
     <!-- N_exp -->
     <g transform="translate(710.080791 1717.013124) scale(0.1 -0.1)">
      <defs>
       <path id="DejaVuSans-65" d="M 3597 1894 
L 3597 1613 
L 953 1613 
Q 991 1019 1311 708 
Q 1631 397 2203 397 
Q 2534 397 2845 478 
Q 3156 559 3463 722 
L 3463 178 
Q 3153 47 2828 -22 
Q 2503 -91 2169 -91 
Q 1331 -91 842 396 
Q 353 884 353 1716 
Q 353 2575 817 3079 
Q 1281 3584 2069 3584 
Q 2775 3584 3186 3129 
Q 3597 2675 3597 1894 
z
M 3022 2063 
Q 3016 2534 2758 2815 
Q 2500 3097 2075 3097 
Q 1594 3097 1305 2825 
Q 1016 2553 972 2059 
L 3022 2063 
z
" transform="scale(0.015625)"/>
       <path id="DejaVuSans-78" d="M 3513 3500 
L 2247 1797 
L 3578 0 
L 2900 0 
L 1881 1375 
L 863 0 
L 184 0 
L 1544 1831 
L 300 3500 
L 978 3500 
L 1906 2253 
L 2834 3500 
L 3513 3500 
z
" transform="scale(0.015625)"/>
      </defs>
      <use xlink:href="#DejaVuSans-4e"/>
      <use xlink:href="#DejaVuSans-5f" transform="translate(74.804688 0)"/>
      <use xlink:href="#DejaVuSans-65" transform="translate(124.804688 0)"/>
      <use xlink:href="#DejaVuSans-78" transform="translate(184.578125 0)"/>
      <use xlink:href="#DejaVuSans-70" transform="translate(243.757812 0)"/>
     </g>
    </g>
   </g>
   <g id="text_33">
    <g clip-path="url(#p69f099f7af)">
     <!-- R_exp -->
     <g transform="translate(1632.848548 1707.77005) scale(0.1 -0.1)">
      <use xlink:href="#DejaVuSans-52"/>
      <use xlink:href="#DejaVuSans-5f" transform="translate(69.482422 0)"/>
      <use xlink:href="#DejaVuSans-65" transform="translate(119.482422 0)"/>
      <use xlink:href="#DejaVuSans-78" transform="translate(179.255859 0)"/>
      <use xlink:href="#DejaVuSans-70" transform="translate(238.435547 0)"/>
     </g>
    </g>
   </g>
   <g id="text_34">
    <g clip-path="url(#p69f099f7af)">
     <!-- U_exp -->
     <g transform="translate(430.05789 1416.065039) scale(0.1 -0.1)">
      <use xlink:href="#DejaVuSans-55"/>
      <use xlink:href="#DejaVuSans-5f" transform="translate(73.193359 0)"/>
      <use xlink:href="#DejaVuSans-65" transform="translate(123.193359 0)"/>
      <use xlink:href="#DejaVuSans-78" transform="translate(182.966797 0)"/>
      <use xlink:href="#DejaVuSans-70" transform="translate(242.146484 0)"/>
     </g>
    </g>
   </g>
   <g id="text_35">
    <g clip-path="url(#p69f099f7af)">
     <!-- V_exp -->
     <g transform="translate(823.984641 435.889946) scale(0.1 -0.1)">
      <use xlink:href="#DejaVuSans-56"/>
      <use xlink:href="#DejaVuSans-5f" transform="translate(68.408203 0)"/>
      <use xlink:href="#DejaVuSans-65" transform="translate(118.408203 0)"/>
      <use xlink:href="#DejaVuSans-78" transform="translate(178.181641 0)"/>
      <use xlink:href="#DejaVuSans-70" transform="translate(237.361328 0)"/>
     </g>
    </g>
   </g>
   <g id="text_36">
    <g clip-path="url(#p69f099f7af)">
     <!-- W_exp -->
     <g transform="translate(1752.093673 1527.061933) scale(0.1 -0.1)">
      <use xlink:href="#DejaVuSans-57"/>
      <use xlink:href="#DejaVuSans-5f" transform="translate(98.876953 0)"/>
      <use xlink:href="#DejaVuSans-65" transform="translate(148.876953 0)"/>
      <use xlink:href="#DejaVuSans-78" transform="translate(208.650391 0)"/>
      <use xlink:href="#DejaVuSans-70" transform="translate(267.830078 0)"/>
     </g>
    </g>
   </g>
   <g id="text_37">
    <g clip-path="url(#p69f099f7af)">
     <!-- X_exp -->
     <g transform="translate(1198.373542 1750.672554) scale(0.1 -0.1)">
      <use xlink:href="#DejaVuSans-58"/>
      <use xlink:href="#DejaVuSans-5f" transform="translate(68.505859 0)"/>
      <use xlink:href="#DejaVuSans-65" transform="translate(118.505859 0)"/>
      <use xlink:href="#DejaVuSans-78" transform="translate(178.279297 0)"/>
      <use xlink:href="#DejaVuSans-70" transform="translate(237.458984 0)"/>
     </g>
    </g>
   </g>
   <g id="text_38">
    <g clip-path="url(#p69f099f7af)">
     <!-- R_A_B__G_H -->
     <g transform="translate(1228.323769 918.777374) scale(0.1 -0.1)">
      <use xlink:href="#DejaVuSans-52"/>
      <use xlink:href="#DejaVuSans-5f" transform="translate(69.482422 0)"/>
      <use xlink:href="#DejaVuSans-41" transform="translate(119.482422 0)"/>
      <use xlink:href="#DejaVuSans-5f" transform="translate(187.890625 0)"/>
      <use xlink:href="#DejaVuSans-42" transform="translate(237.890625 0)"/>
      <use xlink:href="#DejaVuSans-5f" transform="translate(306.494141 0)"/>
      <use xlink:href="#DejaVuSans-5f" transform="translate(356.494141 0)"/>
      <use xlink:href="#DejaVuSans-47" transform="translate(406.494141 0)"/>
      <use xlink:href="#DejaVuSans-5f" transform="translate(483.984375 0)"/>
      <use xlink:href="#DejaVuSans-48" transform="translate(533.984375 0)"/>
     </g>
    </g>
   </g>
   <g id="text_39">
    <g clip-path="url(#p69f099f7af)">
     <!-- R_C_H__I -->
     <g transform="translate(1395.818067 1021.4533) scale(0.1 -0.1)">
      <use xlink:href="#DejaVuSans-52"/>
      <use xlink:href="#DejaVuSans-5f" transform="translate(69.482422 0)"/>
      <use xlink:href="#DejaVuSans-43" transform="translate(119.482422 0)"/>
      <use xlink:href="#DejaVuSans-5f" transform="translate(189.306641 0)"/>
      <use xlink:href="#DejaVuSans-48" transform="translate(239.306641 0)"/>
      <use xlink:href="#DejaVuSans-5f" transform="translate(314.501953 0)"/>
      <use xlink:href="#DejaVuSans-5f" transform="translate(364.501953 0)"/>
      <use xlink:href="#DejaVuSans-49" transform="translate(414.501953 0)"/>
     </g>
    </g>
   </g>
   <g id="text_40">
    <g clip-path="url(#p69f099f7af)">
     <!-- R_C_D__J -->
     <g transform="translate(1474.805929 1004.374231) scale(0.1 -0.1)">
      <use xlink:href="#DejaVuSans-52"/>
      <use xlink:href="#DejaVuSans-5f" transform="translate(69.482422 0)"/>
      <use xlink:href="#DejaVuSans-43" transform="translate(119.482422 0)"/>
      <use xlink:href="#DejaVuSans-5f" transform="translate(189.306641 0)"/>
      <use xlink:href="#DejaVuSans-44" transform="translate(239.306641 0)"/>
      <use xlink:href="#DejaVuSans-5f" transform="translate(316.308594 0)"/>
      <use xlink:href="#DejaVuSans-5f" transform="translate(366.308594 0)"/>
      <use xlink:href="#DejaVuSans-4a" transform="translate(416.308594 0)"/>
     </g>
    </g>
   </g>
   <g id="text_41">
    <g clip-path="url(#p69f099f7af)">
     <!-- R_I__P -->
     <g transform="translate(1289.510522 1196.016553) scale(0.1 -0.1)">
      <use xlink:href="#DejaVuSans-52"/>
      <use xlink:href="#DejaVuSans-5f" transform="translate(69.482422 0)"/>
      <use xlink:href="#DejaVuSans-49" transform="translate(119.482422 0)"/>
      <use xlink:href="#DejaVuSans-5f" transform="translate(148.974609 0)"/>
      <use xlink:href="#DejaVuSans-5f" transform="translate(198.974609 0)"/>
      <use xlink:href="#DejaVuSans-50" transform="translate(248.974609 0)"/>
     </g>
    </g>
   </g>
   <g id="text_42">
    <g clip-path="url(#p69f099f7af)">
     <!-- R_J__Q -->
     <g transform="translate(1182.510441 1010.287592) scale(0.1 -0.1)">
      <use xlink:href="#DejaVuSans-52"/>
      <use xlink:href="#DejaVuSans-5f" transform="translate(69.482422 0)"/>
      <use xlink:href="#DejaVuSans-4a" transform="translate(119.482422 0)"/>
      <use xlink:href="#DejaVuSans-5f" transform="translate(148.974609 0)"/>
      <use xlink:href="#DejaVuSans-5f" transform="translate(198.974609 0)"/>
      <use xlink:href="#DejaVuSans-51" transform="translate(248.974609 0)"/>
     </g>
    </g>
   </g>
   <g id="text_43">
    <g clip-path="url(#p69f099f7af)">
     <!-- R_E__M -->
     <g transform="translate(746.694628 1372.982473) scale(0.1 -0.1)">
      <use xlink:href="#DejaVuSans-52"/>
      <use xlink:href="#DejaVuSans-5f" transform="translate(69.482422 0)"/>
      <use xlink:href="#DejaVuSans-45" transform="translate(119.482422 0)"/>
      <use xlink:href="#DejaVuSans-5f" transform="translate(182.666016 0)"/>
      <use xlink:href="#DejaVuSans-5f" transform="translate(232.666016 0)"/>
      <use xlink:href="#DejaVuSans-4d" transform="translate(282.666016 0)"/>
     </g>
    </g>
   </g>
   <g id="text_44">
    <g clip-path="url(#p69f099f7af)">
     <!-- R_F_M__N -->
     <g transform="translate(775.955764 1548.277037) scale(0.1 -0.1)">
      <use xlink:href="#DejaVuSans-52"/>
      <use xlink:href="#DejaVuSans-5f" transform="translate(69.482422 0)"/>
      <use xlink:href="#DejaVuSans-46" transform="translate(119.482422 0)"/>
      <use xlink:href="#DejaVuSans-5f" transform="translate(177.001953 0)"/>
      <use xlink:href="#DejaVuSans-4d" transform="translate(227.001953 0)"/>
      <use xlink:href="#DejaVuSans-5f" transform="translate(313.28125 0)"/>
      <use xlink:href="#DejaVuSans-5f" transform="translate(363.28125 0)"/>
      <use xlink:href="#DejaVuSans-4e" transform="translate(413.28125 0)"/>
     </g>
    </g>
   </g>
   <g id="text_45">
    <g clip-path="url(#p69f099f7af)">
     <!-- R_N__T -->
     <g transform="translate(855.810529 1360.868083) scale(0.1 -0.1)">
      <use xlink:href="#DejaVuSans-52"/>
      <use xlink:href="#DejaVuSans-5f" transform="translate(69.482422 0)"/>
      <use xlink:href="#DejaVuSans-4e" transform="translate(119.482422 0)"/>
      <use xlink:href="#DejaVuSans-5f" transform="translate(194.287109 0)"/>
      <use xlink:href="#DejaVuSans-5f" transform="translate(244.287109 0)"/>
      <use xlink:href="#DejaVuSans-54" transform="translate(294.287109 0)"/>
     </g>
    </g>
   </g>
   <g id="text_46">
    <g clip-path="url(#p69f099f7af)">
     <!-- R_N__U -->
     <g transform="translate(764.34752 1318.402101) scale(0.1 -0.1)">
      <use xlink:href="#DejaVuSans-52"/>
      <use xlink:href="#DejaVuSans-5f" transform="translate(69.482422 0)"/>
      <use xlink:href="#DejaVuSans-4e" transform="translate(119.482422 0)"/>
      <use xlink:href="#DejaVuSans-5f" transform="translate(194.287109 0)"/>
      <use xlink:href="#DejaVuSans-5f" transform="translate(244.287109 0)"/>
      <use xlink:href="#DejaVuSans-55" transform="translate(294.287109 0)"/>
     </g>
    </g>
   </g>
   <g id="text_47">
    <g clip-path="url(#p69f099f7af)">
     <!-- R_H__K -->
     <g transform="translate(1328.627014 1112.303729) scale(0.1 -0.1)">
      <use xlink:href="#DejaVuSans-52"/>
      <use xlink:href="#DejaVuSans-5f" transform="translate(69.482422 0)"/>
      <use xlink:href="#DejaVuSans-48" transform="translate(119.482422 0)"/>
      <use xlink:href="#DejaVuSans-5f" transform="translate(194.677734 0)"/>
      <use xlink:href="#DejaVuSans-5f" transform="translate(244.677734 0)"/>
      <use xlink:href="#DejaVuSans-4b" transform="translate(294.677734 0)"/>
     </g>
    </g>
   </g>
   <g id="text_48">
    <g clip-path="url(#p69f099f7af)">
     <!-- R_G_K__L -->
     <g transform="translate(1382.482348 1149.664541) scale(0.1 -0.1)">
      <use xlink:href="#DejaVuSans-52"/>
      <use xlink:href="#DejaVuSans-5f" transform="translate(69.482422 0)"/>
      <use xlink:href="#DejaVuSans-47" transform="translate(119.482422 0)"/>
      <use xlink:href="#DejaVuSans-5f" transform="translate(196.972656 0)"/>
      <use xlink:href="#DejaVuSans-4b" transform="translate(246.972656 0)"/>
      <use xlink:href="#DejaVuSans-5f" transform="translate(312.548828 0)"/>
      <use xlink:href="#DejaVuSans-5f" transform="translate(362.548828 0)"/>
      <use xlink:href="#DejaVuSans-4c" transform="translate(412.548828 0)"/>
     </g>
    </g>
   </g>
   <g id="text_49">
    <g clip-path="url(#p69f099f7af)">
     <!-- R_K__O -->
     <g transform="translate(1405.04983 1364.356229) scale(0.1 -0.1)">
      <use xlink:href="#DejaVuSans-52"/>
      <use xlink:href="#DejaVuSans-5f" transform="translate(69.482422 0)"/>
      <use xlink:href="#DejaVuSans-4b" transform="translate(119.482422 0)"/>
      <use xlink:href="#DejaVuSans-5f" transform="translate(185.058594 0)"/>
      <use xlink:href="#DejaVuSans-5f" transform="translate(235.058594 0)"/>
      <use xlink:href="#DejaVuSans-4f" transform="translate(285.058594 0)"/>
     </g>
    </g>
   </g>
   <g id="text_50">
    <g clip-path="url(#p69f099f7af)">
     <!-- R_L__W -->
     <g transform="translate(1610.507983 1392.832063) scale(0.1 -0.1)">
      <use xlink:href="#DejaVuSans-52"/>
      <use xlink:href="#DejaVuSans-5f" transform="translate(69.482422 0)"/>
      <use xlink:href="#DejaVuSans-4c" transform="translate(119.482422 0)"/>
      <use xlink:href="#DejaVuSans-5f" transform="translate(175.195312 0)"/>
      <use xlink:href="#DejaVuSans-5f" transform="translate(225.195312 0)"/>
      <use xlink:href="#DejaVuSans-57" transform="translate(275.195312 0)"/>
     </g>
    </g>
   </g>
   <g id="text_51">
    <g clip-path="url(#p69f099f7af)">
     <!-- R_O_P__R -->
     <g transform="translate(1530.81316 1527.760179) scale(0.1 -0.1)">
      <use xlink:href="#DejaVuSans-52"/>
      <use xlink:href="#DejaVuSans-5f" transform="translate(69.482422 0)"/>
      <use xlink:href="#DejaVuSans-4f" transform="translate(119.482422 0)"/>
      <use xlink:href="#DejaVuSans-5f" transform="translate(198.193359 0)"/>
      <use xlink:href="#DejaVuSans-50" transform="translate(248.193359 0)"/>
      <use xlink:href="#DejaVuSans-5f" transform="translate(308.496094 0)"/>
      <use xlink:href="#DejaVuSans-5f" transform="translate(358.496094 0)"/>
      <use xlink:href="#DejaVuSans-52" transform="translate(408.496094 0)"/>
     </g>
    </g>
   </g>
   <g id="text_52">
    <g clip-path="url(#p69f099f7af)">
     <!-- R_P_Q__S -->
     <g transform="translate(891.156228 1059.570583) scale(0.1 -0.1)">
      <use xlink:href="#DejaVuSans-52"/>
      <use xlink:href="#DejaVuSans-5f" transform="translate(69.482422 0)"/>
      <use xlink:href="#DejaVuSans-50" transform="translate(119.482422 0)"/>
      <use xlink:href="#DejaVuSans-5f" transform="translate(179.785156 0)"/>
      <use xlink:href="#DejaVuSans-51" transform="translate(229.785156 0)"/>
      <use xlink:href="#DejaVuSans-5f" transform="translate(308.496094 0)"/>
      <use xlink:href="#DejaVuSans-5f" transform="translate(358.496094 0)"/>
      <use xlink:href="#DejaVuSans-53" transform="translate(408.496094 0)"/>
     </g>
    </g>
   </g>
   <g id="text_53">
    <g clip-path="url(#p69f099f7af)">
     <!-- R_S_T__V_X -->
     <g transform="translate(1019.378059 1092.31805) scale(0.1 -0.1)">
      <use xlink:href="#DejaVuSans-52"/>
      <use xlink:href="#DejaVuSans-5f" transform="translate(69.482422 0)"/>
      <use xlink:href="#DejaVuSans-53" transform="translate(119.482422 0)"/>
      <use xlink:href="#DejaVuSans-5f" transform="translate(182.958984 0)"/>
      <use xlink:href="#DejaVuSans-54" transform="translate(232.958984 0)"/>
      <use xlink:href="#DejaVuSans-5f" transform="translate(294.042969 0)"/>
      <use xlink:href="#DejaVuSans-5f" transform="translate(344.042969 0)"/>
      <use xlink:href="#DejaVuSans-56" transform="translate(394.042969 0)"/>
      <use xlink:href="#DejaVuSans-5f" transform="translate(462.451172 0)"/>
      <use xlink:href="#DejaVuSans-58" transform="translate(512.451172 0)"/>
     </g>
    </g>
   </g>
   <g id="EdgeCollection_1">
    <path d="M 1158.671447 836.179958 
L 1119.236667 806.93031 
" clip-path="url(#p69f099f7af)" style="fill: none; stroke: #000000; stroke-width: 1.5"/>
    <path d="M 1186.801938 857.959646 
L 1245.334491 905.355499 
" clip-path="url(#p69f099f7af)" style="fill: none; stroke: #000000; stroke-width: 1.5"/>
    <path d="M 1219.845933 811.114546 
L 1203.480913 766.646915 
" clip-path="url(#p69f099f7af)" style="fill: none; stroke: #000000; stroke-width: 1.5"/>
    <path d="M 1227.889841 832.894234 
L 1254.746926 905.355499 
" clip-path="url(#p69f099f7af)" style="fill: none; stroke: #000000; stroke-width: 1.5"/>
    <path d="M 1520.706948 953.917321 
L 1552.815076 930.448768 
" clip-path="url(#p69f099f7af)" style="fill: none; stroke: #000000; stroke-width: 1.5"/>
    <path d="M 1488.141584 975.697008 
L 1435.685447 1008.031425 
" clip-path="url(#p69f099f7af)" style="fill: none; stroke: #000000; stroke-width: 1.5"/>
    <path d="M 1503.2466 975.697008 
L 1499.658136 990.952356 
" clip-path="url(#p69f099f7af)" style="fill: none; stroke: #000000; stroke-width: 1.5"/>
    <path d="M 1629.773325 1032.364847 
L 1665.67637 1048.399162 
" clip-path="url(#p69f099f7af)" style="fill: none; stroke: #000000; stroke-width: 1.5"/>
    <path d="M 1593.613754 1020.748788 
L 1527.404952 1007.77926 
" clip-path="url(#p69f099f7af)" style="fill: none; stroke: #000000; stroke-width: 1.5"/>
    <path d="M 678.02501 1311.841396 
L 654.835234 1301.295302 
" clip-path="url(#p69f099f7af)" style="fill: none; stroke: #000000; stroke-width: 1.5"/>
    <path d="M 710.375533 1330.639235 
L 750.270791 1359.677005 
" clip-path="url(#p69f099f7af)" style="fill: none; stroke: #000000; stroke-width: 1.5"/>
    <path d="M 743.524068 1532.541294 
L 733.055521 1520.560313 
" clip-path="url(#p69f099f7af)" style="fill: none; stroke: #000000; stroke-width: 1.5"/>
    <path d="M 770.144883 1544.28591 
L 767.937796 1544.175622 
" clip-path="url(#p69f099f7af)" style="fill: none; stroke: #000000; stroke-width: 1.5"/>
    <path d="M 1313.936435 1006.034973 
L 1309.113486 964.75232 
" clip-path="url(#p69f099f7af)" style="fill: none; stroke: #000000; stroke-width: 1.5"/>
    <path d="M 1309.105486 1006.034973 
L 1264.886326 927.135186 
" clip-path="url(#p69f099f7af)" style="fill: none; stroke: #000000; stroke-width: 1.5"/>
    <path d="M 1322.793219 1027.814661 
L 1398.311078 1136.242666 
" clip-path="url(#p69f099f7af)" style="fill: none; stroke: #000000; stroke-width: 1.5"/>
    <path d="M 782.195342 1503.135802 
L 728.349936 1703.707655 
" clip-path="url(#p69f099f7af)" style="fill: none; stroke: #000000; stroke-width: 1.5"/>
    <path d="M 792.315349 1481.356114 
L 866.426123 1369.211051 
" clip-path="url(#p69f099f7af)" style="fill: none; stroke: #000000; stroke-width: 1.5"/>
    <path d="M 784.97078 1481.356114 
L 782.868891 1326.74507 
" clip-path="url(#p69f099f7af)" style="fill: none; stroke: #000000; stroke-width: 1.5"/>
    <path d="M 1520.210542 1537.473772 
L 1639.706409 1694.464582 
" clip-path="url(#p69f099f7af)" style="fill: none; stroke: #000000; stroke-width: 1.5"/>
    <path d="M 574.463268 1379.10102 
L 468.913651 1407.288355 
" clip-path="url(#p69f099f7af)" style="fill: none; stroke: #000000; stroke-width: 1.5"/>
    <path d="M 888.727779 508.160403 
L 846.224309 444.232914 
" clip-path="url(#p69f099f7af)" style="fill: none; stroke: #000000; stroke-width: 1.5"/>
    <path d="M 1725.265882 1486.948692 
L 1756.178457 1513.756464 
" clip-path="url(#p69f099f7af)" style="fill: none; stroke: #000000; stroke-width: 1.5"/>
    <path d="M 1204.669018 1672.232494 
L 1212.174003 1737.367086 
" clip-path="url(#p69f099f7af)" style="fill: none; stroke: #000000; stroke-width: 1.5"/>
    <path d="M 1320.488948 992.007418 
L 1267.652576 927.135186 
" clip-path="url(#p69f099f7af)" style="fill: none; stroke: #000000; stroke-width: 1.5"/>
    <path d="M 1347.347833 1006.148577 
L 1387.800782 1013.459821 
" clip-path="url(#p69f099f7af)" style="fill: none; stroke: #000000; stroke-width: 1.5"/>
    <path d="M 1331.118464 1013.787105 
L 1344.890818 1098.99826 
" clip-path="url(#p69f099f7af)" style="fill: none; stroke: #000000; stroke-width: 1.5"/>
    <path d="M 1378.630858 1093.934316 
L 1412.300789 1029.811112 
" clip-path="url(#p69f099f7af)" style="fill: none; stroke: #000000; stroke-width: 1.5"/>
    <path d="M 1364.57296 1115.714003 
L 1313.264164 1182.711084 
" clip-path="url(#p69f099f7af)" style="fill: none; stroke: #000000; stroke-width: 1.5"/>
    <path d="M 1373.907245 1000.33089 
L 1466.788156 1001.470371 
" clip-path="url(#p69f099f7af)" style="fill: none; stroke: #000000; stroke-width: 1.5"/>
    <path d="M 1341.000213 1000.920437 
L 1223.50839 1006.571704 
" clip-path="url(#p69f099f7af)" style="fill: none; stroke: #000000; stroke-width: 1.5"/>
    <path d="M 1252.265261 1269.900518 
L 1297.503418 1204.359522 
" clip-path="url(#p69f099f7af)" style="fill: none; stroke: #000000; stroke-width: 1.5"/>
    <path d="M 1258.557853 1291.680205 
L 1540.903323 1514.338304 
" clip-path="url(#p69f099f7af)" style="fill: none; stroke: #000000; stroke-width: 1.5"/>
    <path d="M 1228.688253 1269.900518 
L 930.815992 1067.928396 
" clip-path="url(#p69f099f7af)" style="fill: none; stroke: #000000; stroke-width: 1.5"/>
    <path d="M 1069.879813 1021.660897 
L 1174.282805 1010.40833 
" clip-path="url(#p69f099f7af)" style="fill: none; stroke: #000000; stroke-width: 1.5"/>
    <path d="M 1033.129032 1028.129079 
L 946.584939 1049.265079 
" clip-path="url(#p69f099f7af)" style="fill: none; stroke: #000000; stroke-width: 1.5"/>
    <path d="M 786.870335 1443.608084 
L 768.359344 1381.325442 
" clip-path="url(#p69f099f7af)" style="fill: none; stroke: #000000; stroke-width: 1.5"/>
    <path d="M 791.329924 1465.387772 
L 799.144797 1534.971569 
" clip-path="url(#p69f099f7af)" style="fill: none; stroke: #000000; stroke-width: 1.5"/>
    <path d="M 950.258098 1234.031964 
L 880.253633 1347.562614 
" clip-path="url(#p69f099f7af)" style="fill: none; stroke: #000000; stroke-width: 1.5"/>
    <path d="M 964.440941 1212.252277 
L 1040.957691 1100.675862 
" clip-path="url(#p69f099f7af)" style="fill: none; stroke: #000000; stroke-width: 1.5"/>
    <path d="M 1382.33868 1208.555468 
L 1350.553953 1120.646698 
" clip-path="url(#p69f099f7af)" style="fill: none; stroke: #000000; stroke-width: 1.5"/>
    <path d="M 1389.230646 1208.555468 
L 1402.941048 1158.022354 
" clip-path="url(#p69f099f7af)" style="fill: none; stroke: #000000; stroke-width: 1.5"/>
    <path d="M 1389.103166 1230.335156 
L 1420.411792 1350.934354 
" clip-path="url(#p69f099f7af)" style="fill: none; stroke: #000000; stroke-width: 1.5"/>
    <path d="M 1505.330152 1251.269155 
L 1416.293759 1158.022354 
" clip-path="url(#p69f099f7af)" style="fill: none; stroke: #000000; stroke-width: 1.5"/>
    <path d="M 1525.36867 1273.048843 
L 1619.629597 1379.526595 
" clip-path="url(#p69f099f7af)" style="fill: none; stroke: #000000; stroke-width: 1.5"/>
    <path d="M 1512.194537 1462.192001 
L 1547.367186 1514.338304 
" clip-path="url(#p69f099f7af)" style="fill: none; stroke: #000000; stroke-width: 1.5"/>
    <path d="M 1002.658179 1083.59659 
L 1011.025032 1084.728091 
" clip-path="url(#p69f099f7af)" style="fill: none; stroke: #000000; stroke-width: 1.5"/>
    <path d="M 1121.023876 804.52077 
L 1160.458656 833.770418 
" clip-path="url(#p69f099f7af)" style="fill: none; stroke: #000000; stroke-width: 1.5"/>
    <path d="M 1206.296308 765.610791 
L 1222.661327 810.078422 
" clip-path="url(#p69f099f7af)" style="fill: none; stroke: #000000; stroke-width: 1.5"/>
    <path d="M 1554.585368 932.870765 
L 1522.47724 956.339317 
" clip-path="url(#p69f099f7af)" style="fill: none; stroke: #000000; stroke-width: 1.5"/>
    <path d="M 1664.453025 1051.138401 
L 1628.54998 1035.104085 
" clip-path="url(#p69f099f7af)" style="fill: none; stroke: #000000; stroke-width: 1.5"/>
    <path d="M 656.077159 1298.564437 
L 679.266935 1309.110532 
" clip-path="url(#p69f099f7af)" style="fill: none; stroke: #000000; stroke-width: 1.5"/>
    <path d="M 735.314635 1518.586382 
L 745.783181 1530.567362 
" clip-path="url(#p69f099f7af)" style="fill: none; stroke: #000000; stroke-width: 1.5"/>
    <path d="M 1312.09322 964.404205 
L 1316.916169 1005.686858 
" clip-path="url(#p69f099f7af)" style="fill: none; stroke: #000000; stroke-width: 1.5"/>
    <path d="M 1243.446599 907.686993 
L 1184.914046 860.29114 
" clip-path="url(#p69f099f7af)" style="fill: none; stroke: #000000; stroke-width: 1.5"/>
    <path d="M 1251.933927 906.39811 
L 1225.076842 833.936845 
" clip-path="url(#p69f099f7af)" style="fill: none; stroke: #000000; stroke-width: 1.5"/>
    <path d="M 1267.503345 925.668486 
L 1311.722505 1004.568272 
" clip-path="url(#p69f099f7af)" style="fill: none; stroke: #000000; stroke-width: 1.5"/>
    <path d="M 1269.978675 925.240652 
L 1322.815048 990.112884 
" clip-path="url(#p69f099f7af)" style="fill: none; stroke: #000000; stroke-width: 1.5"/>
    <path d="M 1434.111258 1005.477618 
L 1486.567395 973.143201 
" clip-path="url(#p69f099f7af)" style="fill: none; stroke: #000000; stroke-width: 1.5"/>
    <path d="M 1387.267223 1016.411992 
L 1346.814274 1009.100748 
" clip-path="url(#p69f099f7af)" style="fill: none; stroke: #000000; stroke-width: 1.5"/>
    <path d="M 1414.956893 1031.205784 
L 1381.286962 1095.328988 
" clip-path="url(#p69f099f7af)" style="fill: none; stroke: #000000; stroke-width: 1.5"/>
    <path d="M 1496.73784 990.265425 
L 1500.326305 975.010077 
" clip-path="url(#p69f099f7af)" style="fill: none; stroke: #000000; stroke-width: 1.5"/>
    <path d="M 1527.981657 1004.835213 
L 1594.190459 1017.804742 
" clip-path="url(#p69f099f7af)" style="fill: none; stroke: #000000; stroke-width: 1.5"/>
    <path d="M 1466.751354 1004.470145 
L 1373.870443 1003.330665 
" clip-path="url(#p69f099f7af)" style="fill: none; stroke: #000000; stroke-width: 1.5"/>
    <path d="M 1310.88239 1180.887036 
L 1362.191187 1113.889954 
" clip-path="url(#p69f099f7af)" style="fill: none; stroke: #000000; stroke-width: 1.5"/>
    <path d="M 1299.972396 1206.063677 
L 1254.734239 1271.604673 
" clip-path="url(#p69f099f7af)" style="fill: none; stroke: #000000; stroke-width: 1.5"/>
    <path d="M 1223.364259 1003.575168 
L 1340.856082 997.923901 
" clip-path="url(#p69f099f7af)" style="fill: none; stroke: #000000; stroke-width: 1.5"/>
    <path d="M 1174.604283 1013.391056 
L 1070.201291 1024.643623 
" clip-path="url(#p69f099f7af)" style="fill: none; stroke: #000000; stroke-width: 1.5"/>
    <path d="M 748.50536 1362.102547 
L 708.610102 1333.064777 
" clip-path="url(#p69f099f7af)" style="fill: none; stroke: #000000; stroke-width: 1.5"/>
    <path d="M 771.235023 1380.470763 
L 789.746013 1442.753405 
" clip-path="url(#p69f099f7af)" style="fill: none; stroke: #000000; stroke-width: 1.5"/>
    <path d="M 797.279607 1534.971569 
L 788.218347 1503.135802 
" clip-path="url(#p69f099f7af)" style="fill: none; stroke: #000000; stroke-width: 1.5"/>
    <path d="M 868.928975 1370.865055 
L 794.818201 1483.010118 
" clip-path="url(#p69f099f7af)" style="fill: none; stroke: #000000; stroke-width: 1.5"/>
    <path d="M 877.700059 1345.988047 
L 947.704524 1232.457397 
" clip-path="url(#p69f099f7af)" style="fill: none; stroke: #000000; stroke-width: 1.5"/>
    <path d="M 756.273008 1324.035287 
L 610.354479 1368.802905 
" clip-path="url(#p69f099f7af)" style="fill: none; stroke: #000000; stroke-width: 1.5"/>
    <path d="M 1341.929251 1099.476927 
L 1328.156897 1014.265772 
" clip-path="url(#p69f099f7af)" style="fill: none; stroke: #000000; stroke-width: 1.5"/>
    <path d="M 1353.375205 1119.626632 
L 1385.159932 1207.535403 
" clip-path="url(#p69f099f7af)" style="fill: none; stroke: #000000; stroke-width: 1.5"/>
    <path d="M 1395.849318 1137.957232 
L 1320.331458 1029.529226 
" clip-path="url(#p69f099f7af)" style="fill: none; stroke: #000000; stroke-width: 1.5"/>
    <path d="M 1405.836375 1158.8079 
L 1392.125972 1209.341015 
" clip-path="url(#p69f099f7af)" style="fill: none; stroke: #000000; stroke-width: 1.5"/>
    <path d="M 1418.4635 1155.950585 
L 1507.499893 1249.197386 
" clip-path="url(#p69f099f7af)" style="fill: none; stroke: #000000; stroke-width: 1.5"/>
    <path d="M 1433.171227 1372.714041 
L 1494.917009 1440.412313 
" clip-path="url(#p69f099f7af)" style="fill: none; stroke: #000000; stroke-width: 1.5"/>
    <path d="M 1639.756834 1401.175032 
L 1702.09971 1465.169004 
" clip-path="url(#p69f099f7af)" style="fill: none; stroke: #000000; stroke-width: 1.5"/>
    <path d="M 1522.447731 1526.250418 
L 1529.625386 1526.023002 
" clip-path="url(#p69f099f7af)" style="fill: none; stroke: #000000; stroke-width: 1.5"/>
    <path d="M 946.429878 1067.928396 
L 967.529273 1075.182484 
" clip-path="url(#p69f099f7af)" style="fill: none; stroke: #000000; stroke-width: 1.5"/>
    <path d="M 1045.51677 1078.896175 
L 898.877055 529.940091 
" clip-path="url(#p69f099f7af)" style="fill: none; stroke: #000000; stroke-width: 1.5"/>
    <path d="M 1051.378706 1100.675862 
L 1200.46127 1650.452806 
" clip-path="url(#p69f099f7af)" style="fill: none; stroke: #000000; stroke-width: 1.5"/>
   </g>
   <g id="EdgeArrowCollection_1">
    <path d="M 1125.206794 816.338689 
L 1129.972685 809.913248 
L 1119.236667 806.93031 
z
" clip-path="url(#p69f099f7af)" style="stroke: #000000; stroke-width: 1.5"/>
    <path d="M 1239.769168 895.702148 
L 1234.73479 901.919465 
L 1245.334491 905.355499 
z
" clip-path="url(#p69f099f7af)" style="stroke: #000000; stroke-width: 1.5"/>
    <path d="M 1203.318951 777.788449 
L 1210.82667 775.025451 
L 1203.480913 766.646915 
z
" clip-path="url(#p69f099f7af)" style="stroke: #000000; stroke-width: 1.5"/>
    <path d="M 1254.883204 894.213622 
L 1247.381875 896.993919 
L 1254.746926 905.355499 
z
" clip-path="url(#p69f099f7af)" style="stroke: #000000; stroke-width: 1.5"/>
    <path d="M 1542.058433 933.356451 
L 1546.779211 939.815108 
L 1552.815076 930.448768 
z
" clip-path="url(#p69f099f7af)" style="stroke: #000000; stroke-width: 1.5"/>
    <path d="M 1446.637562 1005.979313 
L 1442.439726 999.169161 
L 1435.685447 1008.031425 
z
" clip-path="url(#p69f099f7af)" style="stroke: #000000; stroke-width: 1.5"/>
    <path d="M 1505.933225 981.744574 
L 1498.14577 979.912757 
L 1499.658136 990.952356 
z
" clip-path="url(#p69f099f7af)" style="stroke: #000000; stroke-width: 1.5"/>
    <path d="M 1657.81147 1040.505915 
L 1654.549217 1047.81055 
L 1665.67637 1048.399162 
z
" clip-path="url(#p69f099f7af)" style="stroke: #000000; stroke-width: 1.5"/>
    <path d="M 1536.842043 1013.703897 
L 1538.379921 1005.853106 
L 1527.404952 1007.77926 
z
" clip-path="url(#p69f099f7af)" style="stroke: #000000; stroke-width: 1.5"/>
    <path d="M 662.646332 1309.241795 
L 665.958132 1301.959488 
L 654.835234 1301.295302 
z
" clip-path="url(#p69f099f7af)" style="stroke: #000000; stroke-width: 1.5"/>
    <path d="M 744.216154 1350.322788 
L 739.508338 1356.7909 
L 750.270791 1359.677005 
z
" clip-path="url(#p69f099f7af)" style="stroke: #000000; stroke-width: 1.5"/>
    <path d="M 736.886333 1531.023816 
L 742.910636 1525.759998 
L 733.055521 1520.560313 
z
" clip-path="url(#p69f099f7af)" style="stroke: #000000; stroke-width: 1.5"/>
    <path d="M 778.125204 1548.689679 
L 778.524467 1540.699649 
L 767.937796 1544.175622 
z
" clip-path="url(#p69f099f7af)" style="stroke: #000000; stroke-width: 1.5"/>
    <path d="M 1306.347305 975.546219 
L 1314.293263 974.617912 
L 1309.113486 964.75232 
z
" clip-path="url(#p69f099f7af)" style="stroke: #000000; stroke-width: 1.5"/>
    <path d="M 1266.48153 938.16312 
L 1273.460247 934.251918 
L 1264.886326 927.135186 
z
" clip-path="url(#p69f099f7af)" style="stroke: #000000; stroke-width: 1.5"/>
    <path d="M 1395.649599 1125.422475 
L 1389.084904 1129.99465 
L 1398.311078 1136.242666 
z
" clip-path="url(#p69f099f7af)" style="stroke: #000000; stroke-width: 1.5"/>
    <path d="M 734.909645 1694.700424 
L 727.183225 1692.626194 
L 728.349936 1703.707655 
z
" clip-path="url(#p69f099f7af)" style="stroke: #000000; stroke-width: 1.5"/>
    <path d="M 857.355106 1375.682269 
L 864.02938 1380.092946 
L 866.426123 1369.211051 
z
" clip-path="url(#p69f099f7af)" style="stroke: #000000; stroke-width: 1.5"/>
    <path d="M 779.010632 1337.198483 
L 787.009893 1337.089735 
L 782.868891 1326.74507 
z
" clip-path="url(#p69f099f7af)" style="stroke: #000000; stroke-width: 1.5"/>
    <path d="M 1636.590297 1683.766458 
L 1630.224573 1688.611823 
L 1639.706409 1694.464582 
z
" clip-path="url(#p69f099f7af)" style="stroke: #000000; stroke-width: 1.5"/>
    <path d="M 479.993572 1408.469608 
L 477.929484 1400.740472 
L 468.913651 1407.288355 
z
" clip-path="url(#p69f099f7af)" style="stroke: #000000; stroke-width: 1.5"/>
    <path d="M 848.651453 455.108068 
L 855.313375 450.678756 
L 846.224309 444.232914 
z
" clip-path="url(#p69f099f7af)" style="stroke: #000000; stroke-width: 1.5"/>
    <path d="M 1750.942078 1503.920798 
L 1745.70075 1509.964678 
L 1756.178457 1513.756464 
z
" clip-path="url(#p69f099f7af)" style="stroke: #000000; stroke-width: 1.5"/>
    <path d="M 1214.957271 1726.577581 
L 1207.009854 1727.493304 
L 1212.174003 1737.367086 
z
" clip-path="url(#p69f099f7af)" style="stroke: #000000; stroke-width: 1.5"/>
    <path d="M 1271.118828 937.725044 
L 1277.321761 932.672953 
L 1267.652576 927.135186 
z
" clip-path="url(#p69f099f7af)" style="stroke: #000000; stroke-width: 1.5"/>
    <path d="M 1378.278001 1007.673921 
L 1376.855177 1015.546377 
L 1387.800782 1013.459821 
z
" clip-path="url(#p69f099f7af)" style="stroke: #000000; stroke-width: 1.5"/>
    <path d="M 1347.180196 1088.093273 
L 1339.282684 1089.369718 
L 1344.890818 1098.99826 
z
" clip-path="url(#p69f099f7af)" style="stroke: #000000; stroke-width: 1.5"/>
    <path d="M 1403.924453 1037.159377 
L 1411.007398 1040.878503 
L 1412.300789 1029.811112 
z
" clip-path="url(#p69f099f7af)" style="stroke: #000000; stroke-width: 1.5"/>
    <path d="M 1322.763231 1176.886334 
L 1316.411835 1172.022204 
L 1313.264164 1182.711084 
z
" clip-path="url(#p69f099f7af)" style="stroke: #000000; stroke-width: 1.5"/>
    <path d="M 1456.438007 997.343092 
L 1456.339869 1005.34249 
L 1466.788156 1001.470371 
z
" clip-path="url(#p69f099f7af)" style="stroke: #000000; stroke-width: 1.5"/>
    <path d="M 1234.088556 1010.067431 
L 1233.704206 1002.076669 
L 1223.50839 1006.571704 
z
" clip-path="url(#p69f099f7af)" style="stroke: #000000; stroke-width: 1.5"/>
    <path d="M 1288.303708 1210.64644 
L 1294.887651 1215.190854 
L 1297.503418 1204.359522 
z
" clip-path="url(#p69f099f7af)" style="stroke: #000000; stroke-width: 1.5"/>
    <path d="M 1535.21397 1504.757529 
L 1530.260191 1511.039254 
L 1540.903323 1514.338304 
z
" clip-path="url(#p69f099f7af)" style="stroke: #000000; stroke-width: 1.5"/>
    <path d="M 937.179004 1077.075639 
L 941.668649 1070.454228 
L 930.815992 1067.928396 
z
" clip-path="url(#p69f099f7af)" style="stroke: #000000; stroke-width: 1.5"/>
    <path d="M 1163.514051 1007.545822 
L 1164.371327 1015.499757 
L 1174.282805 1010.40833 
z
" clip-path="url(#p69f099f7af)" style="stroke: #000000; stroke-width: 1.5"/>
    <path d="M 957.637004 1050.68348 
L 955.739008 1042.91189 
L 946.584939 1049.265079 
z
" clip-path="url(#p69f099f7af)" style="stroke: #000000; stroke-width: 1.5"/>
    <path d="M 767.487993 1392.434031 
L 775.156468 1390.154888 
L 768.359344 1381.325442 
z
" clip-path="url(#p69f099f7af)" style="stroke: #000000; stroke-width: 1.5"/>
    <path d="M 801.959092 1524.190115 
L 794.009073 1525.082972 
L 799.144797 1534.971569 
z
" clip-path="url(#p69f099f7af)" style="stroke: #000000; stroke-width: 1.5"/>
    <path d="M 889.116896 1340.809646 
L 882.307365 1336.610802 
L 880.253633 1347.562614 
z
" clip-path="url(#p69f099f7af)" style="stroke: #000000; stroke-width: 1.5"/>
    <path d="M 1031.777003 1106.990526 
L 1038.374635 1111.515042 
L 1040.957691 1100.675862 
z
" clip-path="url(#p69f099f7af)" style="stroke: #000000; stroke-width: 1.5"/>
    <path d="M 1350.328511 1131.787128 
L 1357.851851 1129.066952 
L 1350.553953 1120.646698 
z
" clip-path="url(#p69f099f7af)" style="stroke: #000000; stroke-width: 1.5"/>
    <path d="M 1396.357386 1167.012092 
L 1404.078257 1169.106882 
L 1402.941048 1158.022354 
z
" clip-path="url(#p69f099f7af)" style="stroke: #000000; stroke-width: 1.5"/>
    <path d="M 1421.670146 1339.862925 
L 1413.926829 1341.873159 
L 1420.411792 1350.934354 
z
" clip-path="url(#p69f099f7af)" style="stroke: #000000; stroke-width: 1.5"/>
    <path d="M 1420.582905 1168.306479 
L 1426.368879 1162.781761 
L 1416.293759 1158.022354 
z
" clip-path="url(#p69f099f7af)" style="stroke: #000000; stroke-width: 1.5"/>
    <path d="M 1615.731018 1369.088152 
L 1609.740974 1374.390923 
L 1619.629597 1379.526595 
z
" clip-path="url(#p69f099f7af)" style="stroke: #000000; stroke-width: 1.5"/>
    <path d="M 1544.867798 1503.479526 
L 1538.23547 1507.953028 
L 1547.367186 1514.338304 
z
" clip-path="url(#p69f099f7af)" style="stroke: #000000; stroke-width: 1.5"/>
    <path d="M 1001.254914 1079.370405 
L 1000.182784 1087.298238 
L 1011.025032 1084.728091 
z
" clip-path="url(#p69f099f7af)" style="stroke: #000000; stroke-width: 1.5"/>
    <path d="M 1154.488529 824.36204 
L 1149.722638 830.78748 
L 1160.458656 833.770418 
z
" clip-path="url(#p69f099f7af)" style="stroke: #000000; stroke-width: 1.5"/>
    <path d="M 1222.82329 798.936888 
L 1215.315571 801.699886 
L 1222.661327 810.078422 
z
" clip-path="url(#p69f099f7af)" style="stroke: #000000; stroke-width: 1.5"/>
    <path d="M 1533.233884 953.431635 
L 1528.513106 946.972977 
L 1522.47724 956.339317 
z
" clip-path="url(#p69f099f7af)" style="stroke: #000000; stroke-width: 1.5"/>
    <path d="M 1636.414879 1042.997332 
L 1639.677133 1035.692697 
L 1628.54998 1035.104085 
z
" clip-path="url(#p69f099f7af)" style="stroke: #000000; stroke-width: 1.5"/>
    <path d="M 671.455837 1301.164039 
L 668.144037 1308.446345 
L 679.266935 1309.110532 
z
" clip-path="url(#p69f099f7af)" style="stroke: #000000; stroke-width: 1.5"/>
    <path d="M 741.95237 1520.10386 
L 735.928067 1525.367677 
L 745.783181 1530.567362 
z
" clip-path="url(#p69f099f7af)" style="stroke: #000000; stroke-width: 1.5"/>
    <path d="M 1319.68235 994.89296 
L 1311.736392 995.821266 
L 1316.916169 1005.686858 
z
" clip-path="url(#p69f099f7af)" style="stroke: #000000; stroke-width: 1.5"/>
    <path d="M 1190.479368 869.944491 
L 1195.513747 863.727174 
L 1184.914046 860.29114 
z
" clip-path="url(#p69f099f7af)" style="stroke: #000000; stroke-width: 1.5"/>
    <path d="M 1224.940564 845.078722 
L 1232.441894 842.298425 
L 1225.076842 833.936845 
z
" clip-path="url(#p69f099f7af)" style="stroke: #000000; stroke-width: 1.5"/>
    <path d="M 1310.127301 993.540338 
L 1303.148583 997.451541 
L 1311.722505 1004.568272 
z
" clip-path="url(#p69f099f7af)" style="stroke: #000000; stroke-width: 1.5"/>
    <path d="M 1319.348795 979.523026 
L 1313.145863 984.575117 
L 1322.815048 990.112884 
z
" clip-path="url(#p69f099f7af)" style="stroke: #000000; stroke-width: 1.5"/>
    <path d="M 1475.615279 975.195313 
L 1479.813116 982.005465 
L 1486.567395 973.143201 
z
" clip-path="url(#p69f099f7af)" style="stroke: #000000; stroke-width: 1.5"/>
    <path d="M 1356.337055 1014.886648 
L 1357.75988 1007.014192 
L 1346.814274 1009.100748 
z
" clip-path="url(#p69f099f7af)" style="stroke: #000000; stroke-width: 1.5"/>
    <path d="M 1389.663298 1087.980723 
L 1382.580353 1084.261597 
L 1381.286962 1095.328988 
z
" clip-path="url(#p69f099f7af)" style="stroke: #000000; stroke-width: 1.5"/>
    <path d="M 1494.051215 984.217859 
L 1501.83867 986.049676 
L 1500.326305 975.010077 
z
" clip-path="url(#p69f099f7af)" style="stroke: #000000; stroke-width: 1.5"/>
    <path d="M 1584.753368 1011.880104 
L 1583.21549 1019.730896 
L 1594.190459 1017.804742 
z
" clip-path="url(#p69f099f7af)" style="stroke: #000000; stroke-width: 1.5"/>
    <path d="M 1384.220591 1007.457943 
L 1384.318729 999.458545 
L 1373.870443 1003.330665 
z
" clip-path="url(#p69f099f7af)" style="stroke: #000000; stroke-width: 1.5"/>
    <path d="M 1352.692119 1119.714705 
L 1359.043516 1124.578835 
L 1362.191187 1113.889954 
z
" clip-path="url(#p69f099f7af)" style="stroke: #000000; stroke-width: 1.5"/>
    <path d="M 1263.933949 1265.317755 
L 1257.350006 1260.773341 
L 1254.734239 1271.604673 
z
" clip-path="url(#p69f099f7af)" style="stroke: #000000; stroke-width: 1.5"/>
    <path d="M 1330.275917 994.428175 
L 1330.660267 1002.418937 
L 1340.856082 997.923901 
z
" clip-path="url(#p69f099f7af)" style="stroke: #000000; stroke-width: 1.5"/>
    <path d="M 1080.970044 1027.506131 
L 1080.112768 1019.552196 
L 1070.201291 1024.643623 
z
" clip-path="url(#p69f099f7af)" style="stroke: #000000; stroke-width: 1.5"/>
    <path d="M 714.664739 1342.418993 
L 719.372556 1335.950882 
L 708.610102 1333.064777 
z
" clip-path="url(#p69f099f7af)" style="stroke: #000000; stroke-width: 1.5"/>
    <path d="M 790.617364 1431.644816 
L 782.948889 1433.92396 
L 789.746013 1442.753405 
z
" clip-path="url(#p69f099f7af)" style="stroke: #000000; stroke-width: 1.5"/>
    <path d="M 787.218173 1514.233534 
L 794.912574 1512.043513 
L 788.218347 1503.135802 
z
" clip-path="url(#p69f099f7af)" style="stroke: #000000; stroke-width: 1.5"/>
    <path d="M 803.889218 1476.5389 
L 797.214944 1472.128224 
L 794.818201 1483.010118 
z
" clip-path="url(#p69f099f7af)" style="stroke: #000000; stroke-width: 1.5"/>
    <path d="M 938.841261 1239.210365 
L 945.650791 1243.409209 
L 947.704524 1232.457397 
z
" clip-path="url(#p69f099f7af)" style="stroke: #000000; stroke-width: 1.5"/>
    <path d="M 621.470296 1369.576604 
L 619.123853 1361.928454 
L 610.354479 1368.802905 
z
" clip-path="url(#p69f099f7af)" style="stroke: #000000; stroke-width: 1.5"/>
    <path d="M 1325.867519 1025.17076 
L 1333.765031 1023.894315 
L 1328.156897 1014.265772 
z
" clip-path="url(#p69f099f7af)" style="stroke: #000000; stroke-width: 1.5"/>
    <path d="M 1385.385374 1196.394973 
L 1377.862034 1199.115148 
L 1385.159932 1207.535403 
z
" clip-path="url(#p69f099f7af)" style="stroke: #000000; stroke-width: 1.5"/>
    <path d="M 1322.992937 1040.349417 
L 1329.557632 1035.777243 
L 1320.331458 1029.529226 
z
" clip-path="url(#p69f099f7af)" style="stroke: #000000; stroke-width: 1.5"/>
    <path d="M 1398.709635 1200.351277 
L 1390.988764 1198.256487 
L 1392.125972 1209.341015 
z
" clip-path="url(#p69f099f7af)" style="stroke: #000000; stroke-width: 1.5"/>
    <path d="M 1503.210747 1238.913261 
L 1497.424773 1244.437979 
L 1507.499893 1249.197386 
z
" clip-path="url(#p69f099f7af)" style="stroke: #000000; stroke-width: 1.5"/>
    <path d="M 1490.864044 1430.03284 
L 1484.953306 1435.423866 
L 1494.917009 1440.412313 
z
" clip-path="url(#p69f099f7af)" style="stroke: #000000; stroke-width: 1.5"/>
    <path d="M 1697.707675 1454.928397 
L 1691.97738 1460.510846 
L 1702.09971 1465.169004 
z
" clip-path="url(#p69f099f7af)" style="stroke: #000000; stroke-width: 1.5"/>
    <path d="M 1519.10393 1522.354356 
L 1519.357274 1530.350343 
L 1529.625386 1526.023002 
z
" clip-path="url(#p69f099f7af)" style="stroke: #000000; stroke-width: 1.5"/>
    <path d="M 958.994807 1068.018484 
L 956.393794 1075.583848 
L 967.529273 1075.182484 
z
" clip-path="url(#p69f099f7af)" style="stroke: #000000; stroke-width: 1.5"/>
    <path d="M 897.696544 541.02009 
L 905.425542 538.955484 
L 898.877055 529.940091 
z
" clip-path="url(#p69f099f7af)" style="stroke: #000000; stroke-width: 1.5"/>
    <path d="M 1201.599987 1639.368433 
L 1193.87883 1641.462173 
L 1200.46127 1650.452806 
z
" clip-path="url(#p69f099f7af)" style="stroke: #000000; stroke-width: 1.5"/>
   </g>
   <g id="matplotlib.axis_1"/>
   <g id="matplotlib.axis_2"/>
  </g>
 </g>
 <defs>
  <clipPath id="p69f099f7af">
   <rect x="270" y="259.2" width="1674" height="1663.2"/>
  </clipPath>
 </defs>
</svg>
