<?xml version="1.0" encoding="utf-8" standalone="no"?>
<!DOCTYPE svg PUBLIC "-//W3C//DTD SVG 1.1//EN"
  "http://www.w3.org/Graphics/SVG/1.1/DTD/svg11.dtd">
<svg xmlns:xlink="http://www.w3.org/1999/xlink" width="1440pt" height="1440pt" viewBox="0 0 1440 1440" xmlns="http://www.w3.org/2000/svg" version="1.1">
 <metadata>
  <rdf:RDF xmlns:dc="http://purl.org/dc/elements/1.1/" xmlns:cc="http://creativecommons.org/ns#" xmlns:rdf="http://www.w3.org/1999/02/22-rdf-syntax-ns#">
   <cc:Work>
    <dc:type rdf:resource="http://purl.org/dc/dcmitype/StillImage"/>
    <dc:date>2026-01-06T11:14:05.378099</dc:date>
    <dc:format>image/svg+xml</dc:format>
    <dc:creator>
     <cc:Agent>
      <dc:title>Matplotlib v3.10.8, https://matplotlib.org/</dc:title>
     </cc:Agent>
    </dc:creator>
   </cc:Work>
  </rdf:RDF>
 </metadata>
 <defs>
  <style type="text/css">*{stroke-linejoin: round; stroke-linecap: butt}</style>
 </defs>
 <g id="figure_1">
  <g id="patch_1">
   <path d="M 0 1440 
L 1440 1440 
L 1440 0 
L 0 0 
z
" style="fill: #ffffff"/>
  </g>
  <g id="axes_1">
   <g id="patch_2">
    <path d="M 180 1281.6 
L 1296 1281.6 
L 1296 172.8 
L 180 172.8 
z
" style="fill: #ffffff"/>
   </g>
   <g id="VertexCollection_1">
    <path d="M 644.810807 712.835525 
L 698.064518 712.835525 
L 698.064518 691.187088 
L 644.810807 691.187088 
z
" clip-path="url(#p364dcc41d0)" style="fill: #1f77b4; stroke: #000000; stroke-width: 1.5"/>
    <path d="M 677.634633 1044.084255 
L 742.479945 1044.084255 
L 742.479945 1022.435817 
L 677.634633 1022.435817 
z
" clip-path="url(#p364dcc41d0)" style="fill: #1f77b4; stroke: #000000; stroke-width: 1.5"/>
    <path d="M 730.857468 772.223836 
L 793.823484 772.223836 
L 793.823484 750.267586 
L 730.857468 750.267586 
z
" clip-path="url(#p364dcc41d0)" style="fill: #1f77b4; stroke: #000000; stroke-width: 1.5"/>
    <path d="M 786.399197 578.515405 
L 847.015994 578.515405 
L 847.015994 556.735718 
L 786.399197 556.735718 
z
" clip-path="url(#p364dcc41d0)" style="fill: #1f77b4; stroke: #000000; stroke-width: 1.5"/>
    <path d="M 919.106498 1176.285088 
L 966.302592 1176.285088 
L 966.302592 1154.636651 
L 919.106498 1154.636651 
z
" clip-path="url(#p364dcc41d0)" style="fill: #1f77b4; stroke: #000000; stroke-width: 1.5"/>
    <path d="M 874.330062 541.07921 
L 936.826937 541.07921 
L 936.826937 519.12296 
L 874.330062 519.12296 
z
" clip-path="url(#p364dcc41d0)" style="fill: #1f77b4; stroke: #000000; stroke-width: 1.5"/>
    <path d="M 599.8064 557.756073 
L 647.411674 557.756073 
L 647.411674 536.107635 
L 599.8064 536.107635 
z
" clip-path="url(#p364dcc41d0)" style="fill: #1f77b4; stroke: #000000; stroke-width: 1.5"/>
    <path d="M 529.599707 639.640393 
L 582.433691 639.640393 
L 582.433691 617.860705 
L 529.599707 617.860705 
z
" clip-path="url(#p364dcc41d0)" style="fill: #1f77b4; stroke: #000000; stroke-width: 1.5"/>
    <path d="M 483.188079 523.776275 
L 547.717376 523.776275 
L 547.717376 501.996588 
L 483.188079 501.996588 
z
" clip-path="url(#p364dcc41d0)" style="fill: #1f77b4; stroke: #000000; stroke-width: 1.5"/>
    <path d="M 827.506848 1012.758111 
L 880.443762 1012.758111 
L 880.443762 991.109674 
L 827.506848 991.109674 
z
" clip-path="url(#p364dcc41d0)" style="fill: #1f77b4; stroke: #000000; stroke-width: 1.5"/>
    <path d="M 273.163495 576.348804 
L 320.623066 576.348804 
L 320.623066 554.700366 
L 273.163495 554.700366 
z
" clip-path="url(#p364dcc41d0)" style="fill: #1f77b4; stroke: #000000; stroke-width: 1.5"/>
    <path d="M 984.896219 572.577161 
L 1038.995437 572.577161 
L 1038.995437 550.928724 
L 984.896219 550.928724 
z
" clip-path="url(#p364dcc41d0)" style="fill: #1f77b4; stroke: #000000; stroke-width: 1.5"/>
    <path d="M 559.126424 822.333111 
L 620.783455 822.333111 
L 620.783455 800.376861 
L 559.126424 800.376861 
z
" clip-path="url(#p364dcc41d0)" style="fill: #1f77b4; stroke: #000000; stroke-width: 1.5"/>
    <path d="M 860.03223 299.763349 
L 907.281254 299.763349 
L 907.281254 278.114912 
L 860.03223 278.114912 
z
" clip-path="url(#p364dcc41d0)" style="fill: #1f77b4; stroke: #000000; stroke-width: 1.5"/>
    <path d="M 928.043264 962.88231 
L 989.158304 962.88231 
L 989.158304 940.92606 
L 928.043264 940.92606 
z
" clip-path="url(#p364dcc41d0)" style="fill: #1f77b4; stroke: #000000; stroke-width: 1.5"/>
    <path d="M 612.800874 474.95071 
L 676.459858 474.95071 
L 676.459858 453.171022 
L 612.800874 453.171022 
z
" clip-path="url(#p364dcc41d0)" style="fill: #1f77b4; stroke: #000000; stroke-width: 1.5"/>
    <path d="M 751.060678 673.171063 
L 814.851499 673.171063 
L 814.851499 651.391376 
L 751.060678 651.391376 
z
" clip-path="url(#p364dcc41d0)" style="fill: #1f77b4; stroke: #000000; stroke-width: 1.5"/>
    <path d="M 472.81142 970.390853 
L 525.708881 970.390853 
L 525.708881 948.742415 
L 472.81142 948.742415 
z
" clip-path="url(#p364dcc41d0)" style="fill: #1f77b4; stroke: #000000; stroke-width: 1.5"/>
    <path d="M 730.729434 1103.400798 
L 791.278066 1103.400798 
L 791.278066 1081.444548 
L 730.729434 1081.444548 
z
" clip-path="url(#p364dcc41d0)" style="fill: #1f77b4; stroke: #000000; stroke-width: 1.5"/>
    <path d="M 780.56059 618.82879 
L 842.760004 618.82879 
L 842.760004 596.87254 
L 780.56059 596.87254 
z
" clip-path="url(#p364dcc41d0)" style="fill: #1f77b4; stroke: #000000; stroke-width: 1.5"/>
    <path d="M 614.014193 857.931071 
L 676.554818 857.931071 
L 676.554818 835.974821 
L 614.014193 835.974821 
z
" clip-path="url(#p364dcc41d0)" style="fill: #1f77b4; stroke: #000000; stroke-width: 1.5"/>
    <path d="M 683.089308 645.052309 
L 743.525441 645.052309 
L 743.525441 623.272621 
L 683.089308 623.272621 
z
" clip-path="url(#p364dcc41d0)" style="fill: #1f77b4; stroke: #000000; stroke-width: 1.5"/>
    <path d="M 661.220668 838.976808 
L 713.805629 838.976808 
L 713.805629 817.328371 
L 661.220668 817.328371 
z
" clip-path="url(#p364dcc41d0)" style="fill: #1f77b4; stroke: #000000; stroke-width: 1.5"/>
    <path d="M 571.953517 481.980376 
L 646.754884 481.980376 
L 646.754884 460.200688 
L 571.953517 460.200688 
z
" clip-path="url(#p364dcc41d0)" style="fill: #1f77b4; stroke: #000000; stroke-width: 1.5"/>
    <path d="M 332.650632 1096.627603 
L 379.798093 1096.627603 
L 379.798093 1074.979165 
L 332.650632 1074.979165 
z
" clip-path="url(#p364dcc41d0)" style="fill: #1f77b4; stroke: #000000; stroke-width: 1.5"/>
    <path d="M 375.558735 367.044241 
L 422.222602 367.044241 
L 422.222602 345.395804 
L 375.558735 345.395804 
z
" clip-path="url(#p364dcc41d0)" style="fill: #1f77b4; stroke: #000000; stroke-width: 1.5"/>
    <path d="M 645.574221 768.348476 
L 722.528909 768.348476 
L 722.528909 746.568788 
L 645.574221 746.568788 
z
" clip-path="url(#p364dcc41d0)" style="fill: #1f77b4; stroke: #000000; stroke-width: 1.5"/>
    <path d="M 1153.98084 459.254756 
L 1204.232598 459.254756 
L 1204.232598 437.606319 
L 1153.98084 437.606319 
z
" clip-path="url(#p364dcc41d0)" style="fill: #1f77b4; stroke: #000000; stroke-width: 1.5"/>
    <path d="M 710.003213 542.197591 
L 759.228799 542.197591 
L 759.228799 520.417904 
L 710.003213 520.417904 
z
" clip-path="url(#p364dcc41d0)" style="fill: #1f77b4; stroke: #000000; stroke-width: 1.5"/>
   </g>
   <g id="text_1">
    <g clip-path="url(#p364dcc41d0)">
     <!-- R_H__K -->
     <g transform="translate(653.424381 704.492557) scale(0.1 -0.1)">
      <defs>
       <path id="DejaVuSans-52" d="M 2841 2188 
Q 3044 2119 3236 1894 
Q 3428 1669 3622 1275 
L 4263 0 
L 3584 0 
L 2988 1197 
Q 2756 1666 2539 1819 
Q 2322 1972 1947 1972 
L 1259 1972 
L 1259 0 
L 628 0 
L 628 4666 
L 2053 4666 
Q 2853 4666 3247 4331 
Q 3641 3997 3641 3322 
Q 3641 2881 3436 2590 
Q 3231 2300 2841 2188 
z
M 1259 4147 
L 1259 2491 
L 2053 2491 
Q 2509 2491 2742 2702 
Q 2975 2913 2975 3322 
Q 2975 3731 2742 3939 
Q 2509 4147 2053 4147 
L 1259 4147 
z
" transform="scale(0.015625)"/>
       <path id="DejaVuSans-5f" d="M 3263 -1063 
L 3263 -1509 
L -63 -1509 
L -63 -1063 
L 3263 -1063 
z
" transform="scale(0.015625)"/>
       <path id="DejaVuSans-48" d="M 628 4666 
L 1259 4666 
L 1259 2753 
L 3553 2753 
L 3553 4666 
L 4184 4666 
L 4184 0 
L 3553 0 
L 3553 2222 
L 1259 2222 
L 1259 0 
L 628 0 
L 628 4666 
z
" transform="scale(0.015625)"/>
       <path id="DejaVuSans-4b" d="M 628 4666 
L 1259 4666 
L 1259 2694 
L 3353 4666 
L 4166 4666 
L 1850 2491 
L 4331 0 
L 3500 0 
L 1259 2247 
L 1259 0 
L 628 0 
L 628 4666 
z
" transform="scale(0.015625)"/>
      </defs>
      <use xlink:href="#DejaVuSans-52"/>
      <use xlink:href="#DejaVuSans-5f" transform="translate(69.482422 0)"/>
      <use xlink:href="#DejaVuSans-48" transform="translate(119.482422 0)"/>
      <use xlink:href="#DejaVuSans-5f" transform="translate(194.677734 0)"/>
      <use xlink:href="#DejaVuSans-5f" transform="translate(244.677734 0)"/>
      <use xlink:href="#DejaVuSans-4b" transform="translate(294.677734 0)"/>
     </g>
    </g>
   </g>
   <g id="text_2">
    <g clip-path="url(#p364dcc41d0)">
     <!-- R_F_M__N -->
     <g transform="translate(685.652602 1035.741286) scale(0.1 -0.1)">
      <defs>
       <path id="DejaVuSans-46" d="M 628 4666 
L 3309 4666 
L 3309 4134 
L 1259 4134 
L 1259 2759 
L 3109 2759 
L 3109 2228 
L 1259 2228 
L 1259 0 
L 628 0 
L 628 4666 
z
" transform="scale(0.015625)"/>
       <path id="DejaVuSans-4d" d="M 628 4666 
L 1569 4666 
L 2759 1491 
L 3956 4666 
L 4897 4666 
L 4897 0 
L 4281 0 
L 4281 4097 
L 3078 897 
L 2444 897 
L 1241 4097 
L 1241 0 
L 628 0 
L 628 4666 
z
" transform="scale(0.015625)"/>
       <path id="DejaVuSans-4e" d="M 628 4666 
L 1478 4666 
L 3547 763 
L 3547 4666 
L 4159 4666 
L 4159 0 
L 3309 0 
L 1241 3903 
L 1241 0 
L 628 0 
L 628 4666 
z
" transform="scale(0.015625)"/>
      </defs>
      <use xlink:href="#DejaVuSans-52"/>
      <use xlink:href="#DejaVuSans-5f" transform="translate(69.482422 0)"/>
      <use xlink:href="#DejaVuSans-46" transform="translate(119.482422 0)"/>
      <use xlink:href="#DejaVuSans-5f" transform="translate(177.001953 0)"/>
      <use xlink:href="#DejaVuSans-4d" transform="translate(227.001953 0)"/>
      <use xlink:href="#DejaVuSans-5f" transform="translate(313.28125 0)"/>
      <use xlink:href="#DejaVuSans-5f" transform="translate(363.28125 0)"/>
      <use xlink:href="#DejaVuSans-4e" transform="translate(413.28125 0)"/>
     </g>
    </g>
   </g>
   <g id="text_3">
    <g clip-path="url(#p364dcc41d0)">
     <!-- G_import -->
     <g transform="translate(739.457664 763.866023) scale(0.1 -0.1)">
      <defs>
       <path id="DejaVuSans-47" d="M 3809 666 
L 3809 1919 
L 2778 1919 
L 2778 2438 
L 4434 2438 
L 4434 434 
Q 4069 175 3628 42 
Q 3188 -91 2688 -91 
Q 1594 -91 976 548 
Q 359 1188 359 2328 
Q 359 3472 976 4111 
Q 1594 4750 2688 4750 
Q 3144 4750 3555 4637 
Q 3966 4525 4313 4306 
L 4313 3634 
Q 3963 3931 3569 4081 
Q 3175 4231 2741 4231 
Q 1884 4231 1454 3753 
Q 1025 3275 1025 2328 
Q 1025 1384 1454 906 
Q 1884 428 2741 428 
Q 3075 428 3337 486 
Q 3600 544 3809 666 
z
" transform="scale(0.015625)"/>
       <path id="DejaVuSans-69" d="M 603 3500 
L 1178 3500 
L 1178 0 
L 603 0 
L 603 3500 
z
M 603 4863 
L 1178 4863 
L 1178 4134 
L 603 4134 
L 603 4863 
z
" transform="scale(0.015625)"/>
       <path id="DejaVuSans-6d" d="M 3328 2828 
Q 3544 3216 3844 3400 
Q 4144 3584 4550 3584 
Q 5097 3584 5394 3201 
Q 5691 2819 5691 2113 
L 5691 0 
L 5113 0 
L 5113 2094 
Q 5113 2597 4934 2840 
Q 4756 3084 4391 3084 
Q 3944 3084 3684 2787 
Q 3425 2491 3425 1978 
L 3425 0 
L 2847 0 
L 2847 2094 
Q 2847 2600 2669 2842 
Q 2491 3084 2119 3084 
Q 1678 3084 1418 2786 
Q 1159 2488 1159 1978 
L 1159 0 
L 581 0 
L 581 3500 
L 1159 3500 
L 1159 2956 
Q 1356 3278 1631 3431 
Q 1906 3584 2284 3584 
Q 2666 3584 2933 3390 
Q 3200 3197 3328 2828 
z
" transform="scale(0.015625)"/>
       <path id="DejaVuSans-70" d="M 1159 525 
L 1159 -1331 
L 581 -1331 
L 581 3500 
L 1159 3500 
L 1159 2969 
Q 1341 3281 1617 3432 
Q 1894 3584 2278 3584 
Q 2916 3584 3314 3078 
Q 3713 2572 3713 1747 
Q 3713 922 3314 415 
Q 2916 -91 2278 -91 
Q 1894 -91 1617 61 
Q 1341 213 1159 525 
z
M 3116 1747 
Q 3116 2381 2855 2742 
Q 2594 3103 2138 3103 
Q 1681 3103 1420 2742 
Q 1159 2381 1159 1747 
Q 1159 1113 1420 752 
Q 1681 391 2138 391 
Q 2594 391 2855 752 
Q 3116 1113 3116 1747 
z
" transform="scale(0.015625)"/>
       <path id="DejaVuSans-6f" d="M 1959 3097 
Q 1497 3097 1228 2736 
Q 959 2375 959 1747 
Q 959 1119 1226 758 
Q 1494 397 1959 397 
Q 2419 397 2687 759 
Q 2956 1122 2956 1747 
Q 2956 2369 2687 2733 
Q 2419 3097 1959 3097 
z
M 1959 3584 
Q 2709 3584 3137 3096 
Q 3566 2609 3566 1747 
Q 3566 888 3137 398 
Q 2709 -91 1959 -91 
Q 1206 -91 779 398 
Q 353 888 353 1747 
Q 353 2609 779 3096 
Q 1206 3584 1959 3584 
z
" transform="scale(0.015625)"/>
       <path id="DejaVuSans-72" d="M 2631 2963 
Q 2534 3019 2420 3045 
Q 2306 3072 2169 3072 
Q 1681 3072 1420 2755 
Q 1159 2438 1159 1844 
L 1159 0 
L 581 0 
L 581 3500 
L 1159 3500 
L 1159 2956 
Q 1341 3275 1631 3429 
Q 1922 3584 2338 3584 
Q 2397 3584 2469 3576 
Q 2541 3569 2628 3553 
L 2631 2963 
z
" transform="scale(0.015625)"/>
       <path id="DejaVuSans-74" d="M 1172 4494 
L 1172 3500 
L 2356 3500 
L 2356 3053 
L 1172 3053 
L 1172 1153 
Q 1172 725 1289 603 
Q 1406 481 1766 481 
L 2356 481 
L 2356 0 
L 1766 0 
Q 1100 0 847 248 
Q 594 497 594 1153 
L 594 3053 
L 172 3053 
L 172 3500 
L 594 3500 
L 594 4494 
L 1172 4494 
z
" transform="scale(0.015625)"/>
      </defs>
      <use xlink:href="#DejaVuSans-47"/>
      <use xlink:href="#DejaVuSans-5f" transform="translate(77.490234 0)"/>
      <use xlink:href="#DejaVuSans-69" transform="translate(127.490234 0)"/>
      <use xlink:href="#DejaVuSans-6d" transform="translate(155.273438 0)"/>
      <use xlink:href="#DejaVuSans-70" transform="translate(252.685547 0)"/>
      <use xlink:href="#DejaVuSans-6f" transform="translate(316.162109 0)"/>
      <use xlink:href="#DejaVuSans-72" transform="translate(377.34375 0)"/>
      <use xlink:href="#DejaVuSans-74" transform="translate(418.457031 0)"/>
     </g>
    </g>
   </g>
   <g id="text_4">
    <g clip-path="url(#p364dcc41d0)">
     <!-- R_C_D__J -->
     <g transform="translate(794.41697 570.157593) scale(0.1 -0.1)">
      <defs>
       <path id="DejaVuSans-43" d="M 4122 4306 
L 4122 3641 
Q 3803 3938 3442 4084 
Q 3081 4231 2675 4231 
Q 1875 4231 1450 3742 
Q 1025 3253 1025 2328 
Q 1025 1406 1450 917 
Q 1875 428 2675 428 
Q 3081 428 3442 575 
Q 3803 722 4122 1019 
L 4122 359 
Q 3791 134 3420 21 
Q 3050 -91 2638 -91 
Q 1578 -91 968 557 
Q 359 1206 359 2328 
Q 359 3453 968 4101 
Q 1578 4750 2638 4750 
Q 3056 4750 3426 4639 
Q 3797 4528 4122 4306 
z
" transform="scale(0.015625)"/>
       <path id="DejaVuSans-44" d="M 1259 4147 
L 1259 519 
L 2022 519 
Q 2988 519 3436 956 
Q 3884 1394 3884 2338 
Q 3884 3275 3436 3711 
Q 2988 4147 2022 4147 
L 1259 4147 
z
M 628 4666 
L 1925 4666 
Q 3281 4666 3915 4102 
Q 4550 3538 4550 2338 
Q 4550 1131 3912 565 
Q 3275 0 1925 0 
L 628 0 
L 628 4666 
z
" transform="scale(0.015625)"/>
       <path id="DejaVuSans-4a" d="M 628 4666 
L 1259 4666 
L 1259 325 
Q 1259 -519 939 -900 
Q 619 -1281 -91 -1281 
L -331 -1281 
L -331 -750 
L -134 -750 
Q 284 -750 456 -515 
Q 628 -281 628 325 
L 628 4666 
z
" transform="scale(0.015625)"/>
      </defs>
      <use xlink:href="#DejaVuSans-52"/>
      <use xlink:href="#DejaVuSans-5f" transform="translate(69.482422 0)"/>
      <use xlink:href="#DejaVuSans-43" transform="translate(119.482422 0)"/>
      <use xlink:href="#DejaVuSans-5f" transform="translate(189.306641 0)"/>
      <use xlink:href="#DejaVuSans-44" transform="translate(239.306641 0)"/>
      <use xlink:href="#DejaVuSans-5f" transform="translate(316.308594 0)"/>
      <use xlink:href="#DejaVuSans-5f" transform="translate(366.308594 0)"/>
      <use xlink:href="#DejaVuSans-4a" transform="translate(416.308594 0)"/>
     </g>
    </g>
   </g>
   <g id="text_5">
    <g clip-path="url(#p364dcc41d0)">
     <!-- N_exp -->
     <g transform="translate(927.341264 1167.94212) scale(0.1 -0.1)">
      <defs>
       <path id="DejaVuSans-65" d="M 3597 1894 
L 3597 1613 
L 953 1613 
Q 991 1019 1311 708 
Q 1631 397 2203 397 
Q 2534 397 2845 478 
Q 3156 559 3463 722 
L 3463 178 
Q 3153 47 2828 -22 
Q 2503 -91 2169 -91 
Q 1331 -91 842 396 
Q 353 884 353 1716 
Q 353 2575 817 3079 
Q 1281 3584 2069 3584 
Q 2775 3584 3186 3129 
Q 3597 2675 3597 1894 
z
M 3022 2063 
Q 3016 2534 2758 2815 
Q 2500 3097 2075 3097 
Q 1594 3097 1305 2825 
Q 1016 2553 972 2059 
L 3022 2063 
z
" transform="scale(0.015625)"/>
       <path id="DejaVuSans-78" d="M 3513 3500 
L 2247 1797 
L 3578 0 
L 2900 0 
L 1881 1375 
L 863 0 
L 184 0 
L 1544 1831 
L 300 3500 
L 978 3500 
L 1906 2253 
L 2834 3500 
L 3513 3500 
z
" transform="scale(0.015625)"/>
      </defs>
      <use xlink:href="#DejaVuSans-4e"/>
      <use xlink:href="#DejaVuSans-5f" transform="translate(74.804688 0)"/>
      <use xlink:href="#DejaVuSans-65" transform="translate(124.804688 0)"/>
      <use xlink:href="#DejaVuSans-78" transform="translate(184.578125 0)"/>
      <use xlink:href="#DejaVuSans-70" transform="translate(243.757812 0)"/>
     </g>
    </g>
   </g>
   <g id="text_6">
    <g clip-path="url(#p364dcc41d0)">
     <!-- D_import -->
     <g transform="translate(882.719906 532.721398) scale(0.1 -0.1)">
      <use xlink:href="#DejaVuSans-44"/>
      <use xlink:href="#DejaVuSans-5f" transform="translate(77.001953 0)"/>
      <use xlink:href="#DejaVuSans-69" transform="translate(127.001953 0)"/>
      <use xlink:href="#DejaVuSans-6d" transform="translate(154.785156 0)"/>
      <use xlink:href="#DejaVuSans-70" transform="translate(252.197266 0)"/>
      <use xlink:href="#DejaVuSans-6f" transform="translate(315.673828 0)"/>
      <use xlink:href="#DejaVuSans-72" transform="translate(376.855469 0)"/>
      <use xlink:href="#DejaVuSans-74" transform="translate(417.96875 0)"/>
     </g>
    </g>
   </g>
   <g id="text_7">
    <g clip-path="url(#p364dcc41d0)">
     <!-- R_I__P -->
     <g transform="translate(608.144975 549.413104) scale(0.1 -0.1)">
      <defs>
       <path id="DejaVuSans-49" d="M 628 4666 
L 1259 4666 
L 1259 0 
L 628 0 
L 628 4666 
z
" transform="scale(0.015625)"/>
       <path id="DejaVuSans-50" d="M 1259 4147 
L 1259 2394 
L 2053 2394 
Q 2494 2394 2734 2622 
Q 2975 2850 2975 3272 
Q 2975 3691 2734 3919 
Q 2494 4147 2053 4147 
L 1259 4147 
z
M 628 4666 
L 2053 4666 
Q 2838 4666 3239 4311 
Q 3641 3956 3641 3272 
Q 3641 2581 3239 2228 
Q 2838 1875 2053 1875 
L 1259 1875 
L 1259 0 
L 628 0 
L 628 4666 
z
" transform="scale(0.015625)"/>
      </defs>
      <use xlink:href="#DejaVuSans-52"/>
      <use xlink:href="#DejaVuSans-5f" transform="translate(69.482422 0)"/>
      <use xlink:href="#DejaVuSans-49" transform="translate(119.482422 0)"/>
      <use xlink:href="#DejaVuSans-5f" transform="translate(148.974609 0)"/>
      <use xlink:href="#DejaVuSans-5f" transform="translate(198.974609 0)"/>
      <use xlink:href="#DejaVuSans-50" transform="translate(248.974609 0)"/>
     </g>
    </g>
   </g>
   <g id="text_8">
    <g clip-path="url(#p364dcc41d0)">
     <!-- R_K__O -->
     <g transform="translate(537.827636 631.28258) scale(0.1 -0.1)">
      <defs>
       <path id="DejaVuSans-4f" d="M 2522 4238 
Q 1834 4238 1429 3725 
Q 1025 3213 1025 2328 
Q 1025 1447 1429 934 
Q 1834 422 2522 422 
Q 3209 422 3611 934 
Q 4013 1447 4013 2328 
Q 4013 3213 3611 3725 
Q 3209 4238 2522 4238 
z
M 2522 4750 
Q 3503 4750 4090 4092 
Q 4678 3434 4678 2328 
Q 4678 1225 4090 567 
Q 3503 -91 2522 -91 
Q 1538 -91 948 565 
Q 359 1222 359 2328 
Q 359 3434 948 4092 
Q 1538 4750 2522 4750 
z
" transform="scale(0.015625)"/>
      </defs>
      <use xlink:href="#DejaVuSans-52"/>
      <use xlink:href="#DejaVuSans-5f" transform="translate(69.482422 0)"/>
      <use xlink:href="#DejaVuSans-4b" transform="translate(119.482422 0)"/>
      <use xlink:href="#DejaVuSans-5f" transform="translate(185.058594 0)"/>
      <use xlink:href="#DejaVuSans-5f" transform="translate(235.058594 0)"/>
      <use xlink:href="#DejaVuSans-4f" transform="translate(285.058594 0)"/>
     </g>
    </g>
   </g>
   <g id="text_9">
    <g clip-path="url(#p364dcc41d0)">
     <!-- R_O_P__R -->
     <g transform="translate(491.553509 515.418463) scale(0.1 -0.1)">
      <use xlink:href="#DejaVuSans-52"/>
      <use xlink:href="#DejaVuSans-5f" transform="translate(69.482422 0)"/>
      <use xlink:href="#DejaVuSans-4f" transform="translate(119.482422 0)"/>
      <use xlink:href="#DejaVuSans-5f" transform="translate(198.193359 0)"/>
      <use xlink:href="#DejaVuSans-50" transform="translate(248.193359 0)"/>
      <use xlink:href="#DejaVuSans-5f" transform="translate(308.496094 0)"/>
      <use xlink:href="#DejaVuSans-5f" transform="translate(358.496094 0)"/>
      <use xlink:href="#DejaVuSans-52" transform="translate(408.496094 0)"/>
     </g>
    </g>
   </g>
   <g id="text_10">
    <g clip-path="url(#p364dcc41d0)">
     <!-- R_E__M -->
     <g transform="translate(835.527649 1004.415142) scale(0.1 -0.1)">
      <defs>
       <path id="DejaVuSans-45" d="M 628 4666 
L 3578 4666 
L 3578 4134 
L 1259 4134 
L 1259 2753 
L 3481 2753 
L 3481 2222 
L 1259 2222 
L 1259 531 
L 3634 531 
L 3634 0 
L 628 0 
L 628 4666 
z
" transform="scale(0.015625)"/>
      </defs>
      <use xlink:href="#DejaVuSans-52"/>
      <use xlink:href="#DejaVuSans-5f" transform="translate(69.482422 0)"/>
      <use xlink:href="#DejaVuSans-45" transform="translate(119.482422 0)"/>
      <use xlink:href="#DejaVuSans-5f" transform="translate(182.666016 0)"/>
      <use xlink:href="#DejaVuSans-5f" transform="translate(232.666016 0)"/>
      <use xlink:href="#DejaVuSans-4d" transform="translate(282.666016 0)"/>
     </g>
    </g>
   </g>
   <g id="text_11">
    <g clip-path="url(#p364dcc41d0)">
     <!-- V_exp -->
     <g transform="translate(281.850312 568.005835) scale(0.1 -0.1)">
      <defs>
       <path id="DejaVuSans-56" d="M 1831 0 
L 50 4666 
L 709 4666 
L 2188 738 
L 3669 4666 
L 4325 4666 
L 2547 0 
L 1831 0 
z
" transform="scale(0.015625)"/>
      </defs>
      <use xlink:href="#DejaVuSans-56"/>
      <use xlink:href="#DejaVuSans-5f" transform="translate(68.408203 0)"/>
      <use xlink:href="#DejaVuSans-65" transform="translate(118.408203 0)"/>
      <use xlink:href="#DejaVuSans-78" transform="translate(178.181641 0)"/>
      <use xlink:href="#DejaVuSans-70" transform="translate(237.361328 0)"/>
     </g>
    </g>
   </g>
   <g id="text_12">
    <g clip-path="url(#p364dcc41d0)">
     <!-- R_L__W -->
     <g transform="translate(993.241922 564.234192) scale(0.1 -0.1)">
      <defs>
       <path id="DejaVuSans-4c" d="M 628 4666 
L 1259 4666 
L 1259 531 
L 3531 531 
L 3531 0 
L 628 0 
L 628 4666 
z
" transform="scale(0.015625)"/>
       <path id="DejaVuSans-57" d="M 213 4666 
L 850 4666 
L 1831 722 
L 2809 4666 
L 3519 4666 
L 4500 722 
L 5478 4666 
L 6119 4666 
L 4947 0 
L 4153 0 
L 3169 4050 
L 2175 0 
L 1381 0 
L 213 4666 
z
" transform="scale(0.015625)"/>
      </defs>
      <use xlink:href="#DejaVuSans-52"/>
      <use xlink:href="#DejaVuSans-5f" transform="translate(69.482422 0)"/>
      <use xlink:href="#DejaVuSans-4c" transform="translate(119.482422 0)"/>
      <use xlink:href="#DejaVuSans-5f" transform="translate(175.195312 0)"/>
      <use xlink:href="#DejaVuSans-5f" transform="translate(225.195312 0)"/>
      <use xlink:href="#DejaVuSans-57" transform="translate(275.195312 0)"/>
     </g>
    </g>
   </g>
   <g id="text_13">
    <g clip-path="url(#p364dcc41d0)">
     <!-- B_import -->
     <g transform="translate(567.515877 813.975298) scale(0.1 -0.1)">
      <defs>
       <path id="DejaVuSans-42" d="M 1259 2228 
L 1259 519 
L 2272 519 
Q 2781 519 3026 730 
Q 3272 941 3272 1375 
Q 3272 1813 3026 2020 
Q 2781 2228 2272 2228 
L 1259 2228 
z
M 1259 4147 
L 1259 2741 
L 2194 2741 
Q 2656 2741 2882 2914 
Q 3109 3088 3109 3444 
Q 3109 3797 2882 3972 
Q 2656 4147 2194 4147 
L 1259 4147 
z
M 628 4666 
L 2241 4666 
Q 2963 4666 3353 4366 
Q 3744 4066 3744 3513 
Q 3744 3084 3544 2831 
Q 3344 2578 2956 2516 
Q 3422 2416 3680 2098 
Q 3938 1781 3938 1306 
Q 3938 681 3513 340 
Q 3088 0 2303 0 
L 628 0 
L 628 4666 
z
" transform="scale(0.015625)"/>
      </defs>
      <use xlink:href="#DejaVuSans-42"/>
      <use xlink:href="#DejaVuSans-5f" transform="translate(68.603516 0)"/>
      <use xlink:href="#DejaVuSans-69" transform="translate(118.603516 0)"/>
      <use xlink:href="#DejaVuSans-6d" transform="translate(146.386719 0)"/>
      <use xlink:href="#DejaVuSans-70" transform="translate(243.798828 0)"/>
      <use xlink:href="#DejaVuSans-6f" transform="translate(307.275391 0)"/>
      <use xlink:href="#DejaVuSans-72" transform="translate(368.457031 0)"/>
      <use xlink:href="#DejaVuSans-74" transform="translate(409.570312 0)"/>
     </g>
    </g>
   </g>
   <g id="text_14">
    <g clip-path="url(#p364dcc41d0)">
     <!-- X_exp -->
     <g transform="translate(868.609086 291.42038) scale(0.1 -0.1)">
      <defs>
       <path id="DejaVuSans-58" d="M 403 4666 
L 1081 4666 
L 2241 2931 
L 3406 4666 
L 4084 4666 
L 2584 2425 
L 4184 0 
L 3506 0 
L 2194 1984 
L 872 0 
L 191 0 
L 1856 2491 
L 403 4666 
z
" transform="scale(0.015625)"/>
      </defs>
      <use xlink:href="#DejaVuSans-58"/>
      <use xlink:href="#DejaVuSans-5f" transform="translate(68.505859 0)"/>
      <use xlink:href="#DejaVuSans-65" transform="translate(118.505859 0)"/>
      <use xlink:href="#DejaVuSans-78" transform="translate(178.279297 0)"/>
      <use xlink:href="#DejaVuSans-70" transform="translate(237.458984 0)"/>
     </g>
    </g>
   </g>
   <g id="text_15">
    <g clip-path="url(#p364dcc41d0)">
     <!-- E_import -->
     <g transform="translate(936.432815 954.524498) scale(0.1 -0.1)">
      <use xlink:href="#DejaVuSans-45"/>
      <use xlink:href="#DejaVuSans-5f" transform="translate(63.183594 0)"/>
      <use xlink:href="#DejaVuSans-69" transform="translate(113.183594 0)"/>
      <use xlink:href="#DejaVuSans-6d" transform="translate(140.966797 0)"/>
      <use xlink:href="#DejaVuSans-70" transform="translate(238.378906 0)"/>
      <use xlink:href="#DejaVuSans-6f" transform="translate(301.855469 0)"/>
      <use xlink:href="#DejaVuSans-72" transform="translate(363.037109 0)"/>
      <use xlink:href="#DejaVuSans-74" transform="translate(404.150391 0)"/>
     </g>
    </g>
   </g>
   <g id="text_16">
    <g clip-path="url(#p364dcc41d0)">
     <!-- R_P_Q__S -->
     <g transform="translate(621.031147 466.592897) scale(0.1 -0.1)">
      <defs>
       <path id="DejaVuSans-51" d="M 2522 4238 
Q 1834 4238 1429 3725 
Q 1025 3213 1025 2328 
Q 1025 1447 1429 934 
Q 1834 422 2522 422 
Q 3209 422 3611 934 
Q 4013 1447 4013 2328 
Q 4013 3213 3611 3725 
Q 3209 4238 2522 4238 
z
M 3406 84 
L 4238 -825 
L 3475 -825 
L 2784 -78 
Q 2681 -84 2626 -87 
Q 2572 -91 2522 -91 
Q 1538 -91 948 567 
Q 359 1225 359 2328 
Q 359 3434 948 4092 
Q 1538 4750 2522 4750 
Q 3503 4750 4090 4092 
Q 4678 3434 4678 2328 
Q 4678 1516 4351 937 
Q 4025 359 3406 84 
z
" transform="scale(0.015625)"/>
       <path id="DejaVuSans-53" d="M 3425 4513 
L 3425 3897 
Q 3066 4069 2747 4153 
Q 2428 4238 2131 4238 
Q 1616 4238 1336 4038 
Q 1056 3838 1056 3469 
Q 1056 3159 1242 3001 
Q 1428 2844 1947 2747 
L 2328 2669 
Q 3034 2534 3370 2195 
Q 3706 1856 3706 1288 
Q 3706 609 3251 259 
Q 2797 -91 1919 -91 
Q 1588 -91 1214 -16 
Q 841 59 441 206 
L 441 856 
Q 825 641 1194 531 
Q 1563 422 1919 422 
Q 2459 422 2753 634 
Q 3047 847 3047 1241 
Q 3047 1584 2836 1778 
Q 2625 1972 2144 2069 
L 1759 2144 
Q 1053 2284 737 2584 
Q 422 2884 422 3419 
Q 422 4038 858 4394 
Q 1294 4750 2059 4750 
Q 2388 4750 2728 4690 
Q 3069 4631 3425 4513 
z
" transform="scale(0.015625)"/>
      </defs>
      <use xlink:href="#DejaVuSans-52"/>
      <use xlink:href="#DejaVuSans-5f" transform="translate(69.482422 0)"/>
      <use xlink:href="#DejaVuSans-50" transform="translate(119.482422 0)"/>
      <use xlink:href="#DejaVuSans-5f" transform="translate(179.785156 0)"/>
      <use xlink:href="#DejaVuSans-51" transform="translate(229.785156 0)"/>
      <use xlink:href="#DejaVuSans-5f" transform="translate(308.496094 0)"/>
      <use xlink:href="#DejaVuSans-5f" transform="translate(358.496094 0)"/>
      <use xlink:href="#DejaVuSans-53" transform="translate(408.496094 0)"/>
     </g>
    </g>
   </g>
   <g id="text_17">
    <g clip-path="url(#p364dcc41d0)">
     <!-- R_G_K__L -->
     <g transform="translate(759.542807 664.813251) scale(0.1 -0.1)">
      <use xlink:href="#DejaVuSans-52"/>
      <use xlink:href="#DejaVuSans-5f" transform="translate(69.482422 0)"/>
      <use xlink:href="#DejaVuSans-47" transform="translate(119.482422 0)"/>
      <use xlink:href="#DejaVuSans-5f" transform="translate(196.972656 0)"/>
      <use xlink:href="#DejaVuSans-4b" transform="translate(246.972656 0)"/>
      <use xlink:href="#DejaVuSans-5f" transform="translate(312.548828 0)"/>
      <use xlink:href="#DejaVuSans-5f" transform="translate(362.548828 0)"/>
      <use xlink:href="#DejaVuSans-4c" transform="translate(412.548828 0)"/>
     </g>
    </g>
   </g>
   <g id="text_18">
    <g clip-path="url(#p364dcc41d0)">
     <!-- R_N__U -->
     <g transform="translate(480.885932 962.047884) scale(0.1 -0.1)">
      <defs>
       <path id="DejaVuSans-55" d="M 556 4666 
L 1191 4666 
L 1191 1831 
Q 1191 1081 1462 751 
Q 1734 422 2344 422 
Q 2950 422 3222 751 
Q 3494 1081 3494 1831 
L 3494 4666 
L 4128 4666 
L 4128 1753 
Q 4128 841 3676 375 
Q 3225 -91 2344 -91 
Q 1459 -91 1007 375 
Q 556 841 556 1753 
L 556 4666 
z
" transform="scale(0.015625)"/>
      </defs>
      <use xlink:href="#DejaVuSans-52"/>
      <use xlink:href="#DejaVuSans-5f" transform="translate(69.482422 0)"/>
      <use xlink:href="#DejaVuSans-4e" transform="translate(119.482422 0)"/>
      <use xlink:href="#DejaVuSans-5f" transform="translate(194.287109 0)"/>
      <use xlink:href="#DejaVuSans-5f" transform="translate(244.287109 0)"/>
      <use xlink:href="#DejaVuSans-55" transform="translate(294.287109 0)"/>
     </g>
    </g>
   </g>
   <g id="text_19">
    <g clip-path="url(#p364dcc41d0)">
     <!-- F_import -->
     <g transform="translate(739.119375 1095.042986) scale(0.1 -0.1)">
      <use xlink:href="#DejaVuSans-46"/>
      <use xlink:href="#DejaVuSans-5f" transform="translate(57.519531 0)"/>
      <use xlink:href="#DejaVuSans-69" transform="translate(107.519531 0)"/>
      <use xlink:href="#DejaVuSans-6d" transform="translate(135.302734 0)"/>
      <use xlink:href="#DejaVuSans-70" transform="translate(232.714844 0)"/>
      <use xlink:href="#DejaVuSans-6f" transform="translate(296.191406 0)"/>
      <use xlink:href="#DejaVuSans-72" transform="translate(357.373047 0)"/>
      <use xlink:href="#DejaVuSans-74" transform="translate(398.486328 0)"/>
     </g>
    </g>
   </g>
   <g id="text_20">
    <g clip-path="url(#p364dcc41d0)">
     <!-- C_import -->
     <g transform="translate(789.160297 610.470978) scale(0.1 -0.1)">
      <use xlink:href="#DejaVuSans-43"/>
      <use xlink:href="#DejaVuSans-5f" transform="translate(69.824219 0)"/>
      <use xlink:href="#DejaVuSans-69" transform="translate(119.824219 0)"/>
      <use xlink:href="#DejaVuSans-6d" transform="translate(147.607422 0)"/>
      <use xlink:href="#DejaVuSans-70" transform="translate(245.019531 0)"/>
      <use xlink:href="#DejaVuSans-6f" transform="translate(308.496094 0)"/>
      <use xlink:href="#DejaVuSans-72" transform="translate(369.677734 0)"/>
      <use xlink:href="#DejaVuSans-74" transform="translate(410.791016 0)"/>
     </g>
    </g>
   </g>
   <g id="text_21">
    <g clip-path="url(#p364dcc41d0)">
     <!-- A_import -->
     <g transform="translate(622.855599 849.573258) scale(0.1 -0.1)">
      <defs>
       <path id="DejaVuSans-41" d="M 2188 4044 
L 1331 1722 
L 3047 1722 
L 2188 4044 
z
M 1831 4666 
L 2547 4666 
L 4325 0 
L 3669 0 
L 3244 1197 
L 1141 1197 
L 716 0 
L 50 0 
L 1831 4666 
z
" transform="scale(0.015625)"/>
      </defs>
      <use xlink:href="#DejaVuSans-41"/>
      <use xlink:href="#DejaVuSans-5f" transform="translate(68.408203 0)"/>
      <use xlink:href="#DejaVuSans-69" transform="translate(118.408203 0)"/>
      <use xlink:href="#DejaVuSans-6d" transform="translate(146.191406 0)"/>
      <use xlink:href="#DejaVuSans-70" transform="translate(243.603516 0)"/>
      <use xlink:href="#DejaVuSans-6f" transform="translate(307.080078 0)"/>
      <use xlink:href="#DejaVuSans-72" transform="translate(368.261719 0)"/>
      <use xlink:href="#DejaVuSans-74" transform="translate(409.375 0)"/>
     </g>
    </g>
   </g>
   <g id="text_22">
    <g clip-path="url(#p364dcc41d0)">
     <!-- R_C_H__I -->
     <g transform="translate(691.106594 636.694496) scale(0.1 -0.1)">
      <use xlink:href="#DejaVuSans-52"/>
      <use xlink:href="#DejaVuSans-5f" transform="translate(69.482422 0)"/>
      <use xlink:href="#DejaVuSans-43" transform="translate(119.482422 0)"/>
      <use xlink:href="#DejaVuSans-5f" transform="translate(189.306641 0)"/>
      <use xlink:href="#DejaVuSans-48" transform="translate(239.306641 0)"/>
      <use xlink:href="#DejaVuSans-5f" transform="translate(314.501953 0)"/>
      <use xlink:href="#DejaVuSans-5f" transform="translate(364.501953 0)"/>
      <use xlink:href="#DejaVuSans-49" transform="translate(414.501953 0)"/>
     </g>
    </g>
   </g>
   <g id="text_23">
    <g clip-path="url(#p364dcc41d0)">
     <!-- R_N__T -->
     <g transform="translate(669.744398 830.63384) scale(0.1 -0.1)">
      <defs>
       <path id="DejaVuSans-54" d="M -19 4666 
L 3928 4666 
L 3928 4134 
L 2272 4134 
L 2272 0 
L 1638 0 
L 1638 4134 
L -19 4134 
L -19 4666 
z
" transform="scale(0.015625)"/>
      </defs>
      <use xlink:href="#DejaVuSans-52"/>
      <use xlink:href="#DejaVuSans-5f" transform="translate(69.482422 0)"/>
      <use xlink:href="#DejaVuSans-4e" transform="translate(119.482422 0)"/>
      <use xlink:href="#DejaVuSans-5f" transform="translate(194.287109 0)"/>
      <use xlink:href="#DejaVuSans-5f" transform="translate(244.287109 0)"/>
      <use xlink:href="#DejaVuSans-54" transform="translate(294.287109 0)"/>
     </g>
    </g>
   </g>
   <g id="text_24">
    <g clip-path="url(#p364dcc41d0)">
     <!-- R_S_T__V_X -->
     <g transform="translate(580.306545 473.622563) scale(0.1 -0.1)">
      <use xlink:href="#DejaVuSans-52"/>
      <use xlink:href="#DejaVuSans-5f" transform="translate(69.482422 0)"/>
      <use xlink:href="#DejaVuSans-53" transform="translate(119.482422 0)"/>
      <use xlink:href="#DejaVuSans-5f" transform="translate(182.958984 0)"/>
      <use xlink:href="#DejaVuSans-54" transform="translate(232.958984 0)"/>
      <use xlink:href="#DejaVuSans-5f" transform="translate(294.042969 0)"/>
      <use xlink:href="#DejaVuSans-5f" transform="translate(344.042969 0)"/>
      <use xlink:href="#DejaVuSans-56" transform="translate(394.042969 0)"/>
      <use xlink:href="#DejaVuSans-5f" transform="translate(462.451172 0)"/>
      <use xlink:href="#DejaVuSans-58" transform="translate(512.451172 0)"/>
     </g>
    </g>
   </g>
   <g id="text_25">
    <g clip-path="url(#p364dcc41d0)">
     <!-- U_exp -->
     <g transform="translate(340.942331 1088.284634) scale(0.1 -0.1)">
      <use xlink:href="#DejaVuSans-55"/>
      <use xlink:href="#DejaVuSans-5f" transform="translate(73.193359 0)"/>
      <use xlink:href="#DejaVuSans-65" transform="translate(123.193359 0)"/>
      <use xlink:href="#DejaVuSans-78" transform="translate(182.966797 0)"/>
      <use xlink:href="#DejaVuSans-70" transform="translate(242.146484 0)"/>
     </g>
    </g>
   </g>
   <g id="text_26">
    <g clip-path="url(#p364dcc41d0)">
     <!-- R_exp -->
     <g transform="translate(383.793793 358.701273) scale(0.1 -0.1)">
      <use xlink:href="#DejaVuSans-52"/>
      <use xlink:href="#DejaVuSans-5f" transform="translate(69.482422 0)"/>
      <use xlink:href="#DejaVuSans-65" transform="translate(119.482422 0)"/>
      <use xlink:href="#DejaVuSans-78" transform="translate(179.255859 0)"/>
      <use xlink:href="#DejaVuSans-70" transform="translate(238.435547 0)"/>
     </g>
    </g>
   </g>
   <g id="text_27">
    <g clip-path="url(#p364dcc41d0)">
     <!-- R_A_B__G_H -->
     <g transform="translate(653.59219 759.990663) scale(0.1 -0.1)">
      <use xlink:href="#DejaVuSans-52"/>
      <use xlink:href="#DejaVuSans-5f" transform="translate(69.482422 0)"/>
      <use xlink:href="#DejaVuSans-41" transform="translate(119.482422 0)"/>
      <use xlink:href="#DejaVuSans-5f" transform="translate(187.890625 0)"/>
      <use xlink:href="#DejaVuSans-42" transform="translate(237.890625 0)"/>
      <use xlink:href="#DejaVuSans-5f" transform="translate(306.494141 0)"/>
      <use xlink:href="#DejaVuSans-5f" transform="translate(356.494141 0)"/>
      <use xlink:href="#DejaVuSans-47" transform="translate(406.494141 0)"/>
      <use xlink:href="#DejaVuSans-5f" transform="translate(483.984375 0)"/>
      <use xlink:href="#DejaVuSans-48" transform="translate(533.984375 0)"/>
     </g>
    </g>
   </g>
   <g id="text_28">
    <g clip-path="url(#p364dcc41d0)">
     <!-- W_exp -->
     <g transform="translate(1162.540313 450.911787) scale(0.1 -0.1)">
      <use xlink:href="#DejaVuSans-57"/>
      <use xlink:href="#DejaVuSans-5f" transform="translate(98.876953 0)"/>
      <use xlink:href="#DejaVuSans-65" transform="translate(148.876953 0)"/>
      <use xlink:href="#DejaVuSans-78" transform="translate(208.650391 0)"/>
      <use xlink:href="#DejaVuSans-70" transform="translate(267.830078 0)"/>
     </g>
    </g>
   </g>
   <g id="text_29">
    <g clip-path="url(#p364dcc41d0)">
     <!-- R_J__Q -->
     <g transform="translate(718.23085 533.839779) scale(0.1 -0.1)">
      <use xlink:href="#DejaVuSans-52"/>
      <use xlink:href="#DejaVuSans-5f" transform="translate(69.482422 0)"/>
      <use xlink:href="#DejaVuSans-4a" transform="translate(119.482422 0)"/>
      <use xlink:href="#DejaVuSans-5f" transform="translate(148.974609 0)"/>
      <use xlink:href="#DejaVuSans-5f" transform="translate(198.974609 0)"/>
      <use xlink:href="#DejaVuSans-51" transform="translate(248.974609 0)"/>
     </g>
    </g>
   </g>
   <g id="EdgeCollection_1">
    <path d="M 654.384307 691.187088 
L 573.173445 639.640393 
" clip-path="url(#p364dcc41d0)" style="fill: none; stroke: #000000; stroke-width: 1.5"/>
    <path d="M 698.064518 692.525096 
L 752.389374 673.171063 
" clip-path="url(#p364dcc41d0)" style="fill: none; stroke: #000000; stroke-width: 1.5"/>
    <path d="M 673.900101 712.835525 
L 681.574197 746.568788 
" clip-path="url(#p364dcc41d0)" style="fill: none; stroke: #000000; stroke-width: 1.5"/>
    <path d="M 678.117318 691.187088 
L 706.587221 645.052309 
" clip-path="url(#p364dcc41d0)" style="fill: none; stroke: #000000; stroke-width: 1.5"/>
    <path d="M 708.867558 1022.435817 
L 688.70288 838.976808 
" clip-path="url(#p364dcc41d0)" style="fill: none; stroke: #000000; stroke-width: 1.5"/>
    <path d="M 729.105768 1044.084255 
L 923.656066 1154.636651 
" clip-path="url(#p364dcc41d0)" style="fill: none; stroke: #000000; stroke-width: 1.5"/>
    <path d="M 679.095028 1022.435817 
L 525.708881 968.81295 
" clip-path="url(#p364dcc41d0)" style="fill: none; stroke: #000000; stroke-width: 1.5"/>
    <path d="M 764.627365 750.267586 
L 780.68759 673.171063 
" clip-path="url(#p364dcc41d0)" style="fill: none; stroke: #000000; stroke-width: 1.5"/>
    <path d="M 730.857468 759.72278 
L 722.528909 759.319901 
" clip-path="url(#p364dcc41d0)" style="fill: none; stroke: #000000; stroke-width: 1.5"/>
    <path d="M 842.498502 556.735718 
L 879.578513 541.07921 
" clip-path="url(#p364dcc41d0)" style="fill: none; stroke: #000000; stroke-width: 1.5"/>
    <path d="M 799.784472 578.515405 
L 730.230498 623.272621 
" clip-path="url(#p364dcc41d0)" style="fill: none; stroke: #000000; stroke-width: 1.5"/>
    <path d="M 815.341178 578.515405 
L 813.037792 596.87254 
" clip-path="url(#p364dcc41d0)" style="fill: none; stroke: #000000; stroke-width: 1.5"/>
    <path d="M 792.092552 556.735718 
L 759.228799 542.196595 
" clip-path="url(#p364dcc41d0)" style="fill: none; stroke: #000000; stroke-width: 1.5"/>
    <path d="M 880.74546 543.842945 
L 843.66545 559.499453 
" clip-path="url(#p364dcc41d0)" style="fill: none; stroke: #000000; stroke-width: 1.5"/>
    <path d="M 634.73947 557.756073 
L 702.109461 623.272621 
" clip-path="url(#p364dcc41d0)" style="fill: none; stroke: #000000; stroke-width: 1.5"/>
    <path d="M 626.354744 536.107635 
L 641.868012 474.95071 
" clip-path="url(#p364dcc41d0)" style="fill: none; stroke: #000000; stroke-width: 1.5"/>
    <path d="M 599.8064 539.439264 
L 547.717376 523.042691 
" clip-path="url(#p364dcc41d0)" style="fill: none; stroke: #000000; stroke-width: 1.5"/>
    <path d="M 552.20417 617.860705 
L 519.265257 523.776275 
" clip-path="url(#p364dcc41d0)" style="fill: none; stroke: #000000; stroke-width: 1.5"/>
    <path d="M 507.350528 501.996588 
L 406.944043 367.044241 
" clip-path="url(#p364dcc41d0)" style="fill: none; stroke: #000000; stroke-width: 1.5"/>
    <path d="M 827.506848 1007.695191 
L 742.479945 1026.202707 
" clip-path="url(#p364dcc41d0)" style="fill: none; stroke: #000000; stroke-width: 1.5"/>
    <path d="M 876.611637 991.109674 
L 935.642593 962.88231 
" clip-path="url(#p364dcc41d0)" style="fill: none; stroke: #000000; stroke-width: 1.5"/>
    <path d="M 1027.912539 550.928724 
L 1163.140009 459.254756 
" clip-path="url(#p364dcc41d0)" style="fill: none; stroke: #000000; stroke-width: 1.5"/>
    <path d="M 609.121441 800.376861 
L 665.039192 768.348476 
" clip-path="url(#p364dcc41d0)" style="fill: none; stroke: #000000; stroke-width: 1.5"/>
    <path d="M 936.936779 965.588799 
L 877.905824 993.816163 
" clip-path="url(#p364dcc41d0)" style="fill: none; stroke: #000000; stroke-width: 1.5"/>
    <path d="M 612.800874 470.403695 
L 646.754884 463.637502 
" clip-path="url(#p364dcc41d0)" style="fill: none; stroke: #000000; stroke-width: 1.5"/>
    <path d="M 753.396182 675.997074 
L 699.071326 695.351107 
" clip-path="url(#p364dcc41d0)" style="fill: none; stroke: #000000; stroke-width: 1.5"/>
    <path d="M 751.060678 657.56862 
L 582.433691 632.653703 
" clip-path="url(#p364dcc41d0)" style="fill: none; stroke: #000000; stroke-width: 1.5"/>
    <path d="M 783.624543 673.782869 
L 767.564318 750.879392 
" clip-path="url(#p364dcc41d0)" style="fill: none; stroke: #000000; stroke-width: 1.5"/>
    <path d="M 771.639803 673.171063 
L 695.367851 746.568788 
" clip-path="url(#p364dcc41d0)" style="fill: none; stroke: #000000; stroke-width: 1.5"/>
    <path d="M 807.761671 651.391376 
L 987.28973 572.577161 
" clip-path="url(#p364dcc41d0)" style="fill: none; stroke: #000000; stroke-width: 1.5"/>
    <path d="M 486.995492 970.390853 
L 368.489021 1074.979165 
" clip-path="url(#p364dcc41d0)" style="fill: none; stroke: #000000; stroke-width: 1.5"/>
    <path d="M 751.550206 1081.444548 
L 719.378301 1044.084255 
" clip-path="url(#p364dcc41d0)" style="fill: none; stroke: #000000; stroke-width: 1.5"/>
    <path d="M 780.56059 616.170593 
L 743.525441 626.078397 
" clip-path="url(#p364dcc41d0)" style="fill: none; stroke: #000000; stroke-width: 1.5"/>
    <path d="M 810.061133 596.49904 
L 812.364519 578.141905 
" clip-path="url(#p364dcc41d0)" style="fill: none; stroke: #000000; stroke-width: 1.5"/>
    <path d="M 650.039999 835.974821 
L 679.334313 768.348476 
" clip-path="url(#p364dcc41d0)" style="fill: none; stroke: #000000; stroke-width: 1.5"/>
    <path d="M 709.140236 646.627781 
L 680.670333 692.762561 
" clip-path="url(#p364dcc41d0)" style="fill: none; stroke: #000000; stroke-width: 1.5"/>
    <path d="M 700.017931 625.42332 
L 632.64794 559.906771 
" clip-path="url(#p364dcc41d0)" style="fill: none; stroke: #000000; stroke-width: 1.5"/>
    <path d="M 710.723424 645.052309 
L 686.635516 746.568788 
" clip-path="url(#p364dcc41d0)" style="fill: none; stroke: #000000; stroke-width: 1.5"/>
    <path d="M 728.607098 620.749811 
L 798.161071 575.992595 
" clip-path="url(#p364dcc41d0)" style="fill: none; stroke: #000000; stroke-width: 1.5"/>
    <path d="M 742.750133 623.180312 
L 779.785282 613.272508 
" clip-path="url(#p364dcc41d0)" style="fill: none; stroke: #000000; stroke-width: 1.5"/>
    <path d="M 685.143786 817.328371 
L 611.737929 481.980376 
" clip-path="url(#p364dcc41d0)" style="fill: none; stroke: #000000; stroke-width: 1.5"/>
    <path d="M 695.702237 838.976808 
L 934.515456 1154.636651 
" clip-path="url(#p364dcc41d0)" style="fill: none; stroke: #000000; stroke-width: 1.5"/>
    <path d="M 672.007259 838.976808 
L 514.76604 948.742415 
" clip-path="url(#p364dcc41d0)" style="fill: none; stroke: #000000; stroke-width: 1.5"/>
    <path d="M 625.753261 460.200688 
L 867.356507 299.763349 
" clip-path="url(#p364dcc41d0)" style="fill: none; stroke: #000000; stroke-width: 1.5"/>
    <path d="M 573.322171 481.980376 
L 320.623066 558.352809 
" clip-path="url(#p364dcc41d0)" style="fill: none; stroke: #000000; stroke-width: 1.5"/>
    <path d="M 678.648938 747.234266 
L 670.974842 713.501002 
" clip-path="url(#p364dcc41d0)" style="fill: none; stroke: #000000; stroke-width: 1.5"/>
    <path d="M 666.530254 770.951692 
L 610.612502 802.980077 
" clip-path="url(#p364dcc41d0)" style="fill: none; stroke: #000000; stroke-width: 1.5"/>
    <path d="M 683.716562 745.876177 
L 707.804471 644.359697 
" clip-path="url(#p364dcc41d0)" style="fill: none; stroke: #000000; stroke-width: 1.5"/>
    <path d="M 693.287651 744.407129 
L 769.559603 671.009404 
" clip-path="url(#p364dcc41d0)" style="fill: none; stroke: #000000; stroke-width: 1.5"/>
    <path d="M 722.673859 756.323405 
L 731.002418 756.726283 
" clip-path="url(#p364dcc41d0)" style="fill: none; stroke: #000000; stroke-width: 1.5"/>
    <path d="M 682.087135 769.540941 
L 652.792821 837.167285 
" clip-path="url(#p364dcc41d0)" style="fill: none; stroke: #000000; stroke-width: 1.5"/>
    <path d="M 720.043887 520.417904 
L 659.202485 474.95071 
" clip-path="url(#p364dcc41d0)" style="fill: none; stroke: #000000; stroke-width: 1.5"/>
    <path d="M 760.442543 539.453089 
L 793.306295 553.992211 
" clip-path="url(#p364dcc41d0)" style="fill: none; stroke: #000000; stroke-width: 1.5"/>
   </g>
   <g id="EdgeArrowCollection_1">
    <path d="M 579.810464 648.590811 
L 584.097595 641.836515 
L 573.173445 639.640393 
z
" clip-path="url(#p364dcc41d0)" style="stroke: #000000; stroke-width: 1.5"/>
    <path d="M 741.250125 672.893317 
L 743.934947 680.429346 
L 752.389374 673.171063 
z
" clip-path="url(#p364dcc41d0)" style="stroke: #000000; stroke-width: 1.5"/>
    <path d="M 683.167555 735.540588 
L 675.366864 737.315194 
L 681.574197 746.568788 
z
" clip-path="url(#p364dcc41d0)" style="stroke: #000000; stroke-width: 1.5"/>
    <path d="M 697.721562 651.80213 
L 704.529602 656.003391 
L 706.587221 645.052309 
z
" clip-path="url(#p364dcc41d0)" style="stroke: #000000; stroke-width: 1.5"/>
    <path d="M 685.863086 849.751574 
L 693.815195 848.877527 
L 688.70288 838.976808 
z
" clip-path="url(#p364dcc41d0)" style="stroke: #000000; stroke-width: 1.5"/>
    <path d="M 916.590173 1146.020785 
L 912.637761 1152.976246 
L 923.656066 1154.636651 
z
" clip-path="url(#p364dcc41d0)" style="stroke: #000000; stroke-width: 1.5"/>
    <path d="M 534.206214 976.020954 
L 536.846286 968.469131 
L 525.708881 968.81295 
z
" clip-path="url(#p364dcc41d0)" style="stroke: #000000; stroke-width: 1.5"/>
    <path d="M 774.650725 682.536759 
L 782.482599 684.168242 
L 780.68759 673.171063 
z
" clip-path="url(#p364dcc41d0)" style="stroke: #000000; stroke-width: 1.5"/>
    <path d="M 732.723496 763.817722 
L 733.110029 755.827066 
L 722.528909 759.319901 
z
" clip-path="url(#p364dcc41d0)" style="stroke: #000000; stroke-width: 1.5"/>
    <path d="M 868.441633 541.439649 
L 871.553494 548.80961 
L 879.578513 541.07921 
z
" clip-path="url(#p364dcc41d0)" style="stroke: #000000; stroke-width: 1.5"/>
    <path d="M 741.140774 621.008579 
L 736.811706 614.281086 
L 730.230498 623.272621 
z
" clip-path="url(#p364dcc41d0)" style="stroke: #000000; stroke-width: 1.5"/>
    <path d="M 818.301471 587.051456 
L 810.363714 586.055456 
L 813.037792 596.87254 
z
" clip-path="url(#p364dcc41d0)" style="stroke: #000000; stroke-width: 1.5"/>
    <path d="M 767.121296 550.062249 
L 770.357946 542.746232 
L 759.228799 542.196595 
z
" clip-path="url(#p364dcc41d0)" style="stroke: #000000; stroke-width: 1.5"/>
    <path d="M 854.802329 559.139014 
L 851.690468 551.769053 
L 843.66545 559.499453 
z
" clip-path="url(#p364dcc41d0)" style="stroke: #000000; stroke-width: 1.5"/>
    <path d="M 697.442413 613.154387 
L 691.865 618.889583 
L 702.109461 623.272621 
z
" clip-path="url(#p364dcc41d0)" style="stroke: #000000; stroke-width: 1.5"/>
    <path d="M 635.433695 484.047938 
L 643.188105 486.014947 
L 641.868012 474.95071 
z
" clip-path="url(#p364dcc41d0)" style="stroke: #000000; stroke-width: 1.5"/>
    <path d="M 556.436486 529.980784 
L 558.83853 522.349913 
L 547.717376 523.042691 
z
" clip-path="url(#p364dcc41d0)" style="stroke: #000000; stroke-width: 1.5"/>
    <path d="M 518.926455 534.913834 
L 526.477088 532.270361 
L 519.265257 523.776275 
z
" clip-path="url(#p364dcc41d0)" style="stroke: #000000; stroke-width: 1.5"/>
    <path d="M 409.942836 377.775841 
L 416.361229 373.000464 
L 406.944043 367.044241 
z
" clip-path="url(#p364dcc41d0)" style="stroke: #000000; stroke-width: 1.5"/>
    <path d="M 753.492744 1027.89925 
L 751.791253 1020.082286 
L 742.479945 1026.202707 
z
" clip-path="url(#p364dcc41d0)" style="stroke: #000000; stroke-width: 1.5"/>
    <path d="M 924.534516 963.760171 
L 927.985679 970.977474 
L 935.642593 962.88231 
z
" clip-path="url(#p364dcc41d0)" style="stroke: #000000; stroke-width: 1.5"/>
    <path d="M 1152.287135 461.779656 
L 1156.776211 468.401453 
L 1163.140009 459.254756 
z
" clip-path="url(#p364dcc41d0)" style="stroke: #000000; stroke-width: 1.5"/>
    <path d="M 654.026627 770.046535 
L 658.002791 776.988445 
L 665.039192 768.348476 
z
" clip-path="url(#p364dcc41d0)" style="stroke: #000000; stroke-width: 1.5"/>
    <path d="M 889.0139 992.938302 
L 885.562737 985.720999 
L 877.905824 993.816163 
z
" clip-path="url(#p364dcc41d0)" style="stroke: #000000; stroke-width: 1.5"/>
    <path d="M 635.773696 461.747133 
L 637.337157 469.59287 
L 646.754884 463.637502 
z
" clip-path="url(#p364dcc41d0)" style="stroke: #000000; stroke-width: 1.5"/>
    <path d="M 710.210574 695.628853 
L 707.525753 688.092824 
L 699.071326 695.351107 
z
" clip-path="url(#p364dcc41d0)" style="stroke: #000000; stroke-width: 1.5"/>
    <path d="M 592.137338 638.130858 
L 593.306657 630.216776 
L 582.433691 632.653703 
z
" clip-path="url(#p364dcc41d0)" style="stroke: #000000; stroke-width: 1.5"/>
    <path d="M 773.601183 741.513696 
L 765.769308 739.882213 
L 767.564318 750.879392 
z
" clip-path="url(#p364dcc41d0)" style="stroke: #000000; stroke-width: 1.5"/>
    <path d="M 705.635202 742.239643 
L 700.088004 736.475218 
L 695.367851 746.568788 
z
" clip-path="url(#p364dcc41d0)" style="stroke: #000000; stroke-width: 1.5"/>
    <path d="M 976.159065 573.095127 
L 979.374883 580.420324 
L 987.28973 572.577161 
z
" clip-path="url(#p364dcc41d0)" style="stroke: #000000; stroke-width: 1.5"/>
    <path d="M 378.933384 1071.096473 
L 373.639734 1065.098367 
L 368.489021 1074.979165 
z
" clip-path="url(#p364dcc41d0)" style="stroke: #000000; stroke-width: 1.5"/>
    <path d="M 723.133553 1054.575112 
L 729.19566 1049.354876 
L 719.378301 1044.084255 
z
" clip-path="url(#p364dcc41d0)" style="stroke: #000000; stroke-width: 1.5"/>
    <path d="M 754.60588 627.254775 
L 752.538392 619.526548 
L 743.525441 626.078397 
z
" clip-path="url(#p364dcc41d0)" style="stroke: #000000; stroke-width: 1.5"/>
    <path d="M 807.10084 587.962988 
L 815.038597 588.958989 
L 812.364519 578.141905 
z
" clip-path="url(#p364dcc41d0)" style="stroke: #000000; stroke-width: 1.5"/>
    <path d="M 671.530006 776.301639 
L 678.870865 779.481545 
L 679.334313 768.348476 
z
" clip-path="url(#p364dcc41d0)" style="stroke: #000000; stroke-width: 1.5"/>
    <path d="M 689.535992 686.012739 
L 682.727952 681.811478 
L 680.670333 692.762561 
z
" clip-path="url(#p364dcc41d0)" style="stroke: #000000; stroke-width: 1.5"/>
    <path d="M 637.314988 570.025005 
L 642.892401 564.289809 
L 632.64794 559.906771 
z
" clip-path="url(#p364dcc41d0)" style="stroke: #000000; stroke-width: 1.5"/>
    <path d="M 692.928507 737.373232 
L 685.144631 735.526268 
L 686.635516 746.568788 
z
" clip-path="url(#p364dcc41d0)" style="stroke: #000000; stroke-width: 1.5"/>
    <path d="M 787.250795 578.256637 
L 791.579864 584.98413 
L 798.161071 575.992595 
z
" clip-path="url(#p364dcc41d0)" style="stroke: #000000; stroke-width: 1.5"/>
    <path d="M 768.704843 612.09613 
L 770.772331 619.824357 
L 779.785282 613.272508 
z
" clip-path="url(#p364dcc41d0)" style="stroke: #000000; stroke-width: 1.5"/>
    <path d="M 610.054296 492.995156 
L 617.86926 491.284503 
L 611.737929 481.980376 
z
" clip-path="url(#p364dcc41d0)" style="stroke: #000000; stroke-width: 1.5"/>
    <path d="M 931.430669 1143.929453 
L 925.050791 1148.756165 
L 934.515456 1154.636651 
z
" clip-path="url(#p364dcc41d0)" style="stroke: #000000; stroke-width: 1.5"/>
    <path d="M 525.583373 946.069346 
L 521.004169 939.509553 
L 514.76604 948.742415 
z
" clip-path="url(#p364dcc41d0)" style="stroke: #000000; stroke-width: 1.5"/>
    <path d="M 856.479979 302.184329 
L 860.905514 308.84876 
L 867.356507 299.763349 
z
" clip-path="url(#p364dcc41d0)" style="stroke: #000000; stroke-width: 1.5"/>
    <path d="M 331.735548 559.17301 
L 329.421126 551.515109 
L 320.623066 558.352809 
z
" clip-path="url(#p364dcc41d0)" style="stroke: #000000; stroke-width: 1.5"/>
    <path d="M 669.381484 724.529203 
L 677.182175 722.754597 
L 670.974842 713.501002 
z
" clip-path="url(#p364dcc41d0)" style="stroke: #000000; stroke-width: 1.5"/>
    <path d="M 621.625068 801.282018 
L 617.648904 794.340108 
L 610.612502 802.980077 
z
" clip-path="url(#p364dcc41d0)" style="stroke: #000000; stroke-width: 1.5"/>
    <path d="M 701.51148 653.555254 
L 709.295355 655.402218 
L 707.804471 644.359697 
z
" clip-path="url(#p364dcc41d0)" style="stroke: #000000; stroke-width: 1.5"/>
    <path d="M 759.292252 675.33855 
L 764.839451 681.102974 
L 769.559603 671.009404 
z
" clip-path="url(#p364dcc41d0)" style="stroke: #000000; stroke-width: 1.5"/>
    <path d="M 720.807831 752.228462 
L 720.421298 760.219119 
L 731.002418 756.726283 
z
" clip-path="url(#p364dcc41d0)" style="stroke: #000000; stroke-width: 1.5"/>
    <path d="M 660.597127 829.214123 
L 653.256269 826.034217 
L 652.792821 837.167285 
z
" clip-path="url(#p364dcc41d0)" style="stroke: #000000; stroke-width: 1.5"/>
    <path d="M 665.138768 484.380478 
L 669.927716 477.972204 
L 659.202485 474.95071 
z
" clip-path="url(#p364dcc41d0)" style="stroke: #000000; stroke-width: 1.5"/>
    <path d="M 785.413799 546.126558 
L 782.177149 553.442575 
L 793.306295 553.992211 
z
" clip-path="url(#p364dcc41d0)" style="stroke: #000000; stroke-width: 1.5"/>
   </g>
   <g id="matplotlib.axis_1"/>
   <g id="matplotlib.axis_2"/>
  </g>
 </g>
 <defs>
  <clipPath id="p364dcc41d0">
   <rect x="180" y="172.8" width="1116" height="1108.8"/>
  </clipPath>
 </defs>
</svg>
