<?xml version="1.0" encoding="utf-8" standalone="no"?>
<!DOCTYPE svg PUBLIC "-//W3C//DTD SVG 1.1//EN"
  "http://www.w3.org/Graphics/SVG/1.1/DTD/svg11.dtd">
<svg xmlns:xlink="http://www.w3.org/1999/xlink" width="2160pt" height="2160pt" viewBox="0 0 2160 2160" xmlns="http://www.w3.org/2000/svg" version="1.1">
 <metadata>
  <rdf:RDF xmlns:dc="http://purl.org/dc/elements/1.1/" xmlns:cc="http://creativecommons.org/ns#" xmlns:rdf="http://www.w3.org/1999/02/22-rdf-syntax-ns#">
   <cc:Work>
    <dc:type rdf:resource="http://purl.org/dc/dcmitype/StillImage"/>
    <dc:date>2026-01-12T14:08:28.377778</dc:date>
    <dc:format>image/svg+xml</dc:format>
    <dc:creator>
     <cc:Agent>
      <dc:title>Matplotlib v3.10.8, https://matplotlib.org/</dc:title>
     </cc:Agent>
    </dc:creator>
   </cc:Work>
  </rdf:RDF>
 </metadata>
 <defs>
  <style type="text/css">*{stroke-linejoin: round; stroke-linecap: butt}</style>
 </defs>
 <g id="figure_1">
  <g id="patch_1">
   <path d="M 0 2160 
L 2160 2160 
L 2160 0 
L 0 0 
z
" style="fill: #ffffff"/>
  </g>
  <g id="axes_1">
   <g id="patch_2">
    <path d="M 270 1922.4 
L 1944 1922.4 
L 1944 259.2 
L 270 259.2 
z
" style="fill: #ffffff"/>
   </g>
   <g id="VertexCollection_1">
    <path d="M 975.679431 1222.482665 
L 1011.882751 1222.482665 
L 1011.882751 1200.702978 
L 975.679431 1200.702978 
z
" clip-path="url(#pfd24285192)" style="fill: #d62728; stroke: #000000; stroke-width: 1.5"/>
    <path d="M 927.576808 1193.205688 
L 962.896535 1193.205688 
L 962.896535 1171.426 
L 927.576808 1171.426 
z
" clip-path="url(#pfd24285192)" style="fill: #d62728; stroke: #000000; stroke-width: 1.5"/>
    <path d="M 1143.81897 917.354553 
L 1179.681079 917.354553 
L 1179.681079 895.574866 
L 1143.81897 895.574866 
z
" clip-path="url(#pfd24285192)" style="fill: #d62728; stroke: #000000; stroke-width: 1.5"/>
    <path d="M 1284.298019 833.462754 
L 1320.45759 833.462754 
L 1320.45759 811.683066 
L 1284.298019 811.683066 
z
" clip-path="url(#pfd24285192)" style="fill: #d62728; stroke: #000000; stroke-width: 1.5"/>
    <path d="M 1352.629292 1479.597919 
L 1387.407026 1479.597919 
L 1387.407026 1457.818232 
L 1352.629292 1457.818232 
z
" clip-path="url(#pfd24285192)" style="fill: #d62728; stroke: #000000; stroke-width: 1.5"/>
    <path d="M 1083.576478 1615.494383 
L 1117.787807 1615.494383 
L 1117.787807 1593.714696 
L 1083.576478 1593.714696 
z
" clip-path="url(#pfd24285192)" style="fill: #d62728; stroke: #000000; stroke-width: 1.5"/>
    <path d="M 1099.463337 1098.636929 
L 1136.092048 1098.636929 
L 1136.092048 1076.857241 
L 1099.463337 1076.857241 
z
" clip-path="url(#pfd24285192)" style="fill: #d62728; stroke: #000000; stroke-width: 1.5"/>
    <path d="M 1071.991852 1517.287201 
L 1107.931696 1517.287201 
L 1107.931696 1495.507514 
L 1071.991852 1495.507514 
z
" clip-path="url(#pfd24285192)" style="fill: #d62728; stroke: #000000; stroke-width: 1.5"/>
    <path d="M 625.344508 601.587284 
L 660.752125 601.587284 
L 660.752125 579.807597 
L 625.344508 579.807597 
z
" clip-path="url(#pfd24285192)" style="fill: #d62728; stroke: #000000; stroke-width: 1.5"/>
    <path d="M 648.291002 1517.674598 
L 684.182213 1517.674598 
L 684.182213 1495.89491 
L 648.291002 1495.89491 
z
" clip-path="url(#pfd24285192)" style="fill: #d62728; stroke: #000000; stroke-width: 1.5"/>
    <path d="M 532.329537 879.048861 
L 568.532857 879.048861 
L 568.532857 857.269173 
L 532.329537 857.269173 
z
" clip-path="url(#pfd24285192)" style="fill: #d62728; stroke: #000000; stroke-width: 1.5"/>
    <path d="M 1562.803277 788.971546 
L 1601.798785 788.971546 
L 1601.798785 767.191858 
L 1562.803277 767.191858 
z
" clip-path="url(#pfd24285192)" style="fill: #d62728; stroke: #000000; stroke-width: 1.5"/>
    <path d="M 1263.209272 561.821833 
L 1299.202046 561.821833 
L 1299.202046 540.042145 
L 1263.209272 540.042145 
z
" clip-path="url(#pfd24285192)" style="fill: #d62728; stroke: #000000; stroke-width: 1.5"/>
    <path d="M 1027.724713 1058.087659 
L 1063.70362 1058.087659 
L 1063.70362 1036.307971 
L 1027.724713 1036.307971 
z
" clip-path="url(#pfd24285192)" style="fill: #d62728; stroke: #000000; stroke-width: 1.5"/>
    <path d="M 984.078295 895.307183 
L 1015.486888 895.307183 
L 1015.486888 873.527496 
L 984.078295 873.527496 
z
" clip-path="url(#pfd24285192)" style="fill: #d62728; stroke: #000000; stroke-width: 1.5"/>
    <path d="M 1154.152716 830.918364 
L 1187.059748 830.918364 
L 1187.059748 809.138676 
L 1154.152716 809.138676 
z
" clip-path="url(#pfd24285192)" style="fill: #d62728; stroke: #000000; stroke-width: 1.5"/>
    <path d="M 865.172129 768.857703 
L 899.661777 768.857703 
L 899.661777 747.078015 
L 865.172129 747.078015 
z
" clip-path="url(#pfd24285192)" style="fill: #d62728; stroke: #000000; stroke-width: 1.5"/>
    <path d="M 1012.472323 772.781807 
L 1049.223104 772.781807 
L 1049.223104 751.00212 
L 1012.472323 751.00212 
z
" clip-path="url(#pfd24285192)" style="fill: #d62728; stroke: #000000; stroke-width: 1.5"/>
    <path d="M 1159.237477 1542.656457 
L 1196.324782 1542.656457 
L 1196.324782 1520.876769 
L 1159.237477 1520.876769 
z
" clip-path="url(#pfd24285192)" style="fill: #d62728; stroke: #000000; stroke-width: 1.5"/>
    <path d="M 950.780604 986.032488 
L 986.359315 986.032488 
L 986.359315 964.252801 
L 950.780604 964.252801 
z
" clip-path="url(#pfd24285192)" style="fill: #d62728; stroke: #000000; stroke-width: 1.5"/>
    <path d="M 984.962086 998.425808 
L 1019.979078 998.425808 
L 1019.979078 976.64612 
L 984.962086 976.64612 
z
" clip-path="url(#pfd24285192)" style="fill: #d62728; stroke: #000000; stroke-width: 1.5"/>
    <path d="M 1334.708905 933.656758 
L 1368.739569 933.656758 
L 1368.739569 911.877071 
L 1334.708905 911.877071 
z
" clip-path="url(#pfd24285192)" style="fill: #d62728; stroke: #000000; stroke-width: 1.5"/>
    <path d="M 788.160643 869.426263 
L 824.911424 869.426263 
L 824.911424 847.646575 
L 788.160643 847.646575 
z
" clip-path="url(#pfd24285192)" style="fill: #d62728; stroke: #000000; stroke-width: 1.5"/>
    <path d="M 916.981031 671.947654 
L 952.109937 671.947654 
L 952.109937 650.167967 
L 916.981031 650.167967 
z
" clip-path="url(#pfd24285192)" style="fill: #d62728; stroke: #000000; stroke-width: 1.5"/>
    <path d="M 936.656445 1281.407543 
L 999.19707 1281.407543 
L 999.19707 1259.451293 
L 936.656445 1259.451293 
z
" clip-path="url(#pfd24285192)" style="fill: #1f77b4; stroke: #000000; stroke-width: 1.5"/>
    <path d="M 854.103894 1228.010603 
L 915.760925 1228.010603 
L 915.760925 1206.054353 
L 854.103894 1206.054353 
z
" clip-path="url(#pfd24285192)" style="fill: #1f77b4; stroke: #000000; stroke-width: 1.5"/>
    <path d="M 1186.390739 922.754123 
L 1248.590153 922.754123 
L 1248.590153 900.797873 
L 1186.390739 900.797873 
z
" clip-path="url(#pfd24285192)" style="fill: #1f77b4; stroke: #000000; stroke-width: 1.5"/>
    <path d="M 1327.119312 806.129753 
L 1389.616187 806.129753 
L 1389.616187 784.173503 
L 1327.119312 784.173503 
z
" clip-path="url(#pfd24285192)" style="fill: #1f77b4; stroke: #000000; stroke-width: 1.5"/>
    <path d="M 1407.343656 1438.834403 
L 1468.458696 1438.834403 
L 1468.458696 1416.878153 
L 1407.343656 1416.878153 
z
" clip-path="url(#pfd24285192)" style="fill: #1f77b4; stroke: #000000; stroke-width: 1.5"/>
    <path d="M 1111.231308 1649.612135 
L 1171.779941 1649.612135 
L 1171.779941 1627.655885 
L 1111.231308 1627.655885 
z
" clip-path="url(#pfd24285192)" style="fill: #1f77b4; stroke: #000000; stroke-width: 1.5"/>
    <path d="M 1112.027706 1152.846691 
L 1174.993722 1152.846691 
L 1174.993722 1130.890441 
L 1112.027706 1130.890441 
z
" clip-path="url(#pfd24285192)" style="fill: #1f77b4; stroke: #000000; stroke-width: 1.5"/>
    <path d="M 1390.458771 1759.015523 
L 1437.654865 1759.015523 
L 1437.654865 1737.367086 
L 1390.458771 1737.367086 
z
" clip-path="url(#pfd24285192)" style="fill: #1f77b4; stroke: #000000; stroke-width: 1.5"/>
    <path d="M 575.004069 545.154253 
L 621.667936 545.154253 
L 621.667936 523.505815 
L 575.004069 523.505815 
z
" clip-path="url(#pfd24285192)" style="fill: #1f77b4; stroke: #000000; stroke-width: 1.5"/>
    <path d="M 510.762813 1639.529294 
L 557.910274 1639.529294 
L 557.910274 1617.880857 
L 510.762813 1617.880857 
z
" clip-path="url(#pfd24285192)" style="fill: #1f77b4; stroke: #000000; stroke-width: 1.5"/>
    <path d="M 421.610136 859.111096 
L 469.069706 859.111096 
L 469.069706 837.462658 
L 421.610136 837.462658 
z
" clip-path="url(#pfd24285192)" style="fill: #1f77b4; stroke: #000000; stroke-width: 1.5"/>
    <path d="M 1743.5342 683.470025 
L 1793.785958 683.470025 
L 1793.785958 661.821587 
L 1743.5342 661.821587 
z
" clip-path="url(#pfd24285192)" style="fill: #1f77b4; stroke: #000000; stroke-width: 1.5"/>
    <path d="M 1301.860602 444.232914 
L 1349.109625 444.232914 
L 1349.109625 422.584477 
L 1301.860602 422.584477 
z
" clip-path="url(#pfd24285192)" style="fill: #1f77b4; stroke: #000000; stroke-width: 1.5"/>
    <path d="M 987.600004 1147.077792 
L 1064.554691 1147.077792 
L 1064.554691 1125.298105 
L 987.600004 1125.298105 
z
" clip-path="url(#pfd24285192)" style="fill: #1f77b4; stroke: #000000; stroke-width: 1.5"/>
    <path d="M 1039.742996 962.133541 
L 1100.179129 962.133541 
L 1100.179129 940.353854 
L 1039.742996 940.353854 
z
" clip-path="url(#pfd24285192)" style="fill: #1f77b4; stroke: #000000; stroke-width: 1.5"/>
    <path d="M 1194.752995 862.328186 
L 1255.369791 862.328186 
L 1255.369791 840.548498 
L 1194.752995 840.548498 
z
" clip-path="url(#pfd24285192)" style="fill: #1f77b4; stroke: #000000; stroke-width: 1.5"/>
    <path d="M 911.610919 831.221999 
L 959.216192 831.221999 
L 959.216192 809.573562 
L 911.610919 809.573562 
z
" clip-path="url(#pfd24285192)" style="fill: #1f77b4; stroke: #000000; stroke-width: 1.5"/>
    <path d="M 1077.311217 807.851465 
L 1126.536803 807.851465 
L 1126.536803 786.071777 
L 1077.311217 786.071777 
z
" clip-path="url(#pfd24285192)" style="fill: #1f77b4; stroke: #000000; stroke-width: 1.5"/>
    <path d="M 1254.494501 1513.725057 
L 1307.431415 1513.725057 
L 1307.431415 1492.07662 
L 1254.494501 1492.07662 
z
" clip-path="url(#pfd24285192)" style="fill: #1f77b4; stroke: #000000; stroke-width: 1.5"/>
    <path d="M 1032.663277 1560.714273 
L 1097.50859 1560.714273 
L 1097.50859 1539.065835 
L 1032.663277 1539.065835 
z
" clip-path="url(#pfd24285192)" style="fill: #1f77b4; stroke: #000000; stroke-width: 1.5"/>
    <path d="M 1004.977242 1253.053103 
L 1057.562203 1253.053103 
L 1057.562203 1231.404666 
L 1004.977242 1231.404666 
z
" clip-path="url(#pfd24285192)" style="fill: #1f77b4; stroke: #000000; stroke-width: 1.5"/>
    <path d="M 722.441495 1450.174169 
L 775.338956 1450.174169 
L 775.338956 1428.525732 
L 722.441495 1428.525732 
z
" clip-path="url(#pfd24285192)" style="fill: #1f77b4; stroke: #000000; stroke-width: 1.5"/>
    <path d="M 980.529638 1063.841179 
L 1033.783349 1063.841179 
L 1033.783349 1042.192741 
L 980.529638 1042.192741 
z
" clip-path="url(#pfd24285192)" style="fill: #1f77b4; stroke: #000000; stroke-width: 1.5"/>
    <path d="M 1142.538723 1004.311673 
L 1206.329543 1004.311673 
L 1206.329543 982.531986 
L 1142.538723 982.531986 
z
" clip-path="url(#pfd24285192)" style="fill: #1f77b4; stroke: #000000; stroke-width: 1.5"/>
    <path d="M 807.608056 954.015667 
L 860.44204 954.015667 
L 860.44204 932.235979 
L 807.608056 932.235979 
z
" clip-path="url(#pfd24285192)" style="fill: #1f77b4; stroke: #000000; stroke-width: 1.5"/>
    <path d="M 1490.869133 853.453632 
L 1544.968351 853.453632 
L 1544.968351 831.805195 
L 1490.869133 831.805195 
z
" clip-path="url(#pfd24285192)" style="fill: #1f77b4; stroke: #000000; stroke-width: 1.5"/>
    <path d="M 740.914443 780.219491 
L 805.44374 780.219491 
L 805.44374 758.439804 
L 740.914443 758.439804 
z
" clip-path="url(#pfd24285192)" style="fill: #1f77b4; stroke: #000000; stroke-width: 1.5"/>
    <path d="M 935.116057 706.981143 
L 998.775041 706.981143 
L 998.775041 685.201455 
L 935.116057 685.201455 
z
" clip-path="url(#pfd24285192)" style="fill: #1f77b4; stroke: #000000; stroke-width: 1.5"/>
    <path d="M 876.630618 717.525642 
L 951.431985 717.525642 
L 951.431985 695.745954 
L 876.630618 695.745954 
z
" clip-path="url(#pfd24285192)" style="fill: #1f77b4; stroke: #000000; stroke-width: 1.5"/>
   </g>
   <g id="text_1">
    <g clip-path="url(#pfd24285192)">
     <!-- A_C -->
     <g transform="translate(984.369372 1214.124853) scale(0.1 -0.1)">
      <defs>
       <path id="DejaVuSans-41" d="M 2188 4044 
L 1331 1722 
L 3047 1722 
L 2188 4044 
z
M 1831 4666 
L 2547 4666 
L 4325 0 
L 3669 0 
L 3244 1197 
L 1141 1197 
L 716 0 
L 50 0 
L 1831 4666 
z
" transform="scale(0.015625)"/>
       <path id="DejaVuSans-5f" d="M 3263 -1063 
L 3263 -1509 
L -63 -1509 
L -63 -1063 
L 3263 -1063 
z
" transform="scale(0.015625)"/>
       <path id="DejaVuSans-43" d="M 4122 4306 
L 4122 3641 
Q 3803 3938 3442 4084 
Q 3081 4231 2675 4231 
Q 1875 4231 1450 3742 
Q 1025 3253 1025 2328 
Q 1025 1406 1450 917 
Q 1875 428 2675 428 
Q 3081 428 3442 575 
Q 3803 722 4122 1019 
L 4122 359 
Q 3791 134 3420 21 
Q 3050 -91 2638 -91 
Q 1578 -91 968 557 
Q 359 1206 359 2328 
Q 359 3453 968 4101 
Q 1578 4750 2638 4750 
Q 3056 4750 3426 4639 
Q 3797 4528 4122 4306 
z
" transform="scale(0.015625)"/>
      </defs>
      <use xlink:href="#DejaVuSans-41"/>
      <use xlink:href="#DejaVuSans-5f" transform="translate(68.408203 0)"/>
      <use xlink:href="#DejaVuSans-43" transform="translate(118.408203 0)"/>
     </g>
    </g>
   </g>
   <g id="text_2">
    <g clip-path="url(#pfd24285192)">
     <!-- B_C -->
     <g transform="translate(935.814797 1184.847875) scale(0.1 -0.1)">
      <defs>
       <path id="DejaVuSans-42" d="M 1259 2228 
L 1259 519 
L 2272 519 
Q 2781 519 3026 730 
Q 3272 941 3272 1375 
Q 3272 1813 3026 2020 
Q 2781 2228 2272 2228 
L 1259 2228 
z
M 1259 4147 
L 1259 2741 
L 2194 2741 
Q 2656 2741 2882 2914 
Q 3109 3088 3109 3444 
Q 3109 3797 2882 3972 
Q 2656 4147 2194 4147 
L 1259 4147 
z
M 628 4666 
L 2241 4666 
Q 2963 4666 3353 4366 
Q 3744 4066 3744 3513 
Q 3744 3084 3544 2831 
Q 3344 2578 2956 2516 
Q 3422 2416 3680 2098 
Q 3938 1781 3938 1306 
Q 3938 681 3513 340 
Q 3088 0 2303 0 
L 628 0 
L 628 4666 
z
" transform="scale(0.015625)"/>
      </defs>
      <use xlink:href="#DejaVuSans-42"/>
      <use xlink:href="#DejaVuSans-5f" transform="translate(68.603516 0)"/>
      <use xlink:href="#DejaVuSans-43" transform="translate(118.603516 0)"/>
     </g>
    </g>
   </g>
   <g id="text_3">
    <g clip-path="url(#pfd24285192)">
     <!-- C_C -->
     <g transform="translate(1152.267212 908.996741) scale(0.1 -0.1)">
      <use xlink:href="#DejaVuSans-43"/>
      <use xlink:href="#DejaVuSans-5f" transform="translate(69.824219 0)"/>
      <use xlink:href="#DejaVuSans-43" transform="translate(119.824219 0)"/>
     </g>
    </g>
   </g>
   <g id="text_4">
    <g clip-path="url(#pfd24285192)">
     <!-- D_C -->
     <g transform="translate(1292.536398 825.104941) scale(0.1 -0.1)">
      <defs>
       <path id="DejaVuSans-44" d="M 1259 4147 
L 1259 519 
L 2022 519 
Q 2988 519 3436 956 
Q 3884 1394 3884 2338 
Q 3884 3275 3436 3711 
Q 2988 4147 2022 4147 
L 1259 4147 
z
M 628 4666 
L 1925 4666 
Q 3281 4666 3915 4102 
Q 4550 3538 4550 2338 
Q 4550 1131 3912 565 
Q 3275 0 1925 0 
L 628 0 
L 628 4666 
z
" transform="scale(0.015625)"/>
      </defs>
      <use xlink:href="#DejaVuSans-44"/>
      <use xlink:href="#DejaVuSans-5f" transform="translate(77.001953 0)"/>
      <use xlink:href="#DejaVuSans-43" transform="translate(127.001953 0)"/>
     </g>
    </g>
   </g>
   <g id="text_5">
    <g clip-path="url(#pfd24285192)">
     <!-- E_C -->
     <g transform="translate(1360.867378 1471.240107) scale(0.1 -0.1)">
      <defs>
       <path id="DejaVuSans-45" d="M 628 4666 
L 3578 4666 
L 3578 4134 
L 1259 4134 
L 1259 2753 
L 3481 2753 
L 3481 2222 
L 1259 2222 
L 1259 531 
L 3634 531 
L 3634 0 
L 628 0 
L 628 4666 
z
" transform="scale(0.015625)"/>
      </defs>
      <use xlink:href="#DejaVuSans-45"/>
      <use xlink:href="#DejaVuSans-5f" transform="translate(63.183594 0)"/>
      <use xlink:href="#DejaVuSans-43" transform="translate(113.183594 0)"/>
     </g>
    </g>
   </g>
   <g id="text_6">
    <g clip-path="url(#pfd24285192)">
     <!-- F_C -->
     <g transform="translate(1091.814955 1607.136571) scale(0.1 -0.1)">
      <defs>
       <path id="DejaVuSans-46" d="M 628 4666 
L 3309 4666 
L 3309 4134 
L 1259 4134 
L 1259 2759 
L 3109 2759 
L 3109 2228 
L 1259 2228 
L 1259 0 
L 628 0 
L 628 4666 
z
" transform="scale(0.015625)"/>
      </defs>
      <use xlink:href="#DejaVuSans-46"/>
      <use xlink:href="#DejaVuSans-5f" transform="translate(57.519531 0)"/>
      <use xlink:href="#DejaVuSans-43" transform="translate(107.519531 0)"/>
     </g>
    </g>
   </g>
   <g id="text_7">
    <g clip-path="url(#pfd24285192)">
     <!-- G_C -->
     <g transform="translate(1107.912068 1090.279116) scale(0.1 -0.1)">
      <defs>
       <path id="DejaVuSans-47" d="M 3809 666 
L 3809 1919 
L 2778 1919 
L 2778 2438 
L 4434 2438 
L 4434 434 
Q 4069 175 3628 42 
Q 3188 -91 2688 -91 
Q 1594 -91 976 548 
Q 359 1188 359 2328 
Q 359 3472 976 4111 
Q 1594 4750 2688 4750 
Q 3144 4750 3555 4637 
Q 3966 4525 4313 4306 
L 4313 3634 
Q 3963 3931 3569 4081 
Q 3175 4231 2741 4231 
Q 1884 4231 1454 3753 
Q 1025 3275 1025 2328 
Q 1025 1384 1454 906 
Q 1884 428 2741 428 
Q 3075 428 3337 486 
Q 3600 544 3809 666 
z
" transform="scale(0.015625)"/>
      </defs>
      <use xlink:href="#DejaVuSans-47"/>
      <use xlink:href="#DejaVuSans-5f" transform="translate(77.490234 0)"/>
      <use xlink:href="#DejaVuSans-43" transform="translate(127.490234 0)"/>
     </g>
    </g>
   </g>
   <g id="text_8">
    <g clip-path="url(#pfd24285192)">
     <!-- N_C -->
     <g transform="translate(1080.229743 1508.929389) scale(0.1 -0.1)">
      <defs>
       <path id="DejaVuSans-4e" d="M 628 4666 
L 1478 4666 
L 3547 763 
L 3547 4666 
L 4159 4666 
L 4159 0 
L 3309 0 
L 1241 3903 
L 1241 0 
L 628 0 
L 628 4666 
z
" transform="scale(0.015625)"/>
      </defs>
      <use xlink:href="#DejaVuSans-4e"/>
      <use xlink:href="#DejaVuSans-5f" transform="translate(74.804688 0)"/>
      <use xlink:href="#DejaVuSans-43" transform="translate(124.804688 0)"/>
     </g>
    </g>
   </g>
   <g id="text_9">
    <g clip-path="url(#pfd24285192)">
     <!-- R_C -->
     <g transform="translate(633.582692 593.229472) scale(0.1 -0.1)">
      <defs>
       <path id="DejaVuSans-52" d="M 2841 2188 
Q 3044 2119 3236 1894 
Q 3428 1669 3622 1275 
L 4263 0 
L 3584 0 
L 2988 1197 
Q 2756 1666 2539 1819 
Q 2322 1972 1947 1972 
L 1259 1972 
L 1259 0 
L 628 0 
L 628 4666 
L 2053 4666 
Q 2853 4666 3247 4331 
Q 3641 3997 3641 3322 
Q 3641 2881 3436 2590 
Q 3231 2300 2841 2188 
z
M 1259 4147 
L 1259 2491 
L 2053 2491 
Q 2509 2491 2742 2702 
Q 2975 2913 2975 3322 
Q 2975 3731 2742 3939 
Q 2509 4147 2053 4147 
L 1259 4147 
z
" transform="scale(0.015625)"/>
      </defs>
      <use xlink:href="#DejaVuSans-52"/>
      <use xlink:href="#DejaVuSans-5f" transform="translate(69.482422 0)"/>
      <use xlink:href="#DejaVuSans-43" transform="translate(119.482422 0)"/>
     </g>
    </g>
   </g>
   <g id="text_10">
    <g clip-path="url(#pfd24285192)">
     <!-- U_C -->
     <g transform="translate(656.585826 1509.316785) scale(0.1 -0.1)">
      <defs>
       <path id="DejaVuSans-55" d="M 556 4666 
L 1191 4666 
L 1191 1831 
Q 1191 1081 1462 751 
Q 1734 422 2344 422 
Q 2950 422 3222 751 
Q 3494 1081 3494 1831 
L 3494 4666 
L 4128 4666 
L 4128 1753 
Q 4128 841 3676 375 
Q 3225 -91 2344 -91 
Q 1459 -91 1007 375 
Q 556 841 556 1753 
L 556 4666 
z
" transform="scale(0.015625)"/>
      </defs>
      <use xlink:href="#DejaVuSans-55"/>
      <use xlink:href="#DejaVuSans-5f" transform="translate(73.193359 0)"/>
      <use xlink:href="#DejaVuSans-43" transform="translate(123.193359 0)"/>
     </g>
    </g>
   </g>
   <g id="text_11">
    <g clip-path="url(#pfd24285192)">
     <!-- V_C -->
     <g transform="translate(541.019479 870.691048) scale(0.1 -0.1)">
      <defs>
       <path id="DejaVuSans-56" d="M 1831 0 
L 50 4666 
L 709 4666 
L 2188 738 
L 3669 4666 
L 4325 4666 
L 2547 0 
L 1831 0 
z
" transform="scale(0.015625)"/>
      </defs>
      <use xlink:href="#DejaVuSans-56"/>
      <use xlink:href="#DejaVuSans-5f" transform="translate(68.408203 0)"/>
      <use xlink:href="#DejaVuSans-43" transform="translate(118.408203 0)"/>
     </g>
    </g>
   </g>
   <g id="text_12">
    <g clip-path="url(#pfd24285192)">
     <!-- W_C -->
     <g transform="translate(1571.365875 780.613733) scale(0.1 -0.1)">
      <defs>
       <path id="DejaVuSans-57" d="M 213 4666 
L 850 4666 
L 1831 722 
L 2809 4666 
L 3519 4666 
L 4500 722 
L 5478 4666 
L 6119 4666 
L 4947 0 
L 4153 0 
L 3169 4050 
L 2175 0 
L 1381 0 
L 213 4666 
z
" transform="scale(0.015625)"/>
      </defs>
      <use xlink:href="#DejaVuSans-57"/>
      <use xlink:href="#DejaVuSans-5f" transform="translate(98.876953 0)"/>
      <use xlink:href="#DejaVuSans-43" transform="translate(148.876953 0)"/>
     </g>
    </g>
   </g>
   <g id="text_13">
    <g clip-path="url(#pfd24285192)">
     <!-- X_C -->
     <g transform="translate(1271.789253 553.46402) scale(0.1 -0.1)">
      <defs>
       <path id="DejaVuSans-58" d="M 403 4666 
L 1081 4666 
L 2241 2931 
L 3406 4666 
L 4084 4666 
L 2584 2425 
L 4184 0 
L 3506 0 
L 2194 1984 
L 872 0 
L 191 0 
L 1856 2491 
L 403 4666 
z
" transform="scale(0.015625)"/>
      </defs>
      <use xlink:href="#DejaVuSans-58"/>
      <use xlink:href="#DejaVuSans-5f" transform="translate(68.505859 0)"/>
      <use xlink:href="#DejaVuSans-43" transform="translate(118.505859 0)"/>
     </g>
    </g>
   </g>
   <g id="text_14">
    <g clip-path="url(#pfd24285192)">
     <!-- H_C -->
     <g transform="translate(1035.962604 1049.729846) scale(0.1 -0.1)">
      <defs>
       <path id="DejaVuSans-48" d="M 628 4666 
L 1259 4666 
L 1259 2753 
L 3553 2753 
L 3553 4666 
L 4184 4666 
L 4184 0 
L 3553 0 
L 3553 2222 
L 1259 2222 
L 1259 0 
L 628 0 
L 628 4666 
z
" transform="scale(0.015625)"/>
      </defs>
      <use xlink:href="#DejaVuSans-48"/>
      <use xlink:href="#DejaVuSans-5f" transform="translate(75.195312 0)"/>
      <use xlink:href="#DejaVuSans-43" transform="translate(125.195312 0)"/>
     </g>
    </g>
   </g>
   <g id="text_15">
    <g clip-path="url(#pfd24285192)">
     <!-- I_C -->
     <g transform="translate(992.316185 886.949371) scale(0.1 -0.1)">
      <defs>
       <path id="DejaVuSans-49" d="M 628 4666 
L 1259 4666 
L 1259 0 
L 628 0 
L 628 4666 
z
" transform="scale(0.015625)"/>
      </defs>
      <use xlink:href="#DejaVuSans-49"/>
      <use xlink:href="#DejaVuSans-5f" transform="translate(29.492188 0)"/>
      <use xlink:href="#DejaVuSans-43" transform="translate(79.492188 0)"/>
     </g>
    </g>
   </g>
   <g id="text_16">
    <g clip-path="url(#pfd24285192)">
     <!-- J_C -->
     <g transform="translate(1163.139826 822.560551) scale(0.1 -0.1)">
      <defs>
       <path id="DejaVuSans-4a" d="M 628 4666 
L 1259 4666 
L 1259 325 
Q 1259 -519 939 -900 
Q 619 -1281 -91 -1281 
L -331 -1281 
L -331 -750 
L -134 -750 
Q 284 -750 456 -515 
Q 628 -281 628 325 
L 628 4666 
z
" transform="scale(0.015625)"/>
      </defs>
      <use xlink:href="#DejaVuSans-4a"/>
      <use xlink:href="#DejaVuSans-5f" transform="translate(29.492188 0)"/>
      <use xlink:href="#DejaVuSans-43" transform="translate(79.492188 0)"/>
     </g>
    </g>
   </g>
   <g id="text_17">
    <g clip-path="url(#pfd24285192)">
     <!-- P_C -->
     <g transform="translate(873.410703 760.49989) scale(0.1 -0.1)">
      <defs>
       <path id="DejaVuSans-50" d="M 1259 4147 
L 1259 2394 
L 2053 2394 
Q 2494 2394 2734 2622 
Q 2975 2850 2975 3272 
Q 2975 3691 2734 3919 
Q 2494 4147 2053 4147 
L 1259 4147 
z
M 628 4666 
L 2053 4666 
Q 2838 4666 3239 4311 
Q 3641 3956 3641 3272 
Q 3641 2581 3239 2228 
Q 2838 1875 2053 1875 
L 1259 1875 
L 1259 0 
L 628 0 
L 628 4666 
z
" transform="scale(0.015625)"/>
      </defs>
      <use xlink:href="#DejaVuSans-50"/>
      <use xlink:href="#DejaVuSans-5f" transform="translate(60.302734 0)"/>
      <use xlink:href="#DejaVuSans-43" transform="translate(110.302734 0)"/>
     </g>
    </g>
   </g>
   <g id="text_18">
    <g clip-path="url(#pfd24285192)">
     <!-- Q_C -->
     <g transform="translate(1020.92037 764.423995) scale(0.1 -0.1)">
      <defs>
       <path id="DejaVuSans-51" d="M 2522 4238 
Q 1834 4238 1429 3725 
Q 1025 3213 1025 2328 
Q 1025 1447 1429 934 
Q 1834 422 2522 422 
Q 3209 422 3611 934 
Q 4013 1447 4013 2328 
Q 4013 3213 3611 3725 
Q 3209 4238 2522 4238 
z
M 3406 84 
L 4238 -825 
L 3475 -825 
L 2784 -78 
Q 2681 -84 2626 -87 
Q 2572 -91 2522 -91 
Q 1538 -91 948 567 
Q 359 1225 359 2328 
Q 359 3434 948 4092 
Q 1538 4750 2522 4750 
Q 3503 4750 4090 4092 
Q 4678 3434 4678 2328 
Q 4678 1516 4351 937 
Q 4025 359 3406 84 
z
" transform="scale(0.015625)"/>
      </defs>
      <use xlink:href="#DejaVuSans-51"/>
      <use xlink:href="#DejaVuSans-5f" transform="translate(78.710938 0)"/>
      <use xlink:href="#DejaVuSans-43" transform="translate(128.710938 0)"/>
     </g>
    </g>
   </g>
   <g id="text_19">
    <g clip-path="url(#pfd24285192)">
     <!-- M_C -->
     <g transform="translate(1167.475661 1534.298644) scale(0.1 -0.1)">
      <defs>
       <path id="DejaVuSans-4d" d="M 628 4666 
L 1569 4666 
L 2759 1491 
L 3956 4666 
L 4897 4666 
L 4897 0 
L 4281 0 
L 4281 4097 
L 3078 897 
L 2444 897 
L 1241 4097 
L 1241 0 
L 628 0 
L 628 4666 
z
" transform="scale(0.015625)"/>
      </defs>
      <use xlink:href="#DejaVuSans-4d"/>
      <use xlink:href="#DejaVuSans-5f" transform="translate(86.279297 0)"/>
      <use xlink:href="#DejaVuSans-43" transform="translate(136.279297 0)"/>
     </g>
    </g>
   </g>
   <g id="text_20">
    <g clip-path="url(#pfd24285192)">
     <!-- T_C -->
     <g transform="translate(959.524647 977.674676) scale(0.1 -0.1)">
      <defs>
       <path id="DejaVuSans-54" d="M -19 4666 
L 3928 4666 
L 3928 4134 
L 2272 4134 
L 2272 0 
L 1638 0 
L 1638 4134 
L -19 4134 
L -19 4666 
z
" transform="scale(0.015625)"/>
      </defs>
      <use xlink:href="#DejaVuSans-54"/>
      <use xlink:href="#DejaVuSans-5f" transform="translate(61.083984 0)"/>
      <use xlink:href="#DejaVuSans-43" transform="translate(111.083984 0)"/>
     </g>
    </g>
   </g>
   <g id="text_21">
    <g clip-path="url(#pfd24285192)">
     <!-- K_C -->
     <g transform="translate(993.20027 990.067995) scale(0.1 -0.1)">
      <defs>
       <path id="DejaVuSans-4b" d="M 628 4666 
L 1259 4666 
L 1259 2694 
L 3353 4666 
L 4166 4666 
L 1850 2491 
L 4331 0 
L 3500 0 
L 1259 2247 
L 1259 0 
L 628 0 
L 628 4666 
z
" transform="scale(0.015625)"/>
      </defs>
      <use xlink:href="#DejaVuSans-4b"/>
      <use xlink:href="#DejaVuSans-5f" transform="translate(65.576172 0)"/>
      <use xlink:href="#DejaVuSans-43" transform="translate(115.576172 0)"/>
     </g>
    </g>
   </g>
   <g id="text_22">
    <g clip-path="url(#pfd24285192)">
     <!-- L_C -->
     <g transform="translate(1342.946894 925.298946) scale(0.1 -0.1)">
      <defs>
       <path id="DejaVuSans-4c" d="M 628 4666 
L 1259 4666 
L 1259 531 
L 3531 531 
L 3531 0 
L 628 0 
L 628 4666 
z
" transform="scale(0.015625)"/>
      </defs>
      <use xlink:href="#DejaVuSans-4c"/>
      <use xlink:href="#DejaVuSans-5f" transform="translate(55.712891 0)"/>
      <use xlink:href="#DejaVuSans-43" transform="translate(105.712891 0)"/>
     </g>
    </g>
   </g>
   <g id="text_23">
    <g clip-path="url(#pfd24285192)">
     <!-- O_C -->
     <g transform="translate(796.60869 861.06845) scale(0.1 -0.1)">
      <defs>
       <path id="DejaVuSans-4f" d="M 2522 4238 
Q 1834 4238 1429 3725 
Q 1025 3213 1025 2328 
Q 1025 1447 1429 934 
Q 1834 422 2522 422 
Q 3209 422 3611 934 
Q 4013 1447 4013 2328 
Q 4013 3213 3611 3725 
Q 3209 4238 2522 4238 
z
M 2522 4750 
Q 3503 4750 4090 4092 
Q 4678 3434 4678 2328 
Q 4678 1225 4090 567 
Q 3503 -91 2522 -91 
Q 1538 -91 948 565 
Q 359 1222 359 2328 
Q 359 3434 948 4092 
Q 1538 4750 2522 4750 
z
" transform="scale(0.015625)"/>
      </defs>
      <use xlink:href="#DejaVuSans-4f"/>
      <use xlink:href="#DejaVuSans-5f" transform="translate(78.710938 0)"/>
      <use xlink:href="#DejaVuSans-43" transform="translate(128.710938 0)"/>
     </g>
    </g>
   </g>
   <g id="text_24">
    <g clip-path="url(#pfd24285192)">
     <!-- S_C -->
     <g transform="translate(925.379859 663.589842) scale(0.1 -0.1)">
      <defs>
       <path id="DejaVuSans-53" d="M 3425 4513 
L 3425 3897 
Q 3066 4069 2747 4153 
Q 2428 4238 2131 4238 
Q 1616 4238 1336 4038 
Q 1056 3838 1056 3469 
Q 1056 3159 1242 3001 
Q 1428 2844 1947 2747 
L 2328 2669 
Q 3034 2534 3370 2195 
Q 3706 1856 3706 1288 
Q 3706 609 3251 259 
Q 2797 -91 1919 -91 
Q 1588 -91 1214 -16 
Q 841 59 441 206 
L 441 856 
Q 825 641 1194 531 
Q 1563 422 1919 422 
Q 2459 422 2753 634 
Q 3047 847 3047 1241 
Q 3047 1584 2836 1778 
Q 2625 1972 2144 2069 
L 1759 2144 
Q 1053 2284 737 2584 
Q 422 2884 422 3419 
Q 422 4038 858 4394 
Q 1294 4750 2059 4750 
Q 2388 4750 2728 4690 
Q 3069 4631 3425 4513 
z
" transform="scale(0.015625)"/>
      </defs>
      <use xlink:href="#DejaVuSans-53"/>
      <use xlink:href="#DejaVuSans-5f" transform="translate(63.476562 0)"/>
      <use xlink:href="#DejaVuSans-43" transform="translate(113.476562 0)"/>
     </g>
    </g>
   </g>
   <g id="text_25">
    <g clip-path="url(#pfd24285192)">
     <!-- A_import -->
     <g transform="translate(945.497852 1273.049731) scale(0.1 -0.1)">
      <defs>
       <path id="DejaVuSans-69" d="M 603 3500 
L 1178 3500 
L 1178 0 
L 603 0 
L 603 3500 
z
M 603 4863 
L 1178 4863 
L 1178 4134 
L 603 4134 
L 603 4863 
z
" transform="scale(0.015625)"/>
       <path id="DejaVuSans-6d" d="M 3328 2828 
Q 3544 3216 3844 3400 
Q 4144 3584 4550 3584 
Q 5097 3584 5394 3201 
Q 5691 2819 5691 2113 
L 5691 0 
L 5113 0 
L 5113 2094 
Q 5113 2597 4934 2840 
Q 4756 3084 4391 3084 
Q 3944 3084 3684 2787 
Q 3425 2491 3425 1978 
L 3425 0 
L 2847 0 
L 2847 2094 
Q 2847 2600 2669 2842 
Q 2491 3084 2119 3084 
Q 1678 3084 1418 2786 
Q 1159 2488 1159 1978 
L 1159 0 
L 581 0 
L 581 3500 
L 1159 3500 
L 1159 2956 
Q 1356 3278 1631 3431 
Q 1906 3584 2284 3584 
Q 2666 3584 2933 3390 
Q 3200 3197 3328 2828 
z
" transform="scale(0.015625)"/>
       <path id="DejaVuSans-70" d="M 1159 525 
L 1159 -1331 
L 581 -1331 
L 581 3500 
L 1159 3500 
L 1159 2969 
Q 1341 3281 1617 3432 
Q 1894 3584 2278 3584 
Q 2916 3584 3314 3078 
Q 3713 2572 3713 1747 
Q 3713 922 3314 415 
Q 2916 -91 2278 -91 
Q 1894 -91 1617 61 
Q 1341 213 1159 525 
z
M 3116 1747 
Q 3116 2381 2855 2742 
Q 2594 3103 2138 3103 
Q 1681 3103 1420 2742 
Q 1159 2381 1159 1747 
Q 1159 1113 1420 752 
Q 1681 391 2138 391 
Q 2594 391 2855 752 
Q 3116 1113 3116 1747 
z
" transform="scale(0.015625)"/>
       <path id="DejaVuSans-6f" d="M 1959 3097 
Q 1497 3097 1228 2736 
Q 959 2375 959 1747 
Q 959 1119 1226 758 
Q 1494 397 1959 397 
Q 2419 397 2687 759 
Q 2956 1122 2956 1747 
Q 2956 2369 2687 2733 
Q 2419 3097 1959 3097 
z
M 1959 3584 
Q 2709 3584 3137 3096 
Q 3566 2609 3566 1747 
Q 3566 888 3137 398 
Q 2709 -91 1959 -91 
Q 1206 -91 779 398 
Q 353 888 353 1747 
Q 353 2609 779 3096 
Q 1206 3584 1959 3584 
z
" transform="scale(0.015625)"/>
       <path id="DejaVuSans-72" d="M 2631 2963 
Q 2534 3019 2420 3045 
Q 2306 3072 2169 3072 
Q 1681 3072 1420 2755 
Q 1159 2438 1159 1844 
L 1159 0 
L 581 0 
L 581 3500 
L 1159 3500 
L 1159 2956 
Q 1341 3275 1631 3429 
Q 1922 3584 2338 3584 
Q 2397 3584 2469 3576 
Q 2541 3569 2628 3553 
L 2631 2963 
z
" transform="scale(0.015625)"/>
       <path id="DejaVuSans-74" d="M 1172 4494 
L 1172 3500 
L 2356 3500 
L 2356 3053 
L 1172 3053 
L 1172 1153 
Q 1172 725 1289 603 
Q 1406 481 1766 481 
L 2356 481 
L 2356 0 
L 1766 0 
Q 1100 0 847 248 
Q 594 497 594 1153 
L 594 3053 
L 172 3053 
L 172 3500 
L 594 3500 
L 594 4494 
L 1172 4494 
z
" transform="scale(0.015625)"/>
      </defs>
      <use xlink:href="#DejaVuSans-41"/>
      <use xlink:href="#DejaVuSans-5f" transform="translate(68.408203 0)"/>
      <use xlink:href="#DejaVuSans-69" transform="translate(118.408203 0)"/>
      <use xlink:href="#DejaVuSans-6d" transform="translate(146.191406 0)"/>
      <use xlink:href="#DejaVuSans-70" transform="translate(243.603516 0)"/>
      <use xlink:href="#DejaVuSans-6f" transform="translate(307.080078 0)"/>
      <use xlink:href="#DejaVuSans-72" transform="translate(368.261719 0)"/>
      <use xlink:href="#DejaVuSans-74" transform="translate(409.375 0)"/>
     </g>
    </g>
   </g>
   <g id="text_26">
    <g clip-path="url(#pfd24285192)">
     <!-- B_import -->
     <g transform="translate(862.493347 1219.652791) scale(0.1 -0.1)">
      <use xlink:href="#DejaVuSans-42"/>
      <use xlink:href="#DejaVuSans-5f" transform="translate(68.603516 0)"/>
      <use xlink:href="#DejaVuSans-69" transform="translate(118.603516 0)"/>
      <use xlink:href="#DejaVuSans-6d" transform="translate(146.386719 0)"/>
      <use xlink:href="#DejaVuSans-70" transform="translate(243.798828 0)"/>
      <use xlink:href="#DejaVuSans-6f" transform="translate(307.275391 0)"/>
      <use xlink:href="#DejaVuSans-72" transform="translate(368.457031 0)"/>
      <use xlink:href="#DejaVuSans-74" transform="translate(409.570312 0)"/>
     </g>
    </g>
   </g>
   <g id="text_27">
    <g clip-path="url(#pfd24285192)">
     <!-- C_import -->
     <g transform="translate(1194.990446 914.39631) scale(0.1 -0.1)">
      <use xlink:href="#DejaVuSans-43"/>
      <use xlink:href="#DejaVuSans-5f" transform="translate(69.824219 0)"/>
      <use xlink:href="#DejaVuSans-69" transform="translate(119.824219 0)"/>
      <use xlink:href="#DejaVuSans-6d" transform="translate(147.607422 0)"/>
      <use xlink:href="#DejaVuSans-70" transform="translate(245.019531 0)"/>
      <use xlink:href="#DejaVuSans-6f" transform="translate(308.496094 0)"/>
      <use xlink:href="#DejaVuSans-72" transform="translate(369.677734 0)"/>
      <use xlink:href="#DejaVuSans-74" transform="translate(410.791016 0)"/>
     </g>
    </g>
   </g>
   <g id="text_28">
    <g clip-path="url(#pfd24285192)">
     <!-- D_import -->
     <g transform="translate(1335.509156 797.77194) scale(0.1 -0.1)">
      <use xlink:href="#DejaVuSans-44"/>
      <use xlink:href="#DejaVuSans-5f" transform="translate(77.001953 0)"/>
      <use xlink:href="#DejaVuSans-69" transform="translate(127.001953 0)"/>
      <use xlink:href="#DejaVuSans-6d" transform="translate(154.785156 0)"/>
      <use xlink:href="#DejaVuSans-70" transform="translate(252.197266 0)"/>
      <use xlink:href="#DejaVuSans-6f" transform="translate(315.673828 0)"/>
      <use xlink:href="#DejaVuSans-72" transform="translate(376.855469 0)"/>
      <use xlink:href="#DejaVuSans-74" transform="translate(417.96875 0)"/>
     </g>
    </g>
   </g>
   <g id="text_29">
    <g clip-path="url(#pfd24285192)">
     <!-- E_import -->
     <g transform="translate(1415.733207 1430.476591) scale(0.1 -0.1)">
      <use xlink:href="#DejaVuSans-45"/>
      <use xlink:href="#DejaVuSans-5f" transform="translate(63.183594 0)"/>
      <use xlink:href="#DejaVuSans-69" transform="translate(113.183594 0)"/>
      <use xlink:href="#DejaVuSans-6d" transform="translate(140.966797 0)"/>
      <use xlink:href="#DejaVuSans-70" transform="translate(238.378906 0)"/>
      <use xlink:href="#DejaVuSans-6f" transform="translate(301.855469 0)"/>
      <use xlink:href="#DejaVuSans-72" transform="translate(363.037109 0)"/>
      <use xlink:href="#DejaVuSans-74" transform="translate(404.150391 0)"/>
     </g>
    </g>
   </g>
   <g id="text_30">
    <g clip-path="url(#pfd24285192)">
     <!-- F_import -->
     <g transform="translate(1119.62125 1641.254323) scale(0.1 -0.1)">
      <use xlink:href="#DejaVuSans-46"/>
      <use xlink:href="#DejaVuSans-5f" transform="translate(57.519531 0)"/>
      <use xlink:href="#DejaVuSans-69" transform="translate(107.519531 0)"/>
      <use xlink:href="#DejaVuSans-6d" transform="translate(135.302734 0)"/>
      <use xlink:href="#DejaVuSans-70" transform="translate(232.714844 0)"/>
      <use xlink:href="#DejaVuSans-6f" transform="translate(296.191406 0)"/>
      <use xlink:href="#DejaVuSans-72" transform="translate(357.373047 0)"/>
      <use xlink:href="#DejaVuSans-74" transform="translate(398.486328 0)"/>
     </g>
    </g>
   </g>
   <g id="text_31">
    <g clip-path="url(#pfd24285192)">
     <!-- G_import -->
     <g transform="translate(1120.627902 1144.488879) scale(0.1 -0.1)">
      <use xlink:href="#DejaVuSans-47"/>
      <use xlink:href="#DejaVuSans-5f" transform="translate(77.490234 0)"/>
      <use xlink:href="#DejaVuSans-69" transform="translate(127.490234 0)"/>
      <use xlink:href="#DejaVuSans-6d" transform="translate(155.273438 0)"/>
      <use xlink:href="#DejaVuSans-70" transform="translate(252.685547 0)"/>
      <use xlink:href="#DejaVuSans-6f" transform="translate(316.162109 0)"/>
      <use xlink:href="#DejaVuSans-72" transform="translate(377.34375 0)"/>
      <use xlink:href="#DejaVuSans-74" transform="translate(418.457031 0)"/>
     </g>
    </g>
   </g>
   <g id="text_32">
    <g clip-path="url(#pfd24285192)">
     <!-- N_exp -->
     <g transform="translate(1398.693537 1750.672554) scale(0.1 -0.1)">
      <defs>
       <path id="DejaVuSans-65" d="M 3597 1894 
L 3597 1613 
L 953 1613 
Q 991 1019 1311 708 
Q 1631 397 2203 397 
Q 2534 397 2845 478 
Q 3156 559 3463 722 
L 3463 178 
Q 3153 47 2828 -22 
Q 2503 -91 2169 -91 
Q 1331 -91 842 396 
Q 353 884 353 1716 
Q 353 2575 817 3079 
Q 1281 3584 2069 3584 
Q 2775 3584 3186 3129 
Q 3597 2675 3597 1894 
z
M 3022 2063 
Q 3016 2534 2758 2815 
Q 2500 3097 2075 3097 
Q 1594 3097 1305 2825 
Q 1016 2553 972 2059 
L 3022 2063 
z
" transform="scale(0.015625)"/>
       <path id="DejaVuSans-78" d="M 3513 3500 
L 2247 1797 
L 3578 0 
L 2900 0 
L 1881 1375 
L 863 0 
L 184 0 
L 1544 1831 
L 300 3500 
L 978 3500 
L 1906 2253 
L 2834 3500 
L 3513 3500 
z
" transform="scale(0.015625)"/>
      </defs>
      <use xlink:href="#DejaVuSans-4e"/>
      <use xlink:href="#DejaVuSans-5f" transform="translate(74.804688 0)"/>
      <use xlink:href="#DejaVuSans-65" transform="translate(124.804688 0)"/>
      <use xlink:href="#DejaVuSans-78" transform="translate(184.578125 0)"/>
      <use xlink:href="#DejaVuSans-70" transform="translate(243.757812 0)"/>
     </g>
    </g>
   </g>
   <g id="text_33">
    <g clip-path="url(#pfd24285192)">
     <!-- R_exp -->
     <g transform="translate(583.239128 536.811284) scale(0.1 -0.1)">
      <use xlink:href="#DejaVuSans-52"/>
      <use xlink:href="#DejaVuSans-5f" transform="translate(69.482422 0)"/>
      <use xlink:href="#DejaVuSans-65" transform="translate(119.482422 0)"/>
      <use xlink:href="#DejaVuSans-78" transform="translate(179.255859 0)"/>
      <use xlink:href="#DejaVuSans-70" transform="translate(238.435547 0)"/>
     </g>
    </g>
   </g>
   <g id="text_34">
    <g clip-path="url(#pfd24285192)">
     <!-- U_exp -->
     <g transform="translate(519.054513 1631.186326) scale(0.1 -0.1)">
      <use xlink:href="#DejaVuSans-55"/>
      <use xlink:href="#DejaVuSans-5f" transform="translate(73.193359 0)"/>
      <use xlink:href="#DejaVuSans-65" transform="translate(123.193359 0)"/>
      <use xlink:href="#DejaVuSans-78" transform="translate(182.966797 0)"/>
      <use xlink:href="#DejaVuSans-70" transform="translate(242.146484 0)"/>
     </g>
    </g>
   </g>
   <g id="text_35">
    <g clip-path="url(#pfd24285192)">
     <!-- V_exp -->
     <g transform="translate(430.296952 850.768127) scale(0.1 -0.1)">
      <use xlink:href="#DejaVuSans-56"/>
      <use xlink:href="#DejaVuSans-5f" transform="translate(68.408203 0)"/>
      <use xlink:href="#DejaVuSans-65" transform="translate(118.408203 0)"/>
      <use xlink:href="#DejaVuSans-78" transform="translate(178.181641 0)"/>
      <use xlink:href="#DejaVuSans-70" transform="translate(237.361328 0)"/>
     </g>
    </g>
   </g>
   <g id="text_36">
    <g clip-path="url(#pfd24285192)">
     <!-- W_exp -->
     <g transform="translate(1752.093673 675.127056) scale(0.1 -0.1)">
      <use xlink:href="#DejaVuSans-57"/>
      <use xlink:href="#DejaVuSans-5f" transform="translate(98.876953 0)"/>
      <use xlink:href="#DejaVuSans-65" transform="translate(148.876953 0)"/>
      <use xlink:href="#DejaVuSans-78" transform="translate(208.650391 0)"/>
      <use xlink:href="#DejaVuSans-70" transform="translate(267.830078 0)"/>
     </g>
    </g>
   </g>
   <g id="text_37">
    <g clip-path="url(#pfd24285192)">
     <!-- X_exp -->
     <g transform="translate(1310.437457 435.889946) scale(0.1 -0.1)">
      <use xlink:href="#DejaVuSans-58"/>
      <use xlink:href="#DejaVuSans-5f" transform="translate(68.505859 0)"/>
      <use xlink:href="#DejaVuSans-65" transform="translate(118.505859 0)"/>
      <use xlink:href="#DejaVuSans-78" transform="translate(178.279297 0)"/>
      <use xlink:href="#DejaVuSans-70" transform="translate(237.458984 0)"/>
     </g>
    </g>
   </g>
   <g id="text_38">
    <g clip-path="url(#pfd24285192)">
     <!-- R_A_B__G_H -->
     <g transform="translate(995.617972 1138.71998) scale(0.1 -0.1)">
      <use xlink:href="#DejaVuSans-52"/>
      <use xlink:href="#DejaVuSans-5f" transform="translate(69.482422 0)"/>
      <use xlink:href="#DejaVuSans-41" transform="translate(119.482422 0)"/>
      <use xlink:href="#DejaVuSans-5f" transform="translate(187.890625 0)"/>
      <use xlink:href="#DejaVuSans-42" transform="translate(237.890625 0)"/>
      <use xlink:href="#DejaVuSans-5f" transform="translate(306.494141 0)"/>
      <use xlink:href="#DejaVuSans-5f" transform="translate(356.494141 0)"/>
      <use xlink:href="#DejaVuSans-47" transform="translate(406.494141 0)"/>
      <use xlink:href="#DejaVuSans-5f" transform="translate(483.984375 0)"/>
      <use xlink:href="#DejaVuSans-48" transform="translate(533.984375 0)"/>
     </g>
    </g>
   </g>
   <g id="text_39">
    <g clip-path="url(#pfd24285192)">
     <!-- R_C_H__I -->
     <g transform="translate(1047.760281 953.775729) scale(0.1 -0.1)">
      <use xlink:href="#DejaVuSans-52"/>
      <use xlink:href="#DejaVuSans-5f" transform="translate(69.482422 0)"/>
      <use xlink:href="#DejaVuSans-43" transform="translate(119.482422 0)"/>
      <use xlink:href="#DejaVuSans-5f" transform="translate(189.306641 0)"/>
      <use xlink:href="#DejaVuSans-48" transform="translate(239.306641 0)"/>
      <use xlink:href="#DejaVuSans-5f" transform="translate(314.501953 0)"/>
      <use xlink:href="#DejaVuSans-5f" transform="translate(364.501953 0)"/>
      <use xlink:href="#DejaVuSans-49" transform="translate(414.501953 0)"/>
     </g>
    </g>
   </g>
   <g id="text_40">
    <g clip-path="url(#pfd24285192)">
     <!-- R_C_D__J -->
     <g transform="translate(1202.770768 853.970373) scale(0.1 -0.1)">
      <use xlink:href="#DejaVuSans-52"/>
      <use xlink:href="#DejaVuSans-5f" transform="translate(69.482422 0)"/>
      <use xlink:href="#DejaVuSans-43" transform="translate(119.482422 0)"/>
      <use xlink:href="#DejaVuSans-5f" transform="translate(189.306641 0)"/>
      <use xlink:href="#DejaVuSans-44" transform="translate(239.306641 0)"/>
      <use xlink:href="#DejaVuSans-5f" transform="translate(316.308594 0)"/>
      <use xlink:href="#DejaVuSans-5f" transform="translate(366.308594 0)"/>
      <use xlink:href="#DejaVuSans-4a" transform="translate(416.308594 0)"/>
     </g>
    </g>
   </g>
   <g id="text_41">
    <g clip-path="url(#pfd24285192)">
     <!-- R_I__P -->
     <g transform="translate(919.949493 822.879031) scale(0.1 -0.1)">
      <use xlink:href="#DejaVuSans-52"/>
      <use xlink:href="#DejaVuSans-5f" transform="translate(69.482422 0)"/>
      <use xlink:href="#DejaVuSans-49" transform="translate(119.482422 0)"/>
      <use xlink:href="#DejaVuSans-5f" transform="translate(148.974609 0)"/>
      <use xlink:href="#DejaVuSans-5f" transform="translate(198.974609 0)"/>
      <use xlink:href="#DejaVuSans-50" transform="translate(248.974609 0)"/>
     </g>
    </g>
   </g>
   <g id="text_42">
    <g clip-path="url(#pfd24285192)">
     <!-- R_J__Q -->
     <g transform="translate(1085.538853 799.493652) scale(0.1 -0.1)">
      <use xlink:href="#DejaVuSans-52"/>
      <use xlink:href="#DejaVuSans-5f" transform="translate(69.482422 0)"/>
      <use xlink:href="#DejaVuSans-4a" transform="translate(119.482422 0)"/>
      <use xlink:href="#DejaVuSans-5f" transform="translate(148.974609 0)"/>
      <use xlink:href="#DejaVuSans-5f" transform="translate(198.974609 0)"/>
      <use xlink:href="#DejaVuSans-51" transform="translate(248.974609 0)"/>
     </g>
    </g>
   </g>
   <g id="text_43">
    <g clip-path="url(#pfd24285192)">
     <!-- R_E__M -->
     <g transform="translate(1262.515301 1505.382089) scale(0.1 -0.1)">
      <use xlink:href="#DejaVuSans-52"/>
      <use xlink:href="#DejaVuSans-5f" transform="translate(69.482422 0)"/>
      <use xlink:href="#DejaVuSans-45" transform="translate(119.482422 0)"/>
      <use xlink:href="#DejaVuSans-5f" transform="translate(182.666016 0)"/>
      <use xlink:href="#DejaVuSans-5f" transform="translate(232.666016 0)"/>
      <use xlink:href="#DejaVuSans-4d" transform="translate(282.666016 0)"/>
     </g>
    </g>
   </g>
   <g id="text_44">
    <g clip-path="url(#pfd24285192)">
     <!-- R_F_M__N -->
     <g transform="translate(1040.681246 1552.371304) scale(0.1 -0.1)">
      <use xlink:href="#DejaVuSans-52"/>
      <use xlink:href="#DejaVuSans-5f" transform="translate(69.482422 0)"/>
      <use xlink:href="#DejaVuSans-46" transform="translate(119.482422 0)"/>
      <use xlink:href="#DejaVuSans-5f" transform="translate(177.001953 0)"/>
      <use xlink:href="#DejaVuSans-4d" transform="translate(227.001953 0)"/>
      <use xlink:href="#DejaVuSans-5f" transform="translate(313.28125 0)"/>
      <use xlink:href="#DejaVuSans-5f" transform="translate(363.28125 0)"/>
      <use xlink:href="#DejaVuSans-4e" transform="translate(413.28125 0)"/>
     </g>
    </g>
   </g>
   <g id="text_45">
    <g clip-path="url(#pfd24285192)">
     <!-- R_N__T -->
     <g transform="translate(1013.500973 1244.710134) scale(0.1 -0.1)">
      <use xlink:href="#DejaVuSans-52"/>
      <use xlink:href="#DejaVuSans-5f" transform="translate(69.482422 0)"/>
      <use xlink:href="#DejaVuSans-4e" transform="translate(119.482422 0)"/>
      <use xlink:href="#DejaVuSans-5f" transform="translate(194.287109 0)"/>
      <use xlink:href="#DejaVuSans-5f" transform="translate(244.287109 0)"/>
      <use xlink:href="#DejaVuSans-54" transform="translate(294.287109 0)"/>
     </g>
    </g>
   </g>
   <g id="text_46">
    <g clip-path="url(#pfd24285192)">
     <!-- R_N__U -->
     <g transform="translate(730.516007 1441.831201) scale(0.1 -0.1)">
      <use xlink:href="#DejaVuSans-52"/>
      <use xlink:href="#DejaVuSans-5f" transform="translate(69.482422 0)"/>
      <use xlink:href="#DejaVuSans-4e" transform="translate(119.482422 0)"/>
      <use xlink:href="#DejaVuSans-5f" transform="translate(194.287109 0)"/>
      <use xlink:href="#DejaVuSans-5f" transform="translate(244.287109 0)"/>
      <use xlink:href="#DejaVuSans-55" transform="translate(294.287109 0)"/>
     </g>
    </g>
   </g>
   <g id="text_47">
    <g clip-path="url(#pfd24285192)">
     <!-- R_H__K -->
     <g transform="translate(989.143212 1055.49821) scale(0.1 -0.1)">
      <use xlink:href="#DejaVuSans-52"/>
      <use xlink:href="#DejaVuSans-5f" transform="translate(69.482422 0)"/>
      <use xlink:href="#DejaVuSans-48" transform="translate(119.482422 0)"/>
      <use xlink:href="#DejaVuSans-5f" transform="translate(194.677734 0)"/>
      <use xlink:href="#DejaVuSans-5f" transform="translate(244.677734 0)"/>
      <use xlink:href="#DejaVuSans-4b" transform="translate(294.677734 0)"/>
     </g>
    </g>
   </g>
   <g id="text_48">
    <g clip-path="url(#pfd24285192)">
     <!-- R_G_K__L -->
     <g transform="translate(1151.020852 995.953861) scale(0.1 -0.1)">
      <use xlink:href="#DejaVuSans-52"/>
      <use xlink:href="#DejaVuSans-5f" transform="translate(69.482422 0)"/>
      <use xlink:href="#DejaVuSans-47" transform="translate(119.482422 0)"/>
      <use xlink:href="#DejaVuSans-5f" transform="translate(196.972656 0)"/>
      <use xlink:href="#DejaVuSans-4b" transform="translate(246.972656 0)"/>
      <use xlink:href="#DejaVuSans-5f" transform="translate(312.548828 0)"/>
      <use xlink:href="#DejaVuSans-5f" transform="translate(362.548828 0)"/>
      <use xlink:href="#DejaVuSans-4c" transform="translate(412.548828 0)"/>
     </g>
    </g>
   </g>
   <g id="text_49">
    <g clip-path="url(#pfd24285192)">
     <!-- R_K__O -->
     <g transform="translate(815.835986 945.657854) scale(0.1 -0.1)">
      <use xlink:href="#DejaVuSans-52"/>
      <use xlink:href="#DejaVuSans-5f" transform="translate(69.482422 0)"/>
      <use xlink:href="#DejaVuSans-4b" transform="translate(119.482422 0)"/>
      <use xlink:href="#DejaVuSans-5f" transform="translate(185.058594 0)"/>
      <use xlink:href="#DejaVuSans-5f" transform="translate(235.058594 0)"/>
      <use xlink:href="#DejaVuSans-4f" transform="translate(285.058594 0)"/>
     </g>
    </g>
   </g>
   <g id="text_50">
    <g clip-path="url(#pfd24285192)">
     <!-- R_L__W -->
     <g transform="translate(1499.214836 845.110664) scale(0.1 -0.1)">
      <use xlink:href="#DejaVuSans-52"/>
      <use xlink:href="#DejaVuSans-5f" transform="translate(69.482422 0)"/>
      <use xlink:href="#DejaVuSans-4c" transform="translate(119.482422 0)"/>
      <use xlink:href="#DejaVuSans-5f" transform="translate(175.195312 0)"/>
      <use xlink:href="#DejaVuSans-5f" transform="translate(225.195312 0)"/>
      <use xlink:href="#DejaVuSans-57" transform="translate(275.195312 0)"/>
     </g>
    </g>
   </g>
   <g id="text_51">
    <g clip-path="url(#pfd24285192)">
     <!-- R_O_P__R -->
     <g transform="translate(749.279873 771.861679) scale(0.1 -0.1)">
      <use xlink:href="#DejaVuSans-52"/>
      <use xlink:href="#DejaVuSans-5f" transform="translate(69.482422 0)"/>
      <use xlink:href="#DejaVuSans-4f" transform="translate(119.482422 0)"/>
      <use xlink:href="#DejaVuSans-5f" transform="translate(198.193359 0)"/>
      <use xlink:href="#DejaVuSans-50" transform="translate(248.193359 0)"/>
      <use xlink:href="#DejaVuSans-5f" transform="translate(308.496094 0)"/>
      <use xlink:href="#DejaVuSans-5f" transform="translate(358.496094 0)"/>
      <use xlink:href="#DejaVuSans-52" transform="translate(408.496094 0)"/>
     </g>
    </g>
   </g>
   <g id="text_52">
    <g clip-path="url(#pfd24285192)">
     <!-- R_P_Q__S -->
     <g transform="translate(943.34633 698.62333) scale(0.1 -0.1)">
      <use xlink:href="#DejaVuSans-52"/>
      <use xlink:href="#DejaVuSans-5f" transform="translate(69.482422 0)"/>
      <use xlink:href="#DejaVuSans-50" transform="translate(119.482422 0)"/>
      <use xlink:href="#DejaVuSans-5f" transform="translate(179.785156 0)"/>
      <use xlink:href="#DejaVuSans-51" transform="translate(229.785156 0)"/>
      <use xlink:href="#DejaVuSans-5f" transform="translate(308.496094 0)"/>
      <use xlink:href="#DejaVuSans-5f" transform="translate(358.496094 0)"/>
      <use xlink:href="#DejaVuSans-53" transform="translate(408.496094 0)"/>
     </g>
    </g>
   </g>
   <g id="text_53">
    <g clip-path="url(#pfd24285192)">
     <!-- R_S_T__V_X -->
     <g transform="translate(884.983645 709.167829) scale(0.1 -0.1)">
      <use xlink:href="#DejaVuSans-52"/>
      <use xlink:href="#DejaVuSans-5f" transform="translate(69.482422 0)"/>
      <use xlink:href="#DejaVuSans-53" transform="translate(119.482422 0)"/>
      <use xlink:href="#DejaVuSans-5f" transform="translate(182.958984 0)"/>
      <use xlink:href="#DejaVuSans-54" transform="translate(232.958984 0)"/>
      <use xlink:href="#DejaVuSans-5f" transform="translate(294.042969 0)"/>
      <use xlink:href="#DejaVuSans-5f" transform="translate(344.042969 0)"/>
      <use xlink:href="#DejaVuSans-56" transform="translate(394.042969 0)"/>
      <use xlink:href="#DejaVuSans-5f" transform="translate(462.451172 0)"/>
      <use xlink:href="#DejaVuSans-58" transform="translate(512.451172 0)"/>
     </g>
    </g>
   </g>
   <g id="EdgeCollection_1">
    <path d="M 988.99581 1222.482665 
L 972.750832 1259.451293 
" clip-path="url(#pfd24285192)" style="fill: none; stroke: #000000; stroke-width: 1.5"/>
    <path d="M 998.445262 1200.702978 
L 1021.413177 1147.077792 
" clip-path="url(#pfd24285192)" style="fill: none; stroke: #000000; stroke-width: 1.5"/>
    <path d="M 927.576808 1192.482472 
L 904.001877 1206.054353 
" clip-path="url(#pfd24285192)" style="fill: none; stroke: #000000; stroke-width: 1.5"/>
    <path d="M 962.896535 1172.239081 
L 1006.992533 1147.077792 
" clip-path="url(#pfd24285192)" style="fill: none; stroke: #000000; stroke-width: 1.5"/>
    <path d="M 1179.681079 908.17329 
L 1186.390739 908.812627 
" clip-path="url(#pfd24285192)" style="fill: none; stroke: #000000; stroke-width: 1.5"/>
    <path d="M 1143.81897 915.212324 
L 1092.283305 940.353854 
" clip-path="url(#pfd24285192)" style="fill: none; stroke: #000000; stroke-width: 1.5"/>
    <path d="M 1174.279489 895.574866 
L 1212.531929 862.328186 
" clip-path="url(#pfd24285192)" style="fill: none; stroke: #000000; stroke-width: 1.5"/>
    <path d="M 1320.45759 813.718268 
L 1335.952145 806.129753 
" clip-path="url(#pfd24285192)" style="fill: none; stroke: #000000; stroke-width: 1.5"/>
    <path d="M 1284.298019 829.322846 
L 1254.229972 840.548498 
" clip-path="url(#pfd24285192)" style="fill: none; stroke: #000000; stroke-width: 1.5"/>
    <path d="M 1387.407026 1458.243507 
L 1419.658937 1438.834403 
" clip-path="url(#pfd24285192)" style="fill: none; stroke: #000000; stroke-width: 1.5"/>
    <path d="M 1352.629292 1475.384535 
L 1307.431415 1492.738269 
" clip-path="url(#pfd24285192)" style="fill: none; stroke: #000000; stroke-width: 1.5"/>
    <path d="M 1113.746152 1615.494383 
L 1128.335708 1627.655885 
" clip-path="url(#pfd24285192)" style="fill: none; stroke: #000000; stroke-width: 1.5"/>
    <path d="M 1093.597416 1593.714696 
L 1072.127966 1560.714273 
" clip-path="url(#pfd24285192)" style="fill: none; stroke: #000000; stroke-width: 1.5"/>
    <path d="M 1122.955463 1098.636929 
L 1138.290969 1130.890441 
" clip-path="url(#pfd24285192)" style="fill: none; stroke: #000000; stroke-width: 1.5"/>
    <path d="M 1099.463337 1097.421674 
L 1046.692224 1125.298105 
" clip-path="url(#pfd24285192)" style="fill: none; stroke: #000000; stroke-width: 1.5"/>
    <path d="M 1124.318674 1076.857241 
L 1167.893151 1004.311673 
" clip-path="url(#pfd24285192)" style="fill: none; stroke: #000000; stroke-width: 1.5"/>
    <path d="M 1104.55827 1517.287201 
L 1399.548284 1737.367086 
" clip-path="url(#pfd24285192)" style="fill: none; stroke: #000000; stroke-width: 1.5"/>
    <path d="M 1087.542306 1495.507514 
L 1033.674611 1253.053103 
" clip-path="url(#pfd24285192)" style="fill: none; stroke: #000000; stroke-width: 1.5"/>
    <path d="M 1071.991852 1502.864853 
L 775.338956 1444.549208 
" clip-path="url(#pfd24285192)" style="fill: none; stroke: #000000; stroke-width: 1.5"/>
    <path d="M 634.410167 579.807597 
L 606.922097 545.154253 
" clip-path="url(#pfd24285192)" style="fill: none; stroke: #000000; stroke-width: 1.5"/>
    <path d="M 654.45538 1517.674598 
L 546.046775 1617.880857 
" clip-path="url(#pfd24285192)" style="fill: none; stroke: #000000; stroke-width: 1.5"/>
    <path d="M 532.329537 864.7361 
L 469.069706 852.774039 
" clip-path="url(#pfd24285192)" style="fill: none; stroke: #000000; stroke-width: 1.5"/>
    <path d="M 1601.548943 767.191858 
L 1749.528159 683.470025 
" clip-path="url(#pfd24285192)" style="fill: none; stroke: #000000; stroke-width: 1.5"/>
    <path d="M 1285.308644 540.042145 
L 1321.406854 444.232914 
" clip-path="url(#pfd24285192)" style="fill: none; stroke: #000000; stroke-width: 1.5"/>
    <path d="M 1043.311182 1058.087659 
L 1028.480332 1125.298105 
" clip-path="url(#pfd24285192)" style="fill: none; stroke: #000000; stroke-width: 1.5"/>
    <path d="M 1048.465949 1036.307971 
L 1067.209279 962.133541 
" clip-path="url(#pfd24285192)" style="fill: none; stroke: #000000; stroke-width: 1.5"/>
    <path d="M 1027.724713 1049.912793 
L 1033.783349 1048.99842 
" clip-path="url(#pfd24285192)" style="fill: none; stroke: #000000; stroke-width: 1.5"/>
    <path d="M 1011.218687 895.307183 
L 1058.524967 940.353854 
" clip-path="url(#pfd24285192)" style="fill: none; stroke: #000000; stroke-width: 1.5"/>
    <path d="M 988.833301 873.527496 
L 946.296863 831.221999 
" clip-path="url(#pfd24285192)" style="fill: none; stroke: #000000; stroke-width: 1.5"/>
    <path d="M 1187.059748 829.518934 
L 1206.181687 840.548498 
" clip-path="url(#pfd24285192)" style="fill: none; stroke: #000000; stroke-width: 1.5"/>
    <path d="M 1154.152716 814.502613 
L 1126.536803 805.227819 
" clip-path="url(#pfd24285192)" style="fill: none; stroke: #000000; stroke-width: 1.5"/>
    <path d="M 891.661314 768.857703 
L 926.224904 809.573562 
" clip-path="url(#pfd24285192)" style="fill: none; stroke: #000000; stroke-width: 1.5"/>
    <path d="M 865.172129 759.761487 
L 805.44374 765.973814 
" clip-path="url(#pfd24285192)" style="fill: none; stroke: #000000; stroke-width: 1.5"/>
    <path d="M 897.293398 747.078015 
L 952.069105 706.981143 
" clip-path="url(#pfd24285192)" style="fill: none; stroke: #000000; stroke-width: 1.5"/>
    <path d="M 1049.223104 770.95854 
L 1079.85337 786.071777 
" clip-path="url(#pfd24285192)" style="fill: none; stroke: #000000; stroke-width: 1.5"/>
    <path d="M 1020.272067 751.00212 
L 977.521196 706.981143 
" clip-path="url(#pfd24285192)" style="fill: none; stroke: #000000; stroke-width: 1.5"/>
    <path d="M 1196.324782 1526.578908 
L 1254.494501 1510.305558 
" clip-path="url(#pfd24285192)" style="fill: none; stroke: #000000; stroke-width: 1.5"/>
    <path d="M 1159.237477 1534.74877 
L 1097.50859 1544.6759 
" clip-path="url(#pfd24285192)" style="fill: none; stroke: #000000; stroke-width: 1.5"/>
    <path d="M 971.126402 986.032488 
L 1028.728686 1231.404666 
" clip-path="url(#pfd24285192)" style="fill: none; stroke: #000000; stroke-width: 1.5"/>
    <path d="M 966.358032 964.252801 
L 916.243228 717.525642 
" clip-path="url(#pfd24285192)" style="fill: none; stroke: #000000; stroke-width: 1.5"/>
    <path d="M 1003.249875 998.425808 
L 1006.381897 1042.192741 
" clip-path="url(#pfd24285192)" style="fill: none; stroke: #000000; stroke-width: 1.5"/>
    <path d="M 1019.979078 988.135234 
L 1142.538723 992.330132 
" clip-path="url(#pfd24285192)" style="fill: none; stroke: #000000; stroke-width: 1.5"/>
    <path d="M 984.962086 982.919903 
L 860.44204 950.090581 
" clip-path="url(#pfd24285192)" style="fill: none; stroke: #000000; stroke-width: 1.5"/>
    <path d="M 1334.708905 929.547986 
L 1201.759359 982.531986 
" clip-path="url(#pfd24285192)" style="fill: none; stroke: #000000; stroke-width: 1.5"/>
    <path d="M 1368.739569 914.562274 
L 1495.470754 853.453632 
" clip-path="url(#pfd24285192)" style="fill: none; stroke: #000000; stroke-width: 1.5"/>
    <path d="M 802.464012 847.646575 
L 777.251113 780.219491 
" clip-path="url(#pfd24285192)" style="fill: none; stroke: #000000; stroke-width: 1.5"/>
    <path d="M 929.644078 671.947654 
L 918.932708 695.745954 
" clip-path="url(#pfd24285192)" style="fill: none; stroke: #000000; stroke-width: 1.5"/>
    <path d="M 970.004306 1258.244398 
L 986.249284 1221.27577 
" clip-path="url(#pfd24285192)" style="fill: none; stroke: #000000; stroke-width: 1.5"/>
    <path d="M 902.505113 1203.454411 
L 926.080045 1189.88253 
" clip-path="url(#pfd24285192)" style="fill: none; stroke: #000000; stroke-width: 1.5"/>
    <path d="M 1186.106169 911.7991 
L 1179.39651 911.159763 
" clip-path="url(#pfd24285192)" style="fill: none; stroke: #000000; stroke-width: 1.5"/>
    <path d="M 1337.271656 808.823986 
L 1321.7771 816.412502 
" clip-path="url(#pfd24285192)" style="fill: none; stroke: #000000; stroke-width: 1.5"/>
    <path d="M 1421.20582 1441.404842 
L 1388.953909 1460.813946 
" clip-path="url(#pfd24285192)" style="fill: none; stroke: #000000; stroke-width: 1.5"/>
    <path d="M 1126.414825 1629.960274 
L 1111.825269 1617.798772 
" clip-path="url(#pfd24285192)" style="fill: none; stroke: #000000; stroke-width: 1.5"/>
    <path d="M 1135.581628 1132.178646 
L 1120.246122 1099.925133 
" clip-path="url(#pfd24285192)" style="fill: none; stroke: #000000; stroke-width: 1.5"/>
    <path d="M 1024.170878 1148.258928 
L 1001.202963 1201.884114 
" clip-path="url(#pfd24285192)" style="fill: none; stroke: #000000; stroke-width: 1.5"/>
    <path d="M 1008.479327 1149.683448 
L 964.383329 1174.844737 
" clip-path="url(#pfd24285192)" style="fill: none; stroke: #000000; stroke-width: 1.5"/>
    <path d="M 1045.290965 1122.645469 
L 1098.062078 1094.769039 
" clip-path="url(#pfd24285192)" style="fill: none; stroke: #000000; stroke-width: 1.5"/>
    <path d="M 1025.550806 1124.651667 
L 1040.381657 1057.441221 
" clip-path="url(#pfd24285192)" style="fill: none; stroke: #000000; stroke-width: 1.5"/>
    <path d="M 1090.967942 937.657593 
L 1142.503607 912.516064 
" clip-path="url(#pfd24285192)" style="fill: none; stroke: #000000; stroke-width: 1.5"/>
    <path d="M 1070.117855 962.868517 
L 1051.374525 1037.042947 
" clip-path="url(#pfd24285192)" style="fill: none; stroke: #000000; stroke-width: 1.5"/>
    <path d="M 1056.456169 942.526426 
L 1009.149888 897.479756 
" clip-path="url(#pfd24285192)" style="fill: none; stroke: #000000; stroke-width: 1.5"/>
    <path d="M 1214.499915 864.59248 
L 1176.247475 897.83916 
" clip-path="url(#pfd24285192)" style="fill: none; stroke: #000000; stroke-width: 1.5"/>
    <path d="M 1253.180689 837.737981 
L 1283.248736 826.512329 
" clip-path="url(#pfd24285192)" style="fill: none; stroke: #000000; stroke-width: 1.5"/>
    <path d="M 1204.682757 843.147192 
L 1185.560817 832.117627 
" clip-path="url(#pfd24285192)" style="fill: none; stroke: #000000; stroke-width: 1.5"/>
    <path d="M 948.412401 829.094913 
L 990.948839 871.400409 
" clip-path="url(#pfd24285192)" style="fill: none; stroke: #000000; stroke-width: 1.5"/>
    <path d="M 923.937842 811.515043 
L 889.374252 770.799184 
" clip-path="url(#pfd24285192)" style="fill: none; stroke: #000000; stroke-width: 1.5"/>
    <path d="M 1127.491924 802.383923 
L 1155.107838 811.658717 
" clip-path="url(#pfd24285192)" style="fill: none; stroke: #000000; stroke-width: 1.5"/>
    <path d="M 1078.525935 788.762115 
L 1047.895668 773.648877 
" clip-path="url(#pfd24285192)" style="fill: none; stroke: #000000; stroke-width: 1.5"/>
    <path d="M 1306.3561 1489.937609 
L 1351.553978 1472.583874 
" clip-path="url(#pfd24285192)" style="fill: none; stroke: #000000; stroke-width: 1.5"/>
    <path d="M 1255.302738 1513.194633 
L 1197.133019 1529.467983 
" clip-path="url(#pfd24285192)" style="fill: none; stroke: #000000; stroke-width: 1.5"/>
    <path d="M 1071.276894 1539.065835 
L 1083.73328 1517.287201 
" clip-path="url(#pfd24285192)" style="fill: none; stroke: #000000; stroke-width: 1.5"/>
    <path d="M 1036.6032 1252.402439 
L 1090.470895 1494.85685 
" clip-path="url(#pfd24285192)" style="fill: none; stroke: #000000; stroke-width: 1.5"/>
    <path d="M 1025.808084 1232.090291 
L 968.205799 986.718113 
" clip-path="url(#pfd24285192)" style="fill: none; stroke: #000000; stroke-width: 1.5"/>
    <path d="M 735.623176 1450.174169 
L 679.584092 1495.89491 
" clip-path="url(#pfd24285192)" style="fill: none; stroke: #000000; stroke-width: 1.5"/>
    <path d="M 1034.231041 1051.964828 
L 1028.172405 1052.8792 
" clip-path="url(#pfd24285192)" style="fill: none; stroke: #000000; stroke-width: 1.5"/>
    <path d="M 1003.389549 1042.406878 
L 1000.257527 998.639944 
" clip-path="url(#pfd24285192)" style="fill: none; stroke: #000000; stroke-width: 1.5"/>
    <path d="M 1170.464892 1005.856389 
L 1126.890416 1078.401957 
" clip-path="url(#pfd24285192)" style="fill: none; stroke: #000000; stroke-width: 1.5"/>
    <path d="M 1142.436101 995.328377 
L 1019.876456 991.133478 
" clip-path="url(#pfd24285192)" style="fill: none; stroke: #000000; stroke-width: 1.5"/>
    <path d="M 1200.648727 979.745142 
L 1333.598273 926.761143 
" clip-path="url(#pfd24285192)" style="fill: none; stroke: #000000; stroke-width: 1.5"/>
    <path d="M 830.486176 932.235979 
L 810.074905 869.426263 
" clip-path="url(#pfd24285192)" style="fill: none; stroke: #000000; stroke-width: 1.5"/>
    <path d="M 1528.71522 831.805195 
L 1571.439096 788.971546 
" clip-path="url(#pfd24285192)" style="fill: none; stroke: #000000; stroke-width: 1.5"/>
    <path d="M 765.246011 758.439804 
L 650.981398 601.587284 
" clip-path="url(#pfd24285192)" style="fill: none; stroke: #000000; stroke-width: 1.5"/>
    <path d="M 956.874281 685.201455 
L 944.616752 671.947654 
" clip-path="url(#pfd24285192)" style="fill: none; stroke: #000000; stroke-width: 1.5"/>
    <path d="M 889.517498 717.525642 
L 568.532857 860.117659 
" clip-path="url(#pfd24285192)" style="fill: none; stroke: #000000; stroke-width: 1.5"/>
    <path d="M 939.711286 695.745954 
L 1263.209272 558.563529 
" clip-path="url(#pfd24285192)" style="fill: none; stroke: #000000; stroke-width: 1.5"/>
   </g>
   <g id="EdgeArrowCollection_1">
    <path d="M 980.596769 1251.539197 
L 973.2727 1248.32081 
L 972.750832 1259.451293 
z
" clip-path="url(#pfd24285192)" style="stroke: #000000; stroke-width: 1.5"/>
    <path d="M 1013.641636 1155.062975 
L 1020.995506 1158.212672 
L 1021.413177 1147.077792 
z
" clip-path="url(#pfd24285192)" style="stroke: #000000; stroke-width: 1.5"/>
    <path d="M 915.010694 1204.332162 
L 911.019324 1197.398983 
L 904.001877 1206.054353 
z
" clip-path="url(#pfd24285192)" style="stroke: #000000; stroke-width: 1.5"/>
    <path d="M 995.9772 1148.757803 
L 999.941984 1155.706219 
L 1006.992533 1147.077792 
z
" clip-path="url(#pfd24285192)" style="stroke: #000000; stroke-width: 1.5"/>
    <path d="M 1176.417059 903.844156 
L 1175.658207 911.808084 
L 1186.390739 908.812627 
z
" clip-path="url(#pfd24285192)" style="stroke: #000000; stroke-width: 1.5"/>
    <path d="M 1103.384159 939.388942 
L 1099.876524 932.198914 
L 1092.283305 940.353854 
z
" clip-path="url(#pfd24285192)" style="stroke: #000000; stroke-width: 1.5"/>
    <path d="M 1202.058392 866.131479 
L 1207.306356 872.169598 
L 1212.531929 862.328186 
z
" clip-path="url(#pfd24285192)" style="stroke: #000000; stroke-width: 1.5"/>
    <path d="M 1324.85279 807.111745 
L 1328.371485 814.296367 
L 1335.952145 806.129753 
z
" clip-path="url(#pfd24285192)" style="stroke: #000000; stroke-width: 1.5"/>
    <path d="M 1265.372141 840.65834 
L 1262.574054 833.163628 
L 1254.229972 840.548498 
z
" clip-path="url(#pfd24285192)" style="stroke: #000000; stroke-width: 1.5"/>
    <path d="M 1408.685573 1440.769677 
L 1412.810593 1447.62418 
L 1419.658937 1438.834403 
z
" clip-path="url(#pfd24285192)" style="stroke: #000000; stroke-width: 1.5"/>
    <path d="M 1318.574123 1492.744727 
L 1315.706619 1485.276299 
L 1307.431415 1492.738269 
z
" clip-path="url(#pfd24285192)" style="stroke: #000000; stroke-width: 1.5"/>
    <path d="M 1122.908337 1617.924305 
L 1117.785983 1624.069342 
L 1128.335708 1627.655885 
z
" clip-path="url(#pfd24285192)" style="stroke: #000000; stroke-width: 1.5"/>
    <path d="M 1074.446521 1571.613094 
L 1081.152289 1567.250448 
L 1072.127966 1560.714273 
z
" clip-path="url(#pfd24285192)" style="stroke: #000000; stroke-width: 1.5"/>
    <path d="M 1137.437649 1119.780453 
L 1130.212739 1123.215664 
L 1138.290969 1130.890441 
z
" clip-path="url(#pfd24285192)" style="stroke: #000000; stroke-width: 1.5"/>
    <path d="M 1057.756371 1123.977254 
L 1054.019681 1116.90356 
L 1046.692224 1125.298105 
z
" clip-path="url(#pfd24285192)" style="stroke: #000000; stroke-width: 1.5"/>
    <path d="M 1159.109148 1011.167422 
L 1165.967125 1015.286664 
L 1167.893151 1004.311673 
z
" clip-path="url(#pfd24285192)" style="stroke: #000000; stroke-width: 1.5"/>
    <path d="M 1393.604447 1727.942077 
L 1388.820636 1734.354187 
L 1399.548284 1737.367086 
z
" clip-path="url(#pfd24285192)" style="stroke: #000000; stroke-width: 1.5"/>
    <path d="M 1032.02546 1264.073099 
L 1039.835032 1262.337995 
L 1033.674611 1253.053103 
z
" clip-path="url(#pfd24285192)" style="stroke: #000000; stroke-width: 1.5"/>
    <path d="M 784.772105 1450.480118 
L 786.315202 1442.630351 
L 775.338956 1444.549208 
z
" clip-path="url(#pfd24285192)" style="stroke: #000000; stroke-width: 1.5"/>
    <path d="M 610.251437 555.787949 
L 616.519032 550.816304 
L 606.922097 545.154253 
z
" clip-path="url(#pfd24285192)" style="stroke: #000000; stroke-width: 1.5"/>
    <path d="M 556.399047 1613.758909 
L 550.968806 1607.884177 
L 546.046775 1617.880857 
z
" clip-path="url(#pfd24285192)" style="stroke: #000000; stroke-width: 1.5"/>
    <path d="M 478.545408 858.636724 
L 480.03182 850.776025 
L 469.069706 852.774039 
z
" clip-path="url(#pfd24285192)" style="stroke: #000000; stroke-width: 1.5"/>
    <path d="M 1738.506759 685.109763 
L 1742.44612 692.072624 
L 1749.528159 683.470025 
z
" clip-path="url(#pfd24285192)" style="stroke: #000000; stroke-width: 1.5"/>
    <path d="M 1313.996925 452.554751 
L 1321.483189 455.375364 
L 1321.406854 444.232914 
z
" clip-path="url(#pfd24285192)" style="stroke: #000000; stroke-width: 1.5"/>
    <path d="M 1034.627349 1116.004334 
L 1026.815281 1114.2805 
L 1028.480332 1125.298105 
z
" clip-path="url(#pfd24285192)" style="stroke: #000000; stroke-width: 1.5"/>
    <path d="M 1060.783264 971.236635 
L 1068.539465 973.19657 
L 1067.209279 962.133541 
z
" clip-path="url(#pfd24285192)" style="stroke: #000000; stroke-width: 1.5"/>
    <path d="M 1022.902881 1046.595209 
L 1024.096726 1054.505628 
L 1033.783349 1048.99842 
z
" clip-path="url(#pfd24285192)" style="stroke: #000000; stroke-width: 1.5"/>
    <path d="M 1053.75178 930.285255 
L 1048.234984 936.078782 
L 1058.524967 940.353854 
z
" clip-path="url(#pfd24285192)" style="stroke: #000000; stroke-width: 1.5"/>
    <path d="M 950.850046 841.391981 
L 956.491481 835.71975 
L 946.296863 831.221999 
z
" clip-path="url(#pfd24285192)" style="stroke: #000000; stroke-width: 1.5"/>
    <path d="M 1199.171457 831.887282 
L 1195.174309 838.817131 
L 1206.181687 840.548498 
z
" clip-path="url(#pfd24285192)" style="stroke: #000000; stroke-width: 1.5"/>
    <path d="M 1135.122146 812.330767 
L 1137.669136 804.747045 
L 1126.536803 805.227819 
z
" clip-path="url(#pfd24285192)" style="stroke: #000000; stroke-width: 1.5"/>
    <path d="M 922.543852 799.05644 
L 916.445021 804.233722 
L 926.224904 809.573562 
z
" clip-path="url(#pfd24285192)" style="stroke: #000000; stroke-width: 1.5"/>
    <path d="M 816.201745 768.876455 
L 815.374133 760.919379 
L 805.44374 765.973814 
z
" clip-path="url(#pfd24285192)" style="stroke: #000000; stroke-width: 1.5"/>
    <path d="M 941.314541 709.89651 
L 946.039933 716.351793 
L 952.069105 706.981143 
z
" clip-path="url(#pfd24285192)" style="stroke: #000000; stroke-width: 1.5"/>
    <path d="M 1072.296782 777.882884 
L 1068.756954 785.057117 
L 1079.85337 786.071777 
z
" clip-path="url(#pfd24285192)" style="stroke: #000000; stroke-width: 1.5"/>
    <path d="M 981.897168 717.228623 
L 987.636209 711.655167 
L 977.521196 706.981143 
z
" clip-path="url(#pfd24285192)" style="stroke: #000000; stroke-width: 1.5"/>
    <path d="M 1243.401392 1509.255347 
L 1245.556691 1516.959547 
L 1254.494501 1510.305558 
z
" clip-path="url(#pfd24285192)" style="stroke: #000000; stroke-width: 1.5"/>
    <path d="M 1108.411771 1546.973865 
L 1107.141546 1539.075351 
L 1097.50859 1544.6759 
z
" clip-path="url(#pfd24285192)" style="stroke: #000000; stroke-width: 1.5"/>
    <path d="M 1030.245988 1220.365744 
L 1022.457715 1222.194078 
L 1028.728686 1231.404666 
z
" clip-path="url(#pfd24285192)" style="stroke: #000000; stroke-width: 1.5"/>
    <path d="M 914.393431 728.513738 
L 922.23334 726.921309 
L 916.243228 717.525642 
z
" clip-path="url(#pfd24285192)" style="stroke: #000000; stroke-width: 1.5"/>
    <path d="M 1009.629354 1031.533753 
L 1001.64976 1032.104784 
L 1006.381897 1042.192741 
z
" clip-path="url(#pfd24285192)" style="stroke: #000000; stroke-width: 1.5"/>
    <path d="M 1132.281639 987.976717 
L 1132.00798 995.972035 
L 1142.538723 992.330132 
z
" clip-path="url(#pfd24285192)" style="stroke: #000000; stroke-width: 1.5"/>
    <path d="M 869.478662 956.609742 
L 871.518146 948.874078 
L 860.44204 950.090581 
z
" clip-path="url(#pfd24285192)" style="stroke: #000000; stroke-width: 1.5"/>
    <path d="M 1212.901259 982.397584 
L 1209.939572 974.966002 
L 1201.759359 982.531986 
z
" clip-path="url(#pfd24285192)" style="stroke: #000000; stroke-width: 1.5"/>
    <path d="M 1484.365599 854.367703 
L 1487.840274 861.573717 
L 1495.470754 853.453632 
z
" clip-path="url(#pfd24285192)" style="stroke: #000000; stroke-width: 1.5"/>
    <path d="M 777.147008 791.361715 
L 784.640278 788.559769 
L 777.251113 780.219491 
z
" clip-path="url(#pfd24285192)" style="stroke: #000000; stroke-width: 1.5"/>
    <path d="M 926.848771 687.90402 
L 919.553644 684.620558 
L 918.932708 695.745954 
z
" clip-path="url(#pfd24285192)" style="stroke: #000000; stroke-width: 1.5"/>
    <path d="M 978.403347 1229.187867 
L 985.727416 1232.406253 
L 986.249284 1221.27577 
z
" clip-path="url(#pfd24285192)" style="stroke: #000000; stroke-width: 1.5"/>
    <path d="M 915.071227 1191.604722 
L 919.062597 1198.537901 
L 926.080045 1189.88253 
z
" clip-path="url(#pfd24285192)" style="stroke: #000000; stroke-width: 1.5"/>
    <path d="M 1189.37019 916.128234 
L 1190.129042 908.164306 
L 1179.39651 911.159763 
z
" clip-path="url(#pfd24285192)" style="stroke: #000000; stroke-width: 1.5"/>
    <path d="M 1332.876456 815.430509 
L 1329.357761 808.245887 
L 1321.7771 816.412502 
z
" clip-path="url(#pfd24285192)" style="stroke: #000000; stroke-width: 1.5"/>
    <path d="M 1399.927273 1458.878672 
L 1395.802253 1452.024169 
L 1388.953909 1460.813946 
z
" clip-path="url(#pfd24285192)" style="stroke: #000000; stroke-width: 1.5"/>
    <path d="M 1117.25264 1627.530352 
L 1122.374995 1621.385315 
L 1111.825269 1617.798772 
z
" clip-path="url(#pfd24285192)" style="stroke: #000000; stroke-width: 1.5"/>
    <path d="M 1121.099442 1111.035122 
L 1128.324352 1107.59991 
L 1120.246122 1099.925133 
z
" clip-path="url(#pfd24285192)" style="stroke: #000000; stroke-width: 1.5"/>
    <path d="M 1008.974504 1193.898931 
L 1001.620634 1190.749234 
L 1001.202963 1201.884114 
z
" clip-path="url(#pfd24285192)" style="stroke: #000000; stroke-width: 1.5"/>
    <path d="M 975.398662 1173.164726 
L 971.433878 1166.21631 
L 964.383329 1174.844737 
z
" clip-path="url(#pfd24285192)" style="stroke: #000000; stroke-width: 1.5"/>
    <path d="M 1086.997931 1096.08989 
L 1090.734622 1103.163584 
L 1098.062078 1094.769039 
z
" clip-path="url(#pfd24285192)" style="stroke: #000000; stroke-width: 1.5"/>
    <path d="M 1034.23464 1066.734992 
L 1042.046707 1068.458826 
L 1040.381657 1057.441221 
z
" clip-path="url(#pfd24285192)" style="stroke: #000000; stroke-width: 1.5"/>
    <path d="M 1131.402753 913.480975 
L 1134.910388 920.671003 
L 1142.503607 912.516064 
z
" clip-path="url(#pfd24285192)" style="stroke: #000000; stroke-width: 1.5"/>
    <path d="M 1057.80054 1027.939853 
L 1050.044339 1025.979918 
L 1051.374525 1037.042947 
z
" clip-path="url(#pfd24285192)" style="stroke: #000000; stroke-width: 1.5"/>
    <path d="M 1013.923075 907.548355 
L 1019.439872 901.754828 
L 1009.149888 897.479756 
z
" clip-path="url(#pfd24285192)" style="stroke: #000000; stroke-width: 1.5"/>
    <path d="M 1186.721011 894.035867 
L 1181.473048 887.997748 
L 1176.247475 897.83916 
z
" clip-path="url(#pfd24285192)" style="stroke: #000000; stroke-width: 1.5"/>
    <path d="M 1272.106567 826.402487 
L 1274.904655 833.897199 
L 1283.248736 826.512329 
z
" clip-path="url(#pfd24285192)" style="stroke: #000000; stroke-width: 1.5"/>
    <path d="M 1192.571047 840.778844 
L 1196.568195 833.848995 
L 1185.560817 832.117627 
z
" clip-path="url(#pfd24285192)" style="stroke: #000000; stroke-width: 1.5"/>
    <path d="M 986.395656 861.230427 
L 980.754221 866.902659 
L 990.948839 871.400409 
z
" clip-path="url(#pfd24285192)" style="stroke: #000000; stroke-width: 1.5"/>
    <path d="M 893.055304 781.316306 
L 899.154135 776.139023 
L 889.374252 770.799184 
z
" clip-path="url(#pfd24285192)" style="stroke: #000000; stroke-width: 1.5"/>
    <path d="M 1146.522494 804.555769 
L 1143.975504 812.139491 
L 1155.107838 811.658717 
z
" clip-path="url(#pfd24285192)" style="stroke: #000000; stroke-width: 1.5"/>
    <path d="M 1055.452257 781.83777 
L 1058.992085 774.663538 
L 1047.895668 773.648877 
z
" clip-path="url(#pfd24285192)" style="stroke: #000000; stroke-width: 1.5"/>
    <path d="M 1340.411269 1472.577416 
L 1343.278774 1480.045844 
L 1351.553978 1472.583874 
z
" clip-path="url(#pfd24285192)" style="stroke: #000000; stroke-width: 1.5"/>
    <path d="M 1208.226128 1530.518194 
L 1206.070829 1522.813995 
L 1197.133019 1529.467983 
z
" clip-path="url(#pfd24285192)" style="stroke: #000000; stroke-width: 1.5"/>
    <path d="M 1075.097671 1524.328952 
L 1082.042042 1528.300816 
L 1083.73328 1517.287201 
z
" clip-path="url(#pfd24285192)" style="stroke: #000000; stroke-width: 1.5"/>
    <path d="M 1092.120046 1483.836854 
L 1084.310474 1485.571958 
L 1090.470895 1494.85685 
z
" clip-path="url(#pfd24285192)" style="stroke: #000000; stroke-width: 1.5"/>
    <path d="M 966.688497 997.757035 
L 974.47677 995.928701 
L 968.205799 986.718113 
z
" clip-path="url(#pfd24285192)" style="stroke: #000000; stroke-width: 1.5"/>
    <path d="M 690.171022 1492.419725 
L 685.1137 1486.221057 
L 679.584092 1495.89491 
z
" clip-path="url(#pfd24285192)" style="stroke: #000000; stroke-width: 1.5"/>
    <path d="M 1039.052873 1055.282412 
L 1037.859028 1047.371992 
L 1028.172405 1052.8792 
z
" clip-path="url(#pfd24285192)" style="stroke: #000000; stroke-width: 1.5"/>
    <path d="M 997.01007 1009.298932 
L 1004.989664 1008.727901 
L 1000.257527 998.639944 
z
" clip-path="url(#pfd24285192)" style="stroke: #000000; stroke-width: 1.5"/>
    <path d="M 1135.674419 1071.546208 
L 1128.816442 1067.426966 
L 1126.890416 1078.401957 
z
" clip-path="url(#pfd24285192)" style="stroke: #000000; stroke-width: 1.5"/>
    <path d="M 1030.13354 995.486894 
L 1030.407199 987.491576 
L 1019.876456 991.133478 
z
" clip-path="url(#pfd24285192)" style="stroke: #000000; stroke-width: 1.5"/>
    <path d="M 1322.456373 926.895545 
L 1325.41806 934.327127 
L 1333.598273 926.761143 
z
" clip-path="url(#pfd24285192)" style="stroke: #000000; stroke-width: 1.5"/>
    <path d="M 809.484962 880.553346 
L 817.093302 878.080864 
L 810.074905 869.426263 
z
" clip-path="url(#pfd24285192)" style="stroke: #000000; stroke-width: 1.5"/>
    <path d="M 1561.262573 793.51009 
L 1566.92668 799.159681 
L 1571.439096 788.971546 
z
" clip-path="url(#pfd24285192)" style="stroke: #000000; stroke-width: 1.5"/>
    <path d="M 653.871964 612.34854 
L 660.338123 607.638044 
L 650.981398 601.587284 
z
" clip-path="url(#pfd24285192)" style="stroke: #000000; stroke-width: 1.5"/>
    <path d="M 948.741449 682.298831 
L 954.614739 676.86703 
L 944.616752 671.947654 
z
" clip-path="url(#pfd24285192)" style="stroke: #000000; stroke-width: 1.5"/>
    <path d="M 579.661152 859.551029 
L 576.413334 852.239964 
L 568.532857 860.117659 
z
" clip-path="url(#pfd24285192)" style="stroke: #000000; stroke-width: 1.5"/>
    <path d="M 1252.072964 558.941195 
L 1255.196221 566.306333 
L 1263.209272 558.563529 
z
" clip-path="url(#pfd24285192)" style="stroke: #000000; stroke-width: 1.5"/>
   </g>
   <g id="matplotlib.axis_1"/>
   <g id="matplotlib.axis_2"/>
  </g>
 </g>
 <defs>
  <clipPath id="pfd24285192">
   <rect x="270" y="259.2" width="1674" height="1663.2"/>
  </clipPath>
 </defs>
</svg>
