<?xml version="1.0" encoding="utf-8" standalone="no"?>
<!DOCTYPE svg PUBLIC "-//W3C//DTD SVG 1.1//EN"
  "http://www.w3.org/Graphics/SVG/1.1/DTD/svg11.dtd">
<svg xmlns:xlink="http://www.w3.org/1999/xlink" width="1440pt" height="1440pt" viewBox="0 0 1440 1440" xmlns="http://www.w3.org/2000/svg" version="1.1">
 <metadata>
  <rdf:RDF xmlns:dc="http://purl.org/dc/elements/1.1/" xmlns:cc="http://creativecommons.org/ns#" xmlns:rdf="http://www.w3.org/1999/02/22-rdf-syntax-ns#">
   <cc:Work>
    <dc:type rdf:resource="http://purl.org/dc/dcmitype/StillImage"/>
    <dc:date>2026-03-09T11:56:46.969028</dc:date>
    <dc:format>image/svg+xml</dc:format>
    <dc:creator>
     <cc:Agent>
      <dc:title>Matplotlib v3.10.8, https://matplotlib.org/</dc:title>
     </cc:Agent>
    </dc:creator>
   </cc:Work>
  </rdf:RDF>
 </metadata>
 <defs>
  <style type="text/css">*{stroke-linejoin: round; stroke-linecap: butt}</style>
 </defs>
 <g id="figure_1">
  <g id="patch_1">
   <path d="M 0 1440 
L 1440 1440 
L 1440 0 
L 0 0 
z
" style="fill: #ffffff"/>
  </g>
  <g id="axes_1">
   <g id="patch_2">
    <path d="M 180 1281.6 
L 1296 1281.6 
L 1296 172.8 
L 180 172.8 
z
" style="fill: #ffffff"/>
   </g>
   <g id="VertexCollection_1">
    <path d="M 1014.132977 613.117304 
L 1067.386688 613.117304 
L 1067.386688 591.468866 
L 1014.132977 591.468866 
z
" clip-path="url(#p505b90fa22)" style="fill: #1f77b4; stroke: #000000; stroke-width: 1.5"/>
    <path d="M 890.548766 765.765282 
L 938.154039 765.765282 
L 938.154039 744.116844 
L 890.548766 744.116844 
z
" clip-path="url(#p505b90fa22)" style="fill: #1f77b4; stroke: #000000; stroke-width: 1.5"/>
    <path d="M 1017.757017 538.356622 
L 1081.547838 538.356622 
L 1081.547838 516.576934 
L 1017.757017 516.576934 
z
" clip-path="url(#p505b90fa22)" style="fill: #1f77b4; stroke: #000000; stroke-width: 1.5"/>
    <path d="M 918.10873 814.826259 
L 982.638027 814.826259 
L 982.638027 793.046572 
L 918.10873 793.046572 
z
" clip-path="url(#p505b90fa22)" style="fill: #1f77b4; stroke: #000000; stroke-width: 1.5"/>
    <path d="M 660.033035 961.229158 
L 734.834402 961.229158 
L 734.834402 939.449471 
L 660.033035 939.449471 
z
" clip-path="url(#p505b90fa22)" style="fill: #1f77b4; stroke: #000000; stroke-width: 1.5"/>
    <path d="M 1147.836407 598.46096 
L 1210.377032 598.46096 
L 1210.377032 576.50471 
L 1147.836407 576.50471 
z
" clip-path="url(#p505b90fa22)" style="fill: #1f77b4; stroke: #000000; stroke-width: 1.5"/>
    <path d="M 392.31939 891.300207 
L 439.466851 891.300207 
L 439.466851 869.65177 
L 392.31939 869.65177 
z
" clip-path="url(#p505b90fa22)" style="fill: #1f77b4; stroke: #000000; stroke-width: 1.5"/>
    <path d="M 704.109501 1047.320237 
L 751.569072 1047.320237 
L 751.569072 1025.671799 
L 704.109501 1025.671799 
z
" clip-path="url(#p505b90fa22)" style="fill: #1f77b4; stroke: #000000; stroke-width: 1.5"/>
    <path d="M 332.971698 1122.335437 
L 385.908613 1122.335437 
L 385.908613 1100.687 
L 332.971698 1100.687 
z
" clip-path="url(#p505b90fa22)" style="fill: #1f77b4; stroke: #000000; stroke-width: 1.5"/>
    <path d="M 465.245043 1021.8226 
L 512.441136 1021.8226 
L 512.441136 1000.174162 
L 465.245043 1000.174162 
z
" clip-path="url(#p505b90fa22)" style="fill: #1f77b4; stroke: #000000; stroke-width: 1.5"/>
    <path d="M 941.477887 640.55914 
L 1001.914019 640.55914 
L 1001.914019 618.779453 
L 941.477887 618.779453 
z
" clip-path="url(#p505b90fa22)" style="fill: #1f77b4; stroke: #000000; stroke-width: 1.5"/>
    <path d="M 993.085467 683.809898 
L 1045.919451 683.809898 
L 1045.919451 662.03021 
L 993.085467 662.03021 
z
" clip-path="url(#p505b90fa22)" style="fill: #1f77b4; stroke: #000000; stroke-width: 1.5"/>
    <path d="M 1053.700496 578.682552 
L 1130.655184 578.682552 
L 1130.655184 556.902864 
L 1053.700496 556.902864 
z
" clip-path="url(#p505b90fa22)" style="fill: #1f77b4; stroke: #000000; stroke-width: 1.5"/>
    <path d="M 843.527497 640.067312 
L 904.144294 640.067312 
L 904.144294 618.287625 
L 843.527497 618.287625 
z
" clip-path="url(#p505b90fa22)" style="fill: #1f77b4; stroke: #000000; stroke-width: 1.5"/>
    <path d="M 809.474364 745.807753 
L 858.699949 745.807753 
L 858.699949 724.028065 
L 809.474364 724.028065 
z
" clip-path="url(#p505b90fa22)" style="fill: #1f77b4; stroke: #000000; stroke-width: 1.5"/>
    <path d="M 977.493736 901.939012 
L 1024.157604 901.939012 
L 1024.157604 880.290575 
L 977.493736 880.290575 
z
" clip-path="url(#p505b90fa22)" style="fill: #1f77b4; stroke: #000000; stroke-width: 1.5"/>
    <path d="M 982.595186 299.763349 
L 1032.846943 299.763349 
L 1032.846943 278.114912 
L 982.595186 278.114912 
z
" clip-path="url(#p505b90fa22)" style="fill: #1f77b4; stroke: #000000; stroke-width: 1.5"/>
    <path d="M 885.204593 591.859825 
L 947.404007 591.859825 
L 947.404007 569.903575 
L 885.204593 569.903575 
z
" clip-path="url(#p505b90fa22)" style="fill: #1f77b4; stroke: #000000; stroke-width: 1.5"/>
    <path d="M 334.831688 1033.460821 
L 395.380321 1033.460821 
L 395.380321 1011.504571 
L 334.831688 1011.504571 
z
" clip-path="url(#p505b90fa22)" style="fill: #1f77b4; stroke: #000000; stroke-width: 1.5"/>
    <path d="M 522.745249 995.192082 
L 575.33021 995.192082 
L 575.33021 973.543644 
L 522.745249 973.543644 
z
" clip-path="url(#p505b90fa22)" style="fill: #1f77b4; stroke: #000000; stroke-width: 1.5"/>
    <path d="M 781.675851 572.467529 
L 844.172726 572.467529 
L 844.172726 550.511279 
L 781.675851 550.511279 
z
" clip-path="url(#p505b90fa22)" style="fill: #1f77b4; stroke: #000000; stroke-width: 1.5"/>
    <path d="M 266.335761 1176.438995 
L 327.4508 1176.438995 
L 327.4508 1154.482745 
L 266.335761 1154.482745 
z
" clip-path="url(#p505b90fa22)" style="fill: #1f77b4; stroke: #000000; stroke-width: 1.5"/>
    <path d="M 1142.395831 524.879684 
L 1204.052863 524.879684 
L 1204.052863 502.923434 
L 1142.395831 502.923434 
z
" clip-path="url(#p505b90fa22)" style="fill: #1f77b4; stroke: #000000; stroke-width: 1.5"/>
    <path d="M 1074.70349 500.054277 
L 1137.669506 500.054277 
L 1137.669506 478.098027 
L 1074.70349 478.098027 
z
" clip-path="url(#p505b90fa22)" style="fill: #1f77b4; stroke: #000000; stroke-width: 1.5"/>
    <path d="M 801.845535 853.074652 
L 865.50452 853.074652 
L 865.50452 831.294964 
L 801.845535 831.294964 
z
" clip-path="url(#p505b90fa22)" style="fill: #1f77b4; stroke: #000000; stroke-width: 1.5"/>
    <path d="M 649.87122 1043.271866 
L 697.120244 1043.271866 
L 697.120244 1021.623429 
L 649.87122 1021.623429 
z
" clip-path="url(#p505b90fa22)" style="fill: #1f77b4; stroke: #000000; stroke-width: 1.5"/>
    <path d="M 407.326544 1039.460403 
L 472.171857 1039.460403 
L 472.171857 1017.811966 
L 407.326544 1017.811966 
z
" clip-path="url(#p505b90fa22)" style="fill: #1f77b4; stroke: #000000; stroke-width: 1.5"/>
    <path d="M 442.713325 963.492019 
L 495.610786 963.492019 
L 495.610786 941.843581 
L 442.713325 941.843581 
z
" clip-path="url(#p505b90fa22)" style="fill: #1f77b4; stroke: #000000; stroke-width: 1.5"/>
    <path d="M 1002.836169 399.892711 
L 1056.935388 399.892711 
L 1056.935388 378.244273 
L 1002.836169 378.244273 
z
" clip-path="url(#p505b90fa22)" style="fill: #1f77b4; stroke: #000000; stroke-width: 1.5"/>
   </g>
   <g id="text_1">
    <g clip-path="url(#p505b90fa22)">
     <!-- R_H__K -->
     <g transform="translate(1022.746551 604.774335) scale(0.1 -0.1)">
      <defs>
       <path id="DejaVuSans-52" d="M 2841 2188 
Q 3044 2119 3236 1894 
Q 3428 1669 3622 1275 
L 4263 0 
L 3584 0 
L 2988 1197 
Q 2756 1666 2539 1819 
Q 2322 1972 1947 1972 
L 1259 1972 
L 1259 0 
L 628 0 
L 628 4666 
L 2053 4666 
Q 2853 4666 3247 4331 
Q 3641 3997 3641 3322 
Q 3641 2881 3436 2590 
Q 3231 2300 2841 2188 
z
M 1259 4147 
L 1259 2491 
L 2053 2491 
Q 2509 2491 2742 2702 
Q 2975 2913 2975 3322 
Q 2975 3731 2742 3939 
Q 2509 4147 2053 4147 
L 1259 4147 
z
" transform="scale(0.015625)"/>
       <path id="DejaVuSans-5f" d="M 3263 -1063 
L 3263 -1509 
L -63 -1509 
L -63 -1063 
L 3263 -1063 
z
" transform="scale(0.015625)"/>
       <path id="DejaVuSans-48" d="M 628 4666 
L 1259 4666 
L 1259 2753 
L 3553 2753 
L 3553 4666 
L 4184 4666 
L 4184 0 
L 3553 0 
L 3553 2222 
L 1259 2222 
L 1259 0 
L 628 0 
L 628 4666 
z
" transform="scale(0.015625)"/>
       <path id="DejaVuSans-4b" d="M 628 4666 
L 1259 4666 
L 1259 2694 
L 3353 4666 
L 4166 4666 
L 1850 2491 
L 4331 0 
L 3500 0 
L 1259 2247 
L 1259 0 
L 628 0 
L 628 4666 
z
" transform="scale(0.015625)"/>
      </defs>
      <use xlink:href="#DejaVuSans-52"/>
      <use xlink:href="#DejaVuSans-5f" transform="translate(69.482422 0)"/>
      <use xlink:href="#DejaVuSans-48" transform="translate(119.482422 0)"/>
      <use xlink:href="#DejaVuSans-5f" transform="translate(194.677734 0)"/>
      <use xlink:href="#DejaVuSans-5f" transform="translate(244.677734 0)"/>
      <use xlink:href="#DejaVuSans-4b" transform="translate(294.677734 0)"/>
     </g>
    </g>
   </g>
   <g id="text_2">
    <g clip-path="url(#p505b90fa22)">
     <!-- R_I__P -->
     <g transform="translate(898.88734 757.422313) scale(0.1 -0.1)">
      <defs>
       <path id="DejaVuSans-49" d="M 628 4666 
L 1259 4666 
L 1259 0 
L 628 0 
L 628 4666 
z
" transform="scale(0.015625)"/>
       <path id="DejaVuSans-50" d="M 1259 4147 
L 1259 2394 
L 2053 2394 
Q 2494 2394 2734 2622 
Q 2975 2850 2975 3272 
Q 2975 3691 2734 3919 
Q 2494 4147 2053 4147 
L 1259 4147 
z
M 628 4666 
L 2053 4666 
Q 2838 4666 3239 4311 
Q 3641 3956 3641 3272 
Q 3641 2581 3239 2228 
Q 2838 1875 2053 1875 
L 1259 1875 
L 1259 0 
L 628 0 
L 628 4666 
z
" transform="scale(0.015625)"/>
      </defs>
      <use xlink:href="#DejaVuSans-52"/>
      <use xlink:href="#DejaVuSans-5f" transform="translate(69.482422 0)"/>
      <use xlink:href="#DejaVuSans-49" transform="translate(119.482422 0)"/>
      <use xlink:href="#DejaVuSans-5f" transform="translate(148.974609 0)"/>
      <use xlink:href="#DejaVuSans-5f" transform="translate(198.974609 0)"/>
      <use xlink:href="#DejaVuSans-50" transform="translate(248.974609 0)"/>
     </g>
    </g>
   </g>
   <g id="text_3">
    <g clip-path="url(#p505b90fa22)">
     <!-- R_G_K__L -->
     <g transform="translate(1026.239146 529.998809) scale(0.1 -0.1)">
      <defs>
       <path id="DejaVuSans-47" d="M 3809 666 
L 3809 1919 
L 2778 1919 
L 2778 2438 
L 4434 2438 
L 4434 434 
Q 4069 175 3628 42 
Q 3188 -91 2688 -91 
Q 1594 -91 976 548 
Q 359 1188 359 2328 
Q 359 3472 976 4111 
Q 1594 4750 2688 4750 
Q 3144 4750 3555 4637 
Q 3966 4525 4313 4306 
L 4313 3634 
Q 3963 3931 3569 4081 
Q 3175 4231 2741 4231 
Q 1884 4231 1454 3753 
Q 1025 3275 1025 2328 
Q 1025 1384 1454 906 
Q 1884 428 2741 428 
Q 3075 428 3337 486 
Q 3600 544 3809 666 
z
" transform="scale(0.015625)"/>
       <path id="DejaVuSans-4c" d="M 628 4666 
L 1259 4666 
L 1259 531 
L 3531 531 
L 3531 0 
L 628 0 
L 628 4666 
z
" transform="scale(0.015625)"/>
      </defs>
      <use xlink:href="#DejaVuSans-52"/>
      <use xlink:href="#DejaVuSans-5f" transform="translate(69.482422 0)"/>
      <use xlink:href="#DejaVuSans-47" transform="translate(119.482422 0)"/>
      <use xlink:href="#DejaVuSans-5f" transform="translate(196.972656 0)"/>
      <use xlink:href="#DejaVuSans-4b" transform="translate(246.972656 0)"/>
      <use xlink:href="#DejaVuSans-5f" transform="translate(312.548828 0)"/>
      <use xlink:href="#DejaVuSans-5f" transform="translate(362.548828 0)"/>
      <use xlink:href="#DejaVuSans-4c" transform="translate(412.548828 0)"/>
     </g>
    </g>
   </g>
   <g id="text_4">
    <g clip-path="url(#p505b90fa22)">
     <!-- R_O_P__R -->
     <g transform="translate(926.47416 806.468447) scale(0.1 -0.1)">
      <defs>
       <path id="DejaVuSans-4f" d="M 2522 4238 
Q 1834 4238 1429 3725 
Q 1025 3213 1025 2328 
Q 1025 1447 1429 934 
Q 1834 422 2522 422 
Q 3209 422 3611 934 
Q 4013 1447 4013 2328 
Q 4013 3213 3611 3725 
Q 3209 4238 2522 4238 
z
M 2522 4750 
Q 3503 4750 4090 4092 
Q 4678 3434 4678 2328 
Q 4678 1225 4090 567 
Q 3503 -91 2522 -91 
Q 1538 -91 948 565 
Q 359 1222 359 2328 
Q 359 3434 948 4092 
Q 1538 4750 2522 4750 
z
" transform="scale(0.015625)"/>
      </defs>
      <use xlink:href="#DejaVuSans-52"/>
      <use xlink:href="#DejaVuSans-5f" transform="translate(69.482422 0)"/>
      <use xlink:href="#DejaVuSans-4f" transform="translate(119.482422 0)"/>
      <use xlink:href="#DejaVuSans-5f" transform="translate(198.193359 0)"/>
      <use xlink:href="#DejaVuSans-50" transform="translate(248.193359 0)"/>
      <use xlink:href="#DejaVuSans-5f" transform="translate(308.496094 0)"/>
      <use xlink:href="#DejaVuSans-5f" transform="translate(358.496094 0)"/>
      <use xlink:href="#DejaVuSans-52" transform="translate(408.496094 0)"/>
     </g>
    </g>
   </g>
   <g id="text_5">
    <g clip-path="url(#p505b90fa22)">
     <!-- R_S_T__V_X -->
     <g transform="translate(668.386062 952.871346) scale(0.1 -0.1)">
      <defs>
       <path id="DejaVuSans-53" d="M 3425 4513 
L 3425 3897 
Q 3066 4069 2747 4153 
Q 2428 4238 2131 4238 
Q 1616 4238 1336 4038 
Q 1056 3838 1056 3469 
Q 1056 3159 1242 3001 
Q 1428 2844 1947 2747 
L 2328 2669 
Q 3034 2534 3370 2195 
Q 3706 1856 3706 1288 
Q 3706 609 3251 259 
Q 2797 -91 1919 -91 
Q 1588 -91 1214 -16 
Q 841 59 441 206 
L 441 856 
Q 825 641 1194 531 
Q 1563 422 1919 422 
Q 2459 422 2753 634 
Q 3047 847 3047 1241 
Q 3047 1584 2836 1778 
Q 2625 1972 2144 2069 
L 1759 2144 
Q 1053 2284 737 2584 
Q 422 2884 422 3419 
Q 422 4038 858 4394 
Q 1294 4750 2059 4750 
Q 2388 4750 2728 4690 
Q 3069 4631 3425 4513 
z
" transform="scale(0.015625)"/>
       <path id="DejaVuSans-54" d="M -19 4666 
L 3928 4666 
L 3928 4134 
L 2272 4134 
L 2272 0 
L 1638 0 
L 1638 4134 
L -19 4134 
L -19 4666 
z
" transform="scale(0.015625)"/>
       <path id="DejaVuSans-56" d="M 1831 0 
L 50 4666 
L 709 4666 
L 2188 738 
L 3669 4666 
L 4325 4666 
L 2547 0 
L 1831 0 
z
" transform="scale(0.015625)"/>
       <path id="DejaVuSans-58" d="M 403 4666 
L 1081 4666 
L 2241 2931 
L 3406 4666 
L 4084 4666 
L 2584 2425 
L 4184 0 
L 3506 0 
L 2194 1984 
L 872 0 
L 191 0 
L 1856 2491 
L 403 4666 
z
" transform="scale(0.015625)"/>
      </defs>
      <use xlink:href="#DejaVuSans-52"/>
      <use xlink:href="#DejaVuSans-5f" transform="translate(69.482422 0)"/>
      <use xlink:href="#DejaVuSans-53" transform="translate(119.482422 0)"/>
      <use xlink:href="#DejaVuSans-5f" transform="translate(182.958984 0)"/>
      <use xlink:href="#DejaVuSans-54" transform="translate(232.958984 0)"/>
      <use xlink:href="#DejaVuSans-5f" transform="translate(294.042969 0)"/>
      <use xlink:href="#DejaVuSans-5f" transform="translate(344.042969 0)"/>
      <use xlink:href="#DejaVuSans-56" transform="translate(394.042969 0)"/>
      <use xlink:href="#DejaVuSans-5f" transform="translate(462.451172 0)"/>
      <use xlink:href="#DejaVuSans-58" transform="translate(512.451172 0)"/>
     </g>
    </g>
   </g>
   <g id="text_6">
    <g clip-path="url(#p505b90fa22)">
     <!-- A_import -->
     <g transform="translate(1156.677813 590.103147) scale(0.1 -0.1)">
      <defs>
       <path id="DejaVuSans-41" d="M 2188 4044 
L 1331 1722 
L 3047 1722 
L 2188 4044 
z
M 1831 4666 
L 2547 4666 
L 4325 0 
L 3669 0 
L 3244 1197 
L 1141 1197 
L 716 0 
L 50 0 
L 1831 4666 
z
" transform="scale(0.015625)"/>
       <path id="DejaVuSans-69" d="M 603 3500 
L 1178 3500 
L 1178 0 
L 603 0 
L 603 3500 
z
M 603 4863 
L 1178 4863 
L 1178 4134 
L 603 4134 
L 603 4863 
z
" transform="scale(0.015625)"/>
       <path id="DejaVuSans-6d" d="M 3328 2828 
Q 3544 3216 3844 3400 
Q 4144 3584 4550 3584 
Q 5097 3584 5394 3201 
Q 5691 2819 5691 2113 
L 5691 0 
L 5113 0 
L 5113 2094 
Q 5113 2597 4934 2840 
Q 4756 3084 4391 3084 
Q 3944 3084 3684 2787 
Q 3425 2491 3425 1978 
L 3425 0 
L 2847 0 
L 2847 2094 
Q 2847 2600 2669 2842 
Q 2491 3084 2119 3084 
Q 1678 3084 1418 2786 
Q 1159 2488 1159 1978 
L 1159 0 
L 581 0 
L 581 3500 
L 1159 3500 
L 1159 2956 
Q 1356 3278 1631 3431 
Q 1906 3584 2284 3584 
Q 2666 3584 2933 3390 
Q 3200 3197 3328 2828 
z
" transform="scale(0.015625)"/>
       <path id="DejaVuSans-70" d="M 1159 525 
L 1159 -1331 
L 581 -1331 
L 581 3500 
L 1159 3500 
L 1159 2969 
Q 1341 3281 1617 3432 
Q 1894 3584 2278 3584 
Q 2916 3584 3314 3078 
Q 3713 2572 3713 1747 
Q 3713 922 3314 415 
Q 2916 -91 2278 -91 
Q 1894 -91 1617 61 
Q 1341 213 1159 525 
z
M 3116 1747 
Q 3116 2381 2855 2742 
Q 2594 3103 2138 3103 
Q 1681 3103 1420 2742 
Q 1159 2381 1159 1747 
Q 1159 1113 1420 752 
Q 1681 391 2138 391 
Q 2594 391 2855 752 
Q 3116 1113 3116 1747 
z
" transform="scale(0.015625)"/>
       <path id="DejaVuSans-6f" d="M 1959 3097 
Q 1497 3097 1228 2736 
Q 959 2375 959 1747 
Q 959 1119 1226 758 
Q 1494 397 1959 397 
Q 2419 397 2687 759 
Q 2956 1122 2956 1747 
Q 2956 2369 2687 2733 
Q 2419 3097 1959 3097 
z
M 1959 3584 
Q 2709 3584 3137 3096 
Q 3566 2609 3566 1747 
Q 3566 888 3137 398 
Q 2709 -91 1959 -91 
Q 1206 -91 779 398 
Q 353 888 353 1747 
Q 353 2609 779 3096 
Q 1206 3584 1959 3584 
z
" transform="scale(0.015625)"/>
       <path id="DejaVuSans-72" d="M 2631 2963 
Q 2534 3019 2420 3045 
Q 2306 3072 2169 3072 
Q 1681 3072 1420 2755 
Q 1159 2438 1159 1844 
L 1159 0 
L 581 0 
L 581 3500 
L 1159 3500 
L 1159 2956 
Q 1341 3275 1631 3429 
Q 1922 3584 2338 3584 
Q 2397 3584 2469 3576 
Q 2541 3569 2628 3553 
L 2631 2963 
z
" transform="scale(0.015625)"/>
       <path id="DejaVuSans-74" d="M 1172 4494 
L 1172 3500 
L 2356 3500 
L 2356 3053 
L 1172 3053 
L 1172 1153 
Q 1172 725 1289 603 
Q 1406 481 1766 481 
L 2356 481 
L 2356 0 
L 1766 0 
Q 1100 0 847 248 
Q 594 497 594 1153 
L 594 3053 
L 172 3053 
L 172 3500 
L 594 3500 
L 594 4494 
L 1172 4494 
z
" transform="scale(0.015625)"/>
      </defs>
      <use xlink:href="#DejaVuSans-41"/>
      <use xlink:href="#DejaVuSans-5f" transform="translate(68.408203 0)"/>
      <use xlink:href="#DejaVuSans-69" transform="translate(118.408203 0)"/>
      <use xlink:href="#DejaVuSans-6d" transform="translate(146.191406 0)"/>
      <use xlink:href="#DejaVuSans-70" transform="translate(243.603516 0)"/>
      <use xlink:href="#DejaVuSans-6f" transform="translate(307.080078 0)"/>
      <use xlink:href="#DejaVuSans-72" transform="translate(368.261719 0)"/>
      <use xlink:href="#DejaVuSans-74" transform="translate(409.375 0)"/>
     </g>
    </g>
   </g>
   <g id="text_7">
    <g clip-path="url(#p505b90fa22)">
     <!-- U_exp -->
     <g transform="translate(400.611089 882.957238) scale(0.1 -0.1)">
      <defs>
       <path id="DejaVuSans-55" d="M 556 4666 
L 1191 4666 
L 1191 1831 
Q 1191 1081 1462 751 
Q 1734 422 2344 422 
Q 2950 422 3222 751 
Q 3494 1081 3494 1831 
L 3494 4666 
L 4128 4666 
L 4128 1753 
Q 4128 841 3676 375 
Q 3225 -91 2344 -91 
Q 1459 -91 1007 375 
Q 556 841 556 1753 
L 556 4666 
z
" transform="scale(0.015625)"/>
       <path id="DejaVuSans-65" d="M 3597 1894 
L 3597 1613 
L 953 1613 
Q 991 1019 1311 708 
Q 1631 397 2203 397 
Q 2534 397 2845 478 
Q 3156 559 3463 722 
L 3463 178 
Q 3153 47 2828 -22 
Q 2503 -91 2169 -91 
Q 1331 -91 842 396 
Q 353 884 353 1716 
Q 353 2575 817 3079 
Q 1281 3584 2069 3584 
Q 2775 3584 3186 3129 
Q 3597 2675 3597 1894 
z
M 3022 2063 
Q 3016 2534 2758 2815 
Q 2500 3097 2075 3097 
Q 1594 3097 1305 2825 
Q 1016 2553 972 2059 
L 3022 2063 
z
" transform="scale(0.015625)"/>
       <path id="DejaVuSans-78" d="M 3513 3500 
L 2247 1797 
L 3578 0 
L 2900 0 
L 1881 1375 
L 863 0 
L 184 0 
L 1544 1831 
L 300 3500 
L 978 3500 
L 1906 2253 
L 2834 3500 
L 3513 3500 
z
" transform="scale(0.015625)"/>
      </defs>
      <use xlink:href="#DejaVuSans-55"/>
      <use xlink:href="#DejaVuSans-5f" transform="translate(73.193359 0)"/>
      <use xlink:href="#DejaVuSans-65" transform="translate(123.193359 0)"/>
      <use xlink:href="#DejaVuSans-78" transform="translate(182.966797 0)"/>
      <use xlink:href="#DejaVuSans-70" transform="translate(242.146484 0)"/>
     </g>
    </g>
   </g>
   <g id="text_8">
    <g clip-path="url(#p505b90fa22)">
     <!-- V_exp -->
     <g transform="translate(712.796318 1038.977268) scale(0.1 -0.1)">
      <use xlink:href="#DejaVuSans-56"/>
      <use xlink:href="#DejaVuSans-5f" transform="translate(68.408203 0)"/>
      <use xlink:href="#DejaVuSans-65" transform="translate(118.408203 0)"/>
      <use xlink:href="#DejaVuSans-78" transform="translate(178.181641 0)"/>
      <use xlink:href="#DejaVuSans-70" transform="translate(237.361328 0)"/>
     </g>
    </g>
   </g>
   <g id="text_9">
    <g clip-path="url(#p505b90fa22)">
     <!-- R_E__M -->
     <g transform="translate(340.992499 1113.992469) scale(0.1 -0.1)">
      <defs>
       <path id="DejaVuSans-45" d="M 628 4666 
L 3578 4666 
L 3578 4134 
L 1259 4134 
L 1259 2753 
L 3481 2753 
L 3481 2222 
L 1259 2222 
L 1259 531 
L 3634 531 
L 3634 0 
L 628 0 
L 628 4666 
z
" transform="scale(0.015625)"/>
       <path id="DejaVuSans-4d" d="M 628 4666 
L 1569 4666 
L 2759 1491 
L 3956 4666 
L 4897 4666 
L 4897 0 
L 4281 0 
L 4281 4097 
L 3078 897 
L 2444 897 
L 1241 4097 
L 1241 0 
L 628 0 
L 628 4666 
z
" transform="scale(0.015625)"/>
      </defs>
      <use xlink:href="#DejaVuSans-52"/>
      <use xlink:href="#DejaVuSans-5f" transform="translate(69.482422 0)"/>
      <use xlink:href="#DejaVuSans-45" transform="translate(119.482422 0)"/>
      <use xlink:href="#DejaVuSans-5f" transform="translate(182.666016 0)"/>
      <use xlink:href="#DejaVuSans-5f" transform="translate(232.666016 0)"/>
      <use xlink:href="#DejaVuSans-4d" transform="translate(282.666016 0)"/>
     </g>
    </g>
   </g>
   <g id="text_10">
    <g clip-path="url(#p505b90fa22)">
     <!-- N_exp -->
     <g transform="translate(473.479808 1013.479631) scale(0.1 -0.1)">
      <defs>
       <path id="DejaVuSans-4e" d="M 628 4666 
L 1478 4666 
L 3547 763 
L 3547 4666 
L 4159 4666 
L 4159 0 
L 3309 0 
L 1241 3903 
L 1241 0 
L 628 0 
L 628 4666 
z
" transform="scale(0.015625)"/>
      </defs>
      <use xlink:href="#DejaVuSans-4e"/>
      <use xlink:href="#DejaVuSans-5f" transform="translate(74.804688 0)"/>
      <use xlink:href="#DejaVuSans-65" transform="translate(124.804688 0)"/>
      <use xlink:href="#DejaVuSans-78" transform="translate(184.578125 0)"/>
      <use xlink:href="#DejaVuSans-70" transform="translate(243.757812 0)"/>
     </g>
    </g>
   </g>
   <g id="text_11">
    <g clip-path="url(#p505b90fa22)">
     <!-- R_C_H__I -->
     <g transform="translate(949.495172 632.201328) scale(0.1 -0.1)">
      <defs>
       <path id="DejaVuSans-43" d="M 4122 4306 
L 4122 3641 
Q 3803 3938 3442 4084 
Q 3081 4231 2675 4231 
Q 1875 4231 1450 3742 
Q 1025 3253 1025 2328 
Q 1025 1406 1450 917 
Q 1875 428 2675 428 
Q 3081 428 3442 575 
Q 3803 722 4122 1019 
L 4122 359 
Q 3791 134 3420 21 
Q 3050 -91 2638 -91 
Q 1578 -91 968 557 
Q 359 1206 359 2328 
Q 359 3453 968 4101 
Q 1578 4750 2638 4750 
Q 3056 4750 3426 4639 
Q 3797 4528 4122 4306 
z
" transform="scale(0.015625)"/>
      </defs>
      <use xlink:href="#DejaVuSans-52"/>
      <use xlink:href="#DejaVuSans-5f" transform="translate(69.482422 0)"/>
      <use xlink:href="#DejaVuSans-43" transform="translate(119.482422 0)"/>
      <use xlink:href="#DejaVuSans-5f" transform="translate(189.306641 0)"/>
      <use xlink:href="#DejaVuSans-48" transform="translate(239.306641 0)"/>
      <use xlink:href="#DejaVuSans-5f" transform="translate(314.501953 0)"/>
      <use xlink:href="#DejaVuSans-5f" transform="translate(364.501953 0)"/>
      <use xlink:href="#DejaVuSans-49" transform="translate(414.501953 0)"/>
     </g>
    </g>
   </g>
   <g id="text_12">
    <g clip-path="url(#p505b90fa22)">
     <!-- R_K__O -->
     <g transform="translate(1001.313396 675.452085) scale(0.1 -0.1)">
      <use xlink:href="#DejaVuSans-52"/>
      <use xlink:href="#DejaVuSans-5f" transform="translate(69.482422 0)"/>
      <use xlink:href="#DejaVuSans-4b" transform="translate(119.482422 0)"/>
      <use xlink:href="#DejaVuSans-5f" transform="translate(185.058594 0)"/>
      <use xlink:href="#DejaVuSans-5f" transform="translate(235.058594 0)"/>
      <use xlink:href="#DejaVuSans-4f" transform="translate(285.058594 0)"/>
     </g>
    </g>
   </g>
   <g id="text_13">
    <g clip-path="url(#p505b90fa22)">
     <!-- R_A_B__G_H -->
     <g transform="translate(1061.718465 570.324739) scale(0.1 -0.1)">
      <defs>
       <path id="DejaVuSans-42" d="M 1259 2228 
L 1259 519 
L 2272 519 
Q 2781 519 3026 730 
Q 3272 941 3272 1375 
Q 3272 1813 3026 2020 
Q 2781 2228 2272 2228 
L 1259 2228 
z
M 1259 4147 
L 1259 2741 
L 2194 2741 
Q 2656 2741 2882 2914 
Q 3109 3088 3109 3444 
Q 3109 3797 2882 3972 
Q 2656 4147 2194 4147 
L 1259 4147 
z
M 628 4666 
L 2241 4666 
Q 2963 4666 3353 4366 
Q 3744 4066 3744 3513 
Q 3744 3084 3544 2831 
Q 3344 2578 2956 2516 
Q 3422 2416 3680 2098 
Q 3938 1781 3938 1306 
Q 3938 681 3513 340 
Q 3088 0 2303 0 
L 628 0 
L 628 4666 
z
" transform="scale(0.015625)"/>
      </defs>
      <use xlink:href="#DejaVuSans-52"/>
      <use xlink:href="#DejaVuSans-5f" transform="translate(69.482422 0)"/>
      <use xlink:href="#DejaVuSans-41" transform="translate(119.482422 0)"/>
      <use xlink:href="#DejaVuSans-5f" transform="translate(187.890625 0)"/>
      <use xlink:href="#DejaVuSans-42" transform="translate(237.890625 0)"/>
      <use xlink:href="#DejaVuSans-5f" transform="translate(306.494141 0)"/>
      <use xlink:href="#DejaVuSans-5f" transform="translate(356.494141 0)"/>
      <use xlink:href="#DejaVuSans-47" transform="translate(406.494141 0)"/>
      <use xlink:href="#DejaVuSans-5f" transform="translate(483.984375 0)"/>
      <use xlink:href="#DejaVuSans-48" transform="translate(533.984375 0)"/>
     </g>
    </g>
   </g>
   <g id="text_14">
    <g clip-path="url(#p505b90fa22)">
     <!-- R_C_D__J -->
     <g transform="translate(851.545271 631.7095) scale(0.1 -0.1)">
      <defs>
       <path id="DejaVuSans-44" d="M 1259 4147 
L 1259 519 
L 2022 519 
Q 2988 519 3436 956 
Q 3884 1394 3884 2338 
Q 3884 3275 3436 3711 
Q 2988 4147 2022 4147 
L 1259 4147 
z
M 628 4666 
L 1925 4666 
Q 3281 4666 3915 4102 
Q 4550 3538 4550 2338 
Q 4550 1131 3912 565 
Q 3275 0 1925 0 
L 628 0 
L 628 4666 
z
" transform="scale(0.015625)"/>
       <path id="DejaVuSans-4a" d="M 628 4666 
L 1259 4666 
L 1259 325 
Q 1259 -519 939 -900 
Q 619 -1281 -91 -1281 
L -331 -1281 
L -331 -750 
L -134 -750 
Q 284 -750 456 -515 
Q 628 -281 628 325 
L 628 4666 
z
" transform="scale(0.015625)"/>
      </defs>
      <use xlink:href="#DejaVuSans-52"/>
      <use xlink:href="#DejaVuSans-5f" transform="translate(69.482422 0)"/>
      <use xlink:href="#DejaVuSans-43" transform="translate(119.482422 0)"/>
      <use xlink:href="#DejaVuSans-5f" transform="translate(189.306641 0)"/>
      <use xlink:href="#DejaVuSans-44" transform="translate(239.306641 0)"/>
      <use xlink:href="#DejaVuSans-5f" transform="translate(316.308594 0)"/>
      <use xlink:href="#DejaVuSans-5f" transform="translate(366.308594 0)"/>
      <use xlink:href="#DejaVuSans-4a" transform="translate(416.308594 0)"/>
     </g>
    </g>
   </g>
   <g id="text_15">
    <g clip-path="url(#p505b90fa22)">
     <!-- R_J__Q -->
     <g transform="translate(817.702 737.44994) scale(0.1 -0.1)">
      <defs>
       <path id="DejaVuSans-51" d="M 2522 4238 
Q 1834 4238 1429 3725 
Q 1025 3213 1025 2328 
Q 1025 1447 1429 934 
Q 1834 422 2522 422 
Q 3209 422 3611 934 
Q 4013 1447 4013 2328 
Q 4013 3213 3611 3725 
Q 3209 4238 2522 4238 
z
M 3406 84 
L 4238 -825 
L 3475 -825 
L 2784 -78 
Q 2681 -84 2626 -87 
Q 2572 -91 2522 -91 
Q 1538 -91 948 567 
Q 359 1225 359 2328 
Q 359 3434 948 4092 
Q 1538 4750 2522 4750 
Q 3503 4750 4090 4092 
Q 4678 3434 4678 2328 
Q 4678 1516 4351 937 
Q 4025 359 3406 84 
z
" transform="scale(0.015625)"/>
      </defs>
      <use xlink:href="#DejaVuSans-52"/>
      <use xlink:href="#DejaVuSans-5f" transform="translate(69.482422 0)"/>
      <use xlink:href="#DejaVuSans-4a" transform="translate(119.482422 0)"/>
      <use xlink:href="#DejaVuSans-5f" transform="translate(148.974609 0)"/>
      <use xlink:href="#DejaVuSans-5f" transform="translate(198.974609 0)"/>
      <use xlink:href="#DejaVuSans-51" transform="translate(248.974609 0)"/>
     </g>
    </g>
   </g>
   <g id="text_16">
    <g clip-path="url(#p505b90fa22)">
     <!-- R_exp -->
     <g transform="translate(985.728795 893.596043) scale(0.1 -0.1)">
      <use xlink:href="#DejaVuSans-52"/>
      <use xlink:href="#DejaVuSans-5f" transform="translate(69.482422 0)"/>
      <use xlink:href="#DejaVuSans-65" transform="translate(119.482422 0)"/>
      <use xlink:href="#DejaVuSans-78" transform="translate(179.255859 0)"/>
      <use xlink:href="#DejaVuSans-70" transform="translate(238.435547 0)"/>
     </g>
    </g>
   </g>
   <g id="text_17">
    <g clip-path="url(#p505b90fa22)">
     <!-- W_exp -->
     <g transform="translate(991.154658 291.42038) scale(0.1 -0.1)">
      <defs>
       <path id="DejaVuSans-57" d="M 213 4666 
L 850 4666 
L 1831 722 
L 2809 4666 
L 3519 4666 
L 4500 722 
L 5478 4666 
L 6119 4666 
L 4947 0 
L 4153 0 
L 3169 4050 
L 2175 0 
L 1381 0 
L 213 4666 
z
" transform="scale(0.015625)"/>
      </defs>
      <use xlink:href="#DejaVuSans-57"/>
      <use xlink:href="#DejaVuSans-5f" transform="translate(98.876953 0)"/>
      <use xlink:href="#DejaVuSans-65" transform="translate(148.876953 0)"/>
      <use xlink:href="#DejaVuSans-78" transform="translate(208.650391 0)"/>
      <use xlink:href="#DejaVuSans-70" transform="translate(267.830078 0)"/>
     </g>
    </g>
   </g>
   <g id="text_18">
    <g clip-path="url(#p505b90fa22)">
     <!-- C_import -->
     <g transform="translate(893.8043 583.502013) scale(0.1 -0.1)">
      <use xlink:href="#DejaVuSans-43"/>
      <use xlink:href="#DejaVuSans-5f" transform="translate(69.824219 0)"/>
      <use xlink:href="#DejaVuSans-69" transform="translate(119.824219 0)"/>
      <use xlink:href="#DejaVuSans-6d" transform="translate(147.607422 0)"/>
      <use xlink:href="#DejaVuSans-70" transform="translate(245.019531 0)"/>
      <use xlink:href="#DejaVuSans-6f" transform="translate(308.496094 0)"/>
      <use xlink:href="#DejaVuSans-72" transform="translate(369.677734 0)"/>
      <use xlink:href="#DejaVuSans-74" transform="translate(410.791016 0)"/>
     </g>
    </g>
   </g>
   <g id="text_19">
    <g clip-path="url(#p505b90fa22)">
     <!-- F_import -->
     <g transform="translate(343.22163 1025.103008) scale(0.1 -0.1)">
      <defs>
       <path id="DejaVuSans-46" d="M 628 4666 
L 3309 4666 
L 3309 4134 
L 1259 4134 
L 1259 2759 
L 3109 2759 
L 3109 2228 
L 1259 2228 
L 1259 0 
L 628 0 
L 628 4666 
z
" transform="scale(0.015625)"/>
      </defs>
      <use xlink:href="#DejaVuSans-46"/>
      <use xlink:href="#DejaVuSans-5f" transform="translate(57.519531 0)"/>
      <use xlink:href="#DejaVuSans-69" transform="translate(107.519531 0)"/>
      <use xlink:href="#DejaVuSans-6d" transform="translate(135.302734 0)"/>
      <use xlink:href="#DejaVuSans-70" transform="translate(232.714844 0)"/>
      <use xlink:href="#DejaVuSans-6f" transform="translate(296.191406 0)"/>
      <use xlink:href="#DejaVuSans-72" transform="translate(357.373047 0)"/>
      <use xlink:href="#DejaVuSans-74" transform="translate(398.486328 0)"/>
     </g>
    </g>
   </g>
   <g id="text_20">
    <g clip-path="url(#p505b90fa22)">
     <!-- R_N__T -->
     <g transform="translate(531.268979 986.849113) scale(0.1 -0.1)">
      <use xlink:href="#DejaVuSans-52"/>
      <use xlink:href="#DejaVuSans-5f" transform="translate(69.482422 0)"/>
      <use xlink:href="#DejaVuSans-4e" transform="translate(119.482422 0)"/>
      <use xlink:href="#DejaVuSans-5f" transform="translate(194.287109 0)"/>
      <use xlink:href="#DejaVuSans-5f" transform="translate(244.287109 0)"/>
      <use xlink:href="#DejaVuSans-54" transform="translate(294.287109 0)"/>
     </g>
    </g>
   </g>
   <g id="text_21">
    <g clip-path="url(#p505b90fa22)">
     <!-- D_import -->
     <g transform="translate(790.065695 564.109716) scale(0.1 -0.1)">
      <use xlink:href="#DejaVuSans-44"/>
      <use xlink:href="#DejaVuSans-5f" transform="translate(77.001953 0)"/>
      <use xlink:href="#DejaVuSans-69" transform="translate(127.001953 0)"/>
      <use xlink:href="#DejaVuSans-6d" transform="translate(154.785156 0)"/>
      <use xlink:href="#DejaVuSans-70" transform="translate(252.197266 0)"/>
      <use xlink:href="#DejaVuSans-6f" transform="translate(315.673828 0)"/>
      <use xlink:href="#DejaVuSans-72" transform="translate(376.855469 0)"/>
      <use xlink:href="#DejaVuSans-74" transform="translate(417.96875 0)"/>
     </g>
    </g>
   </g>
   <g id="text_22">
    <g clip-path="url(#p505b90fa22)">
     <!-- E_import -->
     <g transform="translate(274.725312 1168.081182) scale(0.1 -0.1)">
      <use xlink:href="#DejaVuSans-45"/>
      <use xlink:href="#DejaVuSans-5f" transform="translate(63.183594 0)"/>
      <use xlink:href="#DejaVuSans-69" transform="translate(113.183594 0)"/>
      <use xlink:href="#DejaVuSans-6d" transform="translate(140.966797 0)"/>
      <use xlink:href="#DejaVuSans-70" transform="translate(238.378906 0)"/>
      <use xlink:href="#DejaVuSans-6f" transform="translate(301.855469 0)"/>
      <use xlink:href="#DejaVuSans-72" transform="translate(363.037109 0)"/>
      <use xlink:href="#DejaVuSans-74" transform="translate(404.150391 0)"/>
     </g>
    </g>
   </g>
   <g id="text_23">
    <g clip-path="url(#p505b90fa22)">
     <!-- B_import -->
     <g transform="translate(1150.785285 516.521872) scale(0.1 -0.1)">
      <use xlink:href="#DejaVuSans-42"/>
      <use xlink:href="#DejaVuSans-5f" transform="translate(68.603516 0)"/>
      <use xlink:href="#DejaVuSans-69" transform="translate(118.603516 0)"/>
      <use xlink:href="#DejaVuSans-6d" transform="translate(146.386719 0)"/>
      <use xlink:href="#DejaVuSans-70" transform="translate(243.798828 0)"/>
      <use xlink:href="#DejaVuSans-6f" transform="translate(307.275391 0)"/>
      <use xlink:href="#DejaVuSans-72" transform="translate(368.457031 0)"/>
      <use xlink:href="#DejaVuSans-74" transform="translate(409.570312 0)"/>
     </g>
    </g>
   </g>
   <g id="text_24">
    <g clip-path="url(#p505b90fa22)">
     <!-- G_import -->
     <g transform="translate(1083.303686 491.696464) scale(0.1 -0.1)">
      <use xlink:href="#DejaVuSans-47"/>
      <use xlink:href="#DejaVuSans-5f" transform="translate(77.490234 0)"/>
      <use xlink:href="#DejaVuSans-69" transform="translate(127.490234 0)"/>
      <use xlink:href="#DejaVuSans-6d" transform="translate(155.273438 0)"/>
      <use xlink:href="#DejaVuSans-70" transform="translate(252.685547 0)"/>
      <use xlink:href="#DejaVuSans-6f" transform="translate(316.162109 0)"/>
      <use xlink:href="#DejaVuSans-72" transform="translate(377.34375 0)"/>
      <use xlink:href="#DejaVuSans-74" transform="translate(418.457031 0)"/>
     </g>
    </g>
   </g>
   <g id="text_25">
    <g clip-path="url(#p505b90fa22)">
     <!-- R_P_Q__S -->
     <g transform="translate(810.075809 844.716839) scale(0.1 -0.1)">
      <use xlink:href="#DejaVuSans-52"/>
      <use xlink:href="#DejaVuSans-5f" transform="translate(69.482422 0)"/>
      <use xlink:href="#DejaVuSans-50" transform="translate(119.482422 0)"/>
      <use xlink:href="#DejaVuSans-5f" transform="translate(179.785156 0)"/>
      <use xlink:href="#DejaVuSans-51" transform="translate(229.785156 0)"/>
      <use xlink:href="#DejaVuSans-5f" transform="translate(308.496094 0)"/>
      <use xlink:href="#DejaVuSans-5f" transform="translate(358.496094 0)"/>
      <use xlink:href="#DejaVuSans-53" transform="translate(408.496094 0)"/>
     </g>
    </g>
   </g>
   <g id="text_26">
    <g clip-path="url(#p505b90fa22)">
     <!-- X_exp -->
     <g transform="translate(658.448076 1034.928897) scale(0.1 -0.1)">
      <use xlink:href="#DejaVuSans-58"/>
      <use xlink:href="#DejaVuSans-5f" transform="translate(68.505859 0)"/>
      <use xlink:href="#DejaVuSans-65" transform="translate(118.505859 0)"/>
      <use xlink:href="#DejaVuSans-78" transform="translate(178.279297 0)"/>
      <use xlink:href="#DejaVuSans-70" transform="translate(237.458984 0)"/>
     </g>
    </g>
   </g>
   <g id="text_27">
    <g clip-path="url(#p505b90fa22)">
     <!-- R_F_M__N -->
     <g transform="translate(415.344513 1031.117434) scale(0.1 -0.1)">
      <use xlink:href="#DejaVuSans-52"/>
      <use xlink:href="#DejaVuSans-5f" transform="translate(69.482422 0)"/>
      <use xlink:href="#DejaVuSans-46" transform="translate(119.482422 0)"/>
      <use xlink:href="#DejaVuSans-5f" transform="translate(177.001953 0)"/>
      <use xlink:href="#DejaVuSans-4d" transform="translate(227.001953 0)"/>
      <use xlink:href="#DejaVuSans-5f" transform="translate(313.28125 0)"/>
      <use xlink:href="#DejaVuSans-5f" transform="translate(363.28125 0)"/>
      <use xlink:href="#DejaVuSans-4e" transform="translate(413.28125 0)"/>
     </g>
    </g>
   </g>
   <g id="text_28">
    <g clip-path="url(#p505b90fa22)">
     <!-- R_N__U -->
     <g transform="translate(450.787837 955.14905) scale(0.1 -0.1)">
      <use xlink:href="#DejaVuSans-52"/>
      <use xlink:href="#DejaVuSans-5f" transform="translate(69.482422 0)"/>
      <use xlink:href="#DejaVuSans-4e" transform="translate(119.482422 0)"/>
      <use xlink:href="#DejaVuSans-5f" transform="translate(194.287109 0)"/>
      <use xlink:href="#DejaVuSans-5f" transform="translate(244.287109 0)"/>
      <use xlink:href="#DejaVuSans-55" transform="translate(294.287109 0)"/>
     </g>
    </g>
   </g>
   <g id="text_29">
    <g clip-path="url(#p505b90fa22)">
     <!-- R_L__W -->
     <g transform="translate(1011.181872 391.549742) scale(0.1 -0.1)">
      <use xlink:href="#DejaVuSans-52"/>
      <use xlink:href="#DejaVuSans-5f" transform="translate(69.482422 0)"/>
      <use xlink:href="#DejaVuSans-4c" transform="translate(119.482422 0)"/>
      <use xlink:href="#DejaVuSans-5f" transform="translate(175.195312 0)"/>
      <use xlink:href="#DejaVuSans-5f" transform="translate(225.195312 0)"/>
      <use xlink:href="#DejaVuSans-57" transform="translate(275.195312 0)"/>
     </g>
    </g>
   </g>
   <g id="EdgeCollection_1">
    <path d="M 1056.891823 591.468866 
L 1075.948044 578.682552 
" clip-path="url(#p505b90fa22)" style="fill: none; stroke: #000000; stroke-width: 1.5"/>
    <path d="M 1037.501949 613.117304 
L 1022.780095 662.03021 
" clip-path="url(#p505b90fa22)" style="fill: none; stroke: #000000; stroke-width: 1.5"/>
    <path d="M 1042.046217 591.468866 
L 1048.358244 538.356622 
" clip-path="url(#p505b90fa22)" style="fill: none; stroke: #000000; stroke-width: 1.5"/>
    <path d="M 1014.132977 612.847697 
L 999.168522 618.779453 
" clip-path="url(#p505b90fa22)" style="fill: none; stroke: #000000; stroke-width: 1.5"/>
    <path d="M 922.309499 765.765282 
L 942.367034 793.046572 
" clip-path="url(#p505b90fa22)" style="fill: none; stroke: #000000; stroke-width: 1.5"/>
    <path d="M 904.341989 765.765282 
L 843.745126 831.294964 
" clip-path="url(#p505b90fa22)" style="fill: none; stroke: #000000; stroke-width: 1.5"/>
    <path d="M 919.306309 744.116844 
L 966.711005 640.55914 
" clip-path="url(#p505b90fa22)" style="fill: none; stroke: #000000; stroke-width: 1.5"/>
    <path d="M 1047.39515 538.356622 
L 1021.759737 662.03021 
" clip-path="url(#p505b90fa22)" style="fill: none; stroke: #000000; stroke-width: 1.5"/>
    <path d="M 1061.136232 538.356622 
L 1080.694035 556.902864 
" clip-path="url(#p505b90fa22)" style="fill: none; stroke: #000000; stroke-width: 1.5"/>
    <path d="M 1065.688821 516.576934 
L 1090.020101 500.054277 
" clip-path="url(#p505b90fa22)" style="fill: none; stroke: #000000; stroke-width: 1.5"/>
    <path d="M 1048.097092 516.576934 
L 1031.431741 399.892711 
" clip-path="url(#p505b90fa22)" style="fill: none; stroke: #000000; stroke-width: 1.5"/>
    <path d="M 956.675602 814.826259 
L 994.561426 880.290575 
" clip-path="url(#p505b90fa22)" style="fill: none; stroke: #000000; stroke-width: 1.5"/>
    <path d="M 956.119263 793.046572 
L 1013.756574 683.809898 
" clip-path="url(#p505b90fa22)" style="fill: none; stroke: #000000; stroke-width: 1.5"/>
    <path d="M 918.10873 814.511295 
L 865.50452 831.752554 
" clip-path="url(#p505b90fa22)" style="fill: none; stroke: #000000; stroke-width: 1.5"/>
    <path d="M 694.258877 961.229158 
L 676.651441 1021.623429 
" clip-path="url(#p505b90fa22)" style="fill: none; stroke: #000000; stroke-width: 1.5"/>
    <path d="M 660.033035 958.915631 
L 575.33021 978.338758 
" clip-path="url(#p505b90fa22)" style="fill: none; stroke: #000000; stroke-width: 1.5"/>
    <path d="M 701.276854 961.229158 
L 724.019311 1025.671799 
" clip-path="url(#p505b90fa22)" style="fill: none; stroke: #000000; stroke-width: 1.5"/>
    <path d="M 711.151562 939.449471 
L 819.957184 853.074652 
" clip-path="url(#p505b90fa22)" style="fill: none; stroke: #000000; stroke-width: 1.5"/>
    <path d="M 1147.836407 580.399845 
L 1130.655184 576.508152 
" clip-path="url(#p505b90fa22)" style="fill: none; stroke: #000000; stroke-width: 1.5"/>
    <path d="M 423.880101 891.300207 
L 461.175075 941.843581 
" clip-path="url(#p505b90fa22)" style="fill: none; stroke: #000000; stroke-width: 1.5"/>
    <path d="M 369.929233 1100.687 
L 429.260123 1039.460403 
" clip-path="url(#p505b90fa22)" style="fill: none; stroke: #000000; stroke-width: 1.5"/>
    <path d="M 346.891028 1122.335437 
L 309.62084 1154.482745 
" clip-path="url(#p505b90fa22)" style="fill: none; stroke: #000000; stroke-width: 1.5"/>
    <path d="M 485.190943 1000.174162 
L 472.814202 963.492019 
" clip-path="url(#p505b90fa22)" style="fill: none; stroke: #000000; stroke-width: 1.5"/>
    <path d="M 512.441136 1000.558445 
L 524.571065 995.192082 
" clip-path="url(#p505b90fa22)" style="fill: none; stroke: #000000; stroke-width: 1.5"/>
    <path d="M 465.245043 1019.476375 
L 469.877838 1017.811966 
" clip-path="url(#p505b90fa22)" style="fill: none; stroke: #000000; stroke-width: 1.5"/>
    <path d="M 959.332023 618.779453 
L 928.768461 591.859825 
" clip-path="url(#p505b90fa22)" style="fill: none; stroke: #000000; stroke-width: 1.5"/>
    <path d="M 992.899917 618.779453 
L 1070.973876 578.682552 
" clip-path="url(#p505b90fa22)" style="fill: none; stroke: #000000; stroke-width: 1.5"/>
    <path d="M 941.477887 629.517426 
L 904.144294 629.329793 
" clip-path="url(#p505b90fa22)" style="fill: none; stroke: #000000; stroke-width: 1.5"/>
    <path d="M 1108.554997 556.902864 
L 1156.714425 524.879684 
" clip-path="url(#p505b90fa22)" style="fill: none; stroke: #000000; stroke-width: 1.5"/>
    <path d="M 1094.115832 556.902864 
L 1104.232795 500.054277 
" clip-path="url(#p505b90fa22)" style="fill: none; stroke: #000000; stroke-width: 1.5"/>
    <path d="M 883.411772 618.287625 
L 906.650795 591.859825 
" clip-path="url(#p505b90fa22)" style="fill: none; stroke: #000000; stroke-width: 1.5"/>
    <path d="M 869.74231 640.067312 
L 838.180742 724.028065 
" clip-path="url(#p505b90fa22)" style="fill: none; stroke: #000000; stroke-width: 1.5"/>
    <path d="M 864.036267 618.287625 
L 822.80336 572.467529 
" clip-path="url(#p505b90fa22)" style="fill: none; stroke: #000000; stroke-width: 1.5"/>
    <path d="M 834.045317 745.807753 
L 833.716867 831.294964 
" clip-path="url(#p505b90fa22)" style="fill: none; stroke: #000000; stroke-width: 1.5"/>
    <path d="M 1010.117122 299.763349 
L 1027.489721 378.244273 
" clip-path="url(#p505b90fa22)" style="fill: none; stroke: #000000; stroke-width: 1.5"/>
    <path d="M 395.380321 1024.978471 
L 407.326544 1025.963302 
" clip-path="url(#p505b90fa22)" style="fill: none; stroke: #000000; stroke-width: 1.5"/>
    <path d="M 522.745249 973.933231 
L 495.610786 963.164443 
" clip-path="url(#p505b90fa22)" style="fill: none; stroke: #000000; stroke-width: 1.5"/>
    <path d="M 522.745249 995.017873 
L 466.471762 1017.811966 
" clip-path="url(#p505b90fa22)" style="fill: none; stroke: #000000; stroke-width: 1.5"/>
    <path d="M 443.940038 1017.811966 
L 464.971218 963.492019 
" clip-path="url(#p505b90fa22)" style="fill: none; stroke: #000000; stroke-width: 1.5"/>
   </g>
   <g id="matplotlib.axis_1"/>
   <g id="matplotlib.axis_2"/>
  </g>
 </g>
 <defs>
  <clipPath id="p505b90fa22">
   <rect x="180" y="172.8" width="1116" height="1108.8"/>
  </clipPath>
 </defs>
</svg>
