<?xml version="1.0" encoding="utf-8" standalone="no"?>
<!DOCTYPE svg PUBLIC "-//W3C//DTD SVG 1.1//EN"
  "http://www.w3.org/Graphics/SVG/1.1/DTD/svg11.dtd">
<svg xmlns:xlink="http://www.w3.org/1999/xlink" width="2160pt" height="2160pt" viewBox="0 0 2160 2160" xmlns="http://www.w3.org/2000/svg" version="1.1">
 <metadata>
  <rdf:RDF xmlns:dc="http://purl.org/dc/elements/1.1/" xmlns:cc="http://creativecommons.org/ns#" xmlns:rdf="http://www.w3.org/1999/02/22-rdf-syntax-ns#">
   <cc:Work>
    <dc:type rdf:resource="http://purl.org/dc/dcmitype/StillImage"/>
    <dc:date>2026-02-16T10:41:29.384057</dc:date>
    <dc:format>image/svg+xml</dc:format>
    <dc:creator>
     <cc:Agent>
      <dc:title>Matplotlib v3.10.8, https://matplotlib.org/</dc:title>
     </cc:Agent>
    </dc:creator>
   </cc:Work>
  </rdf:RDF>
 </metadata>
 <defs>
  <style type="text/css">*{stroke-linejoin: round; stroke-linecap: butt}</style>
 </defs>
 <g id="figure_1">
  <g id="patch_1">
   <path d="M 0 2160 
L 2160 2160 
L 2160 0 
L 0 0 
z
" style="fill: #ffffff"/>
  </g>
  <g id="axes_1">
   <g id="patch_2">
    <path d="M 270 1922.4 
L 1944 1922.4 
L 1944 259.2 
L 270 259.2 
z
" style="fill: #ffffff"/>
   </g>
   <g id="VertexCollection_1">
    <path d="M 1737.389767 1287.341774 
L 1799.930392 1287.341774 
L 1799.930392 1265.385524 
L 1737.389767 1265.385524 
z
" clip-path="url(#p63722b4391)" style="fill: #1f77b4; stroke: #000000; stroke-width: 1.5"/>
    <path d="M 1293.500194 1052.750381 
L 1355.157225 1052.750381 
L 1355.157225 1030.794131 
L 1293.500194 1030.794131 
z
" clip-path="url(#p63722b4391)" style="fill: #1f77b4; stroke: #000000; stroke-width: 1.5"/>
    <path d="M 1302.03491 1723.628921 
L 1364.234324 1723.628921 
L 1364.234324 1701.672671 
L 1302.03491 1701.672671 
z
" clip-path="url(#p63722b4391)" style="fill: #1f77b4; stroke: #000000; stroke-width: 1.5"/>
    <path d="M 1072.538004 1624.182943 
L 1135.034879 1624.182943 
L 1135.034879 1602.226693 
L 1072.538004 1602.226693 
z
" clip-path="url(#p63722b4391)" style="fill: #1f77b4; stroke: #000000; stroke-width: 1.5"/>
    <path d="M 625.146201 1759.169429 
L 686.26124 1759.169429 
L 686.26124 1737.213179 
L 625.146201 1737.213179 
z
" clip-path="url(#p63722b4391)" style="fill: #1f77b4; stroke: #000000; stroke-width: 1.5"/>
    <path d="M 415.065605 1049.70619 
L 475.614237 1049.70619 
L 475.614237 1027.74994 
L 415.065605 1027.74994 
z
" clip-path="url(#p63722b4391)" style="fill: #1f77b4; stroke: #000000; stroke-width: 1.5"/>
    <path d="M 1484.091744 1216.182557 
L 1547.057759 1216.182557 
L 1547.057759 1194.226307 
L 1484.091744 1194.226307 
z
" clip-path="url(#p63722b4391)" style="fill: #1f77b4; stroke: #000000; stroke-width: 1.5"/>
    <path d="M 761.714365 866.776443 
L 808.910459 866.776443 
L 808.910459 845.128006 
L 761.714365 845.128006 
z
" clip-path="url(#p63722b4391)" style="fill: #1f77b4; stroke: #000000; stroke-width: 1.5"/>
    <path d="M 952.500608 666.474059 
L 999.164475 666.474059 
L 999.164475 644.825622 
L 952.500608 644.825622 
z
" clip-path="url(#p63722b4391)" style="fill: #1f77b4; stroke: #000000; stroke-width: 1.5"/>
    <path d="M 546.515999 1134.180169 
L 593.66346 1134.180169 
L 593.66346 1112.531731 
L 546.515999 1112.531731 
z
" clip-path="url(#p63722b4391)" style="fill: #1f77b4; stroke: #000000; stroke-width: 1.5"/>
    <path d="M 1278.5949 444.232914 
L 1326.054471 444.232914 
L 1326.054471 422.584477 
L 1278.5949 422.584477 
z
" clip-path="url(#p63722b4391)" style="fill: #1f77b4; stroke: #000000; stroke-width: 1.5"/>
    <path d="M 607.069217 1458.915772 
L 657.320975 1458.915772 
L 657.320975 1437.267335 
L 607.069217 1437.267335 
z
" clip-path="url(#p63722b4391)" style="fill: #1f77b4; stroke: #000000; stroke-width: 1.5"/>
    <path d="M 1421.579304 593.246304 
L 1468.828328 593.246304 
L 1468.828328 571.597867 
L 1421.579304 571.597867 
z
" clip-path="url(#p63722b4391)" style="fill: #1f77b4; stroke: #000000; stroke-width: 1.5"/>
    <path d="M 1477.527507 1266.277807 
L 1554.482195 1266.277807 
L 1554.482195 1244.498119 
L 1477.527507 1244.498119 
z
" clip-path="url(#p63722b4391)" style="fill: #1f77b4; stroke: #000000; stroke-width: 1.5"/>
    <path d="M 1309.144088 1475.328756 
L 1369.580221 1475.328756 
L 1369.580221 1453.549069 
L 1309.144088 1453.549069 
z
" clip-path="url(#p63722b4391)" style="fill: #1f77b4; stroke: #000000; stroke-width: 1.5"/>
    <path d="M 1134.121696 1620.134984 
L 1194.738493 1620.134984 
L 1194.738493 1598.355297 
L 1134.121696 1598.355297 
z
" clip-path="url(#p63722b4391)" style="fill: #1f77b4; stroke: #000000; stroke-width: 1.5"/>
    <path d="M 1170.361786 1205.676971 
L 1217.96706 1205.676971 
L 1217.96706 1184.028534 
L 1170.361786 1184.028534 
z
" clip-path="url(#p63722b4391)" style="fill: #1f77b4; stroke: #000000; stroke-width: 1.5"/>
    <path d="M 997.937318 1368.311424 
L 1047.162904 1368.311424 
L 1047.162904 1346.531737 
L 997.937318 1346.531737 
z
" clip-path="url(#p63722b4391)" style="fill: #1f77b4; stroke: #000000; stroke-width: 1.5"/>
    <path d="M 655.102223 1500.575485 
L 708.039137 1500.575485 
L 708.039137 1478.927048 
L 655.102223 1478.927048 
z
" clip-path="url(#p63722b4391)" style="fill: #1f77b4; stroke: #000000; stroke-width: 1.5"/>
    <path d="M 652.713151 1126.081545 
L 717.558463 1126.081545 
L 717.558463 1104.433107 
L 652.713151 1104.433107 
z
" clip-path="url(#p63722b4391)" style="fill: #1f77b4; stroke: #000000; stroke-width: 1.5"/>
    <path d="M 874.775312 822.381634 
L 927.360273 822.381634 
L 927.360273 800.733197 
L 874.775312 800.733197 
z
" clip-path="url(#p63722b4391)" style="fill: #1f77b4; stroke: #000000; stroke-width: 1.5"/>
    <path d="M 656.362545 987.018826 
L 709.260006 987.018826 
L 709.260006 965.370389 
L 656.362545 965.370389 
z
" clip-path="url(#p63722b4391)" style="fill: #1f77b4; stroke: #000000; stroke-width: 1.5"/>
    <path d="M 1368.518733 1309.158596 
L 1421.772444 1309.158596 
L 1421.772444 1287.510159 
L 1368.518733 1287.510159 
z
" clip-path="url(#p63722b4391)" style="fill: #1f77b4; stroke: #000000; stroke-width: 1.5"/>
    <path d="M 1212.924425 1284.405945 
L 1276.715246 1284.405945 
L 1276.715246 1262.626257 
L 1212.924425 1262.626257 
z
" clip-path="url(#p63722b4391)" style="fill: #1f77b4; stroke: #000000; stroke-width: 1.5"/>
    <path d="M 1244.765036 1081.653752 
L 1297.59902 1081.653752 
L 1297.59902 1059.874065 
L 1244.765036 1059.874065 
z
" clip-path="url(#p63722b4391)" style="fill: #1f77b4; stroke: #000000; stroke-width: 1.5"/>
    <path d="M 862.00638 1384.358228 
L 916.105599 1384.358228 
L 916.105599 1362.709791 
L 862.00638 1362.709791 
z
" clip-path="url(#p63722b4391)" style="fill: #1f77b4; stroke: #000000; stroke-width: 1.5"/>
    <path d="M 1075.147268 910.95088 
L 1139.676565 910.95088 
L 1139.676565 889.171192 
L 1075.147268 889.171192 
z
" clip-path="url(#p63722b4391)" style="fill: #1f77b4; stroke: #000000; stroke-width: 1.5"/>
    <path d="M 1054.907142 1010.636658 
L 1118.566127 1010.636658 
L 1118.566127 988.856971 
L 1054.907142 988.856971 
z
" clip-path="url(#p63722b4391)" style="fill: #1f77b4; stroke: #000000; stroke-width: 1.5"/>
    <path d="M 1166.954912 678.168305 
L 1241.75628 678.168305 
L 1241.75628 656.388618 
L 1166.954912 656.388618 
z
" clip-path="url(#p63722b4391)" style="fill: #1f77b4; stroke: #000000; stroke-width: 1.5"/>
    <path d="M 1643.858317 1277.600744 
L 1680.061638 1277.600744 
L 1680.061638 1255.821056 
L 1643.858317 1255.821056 
z
" clip-path="url(#p63722b4391)" style="fill: #d62728; stroke: #000000; stroke-width: 1.5"/>
    <path d="M 1429.320217 1136.430484 
L 1464.639944 1136.430484 
L 1464.639944 1114.650796 
L 1429.320217 1114.650796 
z
" clip-path="url(#p63722b4391)" style="fill: #d62728; stroke: #000000; stroke-width: 1.5"/>
    <path d="M 1269.908996 1617.957583 
L 1305.771105 1617.957583 
L 1305.771105 1596.177895 
L 1269.908996 1596.177895 
z
" clip-path="url(#p63722b4391)" style="fill: #d62728; stroke: #000000; stroke-width: 1.5"/>
    <path d="M 1113.770119 1697.492618 
L 1149.92969 1697.492618 
L 1149.92969 1675.71293 
L 1113.770119 1675.71293 
z
" clip-path="url(#p63722b4391)" style="fill: #d62728; stroke: #000000; stroke-width: 1.5"/>
    <path d="M 656.47119 1651.072267 
L 691.248924 1651.072267 
L 691.248924 1629.29258 
L 656.47119 1629.29258 
z
" clip-path="url(#p63722b4391)" style="fill: #d62728; stroke: #000000; stroke-width: 1.5"/>
    <path d="M 528.747794 1080.287637 
L 562.959123 1080.287637 
L 562.959123 1058.507949 
L 528.747794 1058.507949 
z
" clip-path="url(#p63722b4391)" style="fill: #d62728; stroke: #000000; stroke-width: 1.5"/>
    <path d="M 1393.093435 1255.109337 
L 1429.722146 1255.109337 
L 1429.722146 1233.32965 
L 1393.093435 1233.32965 
z
" clip-path="url(#p63722b4391)" style="fill: #d62728; stroke: #000000; stroke-width: 1.5"/>
    <path d="M 753.528302 955.087705 
L 789.468145 955.087705 
L 789.468145 933.308017 
L 753.528302 933.308017 
z
" clip-path="url(#p63722b4391)" style="fill: #d62728; stroke: #000000; stroke-width: 1.5"/>
    <path d="M 1012.037644 776.523305 
L 1047.445261 776.523305 
L 1047.445261 754.743618 
L 1012.037644 754.743618 
z
" clip-path="url(#p63722b4391)" style="fill: #d62728; stroke: #000000; stroke-width: 1.5"/>
    <path d="M 616.282546 1068.072686 
L 652.173757 1068.072686 
L 652.173757 1046.292998 
L 616.282546 1046.292998 
z
" clip-path="url(#p63722b4391)" style="fill: #d62728; stroke: #000000; stroke-width: 1.5"/>
    <path d="M 1242.838496 544.849769 
L 1279.041817 544.849769 
L 1279.041817 523.070082 
L 1242.838496 523.070082 
z
" clip-path="url(#p63722b4391)" style="fill: #d62728; stroke: #000000; stroke-width: 1.5"/>
    <path d="M 723.556382 1425.374675 
L 762.55189 1425.374675 
L 762.55189 1403.594987 
L 723.556382 1403.594987 
z
" clip-path="url(#p63722b4391)" style="fill: #d62728; stroke: #000000; stroke-width: 1.5"/>
    <path d="M 1320.692937 622.77553 
L 1356.685711 622.77553 
L 1356.685711 600.995843 
L 1320.692937 600.995843 
z
" clip-path="url(#p63722b4391)" style="fill: #d62728; stroke: #000000; stroke-width: 1.5"/>
    <path d="M 1425.806055 1381.416394 
L 1461.784961 1381.416394 
L 1461.784961 1359.636707 
L 1425.806055 1359.636707 
z
" clip-path="url(#p63722b4391)" style="fill: #d62728; stroke: #000000; stroke-width: 1.5"/>
    <path d="M 1247.948785 1355.674697 
L 1279.357379 1355.674697 
L 1279.357379 1333.89501 
L 1247.948785 1333.89501 
z
" clip-path="url(#p63722b4391)" style="fill: #d62728; stroke: #000000; stroke-width: 1.5"/>
    <path d="M 1047.297987 1518.472312 
L 1080.205018 1518.472312 
L 1080.205018 1496.692625 
L 1047.297987 1496.692625 
z
" clip-path="url(#p63722b4391)" style="fill: #d62728; stroke: #000000; stroke-width: 1.5"/>
    <path d="M 1121.634887 1053.169104 
L 1156.124535 1053.169104 
L 1156.124535 1031.389417 
L 1121.634887 1031.389417 
z
" clip-path="url(#p63722b4391)" style="fill: #d62728; stroke: #000000; stroke-width: 1.5"/>
    <path d="M 1015.355776 1190.867741 
L 1052.106558 1190.867741 
L 1052.106558 1169.088054 
L 1015.355776 1169.088054 
z
" clip-path="url(#p63722b4391)" style="fill: #d62728; stroke: #000000; stroke-width: 1.5"/>
    <path d="M 666.996249 1318.372497 
L 704.083553 1318.372497 
L 704.083553 1296.59281 
L 666.996249 1296.59281 
z
" clip-path="url(#p63722b4391)" style="fill: #d62728; stroke: #000000; stroke-width: 1.5"/>
    <path d="M 1032.286689 722.482495 
L 1067.8654 722.482495 
L 1067.8654 700.702807 
L 1032.286689 700.702807 
z
" clip-path="url(#p63722b4391)" style="fill: #d62728; stroke: #000000; stroke-width: 1.5"/>
    <path d="M 1298.460341 1212.21492 
L 1333.477333 1212.21492 
L 1333.477333 1190.435232 
L 1298.460341 1190.435232 
z
" clip-path="url(#p63722b4391)" style="fill: #d62728; stroke: #000000; stroke-width: 1.5"/>
    <path d="M 1045.000395 1336.109314 
L 1079.031059 1336.109314 
L 1079.031059 1314.329627 
L 1045.000395 1314.329627 
z
" clip-path="url(#p63722b4391)" style="fill: #d62728; stroke: #000000; stroke-width: 1.5"/>
    <path d="M 1187.418405 971.359229 
L 1224.169186 971.359229 
L 1224.169186 949.579541 
L 1187.418405 949.579541 
z
" clip-path="url(#p63722b4391)" style="fill: #d62728; stroke: #000000; stroke-width: 1.5"/>
    <path d="M 1132.003645 834.154205 
L 1167.132551 834.154205 
L 1167.132551 812.374518 
L 1132.003645 812.374518 
z
" clip-path="url(#p63722b4391)" style="fill: #d62728; stroke: #000000; stroke-width: 1.5"/>
   </g>
   <g id="text_1">
    <g clip-path="url(#p63722b4391)">
     <!-- A_import -->
     <g transform="translate(1746.231173 1278.983961) scale(0.1 -0.1)">
      <defs>
       <path id="DejaVuSans-41" d="M 2188 4044 
L 1331 1722 
L 3047 1722 
L 2188 4044 
z
M 1831 4666 
L 2547 4666 
L 4325 0 
L 3669 0 
L 3244 1197 
L 1141 1197 
L 716 0 
L 50 0 
L 1831 4666 
z
" transform="scale(0.015625)"/>
       <path id="DejaVuSans-5f" d="M 3263 -1063 
L 3263 -1509 
L -63 -1509 
L -63 -1063 
L 3263 -1063 
z
" transform="scale(0.015625)"/>
       <path id="DejaVuSans-69" d="M 603 3500 
L 1178 3500 
L 1178 0 
L 603 0 
L 603 3500 
z
M 603 4863 
L 1178 4863 
L 1178 4134 
L 603 4134 
L 603 4863 
z
" transform="scale(0.015625)"/>
       <path id="DejaVuSans-6d" d="M 3328 2828 
Q 3544 3216 3844 3400 
Q 4144 3584 4550 3584 
Q 5097 3584 5394 3201 
Q 5691 2819 5691 2113 
L 5691 0 
L 5113 0 
L 5113 2094 
Q 5113 2597 4934 2840 
Q 4756 3084 4391 3084 
Q 3944 3084 3684 2787 
Q 3425 2491 3425 1978 
L 3425 0 
L 2847 0 
L 2847 2094 
Q 2847 2600 2669 2842 
Q 2491 3084 2119 3084 
Q 1678 3084 1418 2786 
Q 1159 2488 1159 1978 
L 1159 0 
L 581 0 
L 581 3500 
L 1159 3500 
L 1159 2956 
Q 1356 3278 1631 3431 
Q 1906 3584 2284 3584 
Q 2666 3584 2933 3390 
Q 3200 3197 3328 2828 
z
" transform="scale(0.015625)"/>
       <path id="DejaVuSans-70" d="M 1159 525 
L 1159 -1331 
L 581 -1331 
L 581 3500 
L 1159 3500 
L 1159 2969 
Q 1341 3281 1617 3432 
Q 1894 3584 2278 3584 
Q 2916 3584 3314 3078 
Q 3713 2572 3713 1747 
Q 3713 922 3314 415 
Q 2916 -91 2278 -91 
Q 1894 -91 1617 61 
Q 1341 213 1159 525 
z
M 3116 1747 
Q 3116 2381 2855 2742 
Q 2594 3103 2138 3103 
Q 1681 3103 1420 2742 
Q 1159 2381 1159 1747 
Q 1159 1113 1420 752 
Q 1681 391 2138 391 
Q 2594 391 2855 752 
Q 3116 1113 3116 1747 
z
" transform="scale(0.015625)"/>
       <path id="DejaVuSans-6f" d="M 1959 3097 
Q 1497 3097 1228 2736 
Q 959 2375 959 1747 
Q 959 1119 1226 758 
Q 1494 397 1959 397 
Q 2419 397 2687 759 
Q 2956 1122 2956 1747 
Q 2956 2369 2687 2733 
Q 2419 3097 1959 3097 
z
M 1959 3584 
Q 2709 3584 3137 3096 
Q 3566 2609 3566 1747 
Q 3566 888 3137 398 
Q 2709 -91 1959 -91 
Q 1206 -91 779 398 
Q 353 888 353 1747 
Q 353 2609 779 3096 
Q 1206 3584 1959 3584 
z
" transform="scale(0.015625)"/>
       <path id="DejaVuSans-72" d="M 2631 2963 
Q 2534 3019 2420 3045 
Q 2306 3072 2169 3072 
Q 1681 3072 1420 2755 
Q 1159 2438 1159 1844 
L 1159 0 
L 581 0 
L 581 3500 
L 1159 3500 
L 1159 2956 
Q 1341 3275 1631 3429 
Q 1922 3584 2338 3584 
Q 2397 3584 2469 3576 
Q 2541 3569 2628 3553 
L 2631 2963 
z
" transform="scale(0.015625)"/>
       <path id="DejaVuSans-74" d="M 1172 4494 
L 1172 3500 
L 2356 3500 
L 2356 3053 
L 1172 3053 
L 1172 1153 
Q 1172 725 1289 603 
Q 1406 481 1766 481 
L 2356 481 
L 2356 0 
L 1766 0 
Q 1100 0 847 248 
Q 594 497 594 1153 
L 594 3053 
L 172 3053 
L 172 3500 
L 594 3500 
L 594 4494 
L 1172 4494 
z
" transform="scale(0.015625)"/>
      </defs>
      <use xlink:href="#DejaVuSans-41"/>
      <use xlink:href="#DejaVuSans-5f" transform="translate(68.408203 0)"/>
      <use xlink:href="#DejaVuSans-69" transform="translate(118.408203 0)"/>
      <use xlink:href="#DejaVuSans-6d" transform="translate(146.191406 0)"/>
      <use xlink:href="#DejaVuSans-70" transform="translate(243.603516 0)"/>
      <use xlink:href="#DejaVuSans-6f" transform="translate(307.080078 0)"/>
      <use xlink:href="#DejaVuSans-72" transform="translate(368.261719 0)"/>
      <use xlink:href="#DejaVuSans-74" transform="translate(409.375 0)"/>
     </g>
    </g>
   </g>
   <g id="text_2">
    <g clip-path="url(#p63722b4391)">
     <!-- B_import -->
     <g transform="translate(1301.889647 1044.392569) scale(0.1 -0.1)">
      <defs>
       <path id="DejaVuSans-42" d="M 1259 2228 
L 1259 519 
L 2272 519 
Q 2781 519 3026 730 
Q 3272 941 3272 1375 
Q 3272 1813 3026 2020 
Q 2781 2228 2272 2228 
L 1259 2228 
z
M 1259 4147 
L 1259 2741 
L 2194 2741 
Q 2656 2741 2882 2914 
Q 3109 3088 3109 3444 
Q 3109 3797 2882 3972 
Q 2656 4147 2194 4147 
L 1259 4147 
z
M 628 4666 
L 2241 4666 
Q 2963 4666 3353 4366 
Q 3744 4066 3744 3513 
Q 3744 3084 3544 2831 
Q 3344 2578 2956 2516 
Q 3422 2416 3680 2098 
Q 3938 1781 3938 1306 
Q 3938 681 3513 340 
Q 3088 0 2303 0 
L 628 0 
L 628 4666 
z
" transform="scale(0.015625)"/>
      </defs>
      <use xlink:href="#DejaVuSans-42"/>
      <use xlink:href="#DejaVuSans-5f" transform="translate(68.603516 0)"/>
      <use xlink:href="#DejaVuSans-69" transform="translate(118.603516 0)"/>
      <use xlink:href="#DejaVuSans-6d" transform="translate(146.386719 0)"/>
      <use xlink:href="#DejaVuSans-70" transform="translate(243.798828 0)"/>
      <use xlink:href="#DejaVuSans-6f" transform="translate(307.275391 0)"/>
      <use xlink:href="#DejaVuSans-72" transform="translate(368.457031 0)"/>
      <use xlink:href="#DejaVuSans-74" transform="translate(409.570312 0)"/>
     </g>
    </g>
   </g>
   <g id="text_3">
    <g clip-path="url(#p63722b4391)">
     <!-- C_import -->
     <g transform="translate(1310.634617 1715.271108) scale(0.1 -0.1)">
      <defs>
       <path id="DejaVuSans-43" d="M 4122 4306 
L 4122 3641 
Q 3803 3938 3442 4084 
Q 3081 4231 2675 4231 
Q 1875 4231 1450 3742 
Q 1025 3253 1025 2328 
Q 1025 1406 1450 917 
Q 1875 428 2675 428 
Q 3081 428 3442 575 
Q 3803 722 4122 1019 
L 4122 359 
Q 3791 134 3420 21 
Q 3050 -91 2638 -91 
Q 1578 -91 968 557 
Q 359 1206 359 2328 
Q 359 3453 968 4101 
Q 1578 4750 2638 4750 
Q 3056 4750 3426 4639 
Q 3797 4528 4122 4306 
z
" transform="scale(0.015625)"/>
      </defs>
      <use xlink:href="#DejaVuSans-43"/>
      <use xlink:href="#DejaVuSans-5f" transform="translate(69.824219 0)"/>
      <use xlink:href="#DejaVuSans-69" transform="translate(119.824219 0)"/>
      <use xlink:href="#DejaVuSans-6d" transform="translate(147.607422 0)"/>
      <use xlink:href="#DejaVuSans-70" transform="translate(245.019531 0)"/>
      <use xlink:href="#DejaVuSans-6f" transform="translate(308.496094 0)"/>
      <use xlink:href="#DejaVuSans-72" transform="translate(369.677734 0)"/>
      <use xlink:href="#DejaVuSans-74" transform="translate(410.791016 0)"/>
     </g>
    </g>
   </g>
   <g id="text_4">
    <g clip-path="url(#p63722b4391)">
     <!-- D_import -->
     <g transform="translate(1080.927848 1615.82513) scale(0.1 -0.1)">
      <defs>
       <path id="DejaVuSans-44" d="M 1259 4147 
L 1259 519 
L 2022 519 
Q 2988 519 3436 956 
Q 3884 1394 3884 2338 
Q 3884 3275 3436 3711 
Q 2988 4147 2022 4147 
L 1259 4147 
z
M 628 4666 
L 1925 4666 
Q 3281 4666 3915 4102 
Q 4550 3538 4550 2338 
Q 4550 1131 3912 565 
Q 3275 0 1925 0 
L 628 0 
L 628 4666 
z
" transform="scale(0.015625)"/>
      </defs>
      <use xlink:href="#DejaVuSans-44"/>
      <use xlink:href="#DejaVuSans-5f" transform="translate(77.001953 0)"/>
      <use xlink:href="#DejaVuSans-69" transform="translate(127.001953 0)"/>
      <use xlink:href="#DejaVuSans-6d" transform="translate(154.785156 0)"/>
      <use xlink:href="#DejaVuSans-70" transform="translate(252.197266 0)"/>
      <use xlink:href="#DejaVuSans-6f" transform="translate(315.673828 0)"/>
      <use xlink:href="#DejaVuSans-72" transform="translate(376.855469 0)"/>
      <use xlink:href="#DejaVuSans-74" transform="translate(417.96875 0)"/>
     </g>
    </g>
   </g>
   <g id="text_5">
    <g clip-path="url(#p63722b4391)">
     <!-- E_import -->
     <g transform="translate(633.535751 1750.811617) scale(0.1 -0.1)">
      <defs>
       <path id="DejaVuSans-45" d="M 628 4666 
L 3578 4666 
L 3578 4134 
L 1259 4134 
L 1259 2753 
L 3481 2753 
L 3481 2222 
L 1259 2222 
L 1259 531 
L 3634 531 
L 3634 0 
L 628 0 
L 628 4666 
z
" transform="scale(0.015625)"/>
      </defs>
      <use xlink:href="#DejaVuSans-45"/>
      <use xlink:href="#DejaVuSans-5f" transform="translate(63.183594 0)"/>
      <use xlink:href="#DejaVuSans-69" transform="translate(113.183594 0)"/>
      <use xlink:href="#DejaVuSans-6d" transform="translate(140.966797 0)"/>
      <use xlink:href="#DejaVuSans-70" transform="translate(238.378906 0)"/>
      <use xlink:href="#DejaVuSans-6f" transform="translate(301.855469 0)"/>
      <use xlink:href="#DejaVuSans-72" transform="translate(363.037109 0)"/>
      <use xlink:href="#DejaVuSans-74" transform="translate(404.150391 0)"/>
     </g>
    </g>
   </g>
   <g id="text_6">
    <g clip-path="url(#p63722b4391)">
     <!-- F_import -->
     <g transform="translate(423.455546 1041.348377) scale(0.1 -0.1)">
      <defs>
       <path id="DejaVuSans-46" d="M 628 4666 
L 3309 4666 
L 3309 4134 
L 1259 4134 
L 1259 2759 
L 3109 2759 
L 3109 2228 
L 1259 2228 
L 1259 0 
L 628 0 
L 628 4666 
z
" transform="scale(0.015625)"/>
      </defs>
      <use xlink:href="#DejaVuSans-46"/>
      <use xlink:href="#DejaVuSans-5f" transform="translate(57.519531 0)"/>
      <use xlink:href="#DejaVuSans-69" transform="translate(107.519531 0)"/>
      <use xlink:href="#DejaVuSans-6d" transform="translate(135.302734 0)"/>
      <use xlink:href="#DejaVuSans-70" transform="translate(232.714844 0)"/>
      <use xlink:href="#DejaVuSans-6f" transform="translate(296.191406 0)"/>
      <use xlink:href="#DejaVuSans-72" transform="translate(357.373047 0)"/>
      <use xlink:href="#DejaVuSans-74" transform="translate(398.486328 0)"/>
     </g>
    </g>
   </g>
   <g id="text_7">
    <g clip-path="url(#p63722b4391)">
     <!-- G_import -->
     <g transform="translate(1492.691939 1207.824745) scale(0.1 -0.1)">
      <defs>
       <path id="DejaVuSans-47" d="M 3809 666 
L 3809 1919 
L 2778 1919 
L 2778 2438 
L 4434 2438 
L 4434 434 
Q 4069 175 3628 42 
Q 3188 -91 2688 -91 
Q 1594 -91 976 548 
Q 359 1188 359 2328 
Q 359 3472 976 4111 
Q 1594 4750 2688 4750 
Q 3144 4750 3555 4637 
Q 3966 4525 4313 4306 
L 4313 3634 
Q 3963 3931 3569 4081 
Q 3175 4231 2741 4231 
Q 1884 4231 1454 3753 
Q 1025 3275 1025 2328 
Q 1025 1384 1454 906 
Q 1884 428 2741 428 
Q 3075 428 3337 486 
Q 3600 544 3809 666 
z
" transform="scale(0.015625)"/>
      </defs>
      <use xlink:href="#DejaVuSans-47"/>
      <use xlink:href="#DejaVuSans-5f" transform="translate(77.490234 0)"/>
      <use xlink:href="#DejaVuSans-69" transform="translate(127.490234 0)"/>
      <use xlink:href="#DejaVuSans-6d" transform="translate(155.273438 0)"/>
      <use xlink:href="#DejaVuSans-70" transform="translate(252.685547 0)"/>
      <use xlink:href="#DejaVuSans-6f" transform="translate(316.162109 0)"/>
      <use xlink:href="#DejaVuSans-72" transform="translate(377.34375 0)"/>
      <use xlink:href="#DejaVuSans-74" transform="translate(418.457031 0)"/>
     </g>
    </g>
   </g>
   <g id="text_8">
    <g clip-path="url(#p63722b4391)">
     <!-- N_exp -->
     <g transform="translate(769.949131 858.433474) scale(0.1 -0.1)">
      <defs>
       <path id="DejaVuSans-4e" d="M 628 4666 
L 1478 4666 
L 3547 763 
L 3547 4666 
L 4159 4666 
L 4159 0 
L 3309 0 
L 1241 3903 
L 1241 0 
L 628 0 
L 628 4666 
z
" transform="scale(0.015625)"/>
       <path id="DejaVuSans-65" d="M 3597 1894 
L 3597 1613 
L 953 1613 
Q 991 1019 1311 708 
Q 1631 397 2203 397 
Q 2534 397 2845 478 
Q 3156 559 3463 722 
L 3463 178 
Q 3153 47 2828 -22 
Q 2503 -91 2169 -91 
Q 1331 -91 842 396 
Q 353 884 353 1716 
Q 353 2575 817 3079 
Q 1281 3584 2069 3584 
Q 2775 3584 3186 3129 
Q 3597 2675 3597 1894 
z
M 3022 2063 
Q 3016 2534 2758 2815 
Q 2500 3097 2075 3097 
Q 1594 3097 1305 2825 
Q 1016 2553 972 2059 
L 3022 2063 
z
" transform="scale(0.015625)"/>
       <path id="DejaVuSans-78" d="M 3513 3500 
L 2247 1797 
L 3578 0 
L 2900 0 
L 1881 1375 
L 863 0 
L 184 0 
L 1544 1831 
L 300 3500 
L 978 3500 
L 1906 2253 
L 2834 3500 
L 3513 3500 
z
" transform="scale(0.015625)"/>
      </defs>
      <use xlink:href="#DejaVuSans-4e"/>
      <use xlink:href="#DejaVuSans-5f" transform="translate(74.804688 0)"/>
      <use xlink:href="#DejaVuSans-65" transform="translate(124.804688 0)"/>
      <use xlink:href="#DejaVuSans-78" transform="translate(184.578125 0)"/>
      <use xlink:href="#DejaVuSans-70" transform="translate(243.757812 0)"/>
     </g>
    </g>
   </g>
   <g id="text_9">
    <g clip-path="url(#p63722b4391)">
     <!-- R_exp -->
     <g transform="translate(960.735667 658.13109) scale(0.1 -0.1)">
      <defs>
       <path id="DejaVuSans-52" d="M 2841 2188 
Q 3044 2119 3236 1894 
Q 3428 1669 3622 1275 
L 4263 0 
L 3584 0 
L 2988 1197 
Q 2756 1666 2539 1819 
Q 2322 1972 1947 1972 
L 1259 1972 
L 1259 0 
L 628 0 
L 628 4666 
L 2053 4666 
Q 2853 4666 3247 4331 
Q 3641 3997 3641 3322 
Q 3641 2881 3436 2590 
Q 3231 2300 2841 2188 
z
M 1259 4147 
L 1259 2491 
L 2053 2491 
Q 2509 2491 2742 2702 
Q 2975 2913 2975 3322 
Q 2975 3731 2742 3939 
Q 2509 4147 2053 4147 
L 1259 4147 
z
" transform="scale(0.015625)"/>
      </defs>
      <use xlink:href="#DejaVuSans-52"/>
      <use xlink:href="#DejaVuSans-5f" transform="translate(69.482422 0)"/>
      <use xlink:href="#DejaVuSans-65" transform="translate(119.482422 0)"/>
      <use xlink:href="#DejaVuSans-78" transform="translate(179.255859 0)"/>
      <use xlink:href="#DejaVuSans-70" transform="translate(238.435547 0)"/>
     </g>
    </g>
   </g>
   <g id="text_10">
    <g clip-path="url(#p63722b4391)">
     <!-- U_exp -->
     <g transform="translate(554.807698 1125.8372) scale(0.1 -0.1)">
      <defs>
       <path id="DejaVuSans-55" d="M 556 4666 
L 1191 4666 
L 1191 1831 
Q 1191 1081 1462 751 
Q 1734 422 2344 422 
Q 2950 422 3222 751 
Q 3494 1081 3494 1831 
L 3494 4666 
L 4128 4666 
L 4128 1753 
Q 4128 841 3676 375 
Q 3225 -91 2344 -91 
Q 1459 -91 1007 375 
Q 556 841 556 1753 
L 556 4666 
z
" transform="scale(0.015625)"/>
      </defs>
      <use xlink:href="#DejaVuSans-55"/>
      <use xlink:href="#DejaVuSans-5f" transform="translate(73.193359 0)"/>
      <use xlink:href="#DejaVuSans-65" transform="translate(123.193359 0)"/>
      <use xlink:href="#DejaVuSans-78" transform="translate(182.966797 0)"/>
      <use xlink:href="#DejaVuSans-70" transform="translate(242.146484 0)"/>
     </g>
    </g>
   </g>
   <g id="text_11">
    <g clip-path="url(#p63722b4391)">
     <!-- V_exp -->
     <g transform="translate(1287.281717 435.889946) scale(0.1 -0.1)">
      <defs>
       <path id="DejaVuSans-56" d="M 1831 0 
L 50 4666 
L 709 4666 
L 2188 738 
L 3669 4666 
L 4325 4666 
L 2547 0 
L 1831 0 
z
" transform="scale(0.015625)"/>
      </defs>
      <use xlink:href="#DejaVuSans-56"/>
      <use xlink:href="#DejaVuSans-5f" transform="translate(68.408203 0)"/>
      <use xlink:href="#DejaVuSans-65" transform="translate(118.408203 0)"/>
      <use xlink:href="#DejaVuSans-78" transform="translate(178.181641 0)"/>
      <use xlink:href="#DejaVuSans-70" transform="translate(237.361328 0)"/>
     </g>
    </g>
   </g>
   <g id="text_12">
    <g clip-path="url(#p63722b4391)">
     <!-- W_exp -->
     <g transform="translate(615.62869 1450.572804) scale(0.1 -0.1)">
      <defs>
       <path id="DejaVuSans-57" d="M 213 4666 
L 850 4666 
L 1831 722 
L 2809 4666 
L 3519 4666 
L 4500 722 
L 5478 4666 
L 6119 4666 
L 4947 0 
L 4153 0 
L 3169 4050 
L 2175 0 
L 1381 0 
L 213 4666 
z
" transform="scale(0.015625)"/>
      </defs>
      <use xlink:href="#DejaVuSans-57"/>
      <use xlink:href="#DejaVuSans-5f" transform="translate(98.876953 0)"/>
      <use xlink:href="#DejaVuSans-65" transform="translate(148.876953 0)"/>
      <use xlink:href="#DejaVuSans-78" transform="translate(208.650391 0)"/>
      <use xlink:href="#DejaVuSans-70" transform="translate(267.830078 0)"/>
     </g>
    </g>
   </g>
   <g id="text_13">
    <g clip-path="url(#p63722b4391)">
     <!-- X_exp -->
     <g transform="translate(1430.15616 584.903336) scale(0.1 -0.1)">
      <defs>
       <path id="DejaVuSans-58" d="M 403 4666 
L 1081 4666 
L 2241 2931 
L 3406 4666 
L 4084 4666 
L 2584 2425 
L 4184 0 
L 3506 0 
L 2194 1984 
L 872 0 
L 191 0 
L 1856 2491 
L 403 4666 
z
" transform="scale(0.015625)"/>
      </defs>
      <use xlink:href="#DejaVuSans-58"/>
      <use xlink:href="#DejaVuSans-5f" transform="translate(68.505859 0)"/>
      <use xlink:href="#DejaVuSans-65" transform="translate(118.505859 0)"/>
      <use xlink:href="#DejaVuSans-78" transform="translate(178.279297 0)"/>
      <use xlink:href="#DejaVuSans-70" transform="translate(237.458984 0)"/>
     </g>
    </g>
   </g>
   <g id="text_14">
    <g clip-path="url(#p63722b4391)">
     <!-- R_A_B__G_H -->
     <g transform="translate(1485.545476 1257.919994) scale(0.1 -0.1)">
      <defs>
       <path id="DejaVuSans-48" d="M 628 4666 
L 1259 4666 
L 1259 2753 
L 3553 2753 
L 3553 4666 
L 4184 4666 
L 4184 0 
L 3553 0 
L 3553 2222 
L 1259 2222 
L 1259 0 
L 628 0 
L 628 4666 
z
" transform="scale(0.015625)"/>
      </defs>
      <use xlink:href="#DejaVuSans-52"/>
      <use xlink:href="#DejaVuSans-5f" transform="translate(69.482422 0)"/>
      <use xlink:href="#DejaVuSans-41" transform="translate(119.482422 0)"/>
      <use xlink:href="#DejaVuSans-5f" transform="translate(187.890625 0)"/>
      <use xlink:href="#DejaVuSans-42" transform="translate(237.890625 0)"/>
      <use xlink:href="#DejaVuSans-5f" transform="translate(306.494141 0)"/>
      <use xlink:href="#DejaVuSans-5f" transform="translate(356.494141 0)"/>
      <use xlink:href="#DejaVuSans-47" transform="translate(406.494141 0)"/>
      <use xlink:href="#DejaVuSans-5f" transform="translate(483.984375 0)"/>
      <use xlink:href="#DejaVuSans-48" transform="translate(533.984375 0)"/>
     </g>
    </g>
   </g>
   <g id="text_15">
    <g clip-path="url(#p63722b4391)">
     <!-- R_C_H__I -->
     <g transform="translate(1317.161373 1466.970944) scale(0.1 -0.1)">
      <defs>
       <path id="DejaVuSans-49" d="M 628 4666 
L 1259 4666 
L 1259 0 
L 628 0 
L 628 4666 
z
" transform="scale(0.015625)"/>
      </defs>
      <use xlink:href="#DejaVuSans-52"/>
      <use xlink:href="#DejaVuSans-5f" transform="translate(69.482422 0)"/>
      <use xlink:href="#DejaVuSans-43" transform="translate(119.482422 0)"/>
      <use xlink:href="#DejaVuSans-5f" transform="translate(189.306641 0)"/>
      <use xlink:href="#DejaVuSans-48" transform="translate(239.306641 0)"/>
      <use xlink:href="#DejaVuSans-5f" transform="translate(314.501953 0)"/>
      <use xlink:href="#DejaVuSans-5f" transform="translate(364.501953 0)"/>
      <use xlink:href="#DejaVuSans-49" transform="translate(414.501953 0)"/>
     </g>
    </g>
   </g>
   <g id="text_16">
    <g clip-path="url(#p63722b4391)">
     <!-- R_C_D__J -->
     <g transform="translate(1142.139469 1611.777172) scale(0.1 -0.1)">
      <defs>
       <path id="DejaVuSans-4a" d="M 628 4666 
L 1259 4666 
L 1259 325 
Q 1259 -519 939 -900 
Q 619 -1281 -91 -1281 
L -331 -1281 
L -331 -750 
L -134 -750 
Q 284 -750 456 -515 
Q 628 -281 628 325 
L 628 4666 
z
" transform="scale(0.015625)"/>
      </defs>
      <use xlink:href="#DejaVuSans-52"/>
      <use xlink:href="#DejaVuSans-5f" transform="translate(69.482422 0)"/>
      <use xlink:href="#DejaVuSans-43" transform="translate(119.482422 0)"/>
      <use xlink:href="#DejaVuSans-5f" transform="translate(189.306641 0)"/>
      <use xlink:href="#DejaVuSans-44" transform="translate(239.306641 0)"/>
      <use xlink:href="#DejaVuSans-5f" transform="translate(316.308594 0)"/>
      <use xlink:href="#DejaVuSans-5f" transform="translate(366.308594 0)"/>
      <use xlink:href="#DejaVuSans-4a" transform="translate(416.308594 0)"/>
     </g>
    </g>
   </g>
   <g id="text_17">
    <g clip-path="url(#p63722b4391)">
     <!-- R_I__P -->
     <g transform="translate(1178.70036 1197.334003) scale(0.1 -0.1)">
      <defs>
       <path id="DejaVuSans-50" d="M 1259 4147 
L 1259 2394 
L 2053 2394 
Q 2494 2394 2734 2622 
Q 2975 2850 2975 3272 
Q 2975 3691 2734 3919 
Q 2494 4147 2053 4147 
L 1259 4147 
z
M 628 4666 
L 2053 4666 
Q 2838 4666 3239 4311 
Q 3641 3956 3641 3272 
Q 3641 2581 3239 2228 
Q 2838 1875 2053 1875 
L 1259 1875 
L 1259 0 
L 628 0 
L 628 4666 
z
" transform="scale(0.015625)"/>
      </defs>
      <use xlink:href="#DejaVuSans-52"/>
      <use xlink:href="#DejaVuSans-5f" transform="translate(69.482422 0)"/>
      <use xlink:href="#DejaVuSans-49" transform="translate(119.482422 0)"/>
      <use xlink:href="#DejaVuSans-5f" transform="translate(148.974609 0)"/>
      <use xlink:href="#DejaVuSans-5f" transform="translate(198.974609 0)"/>
      <use xlink:href="#DejaVuSans-50" transform="translate(248.974609 0)"/>
     </g>
    </g>
   </g>
   <g id="text_18">
    <g clip-path="url(#p63722b4391)">
     <!-- R_J__Q -->
     <g transform="translate(1006.164955 1359.953612) scale(0.1 -0.1)">
      <defs>
       <path id="DejaVuSans-51" d="M 2522 4238 
Q 1834 4238 1429 3725 
Q 1025 3213 1025 2328 
Q 1025 1447 1429 934 
Q 1834 422 2522 422 
Q 3209 422 3611 934 
Q 4013 1447 4013 2328 
Q 4013 3213 3611 3725 
Q 3209 4238 2522 4238 
z
M 3406 84 
L 4238 -825 
L 3475 -825 
L 2784 -78 
Q 2681 -84 2626 -87 
Q 2572 -91 2522 -91 
Q 1538 -91 948 567 
Q 359 1225 359 2328 
Q 359 3434 948 4092 
Q 1538 4750 2522 4750 
Q 3503 4750 4090 4092 
Q 4678 3434 4678 2328 
Q 4678 1516 4351 937 
Q 4025 359 3406 84 
z
" transform="scale(0.015625)"/>
      </defs>
      <use xlink:href="#DejaVuSans-52"/>
      <use xlink:href="#DejaVuSans-5f" transform="translate(69.482422 0)"/>
      <use xlink:href="#DejaVuSans-4a" transform="translate(119.482422 0)"/>
      <use xlink:href="#DejaVuSans-5f" transform="translate(148.974609 0)"/>
      <use xlink:href="#DejaVuSans-5f" transform="translate(198.974609 0)"/>
      <use xlink:href="#DejaVuSans-51" transform="translate(248.974609 0)"/>
     </g>
    </g>
   </g>
   <g id="text_19">
    <g clip-path="url(#p63722b4391)">
     <!-- R_E__M -->
     <g transform="translate(663.123024 1492.232516) scale(0.1 -0.1)">
      <defs>
       <path id="DejaVuSans-4d" d="M 628 4666 
L 1569 4666 
L 2759 1491 
L 3956 4666 
L 4897 4666 
L 4897 0 
L 4281 0 
L 4281 4097 
L 3078 897 
L 2444 897 
L 1241 4097 
L 1241 0 
L 628 0 
L 628 4666 
z
" transform="scale(0.015625)"/>
      </defs>
      <use xlink:href="#DejaVuSans-52"/>
      <use xlink:href="#DejaVuSans-5f" transform="translate(69.482422 0)"/>
      <use xlink:href="#DejaVuSans-45" transform="translate(119.482422 0)"/>
      <use xlink:href="#DejaVuSans-5f" transform="translate(182.666016 0)"/>
      <use xlink:href="#DejaVuSans-5f" transform="translate(232.666016 0)"/>
      <use xlink:href="#DejaVuSans-4d" transform="translate(282.666016 0)"/>
     </g>
    </g>
   </g>
   <g id="text_20">
    <g clip-path="url(#p63722b4391)">
     <!-- R_F_M__N -->
     <g transform="translate(660.73112 1117.738576) scale(0.1 -0.1)">
      <use xlink:href="#DejaVuSans-52"/>
      <use xlink:href="#DejaVuSans-5f" transform="translate(69.482422 0)"/>
      <use xlink:href="#DejaVuSans-46" transform="translate(119.482422 0)"/>
      <use xlink:href="#DejaVuSans-5f" transform="translate(177.001953 0)"/>
      <use xlink:href="#DejaVuSans-4d" transform="translate(227.001953 0)"/>
      <use xlink:href="#DejaVuSans-5f" transform="translate(313.28125 0)"/>
      <use xlink:href="#DejaVuSans-5f" transform="translate(363.28125 0)"/>
      <use xlink:href="#DejaVuSans-4e" transform="translate(413.28125 0)"/>
     </g>
    </g>
   </g>
   <g id="text_21">
    <g clip-path="url(#p63722b4391)">
     <!-- R_N__T -->
     <g transform="translate(883.299043 814.038665) scale(0.1 -0.1)">
      <defs>
       <path id="DejaVuSans-54" d="M -19 4666 
L 3928 4666 
L 3928 4134 
L 2272 4134 
L 2272 0 
L 1638 0 
L 1638 4134 
L -19 4134 
L -19 4666 
z
" transform="scale(0.015625)"/>
      </defs>
      <use xlink:href="#DejaVuSans-52"/>
      <use xlink:href="#DejaVuSans-5f" transform="translate(69.482422 0)"/>
      <use xlink:href="#DejaVuSans-4e" transform="translate(119.482422 0)"/>
      <use xlink:href="#DejaVuSans-5f" transform="translate(194.287109 0)"/>
      <use xlink:href="#DejaVuSans-5f" transform="translate(244.287109 0)"/>
      <use xlink:href="#DejaVuSans-54" transform="translate(294.287109 0)"/>
     </g>
    </g>
   </g>
   <g id="text_22">
    <g clip-path="url(#p63722b4391)">
     <!-- R_N__U -->
     <g transform="translate(664.437056 978.675857) scale(0.1 -0.1)">
      <use xlink:href="#DejaVuSans-52"/>
      <use xlink:href="#DejaVuSans-5f" transform="translate(69.482422 0)"/>
      <use xlink:href="#DejaVuSans-4e" transform="translate(119.482422 0)"/>
      <use xlink:href="#DejaVuSans-5f" transform="translate(194.287109 0)"/>
      <use xlink:href="#DejaVuSans-5f" transform="translate(244.287109 0)"/>
      <use xlink:href="#DejaVuSans-55" transform="translate(294.287109 0)"/>
     </g>
    </g>
   </g>
   <g id="text_23">
    <g clip-path="url(#p63722b4391)">
     <!-- R_H__K -->
     <g transform="translate(1377.132307 1300.815627) scale(0.1 -0.1)">
      <defs>
       <path id="DejaVuSans-4b" d="M 628 4666 
L 1259 4666 
L 1259 2694 
L 3353 4666 
L 4166 4666 
L 1850 2491 
L 4331 0 
L 3500 0 
L 1259 2247 
L 1259 0 
L 628 0 
L 628 4666 
z
" transform="scale(0.015625)"/>
      </defs>
      <use xlink:href="#DejaVuSans-52"/>
      <use xlink:href="#DejaVuSans-5f" transform="translate(69.482422 0)"/>
      <use xlink:href="#DejaVuSans-48" transform="translate(119.482422 0)"/>
      <use xlink:href="#DejaVuSans-5f" transform="translate(194.677734 0)"/>
      <use xlink:href="#DejaVuSans-5f" transform="translate(244.677734 0)"/>
      <use xlink:href="#DejaVuSans-4b" transform="translate(294.677734 0)"/>
     </g>
    </g>
   </g>
   <g id="text_24">
    <g clip-path="url(#p63722b4391)">
     <!-- R_G_K__L -->
     <g transform="translate(1221.406554 1276.048132) scale(0.1 -0.1)">
      <defs>
       <path id="DejaVuSans-4c" d="M 628 4666 
L 1259 4666 
L 1259 531 
L 3531 531 
L 3531 0 
L 628 0 
L 628 4666 
z
" transform="scale(0.015625)"/>
      </defs>
      <use xlink:href="#DejaVuSans-52"/>
      <use xlink:href="#DejaVuSans-5f" transform="translate(69.482422 0)"/>
      <use xlink:href="#DejaVuSans-47" transform="translate(119.482422 0)"/>
      <use xlink:href="#DejaVuSans-5f" transform="translate(196.972656 0)"/>
      <use xlink:href="#DejaVuSans-4b" transform="translate(246.972656 0)"/>
      <use xlink:href="#DejaVuSans-5f" transform="translate(312.548828 0)"/>
      <use xlink:href="#DejaVuSans-5f" transform="translate(362.548828 0)"/>
      <use xlink:href="#DejaVuSans-4c" transform="translate(412.548828 0)"/>
     </g>
    </g>
   </g>
   <g id="text_25">
    <g clip-path="url(#p63722b4391)">
     <!-- R_K__O -->
     <g transform="translate(1252.992966 1073.29594) scale(0.1 -0.1)">
      <defs>
       <path id="DejaVuSans-4f" d="M 2522 4238 
Q 1834 4238 1429 3725 
Q 1025 3213 1025 2328 
Q 1025 1447 1429 934 
Q 1834 422 2522 422 
Q 3209 422 3611 934 
Q 4013 1447 4013 2328 
Q 4013 3213 3611 3725 
Q 3209 4238 2522 4238 
z
M 2522 4750 
Q 3503 4750 4090 4092 
Q 4678 3434 4678 2328 
Q 4678 1225 4090 567 
Q 3503 -91 2522 -91 
Q 1538 -91 948 565 
Q 359 1222 359 2328 
Q 359 3434 948 4092 
Q 1538 4750 2522 4750 
z
" transform="scale(0.015625)"/>
      </defs>
      <use xlink:href="#DejaVuSans-52"/>
      <use xlink:href="#DejaVuSans-5f" transform="translate(69.482422 0)"/>
      <use xlink:href="#DejaVuSans-4b" transform="translate(119.482422 0)"/>
      <use xlink:href="#DejaVuSans-5f" transform="translate(185.058594 0)"/>
      <use xlink:href="#DejaVuSans-5f" transform="translate(235.058594 0)"/>
      <use xlink:href="#DejaVuSans-4f" transform="translate(285.058594 0)"/>
     </g>
    </g>
   </g>
   <g id="text_26">
    <g clip-path="url(#p63722b4391)">
     <!-- R_L__W -->
     <g transform="translate(870.352083 1376.01526) scale(0.1 -0.1)">
      <use xlink:href="#DejaVuSans-52"/>
      <use xlink:href="#DejaVuSans-5f" transform="translate(69.482422 0)"/>
      <use xlink:href="#DejaVuSans-4c" transform="translate(119.482422 0)"/>
      <use xlink:href="#DejaVuSans-5f" transform="translate(175.195312 0)"/>
      <use xlink:href="#DejaVuSans-5f" transform="translate(225.195312 0)"/>
      <use xlink:href="#DejaVuSans-57" transform="translate(275.195312 0)"/>
     </g>
    </g>
   </g>
   <g id="text_27">
    <g clip-path="url(#p63722b4391)">
     <!-- R_O_P__R -->
     <g transform="translate(1083.512698 902.593067) scale(0.1 -0.1)">
      <use xlink:href="#DejaVuSans-52"/>
      <use xlink:href="#DejaVuSans-5f" transform="translate(69.482422 0)"/>
      <use xlink:href="#DejaVuSans-4f" transform="translate(119.482422 0)"/>
      <use xlink:href="#DejaVuSans-5f" transform="translate(198.193359 0)"/>
      <use xlink:href="#DejaVuSans-50" transform="translate(248.193359 0)"/>
      <use xlink:href="#DejaVuSans-5f" transform="translate(308.496094 0)"/>
      <use xlink:href="#DejaVuSans-5f" transform="translate(358.496094 0)"/>
      <use xlink:href="#DejaVuSans-52" transform="translate(408.496094 0)"/>
     </g>
    </g>
   </g>
   <g id="text_28">
    <g clip-path="url(#p63722b4391)">
     <!-- R_P_Q__S -->
     <g transform="translate(1063.137416 1002.278846) scale(0.1 -0.1)">
      <defs>
       <path id="DejaVuSans-53" d="M 3425 4513 
L 3425 3897 
Q 3066 4069 2747 4153 
Q 2428 4238 2131 4238 
Q 1616 4238 1336 4038 
Q 1056 3838 1056 3469 
Q 1056 3159 1242 3001 
Q 1428 2844 1947 2747 
L 2328 2669 
Q 3034 2534 3370 2195 
Q 3706 1856 3706 1288 
Q 3706 609 3251 259 
Q 2797 -91 1919 -91 
Q 1588 -91 1214 -16 
Q 841 59 441 206 
L 441 856 
Q 825 641 1194 531 
Q 1563 422 1919 422 
Q 2459 422 2753 634 
Q 3047 847 3047 1241 
Q 3047 1584 2836 1778 
Q 2625 1972 2144 2069 
L 1759 2144 
Q 1053 2284 737 2584 
Q 422 2884 422 3419 
Q 422 4038 858 4394 
Q 1294 4750 2059 4750 
Q 2388 4750 2728 4690 
Q 3069 4631 3425 4513 
z
" transform="scale(0.015625)"/>
      </defs>
      <use xlink:href="#DejaVuSans-52"/>
      <use xlink:href="#DejaVuSans-5f" transform="translate(69.482422 0)"/>
      <use xlink:href="#DejaVuSans-50" transform="translate(119.482422 0)"/>
      <use xlink:href="#DejaVuSans-5f" transform="translate(179.785156 0)"/>
      <use xlink:href="#DejaVuSans-51" transform="translate(229.785156 0)"/>
      <use xlink:href="#DejaVuSans-5f" transform="translate(308.496094 0)"/>
      <use xlink:href="#DejaVuSans-5f" transform="translate(358.496094 0)"/>
      <use xlink:href="#DejaVuSans-53" transform="translate(408.496094 0)"/>
     </g>
    </g>
   </g>
   <g id="text_29">
    <g clip-path="url(#p63722b4391)">
     <!-- R_S_T__V_X -->
     <g transform="translate(1175.30794 669.810493) scale(0.1 -0.1)">
      <use xlink:href="#DejaVuSans-52"/>
      <use xlink:href="#DejaVuSans-5f" transform="translate(69.482422 0)"/>
      <use xlink:href="#DejaVuSans-53" transform="translate(119.482422 0)"/>
      <use xlink:href="#DejaVuSans-5f" transform="translate(182.958984 0)"/>
      <use xlink:href="#DejaVuSans-54" transform="translate(232.958984 0)"/>
      <use xlink:href="#DejaVuSans-5f" transform="translate(294.042969 0)"/>
      <use xlink:href="#DejaVuSans-5f" transform="translate(344.042969 0)"/>
      <use xlink:href="#DejaVuSans-56" transform="translate(394.042969 0)"/>
      <use xlink:href="#DejaVuSans-5f" transform="translate(462.451172 0)"/>
      <use xlink:href="#DejaVuSans-58" transform="translate(512.451172 0)"/>
     </g>
    </g>
   </g>
   <g id="text_30">
    <g clip-path="url(#p63722b4391)">
     <!-- A_C -->
     <g transform="translate(1652.548259 1269.242931) scale(0.1 -0.1)">
      <use xlink:href="#DejaVuSans-41"/>
      <use xlink:href="#DejaVuSans-5f" transform="translate(68.408203 0)"/>
      <use xlink:href="#DejaVuSans-43" transform="translate(118.408203 0)"/>
     </g>
    </g>
   </g>
   <g id="text_31">
    <g clip-path="url(#p63722b4391)">
     <!-- B_C -->
     <g transform="translate(1437.558205 1128.072671) scale(0.1 -0.1)">
      <use xlink:href="#DejaVuSans-42"/>
      <use xlink:href="#DejaVuSans-5f" transform="translate(68.603516 0)"/>
      <use xlink:href="#DejaVuSans-43" transform="translate(118.603516 0)"/>
     </g>
    </g>
   </g>
   <g id="text_32">
    <g clip-path="url(#p63722b4391)">
     <!-- C_C -->
     <g transform="translate(1278.357238 1609.59977) scale(0.1 -0.1)">
      <use xlink:href="#DejaVuSans-43"/>
      <use xlink:href="#DejaVuSans-5f" transform="translate(69.824219 0)"/>
      <use xlink:href="#DejaVuSans-43" transform="translate(119.824219 0)"/>
     </g>
    </g>
   </g>
   <g id="text_33">
    <g clip-path="url(#p63722b4391)">
     <!-- D_C -->
     <g transform="translate(1122.008498 1689.134805) scale(0.1 -0.1)">
      <use xlink:href="#DejaVuSans-44"/>
      <use xlink:href="#DejaVuSans-5f" transform="translate(77.001953 0)"/>
      <use xlink:href="#DejaVuSans-43" transform="translate(127.001953 0)"/>
     </g>
    </g>
   </g>
   <g id="text_34">
    <g clip-path="url(#p63722b4391)">
     <!-- E_C -->
     <g transform="translate(664.709275 1642.714455) scale(0.1 -0.1)">
      <use xlink:href="#DejaVuSans-45"/>
      <use xlink:href="#DejaVuSans-5f" transform="translate(63.183594 0)"/>
      <use xlink:href="#DejaVuSans-43" transform="translate(113.183594 0)"/>
     </g>
    </g>
   </g>
   <g id="text_35">
    <g clip-path="url(#p63722b4391)">
     <!-- F_C -->
     <g transform="translate(536.986271 1071.929824) scale(0.1 -0.1)">
      <use xlink:href="#DejaVuSans-46"/>
      <use xlink:href="#DejaVuSans-5f" transform="translate(57.519531 0)"/>
      <use xlink:href="#DejaVuSans-43" transform="translate(107.519531 0)"/>
     </g>
    </g>
   </g>
   <g id="text_36">
    <g clip-path="url(#p63722b4391)">
     <!-- G_C -->
     <g transform="translate(1401.542166 1246.751525) scale(0.1 -0.1)">
      <use xlink:href="#DejaVuSans-47"/>
      <use xlink:href="#DejaVuSans-5f" transform="translate(77.490234 0)"/>
      <use xlink:href="#DejaVuSans-43" transform="translate(127.490234 0)"/>
     </g>
    </g>
   </g>
   <g id="text_37">
    <g clip-path="url(#p63722b4391)">
     <!-- N_C -->
     <g transform="translate(761.766192 946.729892) scale(0.1 -0.1)">
      <use xlink:href="#DejaVuSans-4e"/>
      <use xlink:href="#DejaVuSans-5f" transform="translate(74.804688 0)"/>
      <use xlink:href="#DejaVuSans-43" transform="translate(124.804688 0)"/>
     </g>
    </g>
   </g>
   <g id="text_38">
    <g clip-path="url(#p63722b4391)">
     <!-- R_C -->
     <g transform="translate(1020.275828 768.165493) scale(0.1 -0.1)">
      <use xlink:href="#DejaVuSans-52"/>
      <use xlink:href="#DejaVuSans-5f" transform="translate(69.482422 0)"/>
      <use xlink:href="#DejaVuSans-43" transform="translate(119.482422 0)"/>
     </g>
    </g>
   </g>
   <g id="text_39">
    <g clip-path="url(#p63722b4391)">
     <!-- U_C -->
     <g transform="translate(624.57737 1059.714873) scale(0.1 -0.1)">
      <use xlink:href="#DejaVuSans-55"/>
      <use xlink:href="#DejaVuSans-5f" transform="translate(73.193359 0)"/>
      <use xlink:href="#DejaVuSans-43" transform="translate(123.193359 0)"/>
     </g>
    </g>
   </g>
   <g id="text_40">
    <g clip-path="url(#p63722b4391)">
     <!-- V_C -->
     <g transform="translate(1251.528438 536.491957) scale(0.1 -0.1)">
      <use xlink:href="#DejaVuSans-56"/>
      <use xlink:href="#DejaVuSans-5f" transform="translate(68.408203 0)"/>
      <use xlink:href="#DejaVuSans-43" transform="translate(118.408203 0)"/>
     </g>
    </g>
   </g>
   <g id="text_41">
    <g clip-path="url(#p63722b4391)">
     <!-- W_C -->
     <g transform="translate(732.11898 1417.016862) scale(0.1 -0.1)">
      <use xlink:href="#DejaVuSans-57"/>
      <use xlink:href="#DejaVuSans-5f" transform="translate(98.876953 0)"/>
      <use xlink:href="#DejaVuSans-43" transform="translate(148.876953 0)"/>
     </g>
    </g>
   </g>
   <g id="text_42">
    <g clip-path="url(#p63722b4391)">
     <!-- X_C -->
     <g transform="translate(1329.272918 614.417718) scale(0.1 -0.1)">
      <use xlink:href="#DejaVuSans-58"/>
      <use xlink:href="#DejaVuSans-5f" transform="translate(68.505859 0)"/>
      <use xlink:href="#DejaVuSans-43" transform="translate(118.505859 0)"/>
     </g>
    </g>
   </g>
   <g id="text_43">
    <g clip-path="url(#p63722b4391)">
     <!-- H_C -->
     <g transform="translate(1434.043946 1373.058582) scale(0.1 -0.1)">
      <use xlink:href="#DejaVuSans-48"/>
      <use xlink:href="#DejaVuSans-5f" transform="translate(75.195312 0)"/>
      <use xlink:href="#DejaVuSans-43" transform="translate(125.195312 0)"/>
     </g>
    </g>
   </g>
   <g id="text_44">
    <g clip-path="url(#p63722b4391)">
     <!-- I_C -->
     <g transform="translate(1256.186676 1347.316885) scale(0.1 -0.1)">
      <use xlink:href="#DejaVuSans-49"/>
      <use xlink:href="#DejaVuSans-5f" transform="translate(29.492188 0)"/>
      <use xlink:href="#DejaVuSans-43" transform="translate(79.492188 0)"/>
     </g>
    </g>
   </g>
   <g id="text_45">
    <g clip-path="url(#p63722b4391)">
     <!-- J_C -->
     <g transform="translate(1056.285096 1510.1145) scale(0.1 -0.1)">
      <use xlink:href="#DejaVuSans-4a"/>
      <use xlink:href="#DejaVuSans-5f" transform="translate(29.492188 0)"/>
      <use xlink:href="#DejaVuSans-43" transform="translate(79.492188 0)"/>
     </g>
    </g>
   </g>
   <g id="text_46">
    <g clip-path="url(#p63722b4391)">
     <!-- P_C -->
     <g transform="translate(1129.873461 1044.811292) scale(0.1 -0.1)">
      <use xlink:href="#DejaVuSans-50"/>
      <use xlink:href="#DejaVuSans-5f" transform="translate(60.302734 0)"/>
      <use xlink:href="#DejaVuSans-43" transform="translate(110.302734 0)"/>
     </g>
    </g>
   </g>
   <g id="text_47">
    <g clip-path="url(#p63722b4391)">
     <!-- Q_C -->
     <g transform="translate(1023.803823 1182.509929) scale(0.1 -0.1)">
      <use xlink:href="#DejaVuSans-51"/>
      <use xlink:href="#DejaVuSans-5f" transform="translate(78.710938 0)"/>
      <use xlink:href="#DejaVuSans-43" transform="translate(128.710938 0)"/>
     </g>
    </g>
   </g>
   <g id="text_48">
    <g clip-path="url(#p63722b4391)">
     <!-- M_C -->
     <g transform="translate(675.234432 1310.014685) scale(0.1 -0.1)">
      <use xlink:href="#DejaVuSans-4d"/>
      <use xlink:href="#DejaVuSans-5f" transform="translate(86.279297 0)"/>
      <use xlink:href="#DejaVuSans-43" transform="translate(136.279297 0)"/>
     </g>
    </g>
   </g>
   <g id="text_49">
    <g clip-path="url(#p63722b4391)">
     <!-- T_C -->
     <g transform="translate(1041.030732 714.124682) scale(0.1 -0.1)">
      <use xlink:href="#DejaVuSans-54"/>
      <use xlink:href="#DejaVuSans-5f" transform="translate(61.083984 0)"/>
      <use xlink:href="#DejaVuSans-43" transform="translate(111.083984 0)"/>
     </g>
    </g>
   </g>
   <g id="text_50">
    <g clip-path="url(#p63722b4391)">
     <!-- K_C -->
     <g transform="translate(1306.698524 1203.857107) scale(0.1 -0.1)">
      <use xlink:href="#DejaVuSans-4b"/>
      <use xlink:href="#DejaVuSans-5f" transform="translate(65.576172 0)"/>
      <use xlink:href="#DejaVuSans-43" transform="translate(115.576172 0)"/>
     </g>
    </g>
   </g>
   <g id="text_51">
    <g clip-path="url(#p63722b4391)">
     <!-- L_C -->
     <g transform="translate(1053.238383 1327.751502) scale(0.1 -0.1)">
      <use xlink:href="#DejaVuSans-4c"/>
      <use xlink:href="#DejaVuSans-5f" transform="translate(55.712891 0)"/>
      <use xlink:href="#DejaVuSans-43" transform="translate(105.712891 0)"/>
     </g>
    </g>
   </g>
   <g id="text_52">
    <g clip-path="url(#p63722b4391)">
     <!-- O_C -->
     <g transform="translate(1195.866452 963.001416) scale(0.1 -0.1)">
      <use xlink:href="#DejaVuSans-4f"/>
      <use xlink:href="#DejaVuSans-5f" transform="translate(78.710938 0)"/>
      <use xlink:href="#DejaVuSans-43" transform="translate(128.710938 0)"/>
     </g>
    </g>
   </g>
   <g id="text_53">
    <g clip-path="url(#p63722b4391)">
     <!-- S_C -->
     <g transform="translate(1140.402473 825.796393) scale(0.1 -0.1)">
      <use xlink:href="#DejaVuSans-53"/>
      <use xlink:href="#DejaVuSans-5f" transform="translate(63.476562 0)"/>
      <use xlink:href="#DejaVuSans-43" transform="translate(113.476562 0)"/>
     </g>
    </g>
   </g>
   <g id="EdgeCollection_1">
    <path d="M 1737.389767 1273.534743 
L 1680.061638 1268.348488 
" clip-path="url(#p63722b4391)" style="fill: none; stroke: #000000; stroke-width: 1.5"/>
    <path d="M 1340.402579 1052.750381 
L 1431.03547 1114.650796 
" clip-path="url(#p63722b4391)" style="fill: none; stroke: #000000; stroke-width: 1.5"/>
    <path d="M 1328.42506 1701.672671 
L 1292.511735 1617.957583 
" clip-path="url(#p63722b4391)" style="fill: none; stroke: #000000; stroke-width: 1.5"/>
    <path d="M 1107.983891 1624.182943 
L 1127.686209 1675.71293 
" clip-path="url(#p63722b4391)" style="fill: none; stroke: #000000; stroke-width: 1.5"/>
    <path d="M 657.549147 1737.213179 
L 672.02947 1651.072267 
" clip-path="url(#p63722b4391)" style="fill: none; stroke: #000000; stroke-width: 1.5"/>
    <path d="M 475.614237 1047.965677 
L 528.747794 1064.178336 
" clip-path="url(#p63722b4391)" style="fill: none; stroke: #000000; stroke-width: 1.5"/>
    <path d="M 1486.264073 1216.182557 
L 1429.722146 1237.35997 
" clip-path="url(#p63722b4391)" style="fill: none; stroke: #000000; stroke-width: 1.5"/>
    <path d="M 783.617962 866.776443 
L 773.202946 933.308017 
" clip-path="url(#p63722b4391)" style="fill: none; stroke: #000000; stroke-width: 1.5"/>
    <path d="M 981.138076 666.474059 
L 1024.403752 754.743618 
" clip-path="url(#p63722b4391)" style="fill: none; stroke: #000000; stroke-width: 1.5"/>
    <path d="M 580.581126 1112.531731 
L 623.673148 1068.072686 
" clip-path="url(#p63722b4391)" style="fill: none; stroke: #000000; stroke-width: 1.5"/>
    <path d="M 1297.869691 444.232914 
L 1265.422161 523.070082 
" clip-path="url(#p63722b4391)" style="fill: none; stroke: #000000; stroke-width: 1.5"/>
    <path d="M 657.320975 1440.474688 
L 723.556382 1420.395541 
" clip-path="url(#p63722b4391)" style="fill: none; stroke: #000000; stroke-width: 1.5"/>
    <path d="M 1421.579304 588.957001 
L 1356.685711 606.9076 
" clip-path="url(#p63722b4391)" style="fill: none; stroke: #000000; stroke-width: 1.5"/>
    <path d="M 1554.482195 1258.372966 
L 1643.858317 1265.306605 
" clip-path="url(#p63722b4391)" style="fill: none; stroke: #000000; stroke-width: 1.5"/>
    <path d="M 1510.215983 1244.498119 
L 1452.768948 1136.430484 
" clip-path="url(#p63722b4391)" style="fill: none; stroke: #000000; stroke-width: 1.5"/>
    <path d="M 1477.527507 1251.279501 
L 1429.722146 1246.17503 
" clip-path="url(#p63722b4391)" style="fill: none; stroke: #000000; stroke-width: 1.5"/>
    <path d="M 1509.175269 1266.277807 
L 1450.625091 1359.636707 
" clip-path="url(#p63722b4391)" style="fill: none; stroke: #000000; stroke-width: 1.5"/>
    <path d="M 1335.428394 1475.328756 
L 1291.773811 1596.177895 
" clip-path="url(#p63722b4391)" style="fill: none; stroke: #000000; stroke-width: 1.5"/>
    <path d="M 1351.471986 1453.549069 
L 1431.685677 1381.416394 
" clip-path="url(#p63722b4391)" style="fill: none; stroke: #000000; stroke-width: 1.5"/>
    <path d="M 1332.471791 1453.549069 
L 1270.543446 1355.674697 
" clip-path="url(#p63722b4391)" style="fill: none; stroke: #000000; stroke-width: 1.5"/>
    <path d="M 1194.738493 1608.71039 
L 1269.908996 1607.384108 
" clip-path="url(#p63722b4391)" style="fill: none; stroke: #000000; stroke-width: 1.5"/>
    <path d="M 1159.843693 1620.134984 
L 1136.436306 1675.71293 
" clip-path="url(#p63722b4391)" style="fill: none; stroke: #000000; stroke-width: 1.5"/>
    <path d="M 1153.645663 1598.355297 
L 1074.535934 1518.472312 
" clip-path="url(#p63722b4391)" style="fill: none; stroke: #000000; stroke-width: 1.5"/>
    <path d="M 1199.181097 1205.676971 
L 1258.605993 1333.89501 
" clip-path="url(#p63722b4391)" style="fill: none; stroke: #000000; stroke-width: 1.5"/>
    <path d="M 1190.242288 1184.028534 
L 1142.825625 1053.169104 
" clip-path="url(#p63722b4391)" style="fill: none; stroke: #000000; stroke-width: 1.5"/>
    <path d="M 1025.538084 1368.311424 
L 1060.763529 1496.692625 
" clip-path="url(#p63722b4391)" style="fill: none; stroke: #000000; stroke-width: 1.5"/>
    <path d="M 1023.2363 1346.531737 
L 1033.044978 1190.867741 
" clip-path="url(#p63722b4391)" style="fill: none; stroke: #000000; stroke-width: 1.5"/>
    <path d="M 681.015865 1500.575485 
L 674.418236 1629.29258 
" clip-path="url(#p63722b4391)" style="fill: none; stroke: #000000; stroke-width: 1.5"/>
    <path d="M 681.806397 1478.927048 
L 685.302756 1318.372497 
" clip-path="url(#p63722b4391)" style="fill: none; stroke: #000000; stroke-width: 1.5"/>
    <path d="M 652.713151 1104.581976 
L 562.959123 1075.029934 
" clip-path="url(#p63722b4391)" style="fill: none; stroke: #000000; stroke-width: 1.5"/>
    <path d="M 690.600607 1104.433107 
L 766.000292 955.087705 
" clip-path="url(#p63722b4391)" style="fill: none; stroke: #000000; stroke-width: 1.5"/>
    <path d="M 685.158562 1126.081545 
L 685.517009 1296.59281 
" clip-path="url(#p63722b4391)" style="fill: none; stroke: #000000; stroke-width: 1.5"/>
    <path d="M 890.494175 822.381634 
L 782.135947 933.308017 
" clip-path="url(#p63722b4391)" style="fill: none; stroke: #000000; stroke-width: 1.5"/>
    <path d="M 917.202457 800.733197 
L 1033.843559 722.482495 
" clip-path="url(#p63722b4391)" style="fill: none; stroke: #000000; stroke-width: 1.5"/>
    <path d="M 709.260006 966.652354 
L 753.528302 950.681104 
" clip-path="url(#p63722b4391)" style="fill: none; stroke: #000000; stroke-width: 1.5"/>
    <path d="M 676.318056 987.018826 
L 640.760738 1046.292998 
" clip-path="url(#p63722b4391)" style="fill: none; stroke: #000000; stroke-width: 1.5"/>
    <path d="M 1402.439972 1309.158596 
L 1436.456901 1359.636707 
" clip-path="url(#p63722b4391)" style="fill: none; stroke: #000000; stroke-width: 1.5"/>
    <path d="M 1386.311111 1287.510159 
L 1324.856876 1212.21492 
" clip-path="url(#p63722b4391)" style="fill: none; stroke: #000000; stroke-width: 1.5"/>
    <path d="M 1276.715246 1267.906888 
L 1393.093435 1247.440306 
" clip-path="url(#p63722b4391)" style="fill: none; stroke: #000000; stroke-width: 1.5"/>
    <path d="M 1255.552492 1262.626257 
L 1305.23618 1212.21492 
" clip-path="url(#p63722b4391)" style="fill: none; stroke: #000000; stroke-width: 1.5"/>
    <path d="M 1212.924425 1282.537234 
L 1079.031059 1320.406942 
" clip-path="url(#p63722b4391)" style="fill: none; stroke: #000000; stroke-width: 1.5"/>
    <path d="M 1274.917606 1081.653752 
L 1312.23326 1190.435232 
" clip-path="url(#p63722b4391)" style="fill: none; stroke: #000000; stroke-width: 1.5"/>
    <path d="M 1264.725972 1059.874065 
L 1212.249852 971.359229 
" clip-path="url(#p63722b4391)" style="fill: none; stroke: #000000; stroke-width: 1.5"/>
    <path d="M 862.00638 1381.120925 
L 762.55189 1409.016071 
" clip-path="url(#p63722b4391)" style="fill: none; stroke: #000000; stroke-width: 1.5"/>
    <path d="M 916.105599 1365.977977 
L 1045.000395 1329.97253 
" clip-path="url(#p63722b4391)" style="fill: none; stroke: #000000; stroke-width: 1.5"/>
    <path d="M 1101.11991 889.171192 
L 1036.033459 776.523305 
" clip-path="url(#p63722b4391)" style="fill: none; stroke: #000000; stroke-width: 1.5"/>
    <path d="M 1109.821449 910.95088 
L 1136.470179 1031.389417 
" clip-path="url(#p63722b4391)" style="fill: none; stroke: #000000; stroke-width: 1.5"/>
    <path d="M 1125.147268 910.95088 
L 1188.058444 949.579541 
" clip-path="url(#p63722b4391)" style="fill: none; stroke: #000000; stroke-width: 1.5"/>
    <path d="M 1100.087147 1010.636658 
L 1125.529199 1031.389417 
" clip-path="url(#p63722b4391)" style="fill: none; stroke: #000000; stroke-width: 1.5"/>
    <path d="M 1083.533961 1010.636658 
L 1036.93384 1169.088054 
" clip-path="url(#p63722b4391)" style="fill: none; stroke: #000000; stroke-width: 1.5"/>
    <path d="M 1090.613648 988.856971 
L 1145.691084 834.154205 
" clip-path="url(#p63722b4391)" style="fill: none; stroke: #000000; stroke-width: 1.5"/>
    <path d="M 1208.977587 656.388618 
L 1256.318166 544.849769 
" clip-path="url(#p63722b4391)" style="fill: none; stroke: #000000; stroke-width: 1.5"/>
    <path d="M 1230.764695 656.388618 
L 1320.692937 619.306532 
" clip-path="url(#p63722b4391)" style="fill: none; stroke: #000000; stroke-width: 1.5"/>
    <path d="M 1166.954912 678.021175 
L 1067.8654 706.48296 
" clip-path="url(#p63722b4391)" style="fill: none; stroke: #000000; stroke-width: 1.5"/>
    <path d="M 1200.530716 678.168305 
L 1153.392977 812.374518 
" clip-path="url(#p63722b4391)" style="fill: none; stroke: #000000; stroke-width: 1.5"/>
   </g>
   <g id="matplotlib.axis_1"/>
   <g id="matplotlib.axis_2"/>
  </g>
 </g>
 <defs>
  <clipPath id="p63722b4391">
   <rect x="270" y="259.2" width="1674" height="1663.2"/>
  </clipPath>
 </defs>
</svg>
